<svg width="11" height="22" viewBox="0 0 11 22" fill="none" xmlns="http://www.w3.org/2000/svg">
<path d="M6.83926 10V6.5L9.03926 4.29C9.83926 3.5 9.98926 2.24 9.42926 1.26C8.97926 0.47 8.15926 0 7.28926 0C7.07926 0 6.83926 0.03 6.64926 0.09C5.56926 0.38 4.83926 1.38 4.83926 2.5V5.74L1.69926 8.91C0.0392621 10.6 -0.460738 13.13 0.449262 15.34C1.21926 17.24 2.89926 18.55 4.83926 18.89V19.5C4.83926 19.76 4.60926 20 4.33926 20H2.83926V22H4.33926C5.68926 22 6.83926 20.89 6.83926 19.5V19C8.86926 19 10.9993 17.08 10.9993 14.25C10.9993 11.95 9.07926 10 6.83926 10ZM6.83926 2.5C6.83926 2.27 6.94926 2.09 7.15926 2.03C7.37926 1.97 7.60926 2.06 7.71926 2.26C7.83926 2.46 7.79926 2.71 7.63926 2.87L6.83926 3.73V2.5ZM4.83926 10.5C3.86926 11.14 3.13926 12.24 2.87926 13.26L4.83926 13.78V16.83C3.70926 16.53 2.73926 15.71 2.26926 14.57C1.67926 13.11 1.99926 11.45 3.09926 10.33L4.83926 8.5V10.5ZM6.83926 17V11.94C8.00926 11.94 9.01926 13.04 9.01926 14.25C9.01926 16 7.74926 17 6.83926 17Z" fill="#522F1B"/>
</svg>
