<svg fill="none" xmlns="http://www.w3.org/2000/svg">
    <symbol id="logo" viewBox="0 0 103 49">
        <path d="M46.0381 38.2158L36.0448 23.8116L45.0733 10.7859L46.0726 9.64871L45.9348 9.51087L46.0037 9.40749L43.7983 6.99532L37.9746 0.0344592L27.6367 10.3724L19.7109 0.413515L16.9886 3.37705L14.1629 0L12.0609 2.55002L9.57979 0.0689183L0 9.64871L14.4042 24.0529L0 38.4915L9.61425 48.1057L12.0954 45.6246L14.1974 48.1402L16.8852 45.0388L18.9528 47.7267L27.2921 37.3888L38.009 48.1057L46.0726 38.4226L45.9348 38.2847L46.0381 38.2158ZM36.1138 3.10137L29.8076 13.0258L28.188 10.9926L36.1138 3.10137ZM9.61425 46.8996L1.20609 38.4915L15.6102 24.0873L1.20609 9.68317L9.61425 1.27501L11.544 3.20475L6.13383 9.68317L18.1603 24.0873L6.13383 38.4915L11.544 44.9699L9.61425 46.8996ZM14.1974 46.8307L7.23653 38.4915L19.263 24.0873L7.23653 9.64871L14.1974 1.30947L16.4373 3.99732L11.6474 9.2352L23.6738 23.8461L11.1649 37.7678L16.3684 44.4185L14.1974 46.8307ZM27.8434 36.7685L29.4975 34.7354L36.8719 45.7969L27.8434 36.7685Z"
              fill="#3C3C3B"/>
        <path d="M59.374 37.4577V39.3874L57.9956 40.18H54.8943V39.1462H58.2024V37.6989H56.2727L54.8943 36.9063V35.0455L56.2727 34.2529H59.2362V35.2867H56.0314V36.6651H57.9612L59.374 37.4577Z"
              fill="#3C3C3B"/>
        <path d="M64.3707 35.2867V34.2529H65.4734V33.2536L66.645 32.5989V34.2529H68.0579V35.2867H66.645V39.1462H68.0579V40.18H66.8518L65.4734 39.3874V35.2523H64.3707V35.2867Z"
              fill="#3C3C3B"/>
        <path d="M74.4329 40.2489L73.0545 39.4563V37.5266L74.4329 36.734H76.6039V35.2867H73.6403V34.2529H76.3627L77.741 35.0455V40.2489H77.4309L76.5694 39.7665L75.7079 40.2489H74.4329ZM74.1917 37.7334V39.1807H76.5694V37.7334H74.1917Z"
              fill="#3C3C3B"/>
        <path d="M88.2857 34.9766V40.18H87.1141V35.2178H84.3573V40.18H83.1857V34.184H84.0472L84.3228 34.6665L85.1843 34.184H86.8729L88.2857 34.9766Z"
              fill="#3C3C3B"/>
        <path d="M95.1432 34.184H96.9351L97.7966 34.6664V31.4962H98.9682V40.2489H98.1067L97.8311 39.7665L96.9696 40.2489H95.1777L93.7993 39.4563V34.9766L95.1432 34.184ZM97.7966 39.2151V35.2178H94.9365V39.2151H97.7966Z"
              fill="#3C3C3B"/>
        <path d="M49.553 22.5711H43.4192V24.9833H49.553V22.5711Z" fill="#3C3C3B"/>
        <path d="M68.4369 29.7387H64.2329L60.1322 22.5367H57.7544V29.7387H53.9294V10.6481H64.2673L67.4376 12.4744V20.7103L64.2673 22.5367L68.4369 29.7387ZM57.7544 13.9217V19.263H63.6126V13.9217H57.7544Z"
              fill="#3C3C3B"/>
        <path d="M80.9114 10.6481L87.7344 29.7387H83.9783L82.531 25.638H75.3978L73.9505 29.7387H70.1944L77.0174 10.6481H80.9114ZM78.9127 15.438L76.5005 22.3299H81.3249L78.9472 15.438H78.9127Z"
              fill="#3C3C3B"/>
        <path d="M93.0412 29.7387V21.5718L86.9073 10.6481H91.0425L94.902 17.7812H94.9709L98.8649 10.6481H103L96.8317 21.6063V29.7387H93.0412Z"
              fill="#3C3C3B"/>
    </symbol>
    <symbol id="contentSectionNotificationIcon" viewBox="0 0 21 20">
        <path d="M20.4061 7.46411L17.3525 2.28205C16.5734 0.960629 15.1303 0.140137 13.5843 0.140137H7.41434C5.86923 0.140137 4.42531 0.960629 3.64621 2.28205L0.593488 7.46411C-0.197829 8.80626 -0.197829 10.474 0.593488 11.8162L3.64708 16.9982C4.42618 18.3196 5.86922 19.1401 7.41522 19.1401H13.5852C15.1303 19.1401 16.5743 18.3196 17.3534 16.9982L20.4069 11.8162C21.1983 10.474 21.1974 8.80626 20.4061 7.46411ZM9.63998 5.32219C9.63998 4.84458 10.0308 4.45851 10.5124 4.45851C10.994 4.45851 11.3849 4.84458 11.3849 5.32219V10.0724C11.3849 10.55 10.994 10.9361 10.5124 10.9361C10.0308 10.9361 9.63998 10.55 9.63998 10.0724V5.32219ZM10.5124 14.8226C9.79004 14.8226 9.20375 14.2422 9.20375 13.5271C9.20375 12.812 9.79004 12.2316 10.5124 12.2316C11.2348 12.2316 11.8211 12.812 11.8211 13.5271C11.8211 14.2422 11.2348 14.8226 10.5124 14.8226Z"
              fill="#BD7D22"/>
    </symbol>
    <symbol id="warningIcon" viewBox="0 0 21 20">
        <path d="M20.4061 7.46411L17.3525 2.28205C16.5734 0.960629 15.1303 0.140137 13.5843 0.140137H7.41434C5.86923 0.140137 4.42531 0.960629 3.64621 2.28205L0.593488 7.46411C-0.197829 8.80626 -0.197829 10.474 0.593488 11.8162L3.64708 16.9982C4.42618 18.3196 5.86922 19.1401 7.41522 19.1401H13.5852C15.1303 19.1401 16.5743 18.3196 17.3534 16.9982L20.4069 11.8162C21.1983 10.474 21.1974 8.80626 20.4061 7.46411ZM9.63998 5.32219C9.63998 4.84458 10.0308 4.45851 10.5124 4.45851C10.994 4.45851 11.3849 4.84458 11.3849 5.32219V10.0724C11.3849 10.55 10.994 10.9361 10.5124 10.9361C10.0308 10.9361 9.63998 10.55 9.63998 10.0724V5.32219ZM10.5124 14.8226C9.79004 14.8226 9.20375 14.2422 9.20375 13.5271C9.20375 12.812 9.79004 12.2316 10.5124 12.2316C11.2348 12.2316 11.8211 12.812 11.8211 13.5271C11.8211 14.2422 11.2348 14.8226 10.5124 14.8226Z"
              fill="#BD7D22"/>
    </symbol>
</svg>
