<svg width="166" height="102" viewBox="0 0 166 102" fill="none" xmlns="http://www.w3.org/2000/svg">
    <path d="M129.418 15.2122V97.5378C129.418 99.6513 127.7 101.362 125.586 101.362H39.5203C37.4068 101.362 35.6963 99.6513 35.6963 97.5378V15.2122H129.418Z" fill="#4A596A"/>
    <path d="M129.418 3.82397V15.2123H35.6963V3.82397C35.6963 1.71053 37.4068 0 39.5203 0H125.586C127.7 0 129.418 1.71053 129.418 3.82397Z" fill="#57697A"/>
    <path d="M51.6383 10.5447C51.6383 13.0763 49.5857 15.1365 47.0465 15.1365C44.5073 15.1365 42.4547 13.0839 42.4547 10.5447C42.4547 8.00551 44.5073 5.95288 47.0465 5.95288C49.5857 5.95288 51.6383 8.00551 51.6383 10.5447Z" fill="#4A596A"/>
    <path d="M122.652 10.5447C122.652 13.0763 120.599 15.1365 118.06 15.1365C115.521 15.1365 113.468 13.0839 113.468 10.5447C113.468 8.00551 115.521 5.95288 118.06 5.95288C120.599 5.95288 122.652 8.00551 122.652 10.5447Z" fill="#4A596A"/>
    <path d="M51.6385 90.7339C51.6385 93.2655 49.5858 95.3257 47.0466 95.3257C44.5075 95.3257 42.4548 93.2731 42.4548 90.7339C42.4548 88.1947 44.5075 86.1421 47.0466 86.1421C49.5858 86.1421 51.6385 88.1947 51.6385 90.7339Z" fill="#3D4B5E"/>
    <path d="M122.652 90.7339C122.652 93.2655 120.599 95.3257 118.06 95.3257C115.521 95.3257 113.469 93.2731 113.469 90.7339C113.469 88.1947 115.521 86.1421 118.06 86.1421C120.599 86.1421 122.652 88.1947 122.652 90.7339Z" fill="#3D4B5E"/>
    <path d="M35.6961 15.1289H3.84996C0.907857 15.1289 -0.93951 18.2915 0.497331 20.8535L21.2973 57.9072C24.2166 63.1072 29.7207 66.3306 35.6885 66.3306V15.1289H35.6961Z" fill="#3D4B5E"/>
    <path d="M129.41 15.1289H161.248C164.191 15.1289 166.038 18.2915 164.601 20.8535L143.801 57.9072C140.882 63.1072 135.378 66.3306 129.41 66.3306V15.1289Z" fill="#3D4B5E"/>
    <path d="M117.081 58.9613C121.679 39.896 109.951 20.713 90.886 16.1147C71.8208 11.5164 52.6377 23.2442 48.0394 42.3094C43.4411 61.3747 55.1689 80.5577 74.2341 85.156C93.2994 89.7543 112.482 78.0265 117.081 58.9613Z" fill="#3D4B5E"/>
    <path d="M109.926 36.2403C104.749 26.4181 94.4322 19.7205 82.5574 19.7205C70.6825 19.7205 60.3661 26.4181 55.189 36.2403C52.9235 40.5432 51.6387 45.4392 51.6387 50.6392C51.6387 67.714 65.4825 81.5578 82.5574 81.5578C99.6322 81.5578 113.476 67.714 113.476 50.6392C113.476 45.4392 112.191 40.5432 109.926 36.2403Z" fill="#9AEDD3"/>
    <path d="M113.476 50.6391C113.476 67.7139 99.6323 81.5578 82.5575 81.5578C65.4826 81.5578 51.6388 67.7139 51.6388 50.6391C51.6388 45.4391 52.9236 40.5432 55.1891 36.2402C60.3739 46.0548 70.6826 52.7525 82.5575 52.7525C94.4323 52.7525 104.741 46.0548 109.926 36.2402C112.191 40.5432 113.476 45.4391 113.476 50.6391Z" fill="#89DAC4"/>
</svg>
