<svg width="310" height="117" viewBox="0 0 310 117" fill="none" xmlns="http://www.w3.org/2000/svg">
    <g filter="url(#filter0_f_0_1)">
        <path d="M129.388 30.0739L299.734 10.7599V101.983L129.388 82.7457V30.0739Z" fill="url(#paint0_linear_0_1)" fill-opacity="0.7"/>
    </g>
    <path d="M129.388 23.003H161.227C164.169 23.003 166.016 26.1655 164.58 28.7275L143.78 65.7813C140.86 70.9813 135.356 74.2047 129.388 74.2047V22.9954V23.003Z" fill="#3D4B5E"/>
    <path d="M129.418 23.2128V105.538C129.418 107.652 127.7 109.362 125.586 109.362H39.5203C37.4068 109.362 35.6963 107.652 35.6963 105.538V23.2128H129.418Z" fill="#4A596A"/>
    <path d="M129.418 11.8241V23.2124H35.6962V11.8241C35.6962 9.71065 37.4067 8.00012 39.5201 8.00012H125.586C127.7 8.00012 129.418 9.71065 129.418 11.8241Z" fill="#3D4B5E"/>
    <path d="M51.6383 18.5373C51.6383 21.0688 49.5857 23.129 47.0465 23.129C44.5073 23.129 42.4547 21.0764 42.4547 18.5373C42.4547 15.9981 44.5073 13.9454 47.0465 13.9454C49.5857 13.9454 51.6383 15.9981 51.6383 18.5373Z" fill="#4A596A"/>
    <path d="M122.652 18.5374C122.652 21.069 120.599 23.1292 118.06 23.1292C115.521 23.1292 113.468 21.0766 113.468 18.5374C113.468 15.9982 115.521 13.9456 118.06 13.9456C120.599 13.9456 122.652 15.9982 122.652 18.5374Z" fill="#4A596A"/>
    <path d="M51.6385 98.7344C51.6385 101.266 49.5858 103.326 47.0466 103.326C44.5075 103.326 42.4548 101.274 42.4548 98.7344C42.4548 96.1952 44.5075 94.1426 47.0466 94.1426C49.5858 94.1426 51.6385 96.1952 51.6385 98.7344Z" fill="#3D4B5E"/>
    <path d="M122.652 98.7343C122.652 101.266 120.599 103.326 118.06 103.326C115.521 103.326 113.469 101.273 113.469 98.7343C113.469 96.1951 115.521 94.1425 118.06 94.1425C120.599 94.1425 122.652 96.1951 122.652 98.7343Z" fill="#3D4B5E"/>
    <path d="M35.6961 23.2123H3.84996C0.907857 23.2123 -0.93951 26.3749 0.497331 28.9369L21.2973 65.9906C24.2166 71.1906 29.7207 74.414 35.6885 74.414V23.2047L35.6961 23.2123Z" fill="#3D4B5E"/>
    <path d="M129.41 23.2123H161.248C164.191 23.2123 166.038 26.3749 164.601 28.9369L143.801 65.9906C140.882 71.1906 135.378 74.414 129.41 74.414V23.2047V23.2123Z" fill="#3D4B5E"/>
    <path d="M107.663 83.7374C121.53 69.8697 121.53 47.3857 107.663 33.518C93.7948 19.6503 71.3108 19.6503 57.4431 33.518C43.5754 47.3857 43.5754 69.8697 57.4431 83.7374C71.3108 97.6051 93.7948 97.6051 107.663 83.7374Z" fill="#3D4B5E"/>
    <g filter="url(#filter1_d_0_1)">
        <path d="M82.4973 89.5723C99.4624 89.5723 113.215 75.8193 113.215 58.8542C113.215 41.8891 99.4624 28.1361 82.4973 28.1361C65.5321 28.1361 51.7792 41.8891 51.7792 58.8542C51.7792 75.8193 65.5321 89.5723 82.4973 89.5723Z" fill="#9AEDD3"/>
    </g>
    <path d="M113.476 58.6319C113.476 75.7067 99.6321 89.5505 82.5572 89.5505C65.4824 89.5505 51.6385 75.7067 51.6385 58.6319C51.6385 53.4319 52.9233 48.536 55.1888 44.233C60.3736 54.0476 70.6824 60.7453 82.5572 60.7453C94.4321 60.7453 104.741 54.0476 109.926 44.233C112.191 48.536 113.476 53.4319 113.476 58.6319Z" fill="#89DAC4"/>
    <defs>
        <filter id="filter0_f_0_1" x="119.894" y="1.26521" width="189.335" height="110.213" filterUnits="userSpaceOnUse" color-interpolation-filters="sRGB">
            <feFlood flood-opacity="0" result="BackgroundImageFix"/>
            <feBlend mode="normal" in="SourceGraphic" in2="BackgroundImageFix" result="shape"/>
            <feGaussianBlur stdDeviation="4.74734" result="effect1_foregroundBlur_0_1"/>
        </filter>
        <filter id="filter1_d_0_1" x="24.4742" y="0.831144" width="116.046" height="116.046" filterUnits="userSpaceOnUse" color-interpolation-filters="sRGB">
            <feFlood flood-opacity="0" result="BackgroundImageFix"/>
            <feColorMatrix in="SourceAlpha" type="matrix" values="0 0 0 0 0 0 0 0 0 0 0 0 0 0 0 0 0 0 127 0" result="hardAlpha"/>
            <feOffset/>
            <feGaussianBlur stdDeviation="13.6525"/>
            <feComposite in2="hardAlpha" operator="out"/>
            <feColorMatrix type="matrix" values="0 0 0 0 0.603922 0 0 0 0 0.929412 0 0 0 0 0.827451 0 0 0 1 0"/>
            <feBlend mode="normal" in2="BackgroundImageFix" result="effect1_dropShadow_0_1"/>
            <feBlend mode="normal" in="SourceGraphic" in2="effect1_dropShadow_0_1" result="shape"/>
        </filter>
        <linearGradient id="paint0_linear_0_1" x1="129.699" y1="53.4807" x2="299.734" y2="53.4807" gradientUnits="userSpaceOnUse">
            <stop stop-color="#9AEDD3"/>
            <stop offset="1" stop-color="#9AEDD3" stop-opacity="0"/>
        </linearGradient>
    </defs>
</svg>
