<svg width="310" height="117" viewBox="0 0 310 117" fill="none" xmlns="http://www.w3.org/2000/svg">
    <path d="M129.418 23.2123V105.538C129.418 107.651 127.7 109.362 125.586 109.362H39.5203C37.4068 109.362 35.6963 107.651 35.6963 105.538V23.2123H129.418Z" fill="#4A596A"/>
    <path d="M129.418 11.824V23.2123H35.6963V11.824C35.6963 9.71053 37.4068 8 39.5203 8H125.586C127.7 8 129.418 9.71053 129.418 11.824Z" fill="#57697A"/>
    <path d="M51.6383 18.5446C51.6383 21.0761 49.5857 23.1364 47.0465 23.1364C44.5073 23.1364 42.4547 21.0837 42.4547 18.5446C42.4547 16.0054 44.5073 13.9528 47.0465 13.9528C49.5857 13.9528 51.6383 16.0054 51.6383 18.5446Z" fill="#4A596A"/>
    <path d="M122.652 18.5444C122.652 21.076 120.599 23.1363 118.06 23.1363C115.521 23.1363 113.468 21.0836 113.468 18.5444C113.468 16.0053 115.521 13.9526 118.06 13.9526C120.599 13.9526 122.652 16.0053 122.652 18.5444Z" fill="#4A596A"/>
    <path d="M51.6385 98.7339C51.6385 101.265 49.5858 103.326 47.0466 103.326C44.5075 103.326 42.4548 101.273 42.4548 98.7339C42.4548 96.1947 44.5075 94.1421 47.0466 94.1421C49.5858 94.1421 51.6385 96.1947 51.6385 98.7339Z" fill="#3D4B5E"/>
    <path d="M122.652 98.734C122.652 101.266 120.599 103.326 118.06 103.326C115.521 103.326 113.469 101.273 113.469 98.734C113.469 96.1948 115.521 94.1422 118.06 94.1422C120.599 94.1422 122.652 96.1948 122.652 98.734Z" fill="#3D4B5E"/>
    <path d="M35.6961 23.1288H3.84996C0.907857 23.1288 -0.93951 26.2914 0.497331 28.8533L21.2973 65.9071C24.2166 71.1071 29.7207 74.3305 35.6885 74.3305V23.1288H35.6961Z" fill="#3D4B5E"/>
    <path d="M129.41 23.1288H161.248C164.191 23.1288 166.038 26.2914 164.601 28.8533L143.801 65.9071C140.882 71.1071 135.378 74.3305 129.41 74.3305V23.1288Z" fill="#3D4B5E"/>
    <path d="M117.081 66.961C121.679 47.8958 109.951 28.7127 90.886 24.1145C71.8208 19.5162 52.6377 31.244 48.0394 50.3092C43.4411 69.3744 55.1689 88.5575 74.2341 93.1558C93.2994 97.754 112.482 86.0263 117.081 66.961Z" fill="#3D4B5E"/>
    <g filter="url(#filter0_d_0_1)">
        <path d="M109.926 44.2403C104.749 34.4181 94.4322 27.7205 82.5574 27.7205C70.6825 27.7205 60.3661 34.4181 55.189 44.2403C52.9235 48.5432 51.6387 53.4392 51.6387 58.6392C51.6387 75.714 65.4825 89.5578 82.5574 89.5578C99.6322 89.5578 113.476 75.714 113.476 58.6392C113.476 53.4392 112.191 48.5432 109.926 44.2403Z" fill="#FF8983"/>
    </g>
    <path d="M113.476 58.6392C113.476 75.714 99.6323 89.5579 82.5575 89.5579C65.4826 89.5579 51.6388 75.714 51.6388 58.6392C51.6388 53.4392 52.9236 48.5433 55.1891 44.2404C60.3739 54.055 70.6826 60.7526 82.5575 60.7526C94.4323 60.7526 104.741 54.055 109.926 44.2404C112.191 48.5433 113.476 53.4392 113.476 58.6392Z" fill="#E2725C"/>
    <g filter="url(#filter1_f_0_1)">
        <path d="M129.389 30.4169L299.734 11.1029V102.326L129.389 83.0887V30.4169Z" fill="url(#paint0_linear_0_1)" fill-opacity="0.7"/>
    </g>
    <path d="M129.389 23.3457H161.227C164.169 23.3457 166.017 26.5083 164.58 29.0703L143.78 66.1241C140.86 71.3241 135.356 74.5475 129.389 74.5475V23.3381V23.3457Z" fill="#3D4B5E"/>
    <defs>
        <filter id="filter0_d_0_1" x="24.3337" y="0.415495" width="116.447" height="116.447" filterUnits="userSpaceOnUse" color-interpolation-filters="sRGB">
            <feFlood flood-opacity="0" result="BackgroundImageFix"/>
            <feColorMatrix in="SourceAlpha" type="matrix" values="0 0 0 0 0 0 0 0 0 0 0 0 0 0 0 0 0 0 127 0" result="hardAlpha"/>
            <feOffset/>
            <feGaussianBlur stdDeviation="13.6525"/>
            <feComposite in2="hardAlpha" operator="out"/>
            <feColorMatrix type="matrix" values="0 0 0 0 1 0 0 0 0 0.537255 0 0 0 0 0.513726 0 0 0 1 0"/>
            <feBlend mode="normal" in2="BackgroundImageFix" result="effect1_dropShadow_0_1"/>
            <feBlend mode="normal" in="SourceGraphic" in2="effect1_dropShadow_0_1" result="shape"/>
        </filter>
        <filter id="filter1_f_0_1" x="119.894" y="1.60822" width="189.335" height="110.213" filterUnits="userSpaceOnUse" color-interpolation-filters="sRGB">
            <feFlood flood-opacity="0" result="BackgroundImageFix"/>
            <feBlend mode="normal" in="SourceGraphic" in2="BackgroundImageFix" result="shape"/>
            <feGaussianBlur stdDeviation="4.74734" result="effect1_foregroundBlur_0_1"/>
        </filter>
        <linearGradient id="paint0_linear_0_1" x1="129.699" y1="53.8237" x2="299.734" y2="53.8237" gradientUnits="userSpaceOnUse">
            <stop stop-color="#FF8983"/>
            <stop offset="1" stop-color="#FF8983" stop-opacity="0"/>
        </linearGradient>
    </defs>
</svg>
