<svg width="122" height="153" viewBox="0 0 122 153" fill="none" xmlns="http://www.w3.org/2000/svg">
<path d="M50.637 147.512C57.9271 144.759 55.4564 120.337 45.1185 92.9637C34.7806 65.5908 20.4902 45.6326 13.2001 48.3858C5.90994 51.1391 8.38053 75.5612 18.7184 102.934C29.0564 130.307 43.3468 150.265 50.637 147.512Z" stroke="white" stroke-width="1.31" stroke-linecap="round" stroke-linejoin="round"/>
<path d="M79.4927 24.0797C97.3527 18.7997 133.813 115.43 116.933 123.21C99.0726 128.49 62.6127 31.8597 79.4927 24.0797Z" stroke="white" stroke-width="1.31" stroke-linecap="round" stroke-linejoin="round"/>
<path d="M50.6426 147.541L116.923 123.211" stroke="white" stroke-width="1.31" stroke-linecap="round" stroke-linejoin="round"/>
<path d="M13.3242 48.7206L79.6042 24.3906" stroke="white" stroke-width="1.31" stroke-linecap="round" stroke-linejoin="round"/>
<path d="M6.40234 35.5097L72.6823 11.1797" stroke="white" stroke-width="1.31" stroke-linecap="round" stroke-linejoin="round"/>
<path d="M37.2938 19.48L34.6738 1L47.0438 16.46" stroke="white" stroke-width="1.31" stroke-linecap="round" stroke-linejoin="round"/>
<path d="M33.9727 14.3105L44.8027 9.23047" stroke="white" stroke-width="1.31" stroke-linecap="round" stroke-linejoin="round"/>
<path d="M7.69373 38.9217L5.17383 32.2617" stroke="white" stroke-width="1.31" stroke-linecap="round" stroke-linejoin="round"/>
<path d="M73.9437 14.5116L71.4238 7.85156" stroke="white" stroke-width="1.31" stroke-linecap="round" stroke-linejoin="round"/>
<path d="M53.0542 144.809C46.4842 141.519 39.4241 135.649 33.4941 131.289" stroke="white" stroke-width="1.31" stroke-linecap="round" stroke-linejoin="round"/>
<path d="M54.4628 139.15C46.3528 133.55 36.6428 127.63 28.1328 122.66" stroke="white" stroke-width="1.31" stroke-linecap="round" stroke-linejoin="round"/>
<path d="M54.7238 133.23C44.4638 126.71 23.1738 113.77 23.1738 113.77" stroke="white" stroke-width="1.31" stroke-linecap="round" stroke-linejoin="round"/>
<path d="M54.5126 127.591C51.3426 126.271 27.5626 112.271 20.1426 106.371" stroke="white" stroke-width="1.31" stroke-linecap="round" stroke-linejoin="round"/>
<path d="M52.304 118.461C49.744 117.511 17.2539 98.6914 17.2539 98.6914" stroke="white" stroke-width="1.31" stroke-linecap="round" stroke-linejoin="round"/>
<path d="M15.5332 93.5195L50.7832 112.63" stroke="white" stroke-width="1.31" stroke-linecap="round" stroke-linejoin="round"/>
<path d="M13.6934 87.7812L47.3834 105.451" stroke="white" stroke-width="1.31" stroke-linecap="round" stroke-linejoin="round"/>
<path d="M12.4238 83.0391L47.8538 100.669" stroke="white" stroke-width="1.31" stroke-linecap="round" stroke-linejoin="round"/>
<path d="M45.9126 95.1098C45.9126 95.1098 19.9825 81.3398 15.8125 80.5898" stroke="white" stroke-width="1.31" stroke-linecap="round" stroke-linejoin="round"/>
<path d="M8.85352 74.25L44.3535 91.4" stroke="white" stroke-width="1.31" stroke-linecap="round" stroke-linejoin="round"/>
<path d="M10.5742 70.5898L40.7443 84.1198" stroke="white" stroke-width="1.31" stroke-linecap="round" stroke-linejoin="round"/>
<path d="M10.1836 65.6602L36.6936 77.1302" stroke="white" stroke-width="1.31" stroke-linecap="round" stroke-linejoin="round"/>
<path d="M9.02344 60.6797L35.2935 71.2097" stroke="white" stroke-width="1.31" stroke-linecap="round" stroke-linejoin="round"/>
<path d="M9.12305 57.4688L31.193 65.8088" stroke="white" stroke-width="1.31" stroke-linecap="round" stroke-linejoin="round"/>
<path d="M9.66406 53.75L28.014 59.39" stroke="white" stroke-width="1.31" stroke-linecap="round" stroke-linejoin="round"/>
<path d="M11.2637 50.1914L23.1036 53.3514" stroke="white" stroke-width="1.31" stroke-linecap="round" stroke-linejoin="round"/>
</svg>
