<svg width="2890" height="1328" viewBox="0 0 2890 1328" fill="none" xmlns="http://www.w3.org/2000/svg">
<g style="mix-blend-mode:soft-light" opacity="0.7">
<path d="M65.4395 19.332H1V83.7715M65.4395 19.332V83.7715M65.4395 19.332H129.879M65.4395 83.7715H1M65.4395 83.7715V148.211M65.4395 83.7715H129.879M1 83.7715V148.211M65.4395 148.211H1M65.4395 148.211V212.65M65.4395 148.211H129.879M1 148.211V212.65M65.4395 212.65H1M65.4395 212.65V277.09M65.4395 212.65H129.879M1 212.65V277.09M65.4395 277.09H1M65.4395 277.09V341.529M65.4395 277.09H129.879M1 277.09V341.529M65.4395 341.529H1M65.4395 341.529V405.969M65.4395 341.529H129.879M1 341.529V405.969M65.4395 405.969H1M65.4395 405.969V470.408M65.4395 405.969H129.879M1 405.969V470.408M65.4395 470.408H1M65.4395 470.408V534.848M65.4395 470.408H129.879M1 470.408V534.848M65.4395 534.848H1M65.4395 534.848V599.287M65.4395 534.848H129.879M1 534.848V599.287M65.4395 599.287H1M65.4395 599.287V663.727M65.4395 599.287H129.879M1 599.287V663.727M65.4395 663.727H1M65.4395 663.727V728.166M65.4395 663.727H129.879M1 663.727V728.166M65.4395 728.166H1M65.4395 728.166V792.606M65.4395 728.166H129.879M1 728.166V792.606M65.4395 792.606H1M65.4395 792.606V857.045M65.4395 792.606H129.879M1 792.606V857.045M65.4395 857.045H1M65.4395 857.045V921.485M65.4395 857.045H129.879M1 857.045V921.485M65.4395 921.485H1M65.4395 921.485V985.924M65.4395 921.485H129.879M1 921.485V985.924M65.4395 985.924H1M65.4395 985.924V1050.36M65.4395 985.924H129.879M1 985.924V1050.36M65.4395 1050.36H1M65.4395 1050.36V1114.8M65.4395 1050.36H129.879M1 1050.36V1114.8M65.4395 1114.8H1M65.4395 1114.8V1179.24M65.4395 1114.8H129.879M1 1114.8V1179.24M65.4395 1179.24H1M65.4395 1179.24V1243.68M65.4395 1179.24H129.879M1 1179.24V1243.68M65.4395 1243.68H1M65.4395 1243.68V1308.12M65.4395 1243.68H129.879M1 1243.68V1308.12H65.4395M65.4395 1308.12H129.879M129.879 19.332V83.7715M129.879 19.332H194.318M129.879 83.7715V148.211M129.879 83.7715H194.318M129.879 148.211V212.65M129.879 148.211H194.318M129.879 212.65V277.09M129.879 212.65H194.318M129.879 277.09V341.529M129.879 277.09H194.318M129.879 341.529V405.969M129.879 341.529H194.318M129.879 405.969V470.408M129.879 405.969H194.318M129.879 470.408V534.848M129.879 470.408H194.318M129.879 534.848V599.287M129.879 534.848H194.318M129.879 599.287V663.727M129.879 599.287H194.318M129.879 663.727V728.166M129.879 663.727H194.318M129.879 728.166V792.606M129.879 728.166H194.318M129.879 792.606V857.045M129.879 792.606H194.318M129.879 857.045V921.485M129.879 857.045H194.318M129.879 921.485V985.924M129.879 921.485H194.318M129.879 985.924V1050.36M129.879 985.924H194.318M129.879 1050.36V1114.8M129.879 1050.36H194.318M129.879 1114.8V1179.24M129.879 1114.8H194.318M129.879 1179.24V1243.68M129.879 1179.24H194.318M129.879 1243.68V1308.12M129.879 1243.68H194.318M129.879 1308.12H194.318M194.318 19.332V83.7715M194.318 19.332H258.758M194.318 83.7715V148.211M194.318 83.7715H258.758M194.318 148.211V212.65M194.318 148.211H258.758M194.318 212.65V277.09M194.318 212.65H258.758M194.318 277.09V341.529M194.318 277.09H258.758M194.318 341.529V405.969M194.318 341.529H258.758M194.318 405.969V470.408M194.318 405.969H258.758M194.318 470.408V534.848M194.318 470.408H258.758M194.318 534.848V599.287M194.318 534.848H258.758M194.318 599.287V663.727M194.318 599.287H258.758M194.318 663.727V728.166M194.318 663.727H258.758M194.318 728.166V792.606M194.318 728.166H258.758M194.318 792.606V857.045M194.318 792.606H258.758M194.318 857.045V921.485M194.318 857.045H258.758M194.318 921.485V985.924M194.318 921.485H258.758M194.318 985.924V1050.36M194.318 985.924H258.758M194.318 1050.36V1114.8M194.318 1050.36H258.758M194.318 1114.8V1179.24M194.318 1114.8H258.758M194.318 1179.24V1243.68M194.318 1179.24H258.758M194.318 1243.68V1308.12M194.318 1243.68H258.758M194.318 1308.12H258.758M258.758 19.332V83.7715M258.758 19.332H323.197M258.758 83.7715V148.211M258.758 83.7715H323.197M258.758 148.211V212.65M258.758 148.211H323.197M258.758 212.65V277.09M258.758 212.65H323.197M258.758 277.09V341.529M258.758 277.09H323.197M258.758 341.529V405.969M258.758 341.529H323.197M258.758 405.969V470.408M258.758 405.969H323.197M258.758 470.408V534.848M258.758 470.408H323.197M258.758 534.848V599.287M258.758 534.848H323.197M258.758 599.287V663.727M258.758 599.287H323.197M258.758 663.727V728.166M258.758 663.727H323.197M258.758 728.166V792.606M258.758 728.166H323.197M258.758 792.606V857.045M258.758 792.606H323.197M258.758 857.045V921.485M258.758 857.045H323.197M258.758 921.485V985.924M258.758 921.485H323.197M258.758 985.924V1050.36M258.758 985.924H323.197M258.758 1050.36V1114.8M258.758 1050.36H323.197M258.758 1114.8V1179.24M258.758 1114.8H323.197M258.758 1179.24V1243.68M258.758 1179.24H323.197M258.758 1243.68V1308.12M258.758 1243.68H323.197M258.758 1308.12H323.197M323.197 19.332V83.7715M323.197 19.332H387.637M323.197 83.7715V148.211M323.197 83.7715H387.637M323.197 148.211V212.65M323.197 148.211H387.637M323.197 212.65V277.09M323.197 212.65H387.637M323.197 277.09V341.529M323.197 277.09H387.637M323.197 341.529V405.969M323.197 341.529H387.637M323.197 405.969V470.408M323.197 405.969H387.637M323.197 470.408V534.848M323.197 470.408H387.637M323.197 534.848V599.287M323.197 534.848H387.637M323.197 599.287V663.727M323.197 599.287H387.637M323.197 663.727V728.166M323.197 663.727H387.637M323.197 728.166V792.606M323.197 728.166H387.637M323.197 792.606V857.045M323.197 792.606H387.637M323.197 857.045V921.485M323.197 857.045H387.637M323.197 921.485V985.924M323.197 921.485H387.637M323.197 985.924V1050.36M323.197 985.924H387.637M323.197 1050.36V1114.8M323.197 1050.36H387.637M323.197 1114.8V1179.24M323.197 1114.8H387.637M323.197 1179.24V1243.68M323.197 1179.24H387.637M323.197 1243.68V1308.12M323.197 1243.68H387.637M323.197 1308.12H387.637M387.637 19.332V83.7715M387.637 19.332H452.076M387.637 83.7715V148.211M387.637 83.7715H452.076M387.637 148.211V212.65M387.637 148.211H452.076M387.637 212.65V277.09M387.637 212.65H452.076M387.637 277.09V341.529M387.637 277.09H452.076M387.637 341.529V405.969M387.637 341.529H452.076M387.637 405.969V470.408M387.637 405.969H452.076M387.637 470.408V534.848M387.637 470.408H452.076M387.637 534.848V599.287M387.637 534.848H452.076M387.637 599.287V663.727M387.637 599.287H452.076M387.637 663.727V728.166M387.637 663.727H452.076M387.637 728.166V792.606M387.637 728.166H452.076M387.637 792.606V857.045M387.637 792.606H452.076M387.637 857.045V921.485M387.637 857.045H452.076M387.637 921.485V985.924M387.637 921.485H452.076M387.637 985.924V1050.36M387.637 985.924H452.076M387.637 1050.36V1114.8M387.637 1050.36H452.076M387.637 1114.8V1179.24M387.637 1114.8H452.076M387.637 1179.24V1243.68M387.637 1179.24H452.076M387.637 1243.68V1308.12M387.637 1243.68H452.076M387.637 1308.12H452.076M452.076 19.332V83.7715M452.076 19.332H516.516M452.076 83.7715V148.211M452.076 83.7715H516.516M452.076 148.211V212.65M452.076 148.211H516.516M452.076 212.65V277.09M452.076 212.65H516.516M452.076 277.09V341.529M452.076 277.09H516.516M452.076 341.529V405.969M452.076 341.529H516.516M452.076 405.969V470.408M452.076 405.969H516.516M452.076 470.408V534.848M452.076 470.408H516.516M452.076 534.848V599.287M452.076 534.848H516.516M452.076 599.287V663.727M452.076 599.287H516.516M452.076 663.727V728.166M452.076 663.727H516.516M452.076 728.166V792.606M452.076 728.166H516.516M452.076 792.606V857.045M452.076 792.606H516.516M452.076 857.045V921.485M452.076 857.045H516.516M452.076 921.485V985.924M452.076 921.485H516.516M452.076 985.924V1050.36M452.076 985.924H516.516M452.076 1050.36V1114.8M452.076 1050.36H516.516M452.076 1114.8V1179.24M452.076 1114.8H516.516M452.076 1179.24V1243.68M452.076 1179.24H516.516M452.076 1243.68V1308.12M452.076 1243.68H516.516M452.076 1308.12H516.516M516.516 19.332V83.7715M516.516 19.332H580.955M516.516 83.7715V148.211M516.516 83.7715H580.955M516.516 148.211V212.65M516.516 148.211H580.955M516.516 212.65V277.09M516.516 212.65H580.955M516.516 277.09V341.529M516.516 277.09H580.955M516.516 341.529V405.969M516.516 341.529H580.955M516.516 405.969V470.408M516.516 405.969H580.955M516.516 470.408V534.848M516.516 470.408H580.955M516.516 534.848V599.287M516.516 534.848H580.955M516.516 599.287V663.727M516.516 599.287H580.955M516.516 663.727V728.166M516.516 663.727H580.955M516.516 728.166V792.606M516.516 728.166H580.955M516.516 792.606V857.045M516.516 792.606H580.955M516.516 857.045V921.485M516.516 857.045H580.955M516.516 921.485V985.924M516.516 921.485H580.955M516.516 985.924V1050.36M516.516 985.924H580.955M516.516 1050.36V1114.8M516.516 1050.36H580.955M516.516 1114.8V1179.24M516.516 1114.8H580.955M516.516 1179.24V1243.68M516.516 1179.24H580.955M516.516 1243.68V1308.12M516.516 1243.68H580.955M516.516 1308.12H580.955M580.955 19.332V83.7715M580.955 19.332H645.395M580.955 83.7715V148.211M580.955 83.7715H645.395M580.955 148.211V212.65M580.955 148.211H645.395M580.955 212.65V277.09M580.955 212.65H645.395M580.955 277.09V341.529M580.955 277.09H645.395M580.955 341.529V405.969M580.955 341.529H645.395M580.955 405.969V470.408M580.955 405.969H645.395M580.955 470.408V534.848M580.955 470.408H645.395M580.955 534.848V599.287M580.955 534.848H645.395M580.955 599.287V663.727M580.955 599.287H645.395M580.955 663.727V728.166M580.955 663.727H645.395M580.955 728.166V792.606M580.955 728.166H645.395M580.955 792.606V857.045M580.955 792.606H645.395M580.955 857.045V921.485M580.955 857.045H645.395M580.955 921.485V985.924M580.955 921.485H645.395M580.955 985.924V1050.36M580.955 985.924H645.395M580.955 1050.36V1114.8M580.955 1050.36H645.395M580.955 1114.8V1179.24M580.955 1114.8H645.395M580.955 1179.24V1243.68M580.955 1179.24H645.395M580.955 1243.68V1308.12M580.955 1243.68H645.395M580.955 1308.12H645.395M645.395 19.332V83.7715M645.395 19.332H709.834M645.395 83.7715V148.211M645.395 83.7715H709.834M645.395 148.211V212.65M645.395 148.211H709.834M645.395 212.65V277.09M645.395 212.65H709.834M645.395 277.09V341.529M645.395 277.09H709.834M645.395 341.529V405.969M645.395 341.529H709.834M645.395 405.969V470.408M645.395 405.969H709.834M645.395 470.408V534.848M645.395 470.408H709.834M645.395 534.848V599.287M645.395 534.848H709.834M645.395 599.287V663.727M645.395 599.287H709.834M645.395 663.727V728.166M645.395 663.727H709.834M645.395 728.166V792.606M645.395 728.166H709.834M645.395 792.606V857.045M645.395 792.606H709.834M645.395 857.045V921.485M645.395 857.045H709.834M645.395 921.485V985.924M645.395 921.485H709.834M645.395 985.924V1050.36M645.395 985.924H709.834M645.395 1050.36V1114.8M645.395 1050.36H709.834M645.395 1114.8V1179.24M645.395 1114.8H709.834M645.395 1179.24V1243.68M645.395 1179.24H709.834M645.395 1243.68V1308.12M645.395 1243.68H709.834M645.395 1308.12H709.834M709.834 19.332V83.7715M709.834 19.332H774.274M709.834 83.7715V148.211M709.834 83.7715H774.274M709.834 148.211V212.65M709.834 148.211H774.274M709.834 212.65V277.09M709.834 212.65H774.274M709.834 277.09V341.529M709.834 277.09H774.274M709.834 341.529V405.969M709.834 341.529H774.274M709.834 405.969V470.408M709.834 405.969H774.274M709.834 470.408V534.848M709.834 470.408H774.274M709.834 534.848V599.287M709.834 534.848H774.274M709.834 599.287V663.727M709.834 599.287H774.274M709.834 663.727V728.166M709.834 663.727H774.274M709.834 728.166V792.606M709.834 728.166H774.274M709.834 792.606V857.045M709.834 792.606H774.274M709.834 857.045V921.485M709.834 857.045H774.274M709.834 921.485V985.924M709.834 921.485H774.274M709.834 985.924V1050.36M709.834 985.924H774.274M709.834 1050.36V1114.8M709.834 1050.36H774.274M709.834 1114.8V1179.24M709.834 1114.8H774.274M709.834 1179.24V1243.68M709.834 1179.24H774.274M709.834 1243.68V1308.12M709.834 1243.68H774.274M709.834 1308.12H774.274M774.274 19.332V83.7715M774.274 19.332H838.713M774.274 83.7715V148.211M774.274 83.7715H838.713M774.274 148.211V212.65M774.274 148.211H838.713M774.274 212.65V277.09M774.274 212.65H838.713M774.274 277.09V341.529M774.274 277.09H838.713M774.274 341.529V405.969M774.274 341.529H838.713M774.274 405.969V470.408M774.274 405.969H838.713M774.274 470.408V534.848M774.274 470.408H838.713M774.274 534.848V599.287M774.274 534.848H838.713M774.274 599.287V663.727M774.274 599.287H838.713M774.274 663.727V728.166M774.274 663.727H838.713M774.274 728.166V792.606M774.274 728.166H838.713M774.274 792.606V857.045M774.274 792.606H838.713M774.274 857.045V921.485M774.274 857.045H838.713M774.274 921.485V985.924M774.274 921.485H838.713M774.274 985.924V1050.36M774.274 985.924H838.713M774.274 1050.36V1114.8M774.274 1050.36H838.713M774.274 1114.8V1179.24M774.274 1114.8H838.713M774.274 1179.24V1243.68M774.274 1179.24H838.713M774.274 1243.68V1308.12M774.274 1243.68H838.713M774.274 1308.12H838.713M838.713 19.332V83.7715M838.713 19.332H903.153M838.713 83.7715V148.211M838.713 83.7715H903.153M838.713 148.211V212.65M838.713 148.211H903.153M838.713 212.65V277.09M838.713 212.65H903.153M838.713 277.09V341.529M838.713 277.09H903.153M838.713 341.529V405.969M838.713 341.529H903.153M838.713 405.969V470.408M838.713 405.969H903.153M838.713 470.408V534.848M838.713 470.408H903.153M838.713 534.848V599.287M838.713 534.848H903.153M838.713 599.287V663.727M838.713 599.287H903.153M838.713 663.727V728.166M838.713 663.727H903.153M838.713 728.166V792.606M838.713 728.166H903.153M838.713 792.606V857.045M838.713 792.606H903.153M838.713 857.045V921.485M838.713 857.045H903.153M838.713 921.485V985.924M838.713 921.485H903.153M838.713 985.924V1050.36M838.713 985.924H903.153M838.713 1050.36V1114.8M838.713 1050.36H903.153M838.713 1114.8V1179.24M838.713 1114.8H903.153M838.713 1179.24V1243.68M838.713 1179.24H903.153M838.713 1243.68V1308.12M838.713 1243.68H903.153M838.713 1308.12H903.153M903.153 19.332V83.7715M903.153 19.332H967.592M903.153 83.7715V148.211M903.153 83.7715H967.592M903.153 148.211V212.65M903.153 148.211H967.592M903.153 212.65V277.09M903.153 212.65H967.592M903.153 277.09V341.529M903.153 277.09H967.592M903.153 341.529V405.969M903.153 341.529H967.592M903.153 405.969V470.408M903.153 405.969H967.592M903.153 470.408V534.848M903.153 470.408H967.592M903.153 534.848V599.287M903.153 534.848H967.592M903.153 599.287V663.727M903.153 599.287H967.592M903.153 663.727V728.166M903.153 663.727H967.592M903.153 728.166V792.606M903.153 728.166H967.592M903.153 792.606V857.045M903.153 792.606H967.592M903.153 857.045V921.485M903.153 857.045H967.592M903.153 921.485V985.924M903.153 921.485H967.592M903.153 985.924V1050.36M903.153 985.924H967.592M903.153 1050.36V1114.8M903.153 1050.36H967.592M903.153 1114.8V1179.24M903.153 1114.8H967.592M903.153 1179.24V1243.68M903.153 1179.24H967.592M903.153 1243.68V1308.12M903.153 1243.68H967.592M903.153 1308.12H967.592M967.592 19.332V83.7715M967.592 19.332H1032.03M967.592 83.7715V148.211M967.592 83.7715H1032.03M967.592 148.211V212.65M967.592 148.211H1032.03M967.592 212.65V277.09M967.592 212.65H1032.03M967.592 277.09V341.529M967.592 277.09H1032.03M967.592 341.529V405.969M967.592 341.529H1032.03M967.592 405.969V470.408M967.592 405.969H1032.03M967.592 470.408V534.848M967.592 470.408H1032.03M967.592 534.848V599.287M967.592 534.848H1032.03M967.592 599.287V663.727M967.592 599.287H1032.03M967.592 663.727V728.166M967.592 663.727H1032.03M967.592 728.166V792.606M967.592 728.166H1032.03M967.592 792.606V857.045M967.592 792.606H1032.03M967.592 857.045V921.485M967.592 857.045H1032.03M967.592 921.485V985.924M967.592 921.485H1032.03M967.592 985.924V1050.36M967.592 985.924H1032.03M967.592 1050.36V1114.8M967.592 1050.36H1032.03M967.592 1114.8V1179.24M967.592 1114.8H1032.03M967.592 1179.24V1243.68M967.592 1179.24H1032.03M967.592 1243.68V1308.12M967.592 1243.68H1032.03M967.592 1308.12H1032.03M1032.03 19.332V83.7715M1032.03 19.332H1096.47M1032.03 83.7715V148.211M1032.03 83.7715H1096.47M1032.03 148.211V212.65M1032.03 148.211H1096.47M1032.03 212.65V277.09M1032.03 212.65H1096.47M1032.03 277.09V341.529M1032.03 277.09H1096.47M1032.03 341.529V405.969M1032.03 341.529H1096.47M1032.03 405.969V470.408M1032.03 405.969H1096.47M1032.03 470.408V534.848M1032.03 470.408H1096.47M1032.03 534.848V599.287M1032.03 534.848H1096.47M1032.03 599.287V663.727M1032.03 599.287H1096.47M1032.03 663.727V728.166M1032.03 663.727H1096.47M1032.03 728.166V792.606M1032.03 728.166H1096.47M1032.03 792.606V857.045M1032.03 792.606H1096.47M1032.03 857.045V921.485M1032.03 857.045H1096.47M1032.03 921.485V985.924M1032.03 921.485H1096.47M1032.03 985.924V1050.36M1032.03 985.924H1096.47M1032.03 1050.36V1114.8M1032.03 1050.36H1096.47M1032.03 1114.8V1179.24M1032.03 1114.8H1096.47M1032.03 1179.24V1243.68M1032.03 1179.24H1096.47M1032.03 1243.68V1308.12M1032.03 1243.68H1096.47M1032.03 1308.12H1096.47M1096.47 19.332V83.7715M1096.47 19.332H1160.91M1096.47 83.7715V148.211M1096.47 83.7715H1160.91M1096.47 148.211V212.65M1096.47 148.211H1160.91M1096.47 212.65V277.09M1096.47 212.65H1160.91M1096.47 277.09V341.529M1096.47 277.09H1160.91M1096.47 341.529V405.969M1096.47 341.529H1160.91M1096.47 405.969V470.408M1096.47 405.969H1160.91M1096.47 470.408V534.848M1096.47 470.408H1160.91M1096.47 534.848V599.287M1096.47 534.848H1160.91M1096.47 599.287V663.727M1096.47 599.287H1160.91M1096.47 663.727V728.166M1096.47 663.727H1160.91M1096.47 728.166V792.606M1096.47 728.166H1160.91M1096.47 792.606V857.045M1096.47 792.606H1160.91M1096.47 857.045V921.485M1096.47 857.045H1160.91M1096.47 921.485V985.924M1096.47 921.485H1160.91M1096.47 985.924V1050.36M1096.47 985.924H1160.91M1096.47 1050.36V1114.8M1096.47 1050.36H1160.91M1096.47 1114.8V1179.24M1096.47 1114.8H1160.91M1096.47 1179.24V1243.68M1096.47 1179.24H1160.91M1096.47 1243.68V1308.12M1096.47 1243.68H1160.91M1096.47 1308.12H1160.91M1160.91 19.332V83.7715M1160.91 19.332H1225.35M1160.91 83.7715V148.211M1160.91 83.7715H1225.35M1160.91 148.211V212.65M1160.91 148.211H1225.35M1160.91 212.65V277.09M1160.91 212.65H1225.35M1160.91 277.09V341.529M1160.91 277.09H1225.35M1160.91 341.529V405.969M1160.91 341.529H1225.35M1160.91 405.969V470.408M1160.91 405.969H1225.35M1160.91 470.408V534.848M1160.91 470.408H1225.35M1160.91 534.848V599.287M1160.91 534.848H1225.35M1160.91 599.287V663.727M1160.91 599.287H1225.35M1160.91 663.727V728.166M1160.91 663.727H1225.35M1160.91 728.166V792.606M1160.91 728.166H1225.35M1160.91 792.606V857.045M1160.91 792.606H1225.35M1160.91 857.045V921.485M1160.91 857.045H1225.35M1160.91 921.485V985.924M1160.91 921.485H1225.35M1160.91 985.924V1050.36M1160.91 985.924H1225.35M1160.91 1050.36V1114.8M1160.91 1050.36H1225.35M1160.91 1114.8V1179.24M1160.91 1114.8H1225.35M1160.91 1179.24V1243.68M1160.91 1179.24H1225.35M1160.91 1243.68V1308.12M1160.91 1243.68H1225.35M1160.91 1308.12H1225.35M1225.35 19.332V83.7715M1225.35 19.332H1289.79M1225.35 83.7715V148.211M1225.35 83.7715H1289.79M1225.35 148.211V212.65M1225.35 148.211H1289.79M1225.35 212.65V277.09M1225.35 212.65H1289.79M1225.35 277.09V341.529M1225.35 277.09H1289.79M1225.35 341.529V405.969M1225.35 341.529H1289.79M1225.35 405.969V470.408M1225.35 405.969H1289.79M1225.35 470.408V534.848M1225.35 470.408H1289.79M1225.35 534.848V599.287M1225.35 534.848H1289.79M1225.35 599.287V663.727M1225.35 599.287H1289.79M1225.35 663.727V728.166M1225.35 663.727H1289.79M1225.35 728.166V792.606M1225.35 728.166H1289.79M1225.35 792.606V857.045M1225.35 792.606H1289.79M1225.35 857.045V921.485M1225.35 857.045H1289.79M1225.35 921.485V985.924M1225.35 921.485H1289.79M1225.35 985.924V1050.36M1225.35 985.924H1289.79M1225.35 1050.36V1114.8M1225.35 1050.36H1289.79M1225.35 1114.8V1179.24M1225.35 1114.8H1289.79M1225.35 1179.24V1243.68M1225.35 1179.24H1289.79M1225.35 1243.68V1308.12M1225.35 1243.68H1289.79M1225.35 1308.12H1289.79M1289.79 19.332V83.7715M1289.79 19.332H1354.23M1289.79 83.7715V148.211M1289.79 83.7715H1354.23M1289.79 148.211V212.65M1289.79 148.211H1354.23M1289.79 212.65V277.09M1289.79 212.65H1354.23M1289.79 277.09V341.529M1289.79 277.09H1354.23M1289.79 341.529V405.969M1289.79 341.529H1354.23M1289.79 405.969V470.408M1289.79 405.969H1354.23M1289.79 470.408V534.848M1289.79 470.408H1354.23M1289.79 534.848V599.287M1289.79 534.848H1354.23M1289.79 599.287V663.727M1289.79 599.287H1354.23M1289.79 663.727V728.166M1289.79 663.727H1354.23M1289.79 728.166V792.606M1289.79 728.166H1354.23M1289.79 792.606V857.045M1289.79 792.606H1354.23M1289.79 857.045V921.485M1289.79 857.045H1354.23M1289.79 921.485V985.924M1289.79 921.485H1354.23M1289.79 985.924V1050.36M1289.79 985.924H1354.23M1289.79 1050.36V1114.8M1289.79 1050.36H1354.23M1289.79 1114.8V1179.24M1289.79 1114.8H1354.23M1289.79 1179.24V1243.68M1289.79 1179.24H1354.23M1289.79 1243.68V1308.12M1289.79 1243.68H1354.23M1289.79 1308.12H1354.23M1354.23 19.332V83.7715M1354.23 19.332H1418.67M1354.23 83.7715V148.211M1354.23 83.7715H1418.67M1354.23 148.211V212.65M1354.23 148.211H1418.67M1354.23 212.65V277.09M1354.23 212.65H1418.67M1354.23 277.09V341.529M1354.23 277.09H1418.67M1354.23 341.529V405.969M1354.23 341.529H1418.67M1354.23 405.969V470.408M1354.23 405.969H1418.67M1354.23 470.408V534.848M1354.23 470.408H1418.67M1354.23 534.848V599.287M1354.23 534.848H1418.67M1354.23 599.287V663.727M1354.23 599.287H1418.67M1354.23 663.727V728.166M1354.23 663.727H1418.67M1354.23 728.166V792.606M1354.23 728.166H1418.67M1354.23 792.606V857.045M1354.23 792.606H1418.67M1354.23 857.045V921.485M1354.23 857.045H1418.67M1354.23 921.485V985.924M1354.23 921.485H1418.67M1354.23 985.924V1050.36M1354.23 985.924H1418.67M1354.23 1050.36V1114.8M1354.23 1050.36H1418.67M1354.23 1114.8V1179.24M1354.23 1114.8H1418.67M1354.23 1179.24V1243.68M1354.23 1179.24H1418.67M1354.23 1243.68V1308.12M1354.23 1243.68H1418.67M1354.23 1308.12H1418.67M1418.67 19.332V83.7715M1418.67 19.332H1483.11M1418.67 83.7715V148.211M1418.67 83.7715H1483.11M1418.67 148.211V212.65M1418.67 148.211H1483.11M1418.67 212.65V277.09M1418.67 212.65H1483.11M1418.67 277.09V341.529M1418.67 277.09H1483.11M1418.67 341.529V405.969M1418.67 341.529H1483.11M1418.67 405.969V470.408M1418.67 405.969H1483.11M1418.67 470.408V534.848M1418.67 470.408H1483.11M1418.67 534.848V599.287M1418.67 534.848H1483.11M1418.67 599.287V663.727M1418.67 599.287H1483.11M1418.67 663.727V728.166M1418.67 663.727H1483.11M1418.67 728.166V792.606M1418.67 728.166H1483.11M1418.67 792.606V857.045M1418.67 792.606H1483.11M1418.67 857.045V921.485M1418.67 857.045H1483.11M1418.67 921.485V985.924M1418.67 921.485H1483.11M1418.67 985.924V1050.36M1418.67 985.924H1483.11M1418.67 1050.36V1114.8M1418.67 1050.36H1483.11M1418.67 1114.8V1179.24M1418.67 1114.8H1483.11M1418.67 1179.24V1243.68M1418.67 1179.24H1483.11M1418.67 1243.68V1308.12M1418.67 1243.68H1483.11M1418.67 1308.12H1483.11M1483.11 19.332V83.7715M1483.11 19.332H1547.55M1483.11 83.7715V148.211M1483.11 83.7715H1547.55M1483.11 148.211V212.65M1483.11 148.211H1547.55M1483.11 212.65V277.09M1483.11 212.65H1547.55M1483.11 277.09V341.529M1483.11 277.09H1547.55M1483.11 341.529V405.969M1483.11 341.529H1547.55M1483.11 405.969V470.408M1483.11 405.969H1547.55M1483.11 470.408V534.848M1483.11 470.408H1547.55M1483.11 534.848V599.287M1483.11 534.848H1547.55M1483.11 599.287V663.727M1483.11 599.287H1547.55M1483.11 663.727V728.166M1483.11 663.727H1547.55M1483.11 728.166V792.606M1483.11 728.166H1547.55M1483.11 792.606V857.045M1483.11 792.606H1547.55M1483.11 857.045V921.485M1483.11 857.045H1547.55M1483.11 921.485V985.924M1483.11 921.485H1547.55M1483.11 985.924V1050.36M1483.11 985.924H1547.55M1483.11 1050.36V1114.8M1483.11 1050.36H1547.55M1483.11 1114.8V1179.24M1483.11 1114.8H1547.55M1483.11 1179.24V1243.68M1483.11 1179.24H1547.55M1483.11 1243.68V1308.12M1483.11 1243.68H1547.55M1483.11 1308.12H1547.55M1547.55 19.332V83.7715M1547.55 19.332H1611.99M1547.55 83.7715V148.211M1547.55 83.7715H1611.99M1547.55 148.211V212.65M1547.55 148.211H1611.99M1547.55 212.65V277.09M1547.55 212.65H1611.99M1547.55 277.09V341.529M1547.55 277.09H1611.99M1547.55 341.529V405.969M1547.55 341.529H1611.99M1547.55 405.969V470.408M1547.55 405.969H1611.99M1547.55 470.408V534.848M1547.55 470.408H1611.99M1547.55 534.848V599.287M1547.55 534.848H1611.99M1547.55 599.287V663.727M1547.55 599.287H1611.99M1547.55 663.727V728.166M1547.55 663.727H1611.99M1547.55 728.166V792.606M1547.55 728.166H1611.99M1547.55 792.606V857.045M1547.55 792.606H1611.99M1547.55 857.045V921.485M1547.55 857.045H1611.99M1547.55 921.485V985.924M1547.55 921.485H1611.99M1547.55 985.924V1050.36M1547.55 985.924H1611.99M1547.55 1050.36V1114.8M1547.55 1050.36H1611.99M1547.55 1114.8V1179.24M1547.55 1114.8H1611.99M1547.55 1179.24V1243.68M1547.55 1179.24H1611.99M1547.55 1243.68V1308.12M1547.55 1243.68H1611.99M1547.55 1308.12H1611.99M1611.99 19.332V83.7715M1611.99 19.332H1676.43M1611.99 83.7715V148.211M1611.99 83.7715H1676.43M1611.99 148.211V212.65M1611.99 148.211H1676.43M1611.99 212.65V277.09M1611.99 212.65H1676.43M1611.99 277.09V341.529M1611.99 277.09H1676.43M1611.99 341.529V405.969M1611.99 341.529H1676.43M1611.99 405.969V470.408M1611.99 405.969H1676.43M1611.99 470.408V534.848M1611.99 470.408H1676.43M1611.99 534.848V599.287M1611.99 534.848H1676.43M1611.99 599.287V663.727M1611.99 599.287H1676.43M1611.99 663.727V728.166M1611.99 663.727H1676.43M1611.99 728.166V792.606M1611.99 728.166H1676.43M1611.99 792.606V857.045M1611.99 792.606H1676.43M1611.99 857.045V921.485M1611.99 857.045H1676.43M1611.99 921.485V985.924M1611.99 921.485H1676.43M1611.99 985.924V1050.36M1611.99 985.924H1676.43M1611.99 1050.36V1114.8M1611.99 1050.36H1676.43M1611.99 1114.8V1179.24M1611.99 1114.8H1676.43M1611.99 1179.24V1243.68M1611.99 1179.24H1676.43M1611.99 1243.68V1308.12M1611.99 1243.68H1676.43M1611.99 1308.12H1676.43M1676.43 19.332V83.7715M1676.43 19.332H1740.87M1676.43 83.7715V148.211M1676.43 83.7715H1740.87M1676.43 148.211V212.65M1676.43 148.211H1740.87M1676.43 212.65V277.09M1676.43 212.65H1740.87M1676.43 277.09V341.529M1676.43 277.09H1740.87M1676.43 341.529V405.969M1676.43 341.529H1740.87M1676.43 405.969V470.408M1676.43 405.969H1740.87M1676.43 470.408V534.848M1676.43 470.408H1740.87M1676.43 534.848V599.287M1676.43 534.848H1740.87M1676.43 599.287V663.727M1676.43 599.287H1740.87M1676.43 663.727V728.166M1676.43 663.727H1740.87M1676.43 728.166V792.606M1676.43 728.166H1740.87M1676.43 792.606V857.045M1676.43 792.606H1740.87M1676.43 857.045V921.485M1676.43 857.045H1740.87M1676.43 921.485V985.924M1676.43 921.485H1740.87M1676.43 985.924V1050.36M1676.43 985.924H1740.87M1676.43 1050.36V1114.8M1676.43 1050.36H1740.87M1676.43 1114.8V1179.24M1676.43 1114.8H1740.87M1676.43 1179.24V1243.68M1676.43 1179.24H1740.87M1676.43 1243.68V1308.12M1676.43 1243.68H1740.87M1676.43 1308.12H1740.87M1740.87 19.332V83.7715M1740.87 19.332H1805.31M1740.87 83.7715V148.211M1740.87 83.7715H1805.31M1740.87 148.211V212.65M1740.87 148.211H1805.31M1740.87 212.65V277.09M1740.87 212.65H1805.31M1740.87 277.09V341.529M1740.87 277.09H1805.31M1740.87 341.529V405.969M1740.87 341.529H1805.31M1740.87 405.969V470.408M1740.87 405.969H1805.31M1740.87 470.408V534.848M1740.87 470.408H1805.31M1740.87 534.848V599.287M1740.87 534.848H1805.31M1740.87 599.287V663.727M1740.87 599.287H1805.31M1740.87 663.727V728.166M1740.87 663.727H1805.31M1740.87 728.166V792.606M1740.87 728.166H1805.31M1740.87 792.606V857.045M1740.87 792.606H1805.31M1740.87 857.045V921.485M1740.87 857.045H1805.31M1740.87 921.485V985.924M1740.87 921.485H1805.31M1740.87 985.924V1050.36M1740.87 985.924H1805.31M1740.87 1050.36V1114.8M1740.87 1050.36H1805.31M1740.87 1114.8V1179.24M1740.87 1114.8H1805.31M1740.87 1179.24V1243.68M1740.87 1179.24H1805.31M1740.87 1243.68V1308.12M1740.87 1243.68H1805.31M1740.87 1308.12H1805.31M1805.31 19.332V83.7715M1805.31 19.332H1869.74M1805.31 83.7715V148.211M1805.31 83.7715H1869.74M1805.31 148.211V212.65M1805.31 148.211H1869.74M1805.31 212.65V277.09M1805.31 212.65H1869.74M1805.31 277.09V341.529M1805.31 277.09H1869.74M1805.31 341.529V405.969M1805.31 341.529H1869.74M1805.31 405.969V470.408M1805.31 405.969H1869.74M1805.31 470.408V534.848M1805.31 470.408H1869.74M1805.31 534.848V599.287M1805.31 534.848H1869.74M1805.31 599.287V663.727M1805.31 599.287H1869.74M1805.31 663.727V728.166M1805.31 663.727H1869.74M1805.31 728.166V792.606M1805.31 728.166H1869.74M1805.31 792.606V857.045M1805.31 792.606H1869.74M1805.31 857.045V921.485M1805.31 857.045H1869.74M1805.31 921.485V985.924M1805.31 921.485H1869.74M1805.31 985.924V1050.36M1805.31 985.924H1869.74M1805.31 1050.36V1114.8M1805.31 1050.36H1869.74M1805.31 1114.8V1179.24M1805.31 1114.8H1869.74M1805.31 1179.24V1243.68M1805.31 1179.24H1869.74M1805.31 1243.68V1308.12M1805.31 1243.68H1869.74M1805.31 1308.12H1869.74M1869.74 19.332V83.7715M1869.74 19.332H1934.18M1869.74 83.7715V148.211M1869.74 83.7715H1934.18M1869.74 148.211V212.65M1869.74 148.211H1934.18M1869.74 212.65V277.09M1869.74 212.65H1934.18M1869.74 277.09V341.529M1869.74 277.09H1934.18M1869.74 341.529V405.969M1869.74 341.529H1934.18M1869.74 405.969V470.408M1869.74 405.969H1934.18M1869.74 470.408V534.848M1869.74 470.408H1934.18M1869.74 534.848V599.287M1869.74 534.848H1934.18M1869.74 599.287V663.727M1869.74 599.287H1934.18M1869.74 663.727V728.166M1869.74 663.727H1934.18M1869.74 728.166V792.606M1869.74 728.166H1934.18M1869.74 792.606V857.045M1869.74 792.606H1934.18M1869.74 857.045V921.485M1869.74 857.045H1934.18M1869.74 921.485V985.924M1869.74 921.485H1934.18M1869.74 985.924V1050.36M1869.74 985.924H1934.18M1869.74 1050.36V1114.8M1869.74 1050.36H1934.18M1869.74 1114.8V1179.24M1869.74 1114.8H1934.18M1869.74 1179.24V1243.68M1869.74 1179.24H1934.18M1869.74 1243.68V1308.12M1869.74 1243.68H1934.18M1869.74 1308.12H1934.18M1934.18 19.332V83.7715M1934.18 19.332H1998.62M1934.18 83.7715V148.211M1934.18 83.7715H1998.62M1934.18 148.211V212.65M1934.18 148.211H1998.62M1934.18 212.65V277.09M1934.18 212.65H1998.62M1934.18 277.09V341.529M1934.18 277.09H1998.62M1934.18 341.529V405.969M1934.18 341.529H1998.62M1934.18 405.969V470.408M1934.18 405.969H1998.62M1934.18 470.408V534.848M1934.18 470.408H1998.62M1934.18 534.848V599.287M1934.18 534.848H1998.62M1934.18 599.287V663.727M1934.18 599.287H1998.62M1934.18 663.727V728.166M1934.18 663.727H1998.62M1934.18 728.166V792.606M1934.18 728.166H1998.62M1934.18 792.606V857.045M1934.18 792.606H1998.62M1934.18 857.045V921.485M1934.18 857.045H1998.62M1934.18 921.485V985.924M1934.18 921.485H1998.62M1934.18 985.924V1050.36M1934.18 985.924H1998.62M1934.18 1050.36V1114.8M1934.18 1050.36H1998.62M1934.18 1114.8V1179.24M1934.18 1114.8H1998.62M1934.18 1179.24V1243.68M1934.18 1179.24H1998.62M1934.18 1243.68V1308.12M1934.18 1243.68H1998.62M1934.18 1308.12H1998.62M1998.62 19.332V83.7715M1998.62 19.332H2063.06M1998.62 83.7715V148.211M1998.62 83.7715H2063.06M1998.62 148.211V212.65M1998.62 148.211H2063.06M1998.62 212.65V277.09M1998.62 212.65H2063.06M1998.62 277.09V341.529M1998.62 277.09H2063.06M1998.62 341.529V405.969M1998.62 341.529H2063.06M1998.62 405.969V470.408M1998.62 405.969H2063.06M1998.62 470.408V534.848M1998.62 470.408H2063.06M1998.62 534.848V599.287M1998.62 534.848H2063.06M1998.62 599.287V663.727M1998.62 599.287H2063.06M1998.62 663.727V728.166M1998.62 663.727H2063.06M1998.62 728.166V792.606M1998.62 728.166H2063.06M1998.62 792.606V857.045M1998.62 792.606H2063.06M1998.62 857.045V921.485M1998.62 857.045H2063.06M1998.62 921.485V985.924M1998.62 921.485H2063.06M1998.62 985.924V1050.36M1998.62 985.924H2063.06M1998.62 1050.36V1114.8M1998.62 1050.36H2063.06M1998.62 1114.8V1179.24M1998.62 1114.8H2063.06M1998.62 1179.24V1243.68M1998.62 1179.24H2063.06M1998.62 1243.68V1308.12M1998.62 1243.68H2063.06M1998.62 1308.12H2063.06M2063.06 19.332V83.7715M2063.06 19.332H2127.5M2063.06 83.7715V148.211M2063.06 83.7715H2127.5M2063.06 148.211V212.65M2063.06 148.211H2127.5M2063.06 212.65V277.09M2063.06 212.65H2127.5M2063.06 277.09V341.529M2063.06 277.09H2127.5M2063.06 341.529V405.969M2063.06 341.529H2127.5M2063.06 405.969V470.408M2063.06 405.969H2127.5M2063.06 470.408V534.848M2063.06 470.408H2127.5M2063.06 534.848V599.287M2063.06 534.848H2127.5M2063.06 599.287V663.727M2063.06 599.287H2127.5M2063.06 663.727V728.166M2063.06 663.727H2127.5M2063.06 728.166V792.606M2063.06 728.166H2127.5M2063.06 792.606V857.045M2063.06 792.606H2127.5M2063.06 857.045V921.485M2063.06 857.045H2127.5M2063.06 921.485V985.924M2063.06 921.485H2127.5M2063.06 985.924V1050.36M2063.06 985.924H2127.5M2063.06 1050.36V1114.8M2063.06 1050.36H2127.5M2063.06 1114.8V1179.24M2063.06 1114.8H2127.5M2063.06 1179.24V1243.68M2063.06 1179.24H2127.5M2063.06 1243.68V1308.12M2063.06 1243.68H2127.5M2063.06 1308.12H2127.5M2127.5 19.332V83.7715M2127.5 19.332H2191.94M2127.5 83.7715V148.211M2127.5 83.7715H2191.94M2127.5 148.211V212.65M2127.5 148.211H2191.94M2127.5 212.65V277.09M2127.5 212.65H2191.94M2127.5 277.09V341.529M2127.5 277.09H2191.94M2127.5 341.529V405.969M2127.5 341.529H2191.94M2127.5 405.969V470.408M2127.5 405.969H2191.94M2127.5 470.408V534.848M2127.5 470.408H2191.94M2127.5 534.848V599.287M2127.5 534.848H2191.94M2127.5 599.287V663.727M2127.5 599.287H2191.94M2127.5 663.727V728.166M2127.5 663.727H2191.94M2127.5 728.166V792.606M2127.5 728.166H2191.94M2127.5 792.606V857.045M2127.5 792.606H2191.94M2127.5 857.045V921.485M2127.5 857.045H2191.94M2127.5 921.485V985.924M2127.5 921.485H2191.94M2127.5 985.924V1050.36M2127.5 985.924H2191.94M2127.5 1050.36V1114.8M2127.5 1050.36H2191.94M2127.5 1114.8V1179.24M2127.5 1114.8H2191.94M2127.5 1179.24V1243.68M2127.5 1179.24H2191.94M2127.5 1243.68V1308.12M2127.5 1243.68H2191.94M2127.5 1308.12H2191.94M2191.94 19.332V83.7715M2191.94 19.332H2256.38M2191.94 83.7715V148.211M2191.94 83.7715H2256.38M2191.94 148.211V212.65M2191.94 148.211H2256.38M2191.94 212.65V277.09M2191.94 212.65H2256.38M2191.94 277.09V341.529M2191.94 277.09H2256.38M2191.94 341.529V405.969M2191.94 341.529H2256.38M2191.94 405.969V470.408M2191.94 405.969H2256.38M2191.94 470.408V534.848M2191.94 470.408H2256.38M2191.94 534.848V599.287M2191.94 534.848H2256.38M2191.94 599.287V663.727M2191.94 599.287H2256.38M2191.94 663.727V728.166M2191.94 663.727H2256.38M2191.94 728.166V792.606M2191.94 728.166H2256.38M2191.94 792.606V857.045M2191.94 792.606H2256.38M2191.94 857.045V921.485M2191.94 857.045H2256.38M2191.94 921.485V985.924M2191.94 921.485H2256.38M2191.94 985.924V1050.36M2191.94 985.924H2256.38M2191.94 1050.36V1114.8M2191.94 1050.36H2256.38M2191.94 1114.8V1179.24M2191.94 1114.8H2256.38M2191.94 1179.24V1243.68M2191.94 1179.24H2256.38M2191.94 1243.68V1308.12M2191.94 1243.68H2256.38M2191.94 1308.12H2256.38M2256.38 19.332V83.7715M2256.38 19.332H2320.82M2256.38 83.7715V148.211M2256.38 83.7715H2320.82M2256.38 148.211V212.65M2256.38 148.211H2320.82M2256.38 212.65V277.09M2256.38 212.65H2320.82M2256.38 277.09V341.529M2256.38 277.09H2320.82M2256.38 341.529V405.969M2256.38 341.529H2320.82M2256.38 405.969V470.408M2256.38 405.969H2320.82M2256.38 470.408V534.848M2256.38 470.408H2320.82M2256.38 534.848V599.287M2256.38 534.848H2320.82M2256.38 599.287V663.727M2256.38 599.287H2320.82M2256.38 663.727V728.166M2256.38 663.727H2320.82M2256.38 728.166V792.606M2256.38 728.166H2320.82M2256.38 792.606V857.045M2256.38 792.606H2320.82M2256.38 857.045V921.485M2256.38 857.045H2320.82M2256.38 921.485V985.924M2256.38 921.485H2320.82M2256.38 985.924V1050.36M2256.38 985.924H2320.82M2256.38 1050.36V1114.8M2256.38 1050.36H2320.82M2256.38 1114.8V1179.24M2256.38 1114.8H2320.82M2256.38 1179.24V1243.68M2256.38 1179.24H2320.82M2256.38 1243.68V1308.12M2256.38 1243.68H2320.82M2256.38 1308.12H2320.82M2320.82 19.332V83.7715M2320.82 19.332H2385.26M2320.82 83.7715V148.211M2320.82 83.7715H2385.26M2320.82 148.211V212.65M2320.82 148.211H2385.26M2320.82 212.65V277.09M2320.82 212.65H2385.26M2320.82 277.09V341.529M2320.82 277.09H2385.26M2320.82 341.529V405.969M2320.82 341.529H2385.26M2320.82 405.969V470.408M2320.82 405.969H2385.26M2320.82 470.408V534.848M2320.82 470.408H2385.26M2320.82 534.848V599.287M2320.82 534.848H2385.26M2320.82 599.287V663.727M2320.82 599.287H2385.26M2320.82 663.727V728.166M2320.82 663.727H2385.26M2320.82 728.166V792.606M2320.82 728.166H2385.26M2320.82 792.606V857.045M2320.82 792.606H2385.26M2320.82 857.045V921.485M2320.82 857.045H2385.26M2320.82 921.485V985.924M2320.82 921.485H2385.26M2320.82 985.924V1050.36M2320.82 985.924H2385.26M2320.82 1050.36V1114.8M2320.82 1050.36H2385.26M2320.82 1114.8V1179.24M2320.82 1114.8H2385.26M2320.82 1179.24V1243.68M2320.82 1179.24H2385.26M2320.82 1243.68V1308.12M2320.82 1243.68H2385.26M2320.82 1308.12H2385.26M2385.26 19.332V83.7715M2385.26 19.332H2449.7M2385.26 83.7715V148.211M2385.26 83.7715H2449.7M2385.26 148.211V212.65M2385.26 148.211H2449.7M2385.26 212.65V277.09M2385.26 212.65H2449.7M2385.26 277.09V341.529M2385.26 277.09H2449.7M2385.26 341.529V405.969M2385.26 341.529H2449.7M2385.26 405.969V470.408M2385.26 405.969H2449.7M2385.26 470.408V534.848M2385.26 470.408H2449.7M2385.26 534.848V599.287M2385.26 534.848H2449.7M2385.26 599.287V663.727M2385.26 599.287H2449.7M2385.26 663.727V728.166M2385.26 663.727H2449.7M2385.26 728.166V792.606M2385.26 728.166H2449.7M2385.26 792.606V857.045M2385.26 792.606H2449.7M2385.26 857.045V921.485M2385.26 857.045H2449.7M2385.26 921.485V985.924M2385.26 921.485H2449.7M2385.26 985.924V1050.36M2385.26 985.924H2449.7M2385.26 1050.36V1114.8M2385.26 1050.36H2449.7M2385.26 1114.8V1179.24M2385.26 1114.8H2449.7M2385.26 1179.24V1243.68M2385.26 1179.24H2449.7M2385.26 1243.68V1308.12M2385.26 1243.68H2449.7M2385.26 1308.12H2449.7M2449.7 19.332V83.7715M2449.7 19.332H2514.14M2449.7 83.7715V148.211M2449.7 83.7715H2514.14M2449.7 148.211V212.65M2449.7 148.211H2514.14M2449.7 212.65V277.09M2449.7 212.65H2514.14M2449.7 277.09V341.529M2449.7 277.09H2514.14M2449.7 341.529V405.969M2449.7 341.529H2514.14M2449.7 405.969V470.408M2449.7 405.969H2514.14M2449.7 470.408V534.848M2449.7 470.408H2514.14M2449.7 534.848V599.287M2449.7 534.848H2514.14M2449.7 599.287V663.727M2449.7 599.287H2514.14M2449.7 663.727V728.166M2449.7 663.727H2514.14M2449.7 728.166V792.606M2449.7 728.166H2514.14M2449.7 792.606V857.045M2449.7 792.606H2514.14M2449.7 857.045V921.485M2449.7 857.045H2514.14M2449.7 921.485V985.924M2449.7 921.485H2514.14M2449.7 985.924V1050.36M2449.7 985.924H2514.14M2449.7 1050.36V1114.8M2449.7 1050.36H2514.14M2449.7 1114.8V1179.24M2449.7 1114.8H2514.14M2449.7 1179.24V1243.68M2449.7 1179.24H2514.14M2449.7 1243.68V1308.12M2449.7 1243.68H2514.14M2449.7 1308.12H2514.14M2514.14 19.332V83.7715M2514.14 19.332H2578.58M2514.14 83.7715V148.211M2514.14 83.7715H2578.58M2514.14 148.211V212.65M2514.14 148.211H2578.58M2514.14 212.65V277.09M2514.14 212.65H2578.58M2514.14 277.09V341.529M2514.14 277.09H2578.58M2514.14 341.529V405.969M2514.14 341.529H2578.58M2514.14 405.969V470.408M2514.14 405.969H2578.58M2514.14 470.408V534.848M2514.14 470.408H2578.58M2514.14 534.848V599.287M2514.14 534.848H2578.58M2514.14 599.287V663.727M2514.14 599.287H2578.58M2514.14 663.727V728.166M2514.14 663.727H2578.58M2514.14 728.166V792.606M2514.14 728.166H2578.58M2514.14 792.606V857.045M2514.14 792.606H2578.58M2514.14 857.045V921.485M2514.14 857.045H2578.58M2514.14 921.485V985.924M2514.14 921.485H2578.58M2514.14 985.924V1050.36M2514.14 985.924H2578.58M2514.14 1050.36V1114.8M2514.14 1050.36H2578.58M2514.14 1114.8V1179.24M2514.14 1114.8H2578.58M2514.14 1179.24V1243.68M2514.14 1179.24H2578.58M2514.14 1243.68V1308.12M2514.14 1243.68H2578.58M2514.14 1308.12H2578.58M2578.58 19.332V83.7715M2578.58 19.332H2643.02M2578.58 83.7715V148.211M2578.58 83.7715H2643.02M2578.58 148.211V212.65M2578.58 148.211H2643.02M2578.58 212.65V277.09M2578.58 212.65H2643.02M2578.58 277.09V341.529M2578.58 277.09H2643.02M2578.58 341.529V405.969M2578.58 341.529H2643.02M2578.58 405.969V470.408M2578.58 405.969H2643.02M2578.58 470.408V534.848M2578.58 470.408H2643.02M2578.58 534.848V599.287M2578.58 534.848H2643.02M2578.58 599.287V663.727M2578.58 599.287H2643.02M2578.58 663.727V728.166M2578.58 663.727H2643.02M2578.58 728.166V792.606M2578.58 728.166H2643.02M2578.58 792.606V857.045M2578.58 792.606H2643.02M2578.58 857.045V921.485M2578.58 857.045H2643.02M2578.58 921.485V985.924M2578.58 921.485H2643.02M2578.58 985.924V1050.36M2578.58 985.924H2643.02M2578.58 1050.36V1114.8M2578.58 1050.36H2643.02M2578.58 1114.8V1179.24M2578.58 1114.8H2643.02M2578.58 1179.24V1243.68M2578.58 1179.24H2643.02M2578.58 1243.68V1308.12M2578.58 1243.68H2643.02M2578.58 1308.12H2643.02M2643.02 19.332V83.7715M2643.02 19.332H2707.46M2643.02 83.7715V148.211M2643.02 83.7715H2707.46M2643.02 148.211V212.65M2643.02 148.211H2707.46M2643.02 212.65V277.09M2643.02 212.65H2707.46M2643.02 277.09V341.529M2643.02 277.09H2707.46M2643.02 341.529V405.969M2643.02 341.529H2707.46M2643.02 405.969V470.408M2643.02 405.969H2707.46M2643.02 470.408V534.848M2643.02 470.408H2707.46M2643.02 534.848V599.287M2643.02 534.848H2707.46M2643.02 599.287V663.727M2643.02 599.287H2707.46M2643.02 663.727V728.166M2643.02 663.727H2707.46M2643.02 728.166V792.606M2643.02 728.166H2707.46M2643.02 792.606V857.045M2643.02 792.606H2707.46M2643.02 857.045V921.485M2643.02 857.045H2707.46M2643.02 921.485V985.924M2643.02 921.485H2707.46M2643.02 985.924V1050.36M2643.02 985.924H2707.46M2643.02 1050.36V1114.8M2643.02 1050.36H2707.46M2643.02 1114.8V1179.24M2643.02 1114.8H2707.46M2643.02 1179.24V1243.68M2643.02 1179.24H2707.46M2643.02 1243.68V1308.12M2643.02 1243.68H2707.46M2643.02 1308.12H2707.46M2707.46 19.332V83.7715M2707.46 19.332H2771.9M2707.46 83.7715V148.211M2707.46 83.7715H2771.9M2707.46 148.211V212.65M2707.46 148.211H2771.9M2707.46 212.65V277.09M2707.46 212.65H2771.9M2707.46 277.09V341.529M2707.46 277.09H2771.9M2707.46 341.529V405.969M2707.46 341.529H2771.9M2707.46 405.969V470.408M2707.46 405.969H2771.9M2707.46 470.408V534.848M2707.46 470.408H2771.9M2707.46 534.848V599.287M2707.46 534.848H2771.9M2707.46 599.287V663.727M2707.46 599.287H2771.9M2707.46 663.727V728.166M2707.46 663.727H2771.9M2707.46 728.166V792.606M2707.46 728.166H2771.9M2707.46 792.606V857.045M2707.46 792.606H2771.9M2707.46 857.045V921.485M2707.46 857.045H2771.9M2707.46 921.485V985.924M2707.46 921.485H2771.9M2707.46 985.924V1050.36M2707.46 985.924H2771.9M2707.46 1050.36V1114.8M2707.46 1050.36H2771.9M2707.46 1114.8V1179.24M2707.46 1114.8H2771.9M2707.46 1179.24V1243.68M2707.46 1179.24H2771.9M2707.46 1243.68V1308.12M2707.46 1243.68H2771.9M2707.46 1308.12H2771.9M2771.9 19.332V83.7715M2771.9 19.332H2836.34V83.7715M2771.9 83.7715V148.211M2771.9 83.7715H2836.34M2771.9 148.211V212.65M2771.9 148.211H2836.34M2771.9 212.65V277.09M2771.9 212.65H2836.34M2771.9 277.09V341.529M2771.9 277.09H2836.34M2771.9 341.529V405.969M2771.9 341.529H2836.34M2771.9 405.969V470.408M2771.9 405.969H2836.34M2771.9 470.408V534.848M2771.9 470.408H2836.34M2771.9 534.848V599.287M2771.9 534.848H2836.34M2771.9 599.287V663.727M2771.9 599.287H2836.34M2771.9 663.727V728.166M2771.9 663.727H2836.34M2771.9 728.166V792.606M2771.9 728.166H2836.34M2771.9 792.606V857.045M2771.9 792.606H2836.34M2771.9 857.045V921.485M2771.9 857.045H2836.34M2771.9 921.485V985.924M2771.9 921.485H2836.34M2771.9 985.924V1050.36M2771.9 985.924H2836.34M2771.9 1050.36V1114.8M2771.9 1050.36H2836.34M2771.9 1114.8V1179.24M2771.9 1114.8H2836.34M2771.9 1179.24V1243.68M2771.9 1179.24H2836.34M2771.9 1243.68V1308.12M2771.9 1243.68H2836.34M2771.9 1308.12H2836.34V1243.68M2836.34 83.7715V148.211M2836.34 148.211V212.65M2836.34 212.65V277.09M2836.34 277.09V341.529M2836.34 341.529V405.969M2836.34 405.969V470.408M2836.34 470.408V534.848M2836.34 534.848V599.287M2836.34 599.287V663.727M2836.34 663.727V728.166M2836.34 728.166V792.606M2836.34 792.606V857.045M2836.34 857.045V921.485M2836.34 921.485V985.924M2836.34 985.924V1050.36M2836.34 1050.36V1114.8M2836.34 1114.8V1179.24M2836.34 1179.24V1243.68" stroke="url(#paint0_radial_620_1630)" stroke-opacity="0.6" stroke-width="0.805493"/>
</g>
<g style="mix-blend-mode:soft-light" opacity="0.8">
<path d="M293.09 257.758V277.09M293.09 277.09V296.421M293.09 277.09H273.758M293.09 277.09H312.422M293.09 773.274V792.605M293.09 792.605V811.937M293.09 792.605H273.758M293.09 792.605H312.422M293.09 1288.79V1308.12M293.09 1308.12V1327.45M293.09 1308.12H273.758M293.09 1308.12H312.422M808.606 257.758V277.09M808.606 277.09V296.421M808.606 277.09H789.274M808.606 277.09H827.937M808.606 773.274V792.605M808.606 792.605V811.937M808.606 792.605H789.274M808.606 792.605H827.937M808.606 1288.79V1308.12M808.606 1308.12V1327.45M808.606 1308.12H789.274M808.606 1308.12H827.937M1324.12 257.758V277.09M1324.12 277.09V296.421M1324.12 277.09H1304.79M1324.12 277.09H1343.45M1324.12 773.274V792.605M1324.12 792.605V811.937M1324.12 792.605H1304.79M1324.12 792.605H1343.45M1324.12 1288.79V1308.12M1324.12 1308.12V1327.45M1324.12 1308.12H1304.79M1324.12 1308.12H1343.45M1839.64 257.758V277.09M1839.64 277.09V296.421M1839.64 277.09H1820.31M1839.64 277.09H1858.97M1839.64 773.274V792.605M1839.64 792.605V811.937M1839.64 792.605H1820.31M1839.64 792.605H1858.97M1839.64 1288.79V1308.12M1839.64 1308.12V1327.45M1839.64 1308.12H1820.31M1839.64 1308.12H1858.97M2355.15 257.758V277.09M2355.15 277.09V296.421M2355.15 277.09H2335.82M2355.15 277.09H2374.48M2355.15 773.274V792.605M2355.15 792.605V811.937M2355.15 792.605H2335.82M2355.15 792.605H2374.48M2355.15 1288.79V1308.12M2355.15 1308.12V1327.45M2355.15 1308.12H2335.82M2355.15 1308.12H2374.48M2870.67 257.758V277.09M2870.67 277.09V296.421M2870.67 277.09H2851.34M2870.67 277.09H2890M2870.67 773.274V792.605M2870.67 792.605V811.937M2870.67 792.605H2851.34M2870.67 792.605H2890M2870.67 1288.79V1308.12M2870.67 1308.12V1327.45M2870.67 1308.12H2851.34M2870.67 1308.12H2890M293.09 0V19.3318M293.09 19.3318V38.6637M293.09 19.3318H273.758M293.09 19.3318H312.422M293.09 515.516V534.848M293.09 534.848V554.179M293.09 534.848H273.758M293.09 534.848H312.422M293.09 1031.03V1050.36M293.09 1050.36V1069.69M293.09 1050.36H273.758M293.09 1050.36H312.422M808.606 0V19.3318M808.606 19.3318V38.6637M808.606 19.3318H789.274M808.606 19.3318H827.937M808.606 515.516V534.848M808.606 534.848V554.179M808.606 534.848H789.274M808.606 534.848H827.937M808.606 1031.03V1050.36M808.606 1050.36V1069.69M808.606 1050.36H789.274M808.606 1050.36H827.937M1324.12 0V19.3318M1324.12 19.3318V38.6637M1324.12 19.3318H1304.79M1324.12 19.3318H1343.45M1324.12 515.516V534.848M1324.12 534.848V554.179M1324.12 534.848H1304.79M1324.12 534.848H1343.45M1324.12 1031.03V1050.36M1324.12 1050.36V1069.69M1324.12 1050.36H1304.79M1324.12 1050.36H1343.45M1839.64 0V19.3318M1839.64 19.3318V38.6637M1839.64 19.3318H1820.31M1839.64 19.3318H1858.97M1839.64 515.516V534.848M1839.64 534.848V554.179M1839.64 534.848H1820.31M1839.64 534.848H1858.97M1839.64 1031.03V1050.36M1839.64 1050.36V1069.69M1839.64 1050.36H1820.31M1839.64 1050.36H1858.97M2355.15 0V19.3318M2355.15 19.3318V38.6637M2355.15 19.3318H2335.82M2355.15 19.3318H2374.48M2355.15 515.516V534.848M2355.15 534.848V554.179M2355.15 534.848H2335.82M2355.15 534.848H2374.48M2355.15 1031.03V1050.36M2355.15 1050.36V1069.69M2355.15 1050.36H2335.82M2355.15 1050.36H2374.48M2870.67 0V19.3318M2870.67 19.3318V38.6637M2870.67 19.3318H2851.34M2870.67 19.3318H2890M2870.67 515.516V534.848M2870.67 534.848V554.179M2870.67 534.848H2851.34M2870.67 534.848H2890M2870.67 1031.03V1050.36M2870.67 1050.36V1069.69M2870.67 1050.36H2851.34M2870.67 1050.36H2890M35.3318 257.758V277.09M35.3318 277.09V296.421M35.3318 277.09H16M35.3318 277.09H54.6637M35.3318 773.274V792.605M35.3318 792.605V811.937M35.3318 792.605H16M35.3318 792.605H54.6637M35.3318 1288.79V1308.12M35.3318 1308.12V1327.45M35.3318 1308.12H16M35.3318 1308.12H54.6637M550.848 257.758V277.09M550.848 277.09V296.421M550.848 277.09H531.516M550.848 277.09H570.18M550.848 773.274V792.605M550.848 792.605V811.937M550.848 792.605H531.516M550.848 792.605H570.18M550.848 1288.79V1308.12M550.848 1308.12V1327.45M550.848 1308.12H531.516M550.848 1308.12H570.18M1066.36 257.758V277.09M1066.36 277.09V296.421M1066.36 277.09H1047.03M1066.36 277.09H1085.7M1066.36 773.274V792.605M1066.36 792.605V811.937M1066.36 792.605H1047.03M1066.36 792.605H1085.7M1066.36 1288.79V1308.12M1066.36 1308.12V1327.45M1066.36 1308.12H1047.03M1066.36 1308.12H1085.7M1581.88 257.758V277.09M1581.88 277.09V296.421M1581.88 277.09H1562.55M1581.88 277.09H1601.21M1581.88 773.274V792.605M1581.88 792.605V811.937M1581.88 792.605H1562.55M1581.88 792.605H1601.21M1581.88 1288.79V1308.12M1581.88 1308.12V1327.45M1581.88 1308.12H1562.55M1581.88 1308.12H1601.21M2097.39 257.758V277.09M2097.39 277.09V296.421M2097.39 277.09H2078.06M2097.39 277.09H2116.73M2097.39 773.274V792.605M2097.39 792.605V811.937M2097.39 792.605H2078.06M2097.39 792.605H2116.73M2097.39 1288.79V1308.12M2097.39 1308.12V1327.45M2097.39 1308.12H2078.06M2097.39 1308.12H2116.73M2612.91 257.758V277.09M2612.91 277.09V296.421M2612.91 277.09H2593.58M2612.91 277.09H2632.24M2612.91 773.274V792.605M2612.91 792.605V811.937M2612.91 792.605H2593.58M2612.91 792.605H2632.24M2612.91 1288.79V1308.12M2612.91 1308.12V1327.45M2612.91 1308.12H2593.58M2612.91 1308.12H2632.24M35.3318 9.50355e-05V19.3319M35.3318 19.3319V38.6638M35.3318 19.3319H16M35.3318 19.3319H54.6637M35.3318 515.516V534.848M35.3318 534.848V554.179M35.3318 534.848H16M35.3318 534.848H54.6637M35.3318 1031.03V1050.36M35.3318 1050.36V1069.69M35.3318 1050.36H16M35.3318 1050.36H54.6637M550.848 0V19.3318M550.848 19.3318V38.6637M550.848 19.3318H531.516M550.848 19.3318H570.18M550.848 515.516V534.848M550.848 534.848V554.179M550.848 534.848H531.516M550.848 534.848H570.18M550.848 1031.03V1050.36M550.848 1050.36V1069.69M550.848 1050.36H531.516M550.848 1050.36H570.18M1066.36 0V19.3318M1066.36 19.3318V38.6637M1066.36 19.3318H1047.03M1066.36 19.3318H1085.7M1066.36 515.516V534.848M1066.36 534.848V554.179M1066.36 534.848H1047.03M1066.36 534.848H1085.7M1066.36 1031.03V1050.36M1066.36 1050.36V1069.69M1066.36 1050.36H1047.03M1066.36 1050.36H1085.7M1581.88 0V19.3318M1581.88 19.3318V38.6637M1581.88 19.3318H1562.55M1581.88 19.3318H1601.21M1581.88 515.516V534.848M1581.88 534.848V554.179M1581.88 534.848H1562.55M1581.88 534.848H1601.21M1581.88 1031.03V1050.36M1581.88 1050.36V1069.69M1581.88 1050.36H1562.55M1581.88 1050.36H1601.21M2097.39 0V19.3318M2097.39 19.3318V38.6637M2097.39 19.3318H2078.06M2097.39 19.3318H2116.73M2097.39 515.516V534.848M2097.39 534.848V554.179M2097.39 534.848H2078.06M2097.39 534.848H2116.73M2097.39 1031.03V1050.36M2097.39 1050.36V1069.69M2097.39 1050.36H2078.06M2097.39 1050.36H2116.73M2612.91 0V19.3318M2612.91 19.3318V38.6637M2612.91 19.3318H2593.58M2612.91 19.3318H2632.24M2612.91 515.516V534.848M2612.91 534.848V554.179M2612.91 534.848H2593.58M2612.91 534.848H2632.24M2612.91 1031.03V1050.36M2612.91 1050.36V1069.69M2612.91 1050.36H2593.58M2612.91 1050.36H2632.24" stroke="url(#paint1_radial_620_1630)" stroke-opacity="0.6" stroke-width="1.61099"/>
</g>
<defs>
<radialGradient id="paint0_radial_620_1630" cx="0" cy="0" r="1" gradientUnits="userSpaceOnUse" gradientTransform="translate(1418.67 663.727) rotate(90) scale(644.395 1417.67)">
<stop stop-color="white"/>
<stop offset="0.451923" stop-color="white" stop-opacity="0"/>
</radialGradient>
<radialGradient id="paint1_radial_620_1630" cx="0" cy="0" r="1" gradientUnits="userSpaceOnUse" gradientTransform="translate(1453 663.726) rotate(90) scale(663.726 1437)">
<stop stop-color="white"/>
<stop offset="0.451923" stop-color="white" stop-opacity="0"/>
</radialGradient>
</defs>
</svg>
