<svg width="385" height="114" viewBox="0 0 385 114" fill="none" xmlns="http://www.w3.org/2000/svg">
<path d="M0 0L381.81 103.6L380.48 108.38L0 0Z" fill="white"/>
<path d="M361.47 112.978C361.27 112.318 361.64 111.618 362.3 111.418L380.59 105.838L367.8 91.6182C367.34 91.1082 367.38 90.3082 367.89 89.8482C368.4 89.3882 369.2 89.4382 369.66 89.9382L383.76 105.618C384.04 105.938 384.15 106.378 384.03 106.788C383.91 107.198 383.6 107.528 383.19 107.648L363.02 113.798C362.78 113.868 362.54 113.868 362.32 113.798C361.92 113.688 361.59 113.378 361.46 112.958L361.47 112.978Z" fill="white"/>
</svg>
