<svg width="82" height="69" viewBox="0 0 82 69" fill="none" xmlns="http://www.w3.org/2000/svg">
<path d="M37.64 67.6109C57.8757 67.6109 74.28 64.7232 74.28 61.1609C74.28 57.5987 57.8757 54.7109 37.64 54.7109C17.4043 54.7109 1 57.5987 1 61.1609C1 64.7232 17.4043 67.6109 37.64 67.6109Z" stroke="white" stroke-width="1.5" stroke-linecap="round" stroke-linejoin="round"/>
<path d="M1 61.16L37.62 1L74.28 61.16H37.64L37.62 1.19" stroke="white" stroke-width="1.5" stroke-linecap="round" stroke-linejoin="round"/>
<path d="M40.1602 31.2383C40.3102 33.6783 40.7001 36.0983 41.3201 38.4483C41.7801 37.7683 41.6701 36.8583 41.8701 36.0483C42.0701 35.2383 43.0001 34.4783 43.6101 35.0083C43.8101 35.1783 43.9101 35.4483 43.9901 35.7083C44.3801 36.9383 44.5702 38.2383 44.5302 39.5383" stroke="white" stroke-width="1.5" stroke-linecap="round" stroke-linejoin="round"/>
<path d="M76.5508 57.8489C76.8208 57.2789 77.1108 56.6789 77.6308 56.3389C78.1508 55.9989 78.9608 56.0689 79.2408 56.6289C79.3608 56.8789 79.3608 57.1789 79.3308 57.4689C79.1808 59.0789 78.4308 60.6289 77.2808 61.7289C78.5108 61.6689 79.7508 61.7989 80.9608 62.0889" stroke="white" stroke-width="1.5" stroke-linecap="round" stroke-linejoin="round"/>
</svg>
