<svg width="74" height="64" viewBox="0 0 74 64" fill="none" xmlns="http://www.w3.org/2000/svg">
<path d="M16.1309 5.28L16.2408 1C17.9308 4.52 19.6209 8.04 21.3009 11.56" stroke="white" stroke-width="1.1" stroke-linecap="round" stroke-linejoin="round"/>
<path d="M56.6602 21.1003L56.7701 16.8203C58.4601 20.3403 59.5102 22.4703 61.2002 25.9803" stroke="white" stroke-width="1.1" stroke-linecap="round" stroke-linejoin="round"/>
<path d="M11.7305 19.5486C11.8005 18.8886 12.2405 17.2186 12.3105 16.5586C13.6905 19.0486 14.9706 21.9586 16.3406 24.4486" stroke="white" stroke-width="1.1" stroke-linecap="round" stroke-linejoin="round"/>
<path d="M1 58.4392C1.07 57.7792 1.51008 56.1092 1.58008 55.4492C2.96008 57.9392 4.23999 60.8492 5.60999 63.3392" stroke="white" stroke-width="1.1" stroke-linecap="round" stroke-linejoin="round"/>
<path d="M28.4102 9.8306C28.6802 9.4206 28.9701 7.64062 28.9701 7.64062C28.9701 7.64062 31.9001 13.6206 33.2201 16.3006" stroke="white" stroke-width="1.1" stroke-linecap="round" stroke-linejoin="round"/>
<path d="M67.8906 24.9595C68.1606 24.5495 68.4507 22.7695 68.4507 22.7695C68.4507 22.7695 71.3807 28.7495 72.7007 31.4295" stroke="white" stroke-width="1.1" stroke-linecap="round" stroke-linejoin="round"/>
<path d="M8.25 33.3811C8.74 32.2811 8.61009 32.0811 8.59009 30.8711C9.43009 31.2711 11.37 35.9311 12.62 38.7611" stroke="white" stroke-width="1.1" stroke-linecap="round" stroke-linejoin="round"/>
<path d="M4 45.8694C4.49 44.7694 4.36009 44.5694 4.34009 43.3594C5.18009 43.7594 7.12 48.4194 8.37 51.2494" stroke="white" stroke-width="1.1" stroke-linecap="round" stroke-linejoin="round"/>
<path d="M24.49 27.5584C23.5 25.0084 25.8301 20.2984 29.0301 23.5784C31.4701 26.0684 26.98 32.0684 26.98 32.0684C29.88 31.2984 32.9601 29.3184 32.9601 29.3184" stroke="white" stroke-width="1.1" stroke-linecap="round" stroke-linejoin="round"/>
<path d="M43.3906 17.2502C43.7506 15.8902 44.1106 14.5202 44.4706 13.1602C46.1306 15.8102 48.6206 22.2301 48.7206 21.9601" stroke="white" stroke-width="1.1" stroke-linecap="round" stroke-linejoin="round"/>
<path d="M19.6895 38.3501C20.1195 37.7301 20.5595 37.0901 21.1995 36.6901C21.8395 36.2901 22.7395 36.2101 23.3195 36.6901C23.9995 37.2601 23.9294 38.4 23.3894 39.11C22.8494 39.82 21.9594 40.1601 21.0994 40.3901C21.6394 39.8901 22.2594 39.4901 22.9294 39.2001C23.6094 38.9101 24.4394 38.76 25.0394 39.18C25.7194 39.66 25.7794 40.69 25.3994 41.43C25.0194 42.17 24.3094 42.6701 23.6194 43.1301C23.0094 43.5401 22.2095 43.94 21.5795 43.56" stroke="white" stroke-width="1.1" stroke-linecap="round" stroke-linejoin="round"/>
<path d="M38.7598 28.259C39.1798 27.659 39.6197 27.039 40.2197 26.629C40.8197 26.219 41.6398 26.019 42.2998 26.349C43.2598 26.819 43.4698 28.219 42.8998 29.119C42.3298 30.019 41.2398 30.479 40.1798 30.579C41.3598 29.599 42.9998 29.199 44.4998 29.509C45.0298 29.619 45.5798 29.849 45.8198 30.339C46.1898 31.119 45.5398 31.979 44.9098 32.559C43.9098 33.469 42.5898 34.339 41.2898 33.969" stroke="white" stroke-width="1.1" stroke-linecap="round" stroke-linejoin="round"/>
<path d="M34.9707 38.5781C33.0507 39.3681 32.2207 41.8181 32.7207 43.8381C32.9807 44.8981 33.5709 45.9081 34.4609 46.5381C36.1509 47.7281 38.8109 47.1381 39.8409 45.3481C40.1009 44.9081 40.2607 44.3681 40.1007 43.8781C39.8007 42.9281 38.4309 42.7381 37.5909 43.2681C36.7509 43.7981 36.3308 44.7782 35.9508 45.6982C35.7408 46.2082 35.5808 46.8982 36.0408 47.1982" stroke="white" stroke-width="1.1" stroke-linecap="round" stroke-linejoin="round"/>
<path d="M17.5703 48.3398C19.2403 50.6198 20.7003 53.0699 21.9103 55.6299C21.7303 55.5799 21.5602 55.5298 21.3802 55.4698" stroke="white" stroke-width="1.1" stroke-linecap="round" stroke-linejoin="round"/>
<path d="M15.9202 48.6914C15.8702 50.7814 15.7002 52.8614 15.4102 54.9214C17.0102 54.2114 18.6102 53.5114 20.2102 52.8014C20.4702 52.6914 20.7502 52.5414 20.8102 52.2614" stroke="white" stroke-width="1.1" stroke-linecap="round" stroke-linejoin="round"/>
<path d="M54.3906 29.3203C55.6506 32.1103 57.0007 34.8703 58.4407 37.5803" stroke="white" stroke-width="1.1" stroke-linecap="round" stroke-linejoin="round"/>
<path d="M52.36 30.4688C52.66 32.2587 52.4801 34.1288 51.8301 35.8188C53.9301 35.3388 55.98 34.6187 57.92 33.6787" stroke="white" stroke-width="1.1" stroke-linecap="round" stroke-linejoin="round"/>
</svg>
