<svg width="53" height="53" viewBox="0 0 53 53" fill="none" xmlns="http://www.w3.org/2000/svg">
<path d="M26.36 51.72C40.3659 51.72 51.72 40.3659 51.72 26.36C51.72 12.3541 40.3659 1 26.36 1C12.354 1 1 12.3541 1 26.36C1 40.3659 12.354 51.72 26.36 51.72Z" stroke="white" stroke-width="1.5" stroke-linecap="round" stroke-linejoin="round"/>
<path d="M51.7204 26.3594C51.7204 32.9794 40.3704 38.3494 26.3604 38.3494C-7.29961 37.6894 -7.28961 15.0194 26.3604 14.3594C40.3704 14.3594 51.7204 19.7294 51.7204 26.3494V26.3594Z" stroke="white" stroke-width="1.5" stroke-linecap="round" stroke-linejoin="round"/>
<path d="M26.3591 51.7184C19.7391 51.7184 14.3691 40.3684 14.3691 26.3584C15.0291 -7.30156 37.6991 -7.29156 38.3591 26.3584C38.3591 40.3684 32.9891 51.7184 26.3691 51.7184H26.3591Z" stroke="white" stroke-width="1.5" stroke-linecap="round" stroke-linejoin="round"/>
</svg>
