<svg width="1187" height="620" viewBox="0 0 1187 620" fill="none" xmlns="http://www.w3.org/2000/svg">
<g clip-path="url(#clip0_620_1694)">
<g style="mix-blend-mode:soft-light" opacity="0.7">
<path d="M-1603.23 -265.668H-1667.67V-201.229M-1603.23 -265.668V-201.229M-1603.23 -265.668H-1538.79M-1603.23 -201.229H-1667.67M-1603.23 -201.229V-136.789M-1603.23 -201.229H-1538.79M-1667.67 -201.229V-136.789M-1603.23 -136.789H-1667.67M-1603.23 -136.789V-72.3496M-1603.23 -136.789H-1538.79M-1667.67 -136.789V-72.3496M-1603.23 -72.3496H-1667.67M-1603.23 -72.3496V-7.91011M-1603.23 -72.3496H-1538.79M-1667.67 -72.3496V-7.91011M-1603.23 -7.91011H-1667.67M-1603.23 -7.91011V56.5293M-1603.23 -7.91011H-1538.79M-1667.67 -7.91011V56.5293M-1603.23 56.5293H-1667.67M-1603.23 56.5293V120.969M-1603.23 56.5293H-1538.79M-1667.67 56.5293V120.969M-1603.23 120.969H-1667.67M-1603.23 120.969V185.408M-1603.23 120.969H-1538.79M-1667.67 120.969V185.408M-1603.23 185.408H-1667.67M-1603.23 185.408V249.848M-1603.23 185.408H-1538.79M-1667.67 185.408V249.848M-1603.23 249.848H-1667.67M-1603.23 249.848V314.287M-1603.23 249.848H-1538.79M-1667.67 249.848V314.287M-1603.23 314.287H-1667.67M-1603.23 314.287V378.727M-1603.23 314.287H-1538.79M-1667.67 314.287V378.727M-1603.23 378.727H-1667.67M-1603.23 378.727V443.166M-1603.23 378.727H-1538.79M-1667.67 378.727V443.166M-1603.23 443.166H-1667.67M-1603.23 443.166V507.606M-1603.23 443.166H-1538.79M-1667.67 443.166V507.606M-1603.23 507.606H-1667.67M-1603.23 507.606V572.045M-1603.23 507.606H-1538.79M-1667.67 507.606V572.045M-1603.23 572.045H-1667.67M-1603.23 572.045V636.485M-1603.23 572.045H-1538.79M-1667.67 572.045V636.485M-1603.23 636.485H-1667.67M-1603.23 636.485V700.924M-1603.23 636.485H-1538.79M-1667.67 636.485V700.924M-1603.23 700.924H-1667.67M-1603.23 700.924V765.363M-1603.23 700.924H-1538.79M-1667.67 700.924V765.363M-1603.23 765.363H-1667.67M-1603.23 765.363V829.803M-1603.23 765.363H-1538.79M-1667.67 765.363V829.803M-1603.23 829.803H-1667.67M-1603.23 829.803V894.242M-1603.23 829.803H-1538.79M-1667.67 829.803V894.242M-1603.23 894.242H-1667.67M-1603.23 894.242V958.682M-1603.23 894.242H-1538.79M-1667.67 894.242V958.682M-1603.23 958.682H-1667.67M-1603.23 958.682V1023.12M-1603.23 958.682H-1538.79M-1667.67 958.682V1023.12H-1603.23M-1603.23 1023.12H-1538.79M-1538.79 -265.668V-201.229M-1538.79 -265.668H-1474.35M-1538.79 -201.229V-136.789M-1538.79 -201.229H-1474.35M-1538.79 -136.789V-72.3496M-1538.79 -136.789H-1474.35M-1538.79 -72.3496V-7.91011M-1538.79 -72.3496H-1474.35M-1538.79 -7.91011V56.5293M-1538.79 -7.91011H-1474.35M-1538.79 56.5293V120.969M-1538.79 56.5293H-1474.35M-1538.79 120.969V185.408M-1538.79 120.969H-1474.35M-1538.79 185.408V249.848M-1538.79 185.408H-1474.35M-1538.79 249.848V314.287M-1538.79 249.848H-1474.35M-1538.79 314.287V378.727M-1538.79 314.287H-1474.35M-1538.79 378.727V443.166M-1538.79 378.727H-1474.35M-1538.79 443.166V507.606M-1538.79 443.166H-1474.35M-1538.79 507.606V572.045M-1538.79 507.606H-1474.35M-1538.79 572.045V636.485M-1538.79 572.045H-1474.35M-1538.79 636.485V700.924M-1538.79 636.485H-1474.35M-1538.79 700.924V765.363M-1538.79 700.924H-1474.35M-1538.79 765.363V829.803M-1538.79 765.363H-1474.35M-1538.79 829.803V894.242M-1538.79 829.803H-1474.35M-1538.79 894.242V958.682M-1538.79 894.242H-1474.35M-1538.79 958.682V1023.12M-1538.79 958.682H-1474.35M-1538.79 1023.12H-1474.35M-1474.35 -265.668V-201.229M-1474.35 -265.668H-1409.91M-1474.35 -201.229V-136.789M-1474.35 -201.229H-1409.91M-1474.35 -136.789V-72.3496M-1474.35 -136.789H-1409.91M-1474.35 -72.3496V-7.91011M-1474.35 -72.3496H-1409.91M-1474.35 -7.91011V56.5293M-1474.35 -7.91011H-1409.91M-1474.35 56.5293V120.969M-1474.35 56.5293H-1409.91M-1474.35 120.969V185.408M-1474.35 120.969H-1409.91M-1474.35 185.408V249.848M-1474.35 185.408H-1409.91M-1474.35 249.848V314.287M-1474.35 249.848H-1409.91M-1474.35 314.287V378.727M-1474.35 314.287H-1409.91M-1474.35 378.727V443.166M-1474.35 378.727H-1409.91M-1474.35 443.166V507.606M-1474.35 443.166H-1409.91M-1474.35 507.606V572.045M-1474.35 507.606H-1409.91M-1474.35 572.045V636.485M-1474.35 572.045H-1409.91M-1474.35 636.485V700.924M-1474.35 636.485H-1409.91M-1474.35 700.924V765.363M-1474.35 700.924H-1409.91M-1474.35 765.363V829.803M-1474.35 765.363H-1409.91M-1474.35 829.803V894.242M-1474.35 829.803H-1409.91M-1474.35 894.242V958.682M-1474.35 894.242H-1409.91M-1474.35 958.682V1023.12M-1474.35 958.682H-1409.91M-1474.35 1023.12H-1409.91M-1409.91 -265.668V-201.229M-1409.91 -265.668H-1345.47M-1409.91 -201.229V-136.789M-1409.91 -201.229H-1345.47M-1409.91 -136.789V-72.3496M-1409.91 -136.789H-1345.47M-1409.91 -72.3496V-7.91011M-1409.91 -72.3496H-1345.47M-1409.91 -7.91011V56.5293M-1409.91 -7.91011H-1345.47M-1409.91 56.5293V120.969M-1409.91 56.5293H-1345.47M-1409.91 120.969V185.408M-1409.91 120.969H-1345.47M-1409.91 185.408V249.848M-1409.91 185.408H-1345.47M-1409.91 249.848V314.287M-1409.91 249.848H-1345.47M-1409.91 314.287V378.727M-1409.91 314.287H-1345.47M-1409.91 378.727V443.166M-1409.91 378.727H-1345.47M-1409.91 443.166V507.606M-1409.91 443.166H-1345.47M-1409.91 507.606V572.045M-1409.91 507.606H-1345.47M-1409.91 572.045V636.485M-1409.91 572.045H-1345.47M-1409.91 636.485V700.924M-1409.91 636.485H-1345.47M-1409.91 700.924V765.363M-1409.91 700.924H-1345.47M-1409.91 765.363V829.803M-1409.91 765.363H-1345.47M-1409.91 829.803V894.242M-1409.91 829.803H-1345.47M-1409.91 894.242V958.682M-1409.91 894.242H-1345.47M-1409.91 958.682V1023.12M-1409.91 958.682H-1345.47M-1409.91 1023.12H-1345.47M-1345.47 -265.668V-201.229M-1345.47 -265.668H-1281.03M-1345.47 -201.229V-136.789M-1345.47 -201.229H-1281.03M-1345.47 -136.789V-72.3496M-1345.47 -136.789H-1281.03M-1345.47 -72.3496V-7.91011M-1345.47 -72.3496H-1281.03M-1345.47 -7.91011V56.5293M-1345.47 -7.91011H-1281.03M-1345.47 56.5293V120.969M-1345.47 56.5293H-1281.03M-1345.47 120.969V185.408M-1345.47 120.969H-1281.03M-1345.47 185.408V249.848M-1345.47 185.408H-1281.03M-1345.47 249.848V314.287M-1345.47 249.848H-1281.03M-1345.47 314.287V378.727M-1345.47 314.287H-1281.03M-1345.47 378.727V443.166M-1345.47 378.727H-1281.03M-1345.47 443.166V507.606M-1345.47 443.166H-1281.03M-1345.47 507.606V572.045M-1345.47 507.606H-1281.03M-1345.47 572.045V636.485M-1345.47 572.045H-1281.03M-1345.47 636.485V700.924M-1345.47 636.485H-1281.03M-1345.47 700.924V765.363M-1345.47 700.924H-1281.03M-1345.47 765.363V829.803M-1345.47 765.363H-1281.03M-1345.47 829.803V894.242M-1345.47 829.803H-1281.03M-1345.47 894.242V958.682M-1345.47 894.242H-1281.03M-1345.47 958.682V1023.12M-1345.47 958.682H-1281.03M-1345.47 1023.12H-1281.03M-1281.03 -265.668V-201.229M-1281.03 -265.668H-1216.59M-1281.03 -201.229V-136.789M-1281.03 -201.229H-1216.59M-1281.03 -136.789V-72.3496M-1281.03 -136.789H-1216.59M-1281.03 -72.3496V-7.91011M-1281.03 -72.3496H-1216.59M-1281.03 -7.91011V56.5293M-1281.03 -7.91011H-1216.59M-1281.03 56.5293V120.969M-1281.03 56.5293H-1216.59M-1281.03 120.969V185.408M-1281.03 120.969H-1216.59M-1281.03 185.408V249.848M-1281.03 185.408H-1216.59M-1281.03 249.848V314.287M-1281.03 249.848H-1216.59M-1281.03 314.287V378.727M-1281.03 314.287H-1216.59M-1281.03 378.727V443.166M-1281.03 378.727H-1216.59M-1281.03 443.166V507.606M-1281.03 443.166H-1216.59M-1281.03 507.606V572.045M-1281.03 507.606H-1216.59M-1281.03 572.045V636.485M-1281.03 572.045H-1216.59M-1281.03 636.485V700.924M-1281.03 636.485H-1216.59M-1281.03 700.924V765.363M-1281.03 700.924H-1216.59M-1281.03 765.363V829.803M-1281.03 765.363H-1216.59M-1281.03 829.803V894.242M-1281.03 829.803H-1216.59M-1281.03 894.242V958.682M-1281.03 894.242H-1216.59M-1281.03 958.682V1023.12M-1281.03 958.682H-1216.59M-1281.03 1023.12H-1216.59M-1216.59 -265.668V-201.229M-1216.59 -265.668H-1152.15M-1216.59 -201.229V-136.789M-1216.59 -201.229H-1152.15M-1216.59 -136.789V-72.3496M-1216.59 -136.789H-1152.15M-1216.59 -72.3496V-7.91011M-1216.59 -72.3496H-1152.15M-1216.59 -7.91011V56.5293M-1216.59 -7.91011H-1152.15M-1216.59 56.5293V120.969M-1216.59 56.5293H-1152.15M-1216.59 120.969V185.408M-1216.59 120.969H-1152.15M-1216.59 185.408V249.848M-1216.59 185.408H-1152.15M-1216.59 249.848V314.287M-1216.59 249.848H-1152.15M-1216.59 314.287V378.727M-1216.59 314.287H-1152.15M-1216.59 378.727V443.166M-1216.59 378.727H-1152.15M-1216.59 443.166V507.606M-1216.59 443.166H-1152.15M-1216.59 507.606V572.045M-1216.59 507.606H-1152.15M-1216.59 572.045V636.485M-1216.59 572.045H-1152.15M-1216.59 636.485V700.924M-1216.59 636.485H-1152.15M-1216.59 700.924V765.363M-1216.59 700.924H-1152.15M-1216.59 765.363V829.803M-1216.59 765.363H-1152.15M-1216.59 829.803V894.242M-1216.59 829.803H-1152.15M-1216.59 894.242V958.682M-1216.59 894.242H-1152.15M-1216.59 958.682V1023.12M-1216.59 958.682H-1152.15M-1216.59 1023.12H-1152.15M-1152.15 -265.668V-201.229M-1152.15 -265.668H-1087.71M-1152.15 -201.229V-136.789M-1152.15 -201.229H-1087.71M-1152.15 -136.789V-72.3496M-1152.15 -136.789H-1087.71M-1152.15 -72.3496V-7.91011M-1152.15 -72.3496H-1087.71M-1152.15 -7.91011V56.5293M-1152.15 -7.91011H-1087.71M-1152.15 56.5293V120.969M-1152.15 56.5293H-1087.71M-1152.15 120.969V185.408M-1152.15 120.969H-1087.71M-1152.15 185.408V249.848M-1152.15 185.408H-1087.71M-1152.15 249.848V314.287M-1152.15 249.848H-1087.71M-1152.15 314.287V378.727M-1152.15 314.287H-1087.71M-1152.15 378.727V443.166M-1152.15 378.727H-1087.71M-1152.15 443.166V507.606M-1152.15 443.166H-1087.71M-1152.15 507.606V572.045M-1152.15 507.606H-1087.71M-1152.15 572.045V636.485M-1152.15 572.045H-1087.71M-1152.15 636.485V700.924M-1152.15 636.485H-1087.71M-1152.15 700.924V765.363M-1152.15 700.924H-1087.71M-1152.15 765.363V829.803M-1152.15 765.363H-1087.71M-1152.15 829.803V894.242M-1152.15 829.803H-1087.71M-1152.15 894.242V958.682M-1152.15 894.242H-1087.71M-1152.15 958.682V1023.12M-1152.15 958.682H-1087.71M-1152.15 1023.12H-1087.71M-1087.71 -265.668V-201.229M-1087.71 -265.668H-1023.27M-1087.71 -201.229V-136.789M-1087.71 -201.229H-1023.27M-1087.71 -136.789V-72.3496M-1087.71 -136.789H-1023.27M-1087.71 -72.3496V-7.91011M-1087.71 -72.3496H-1023.27M-1087.71 -7.91011V56.5293M-1087.71 -7.91011H-1023.27M-1087.71 56.5293V120.969M-1087.71 56.5293H-1023.27M-1087.71 120.969V185.408M-1087.71 120.969H-1023.27M-1087.71 185.408V249.848M-1087.71 185.408H-1023.27M-1087.71 249.848V314.287M-1087.71 249.848H-1023.27M-1087.71 314.287V378.727M-1087.71 314.287H-1023.27M-1087.71 378.727V443.166M-1087.71 378.727H-1023.27M-1087.71 443.166V507.606M-1087.71 443.166H-1023.27M-1087.71 507.606V572.045M-1087.71 507.606H-1023.27M-1087.71 572.045V636.485M-1087.71 572.045H-1023.27M-1087.71 636.485V700.924M-1087.71 636.485H-1023.27M-1087.71 700.924V765.363M-1087.71 700.924H-1023.27M-1087.71 765.363V829.803M-1087.71 765.363H-1023.27M-1087.71 829.803V894.242M-1087.71 829.803H-1023.27M-1087.71 894.242V958.682M-1087.71 894.242H-1023.27M-1087.71 958.682V1023.12M-1087.71 958.682H-1023.27M-1087.71 1023.12H-1023.27M-1023.27 -265.668V-201.229M-1023.27 -265.668H-958.834M-1023.27 -201.229V-136.789M-1023.27 -201.229H-958.834M-1023.27 -136.789V-72.3496M-1023.27 -136.789H-958.834M-1023.27 -72.3496V-7.91011M-1023.27 -72.3496H-958.834M-1023.27 -7.91011V56.5293M-1023.27 -7.91011H-958.834M-1023.27 56.5293V120.969M-1023.27 56.5293H-958.834M-1023.27 120.969V185.408M-1023.27 120.969H-958.834M-1023.27 185.408V249.848M-1023.27 185.408H-958.834M-1023.27 249.848V314.287M-1023.27 249.848H-958.834M-1023.27 314.287V378.727M-1023.27 314.287H-958.834M-1023.27 378.727V443.166M-1023.27 378.727H-958.834M-1023.27 443.166V507.606M-1023.27 443.166H-958.834M-1023.27 507.606V572.045M-1023.27 507.606H-958.834M-1023.27 572.045V636.485M-1023.27 572.045H-958.834M-1023.27 636.485V700.924M-1023.27 636.485H-958.834M-1023.27 700.924V765.363M-1023.27 700.924H-958.834M-1023.27 765.363V829.803M-1023.27 765.363H-958.834M-1023.27 829.803V894.242M-1023.27 829.803H-958.834M-1023.27 894.242V958.682M-1023.27 894.242H-958.834M-1023.27 958.682V1023.12M-1023.27 958.682H-958.834M-1023.27 1023.12H-958.834M-958.834 -265.668V-201.229M-958.834 -265.668H-894.394M-958.834 -201.229V-136.789M-958.834 -201.229H-894.394M-958.834 -136.789V-72.3496M-958.834 -136.789H-894.394M-958.834 -72.3496V-7.91011M-958.834 -72.3496H-894.394M-958.834 -7.91011V56.5293M-958.834 -7.91011H-894.394M-958.834 56.5293V120.969M-958.834 56.5293H-894.394M-958.834 120.969V185.408M-958.834 120.969H-894.394M-958.834 185.408V249.848M-958.834 185.408H-894.394M-958.834 249.848V314.287M-958.834 249.848H-894.394M-958.834 314.287V378.727M-958.834 314.287H-894.394M-958.834 378.727V443.166M-958.834 378.727H-894.394M-958.834 443.166V507.606M-958.834 443.166H-894.394M-958.834 507.606V572.045M-958.834 507.606H-894.394M-958.834 572.045V636.485M-958.834 572.045H-894.394M-958.834 636.485V700.924M-958.834 636.485H-894.394M-958.834 700.924V765.363M-958.834 700.924H-894.394M-958.834 765.363V829.803M-958.834 765.363H-894.394M-958.834 829.803V894.242M-958.834 829.803H-894.394M-958.834 894.242V958.682M-958.834 894.242H-894.394M-958.834 958.682V1023.12M-958.834 958.682H-894.394M-958.834 1023.12H-894.394M-894.394 -265.668V-201.229M-894.394 -265.668H-829.955M-894.394 -201.229V-136.789M-894.394 -201.229H-829.955M-894.394 -136.789V-72.3496M-894.394 -136.789H-829.955M-894.394 -72.3496V-7.91011M-894.394 -72.3496H-829.955M-894.394 -7.91011V56.5293M-894.394 -7.91011H-829.955M-894.394 56.5293V120.969M-894.394 56.5293H-829.955M-894.394 120.969V185.408M-894.394 120.969H-829.955M-894.394 185.408V249.848M-894.394 185.408H-829.955M-894.394 249.848V314.287M-894.394 249.848H-829.955M-894.394 314.287V378.727M-894.394 314.287H-829.955M-894.394 378.727V443.166M-894.394 378.727H-829.955M-894.394 443.166V507.606M-894.394 443.166H-829.955M-894.394 507.606V572.045M-894.394 507.606H-829.955M-894.394 572.045V636.485M-894.394 572.045H-829.955M-894.394 636.485V700.924M-894.394 636.485H-829.955M-894.394 700.924V765.363M-894.394 700.924H-829.955M-894.394 765.363V829.803M-894.394 765.363H-829.955M-894.394 829.803V894.242M-894.394 829.803H-829.955M-894.394 894.242V958.682M-894.394 894.242H-829.955M-894.394 958.682V1023.12M-894.394 958.682H-829.955M-894.394 1023.12H-829.955M-829.955 -265.668V-201.229M-829.955 -265.668H-765.515M-829.955 -201.229V-136.789M-829.955 -201.229H-765.515M-829.955 -136.789V-72.3496M-829.955 -136.789H-765.515M-829.955 -72.3496V-7.91011M-829.955 -72.3496H-765.515M-829.955 -7.91011V56.5293M-829.955 -7.91011H-765.515M-829.955 56.5293V120.969M-829.955 56.5293H-765.515M-829.955 120.969V185.408M-829.955 120.969H-765.515M-829.955 185.408V249.848M-829.955 185.408H-765.515M-829.955 249.848V314.287M-829.955 249.848H-765.515M-829.955 314.287V378.727M-829.955 314.287H-765.515M-829.955 378.727V443.166M-829.955 378.727H-765.515M-829.955 443.166V507.606M-829.955 443.166H-765.515M-829.955 507.606V572.045M-829.955 507.606H-765.515M-829.955 572.045V636.485M-829.955 572.045H-765.515M-829.955 636.485V700.924M-829.955 636.485H-765.515M-829.955 700.924V765.363M-829.955 700.924H-765.515M-829.955 765.363V829.803M-829.955 765.363H-765.515M-829.955 829.803V894.242M-829.955 829.803H-765.515M-829.955 894.242V958.682M-829.955 894.242H-765.515M-829.955 958.682V1023.12M-829.955 958.682H-765.515M-829.955 1023.12H-765.515M-765.515 -265.668V-201.229M-765.515 -265.668H-701.076M-765.515 -201.229V-136.789M-765.515 -201.229H-701.076M-765.515 -136.789V-72.3496M-765.515 -136.789H-701.076M-765.515 -72.3496V-7.91011M-765.515 -72.3496H-701.076M-765.515 -7.91011V56.5293M-765.515 -7.91011H-701.076M-765.515 56.5293V120.969M-765.515 56.5293H-701.076M-765.515 120.969V185.408M-765.515 120.969H-701.076M-765.515 185.408V249.848M-765.515 185.408H-701.076M-765.515 249.848V314.287M-765.515 249.848H-701.076M-765.515 314.287V378.727M-765.515 314.287H-701.076M-765.515 378.727V443.166M-765.515 378.727H-701.076M-765.515 443.166V507.606M-765.515 443.166H-701.076M-765.515 507.606V572.045M-765.515 507.606H-701.076M-765.515 572.045V636.485M-765.515 572.045H-701.076M-765.515 636.485V700.924M-765.515 636.485H-701.076M-765.515 700.924V765.363M-765.515 700.924H-701.076M-765.515 765.363V829.803M-765.515 765.363H-701.076M-765.515 829.803V894.242M-765.515 829.803H-701.076M-765.515 894.242V958.682M-765.515 894.242H-701.076M-765.515 958.682V1023.12M-765.515 958.682H-701.076M-765.515 1023.12H-701.076M-701.076 -265.668V-201.229M-701.076 -265.668H-636.636M-701.076 -201.229V-136.789M-701.076 -201.229H-636.636M-701.076 -136.789V-72.3496M-701.076 -136.789H-636.636M-701.076 -72.3496V-7.91011M-701.076 -72.3496H-636.636M-701.076 -7.91011V56.5293M-701.076 -7.91011H-636.636M-701.076 56.5293V120.969M-701.076 56.5293H-636.636M-701.076 120.969V185.408M-701.076 120.969H-636.636M-701.076 185.408V249.848M-701.076 185.408H-636.636M-701.076 249.848V314.287M-701.076 249.848H-636.636M-701.076 314.287V378.727M-701.076 314.287H-636.636M-701.076 378.727V443.166M-701.076 378.727H-636.636M-701.076 443.166V507.606M-701.076 443.166H-636.636M-701.076 507.606V572.045M-701.076 507.606H-636.636M-701.076 572.045V636.485M-701.076 572.045H-636.636M-701.076 636.485V700.924M-701.076 636.485H-636.636M-701.076 700.924V765.363M-701.076 700.924H-636.636M-701.076 765.363V829.803M-701.076 765.363H-636.636M-701.076 829.803V894.242M-701.076 829.803H-636.636M-701.076 894.242V958.682M-701.076 894.242H-636.636M-701.076 958.682V1023.12M-701.076 958.682H-636.636M-701.076 1023.12H-636.636M-636.636 -265.668V-201.229M-636.636 -265.668H-572.197M-636.636 -201.229V-136.789M-636.636 -201.229H-572.197M-636.636 -136.789V-72.3496M-636.636 -136.789H-572.197M-636.636 -72.3496V-7.91011M-636.636 -72.3496H-572.197M-636.636 -7.91011V56.5293M-636.636 -7.91011H-572.197M-636.636 56.5293V120.969M-636.636 56.5293H-572.197M-636.636 120.969V185.408M-636.636 120.969H-572.197M-636.636 185.408V249.848M-636.636 185.408H-572.197M-636.636 249.848V314.287M-636.636 249.848H-572.197M-636.636 314.287V378.727M-636.636 314.287H-572.197M-636.636 378.727V443.166M-636.636 378.727H-572.197M-636.636 443.166V507.606M-636.636 443.166H-572.197M-636.636 507.606V572.045M-636.636 507.606H-572.197M-636.636 572.045V636.485M-636.636 572.045H-572.197M-636.636 636.485V700.924M-636.636 636.485H-572.197M-636.636 700.924V765.363M-636.636 700.924H-572.197M-636.636 765.363V829.803M-636.636 765.363H-572.197M-636.636 829.803V894.242M-636.636 829.803H-572.197M-636.636 894.242V958.682M-636.636 894.242H-572.197M-636.636 958.682V1023.12M-636.636 958.682H-572.197M-636.636 1023.12H-572.197M-572.197 -265.668V-201.229M-572.197 -265.668H-507.758M-572.197 -201.229V-136.789M-572.197 -201.229H-507.758M-572.197 -136.789V-72.3496M-572.197 -136.789H-507.758M-572.197 -72.3496V-7.91011M-572.197 -72.3496H-507.758M-572.197 -7.91011V56.5293M-572.197 -7.91011H-507.758M-572.197 56.5293V120.969M-572.197 56.5293H-507.758M-572.197 120.969V185.408M-572.197 120.969H-507.758M-572.197 185.408V249.848M-572.197 185.408H-507.758M-572.197 249.848V314.287M-572.197 249.848H-507.758M-572.197 314.287V378.727M-572.197 314.287H-507.758M-572.197 378.727V443.166M-572.197 378.727H-507.758M-572.197 443.166V507.606M-572.197 443.166H-507.758M-572.197 507.606V572.045M-572.197 507.606H-507.758M-572.197 572.045V636.485M-572.197 572.045H-507.758M-572.197 636.485V700.924M-572.197 636.485H-507.758M-572.197 700.924V765.363M-572.197 700.924H-507.758M-572.197 765.363V829.803M-572.197 765.363H-507.758M-572.197 829.803V894.242M-572.197 829.803H-507.758M-572.197 894.242V958.682M-572.197 894.242H-507.758M-572.197 958.682V1023.12M-572.197 958.682H-507.758M-572.197 1023.12H-507.758M-507.758 -265.668V-201.229M-507.758 -265.668H-443.318M-507.758 -201.229V-136.789M-507.758 -201.229H-443.318M-507.758 -136.789V-72.3496M-507.758 -136.789H-443.318M-507.758 -72.3496V-7.91011M-507.758 -72.3496H-443.318M-507.758 -7.91011V56.5293M-507.758 -7.91011H-443.318M-507.758 56.5293V120.969M-507.758 56.5293H-443.318M-507.758 120.969V185.408M-507.758 120.969H-443.318M-507.758 185.408V249.848M-507.758 185.408H-443.318M-507.758 249.848V314.287M-507.758 249.848H-443.318M-507.758 314.287V378.727M-507.758 314.287H-443.318M-507.758 378.727V443.166M-507.758 378.727H-443.318M-507.758 443.166V507.606M-507.758 443.166H-443.318M-507.758 507.606V572.045M-507.758 507.606H-443.318M-507.758 572.045V636.485M-507.758 572.045H-443.318M-507.758 636.485V700.924M-507.758 636.485H-443.318M-507.758 700.924V765.363M-507.758 700.924H-443.318M-507.758 765.363V829.803M-507.758 765.363H-443.318M-507.758 829.803V894.242M-507.758 829.803H-443.318M-507.758 894.242V958.682M-507.758 894.242H-443.318M-507.758 958.682V1023.12M-507.758 958.682H-443.318M-507.758 1023.12H-443.318M-443.318 -265.668V-201.229M-443.318 -265.668H-378.879M-443.318 -201.229V-136.789M-443.318 -201.229H-378.879M-443.318 -136.789V-72.3496M-443.318 -136.789H-378.879M-443.318 -72.3496V-7.91011M-443.318 -72.3496H-378.879M-443.318 -7.91011V56.5293M-443.318 -7.91011H-378.879M-443.318 56.5293V120.969M-443.318 56.5293H-378.879M-443.318 120.969V185.408M-443.318 120.969H-378.879M-443.318 185.408V249.848M-443.318 185.408H-378.879M-443.318 249.848V314.287M-443.318 249.848H-378.879M-443.318 314.287V378.727M-443.318 314.287H-378.879M-443.318 378.727V443.166M-443.318 378.727H-378.879M-443.318 443.166V507.606M-443.318 443.166H-378.879M-443.318 507.606V572.045M-443.318 507.606H-378.879M-443.318 572.045V636.485M-443.318 572.045H-378.879M-443.318 636.485V700.924M-443.318 636.485H-378.879M-443.318 700.924V765.363M-443.318 700.924H-378.879M-443.318 765.363V829.803M-443.318 765.363H-378.879M-443.318 829.803V894.242M-443.318 829.803H-378.879M-443.318 894.242V958.682M-443.318 894.242H-378.879M-443.318 958.682V1023.12M-443.318 958.682H-378.879M-443.318 1023.12H-378.879M-378.879 -265.668V-201.229M-378.879 -265.668H-314.439M-378.879 -201.229V-136.789M-378.879 -201.229H-314.439M-378.879 -136.789V-72.3496M-378.879 -136.789H-314.439M-378.879 -72.3496V-7.91011M-378.879 -72.3496H-314.439M-378.879 -7.91011V56.5293M-378.879 -7.91011H-314.439M-378.879 56.5293V120.969M-378.879 56.5293H-314.439M-378.879 120.969V185.408M-378.879 120.969H-314.439M-378.879 185.408V249.848M-378.879 185.408H-314.439M-378.879 249.848V314.287M-378.879 249.848H-314.439M-378.879 314.287V378.727M-378.879 314.287H-314.439M-378.879 378.727V443.166M-378.879 378.727H-314.439M-378.879 443.166V507.606M-378.879 443.166H-314.439M-378.879 507.606V572.045M-378.879 507.606H-314.439M-378.879 572.045V636.485M-378.879 572.045H-314.439M-378.879 636.485V700.924M-378.879 636.485H-314.439M-378.879 700.924V765.363M-378.879 700.924H-314.439M-378.879 765.363V829.803M-378.879 765.363H-314.439M-378.879 829.803V894.242M-378.879 829.803H-314.439M-378.879 894.242V958.682M-378.879 894.242H-314.439M-378.879 958.682V1023.12M-378.879 958.682H-314.439M-378.879 1023.12H-314.439M-314.439 -265.668V-201.229M-314.439 -265.668H-250M-314.439 -201.229V-136.789M-314.439 -201.229H-250M-314.439 -136.789V-72.3496M-314.439 -136.789H-250M-314.439 -72.3496V-7.91011M-314.439 -72.3496H-250M-314.439 -7.91011V56.5293M-314.439 -7.91011H-250M-314.439 56.5293V120.969M-314.439 56.5293H-250M-314.439 120.969V185.408M-314.439 120.969H-250M-314.439 185.408V249.848M-314.439 185.408H-250M-314.439 249.848V314.287M-314.439 249.848H-250M-314.439 314.287V378.727M-314.439 314.287H-250M-314.439 378.727V443.166M-314.439 378.727H-250M-314.439 443.166V507.606M-314.439 443.166H-250M-314.439 507.606V572.045M-314.439 507.606H-250M-314.439 572.045V636.485M-314.439 572.045H-250M-314.439 636.485V700.924M-314.439 636.485H-250M-314.439 700.924V765.363M-314.439 700.924H-250M-314.439 765.363V829.803M-314.439 765.363H-250M-314.439 829.803V894.242M-314.439 829.803H-250M-314.439 894.242V958.682M-314.439 894.242H-250M-314.439 958.682V1023.12M-314.439 958.682H-250M-314.439 1023.12H-250M-250 -265.668V-201.229M-250 -265.668H-185.56M-250 -201.229V-136.789M-250 -201.229H-185.56M-250 -136.789V-72.3496M-250 -136.789H-185.56M-250 -72.3496V-7.91011M-250 -72.3496H-185.56M-250 -7.91011V56.5293M-250 -7.91011H-185.56M-250 56.5293V120.969M-250 56.5293H-185.56M-250 120.969V185.408M-250 120.969H-185.56M-250 185.408V249.848M-250 185.408H-185.56M-250 249.848V314.287M-250 249.848H-185.56M-250 314.287V378.727M-250 314.287H-185.56M-250 378.727V443.166M-250 378.727H-185.56M-250 443.166V507.606M-250 443.166H-185.56M-250 507.606V572.045M-250 507.606H-185.56M-250 572.045V636.485M-250 572.045H-185.56M-250 636.485V700.924M-250 636.485H-185.56M-250 700.924V765.363M-250 700.924H-185.56M-250 765.363V829.803M-250 765.363H-185.56M-250 829.803V894.242M-250 829.803H-185.56M-250 894.242V958.682M-250 894.242H-185.56M-250 958.682V1023.12M-250 958.682H-185.56M-250 1023.12H-185.56M-185.56 -265.668V-201.229M-185.56 -265.668H-121.121M-185.56 -201.229V-136.789M-185.56 -201.229H-121.121M-185.56 -136.789V-72.3496M-185.56 -136.789H-121.121M-185.56 -72.3496V-7.91011M-185.56 -72.3496H-121.121M-185.56 -7.91011V56.5293M-185.56 -7.91011H-121.121M-185.56 56.5293V120.969M-185.56 56.5293H-121.121M-185.56 120.969V185.408M-185.56 120.969H-121.121M-185.56 185.408V249.848M-185.56 185.408H-121.121M-185.56 249.848V314.287M-185.56 249.848H-121.121M-185.56 314.287V378.727M-185.56 314.287H-121.121M-185.56 378.727V443.166M-185.56 378.727H-121.121M-185.56 443.166V507.606M-185.56 443.166H-121.121M-185.56 507.606V572.045M-185.56 507.606H-121.121M-185.56 572.045V636.485M-185.56 572.045H-121.121M-185.56 636.485V700.924M-185.56 636.485H-121.121M-185.56 700.924V765.363M-185.56 700.924H-121.121M-185.56 765.363V829.803M-185.56 765.363H-121.121M-185.56 829.803V894.242M-185.56 829.803H-121.121M-185.56 894.242V958.682M-185.56 894.242H-121.121M-185.56 958.682V1023.12M-185.56 958.682H-121.121M-185.56 1023.12H-121.121M-121.121 -265.668V-201.229M-121.121 -265.668H-56.6813M-121.121 -201.229V-136.789M-121.121 -201.229H-56.6813M-121.121 -136.789V-72.3496M-121.121 -136.789H-56.6813M-121.121 -72.3496V-7.91011M-121.121 -72.3496H-56.6813M-121.121 -7.91011V56.5293M-121.121 -7.91011H-56.6813M-121.121 56.5293V120.969M-121.121 56.5293H-56.6813M-121.121 120.969V185.408M-121.121 120.969H-56.6813M-121.121 185.408V249.848M-121.121 185.408H-56.6813M-121.121 249.848V314.287M-121.121 249.848H-56.6813M-121.121 314.287V378.727M-121.121 314.287H-56.6813M-121.121 378.727V443.166M-121.121 378.727H-56.6813M-121.121 443.166V507.606M-121.121 443.166H-56.6813M-121.121 507.606V572.045M-121.121 507.606H-56.6813M-121.121 572.045V636.485M-121.121 572.045H-56.6813M-121.121 636.485V700.924M-121.121 636.485H-56.6813M-121.121 700.924V765.363M-121.121 700.924H-56.6813M-121.121 765.363V829.803M-121.121 765.363H-56.6813M-121.121 829.803V894.242M-121.121 829.803H-56.6813M-121.121 894.242V958.682M-121.121 894.242H-56.6813M-121.121 958.682V1023.12M-121.121 958.682H-56.6813M-121.121 1023.12H-56.6813M-56.6813 -265.668V-201.229M-56.6813 -265.668H7.75821M-56.6813 -201.229V-136.789M-56.6813 -201.229H7.75821M-56.6813 -136.789V-72.3496M-56.6813 -136.789H7.75821M-56.6813 -72.3496V-7.91011M-56.6813 -72.3496H7.75821M-56.6813 -7.91011V56.5293M-56.6813 -7.91011H7.75821M-56.6813 56.5293V120.969M-56.6813 56.5293H7.75821M-56.6813 120.969V185.408M-56.6813 120.969H7.75821M-56.6813 185.408V249.848M-56.6813 185.408H7.75821M-56.6813 249.848V314.287M-56.6813 249.848H7.75821M-56.6813 314.287V378.727M-56.6813 314.287H7.75821M-56.6813 378.727V443.166M-56.6813 378.727H7.75821M-56.6813 443.166V507.606M-56.6813 443.166H7.75821M-56.6813 507.606V572.045M-56.6813 507.606H7.75821M-56.6813 572.045V636.485M-56.6813 572.045H7.75821M-56.6813 636.485V700.924M-56.6813 636.485H7.75821M-56.6813 700.924V765.363M-56.6813 700.924H7.75821M-56.6813 765.363V829.803M-56.6813 765.363H7.75821M-56.6813 829.803V894.242M-56.6813 829.803H7.75821M-56.6813 894.242V958.682M-56.6813 894.242H7.75821M-56.6813 958.682V1023.12M-56.6813 958.682H7.75821M-56.6813 1023.12H7.75821M7.75821 -265.668V-201.229M7.75821 -265.668H72.1977M7.75821 -201.229V-136.789M7.75821 -201.229H72.1977M7.75821 -136.789V-72.3496M7.75821 -136.789H72.1977M7.75821 -72.3496V-7.91011M7.75821 -72.3496H72.1977M7.75821 -7.91011V56.5293M7.75821 -7.91011H72.1977M7.75821 56.5293V120.969M7.75821 56.5293H72.1977M7.75821 120.969V185.408M7.75821 120.969H72.1977M7.75821 185.408V249.848M7.75821 185.408H72.1977M7.75821 249.848V314.287M7.75821 249.848H72.1977M7.75821 314.287V378.727M7.75821 314.287H72.1977M7.75821 378.727V443.166M7.75821 378.727H72.1977M7.75821 443.166V507.606M7.75821 443.166H72.1977M7.75821 507.606V572.045M7.75821 507.606H72.1977M7.75821 572.045V636.485M7.75821 572.045H72.1977M7.75821 636.485V700.924M7.75821 636.485H72.1977M7.75821 700.924V765.363M7.75821 700.924H72.1977M7.75821 765.363V829.803M7.75821 765.363H72.1977M7.75821 829.803V894.242M7.75821 829.803H72.1977M7.75821 894.242V958.682M7.75821 894.242H72.1977M7.75821 958.682V1023.12M7.75821 958.682H72.1977M7.75821 1023.12H72.1977M72.1977 -265.668V-201.229M72.1977 -265.668H136.637M72.1977 -201.229V-136.789M72.1977 -201.229H136.637M72.1977 -136.789V-72.3496M72.1977 -136.789H136.637M72.1977 -72.3496V-7.91011M72.1977 -72.3496H136.637M72.1977 -7.91011V56.5293M72.1977 -7.91011H136.637M72.1977 56.5293V120.969M72.1977 56.5293H136.637M72.1977 120.969V185.408M72.1977 120.969H136.637M72.1977 185.408V249.848M72.1977 185.408H136.637M72.1977 249.848V314.287M72.1977 249.848H136.637M72.1977 314.287V378.727M72.1977 314.287H136.637M72.1977 378.727V443.166M72.1977 378.727H136.637M72.1977 443.166V507.606M72.1977 443.166H136.637M72.1977 507.606V572.045M72.1977 507.606H136.637M72.1977 572.045V636.485M72.1977 572.045H136.637M72.1977 636.485V700.924M72.1977 636.485H136.637M72.1977 700.924V765.363M72.1977 700.924H136.637M72.1977 765.363V829.803M72.1977 765.363H136.637M72.1977 829.803V894.242M72.1977 829.803H136.637M72.1977 894.242V958.682M72.1977 894.242H136.637M72.1977 958.682V1023.12M72.1977 958.682H136.637M72.1977 1023.12H136.637M136.637 -265.668V-201.229M136.637 -265.668H201.077M136.637 -201.229V-136.789M136.637 -201.229H201.077M136.637 -136.789V-72.3496M136.637 -136.789H201.077M136.637 -72.3496V-7.91011M136.637 -72.3496H201.077M136.637 -7.91011V56.5293M136.637 -7.91011H201.077M136.637 56.5293V120.969M136.637 56.5293H201.077M136.637 120.969V185.408M136.637 120.969H201.077M136.637 185.408V249.848M136.637 185.408H201.077M136.637 249.848V314.287M136.637 249.848H201.077M136.637 314.287V378.727M136.637 314.287H201.077M136.637 378.727V443.166M136.637 378.727H201.077M136.637 443.166V507.606M136.637 443.166H201.077M136.637 507.606V572.045M136.637 507.606H201.077M136.637 572.045V636.485M136.637 572.045H201.077M136.637 636.485V700.924M136.637 636.485H201.077M136.637 700.924V765.363M136.637 700.924H201.077M136.637 765.363V829.803M136.637 765.363H201.077M136.637 829.803V894.242M136.637 829.803H201.077M136.637 894.242V958.682M136.637 894.242H201.077M136.637 958.682V1023.12M136.637 958.682H201.077M136.637 1023.12H201.077M201.077 -265.668V-201.229M201.077 -265.668H265.516M201.077 -201.229V-136.789M201.077 -201.229H265.516M201.077 -136.789V-72.3496M201.077 -136.789H265.516M201.077 -72.3496V-7.91011M201.077 -72.3496H265.516M201.077 -7.91011V56.5293M201.077 -7.91011H265.516M201.077 56.5293V120.969M201.077 56.5293H265.516M201.077 120.969V185.408M201.077 120.969H265.516M201.077 185.408V249.848M201.077 185.408H265.516M201.077 249.848V314.287M201.077 249.848H265.516M201.077 314.287V378.727M201.077 314.287H265.516M201.077 378.727V443.166M201.077 378.727H265.516M201.077 443.166V507.606M201.077 443.166H265.516M201.077 507.606V572.045M201.077 507.606H265.516M201.077 572.045V636.485M201.077 572.045H265.516M201.077 636.485V700.924M201.077 636.485H265.516M201.077 700.924V765.363M201.077 700.924H265.516M201.077 765.363V829.803M201.077 765.363H265.516M201.077 829.803V894.242M201.077 829.803H265.516M201.077 894.242V958.682M201.077 894.242H265.516M201.077 958.682V1023.12M201.077 958.682H265.516M201.077 1023.12H265.516M265.516 -265.668V-201.229M265.516 -265.668H329.956M265.516 -201.229V-136.789M265.516 -201.229H329.956M265.516 -136.789V-72.3496M265.516 -136.789H329.956M265.516 -72.3496V-7.91011M265.516 -72.3496H329.956M265.516 -7.91011V56.5293M265.516 -7.91011H329.956M265.516 56.5293V120.969M265.516 56.5293H329.956M265.516 120.969V185.408M265.516 120.969H329.956M265.516 185.408V249.848M265.516 185.408H329.956M265.516 249.848V314.287M265.516 249.848H329.956M265.516 314.287V378.727M265.516 314.287H329.956M265.516 378.727V443.166M265.516 378.727H329.956M265.516 443.166V507.606M265.516 443.166H329.956M265.516 507.606V572.045M265.516 507.606H329.956M265.516 572.045V636.485M265.516 572.045H329.956M265.516 636.485V700.924M265.516 636.485H329.956M265.516 700.924V765.363M265.516 700.924H329.956M265.516 765.363V829.803M265.516 765.363H329.956M265.516 829.803V894.242M265.516 829.803H329.956M265.516 894.242V958.682M265.516 894.242H329.956M265.516 958.682V1023.12M265.516 958.682H329.956M265.516 1023.12H329.956M329.956 -265.668V-201.229M329.956 -265.668H394.395M329.956 -201.229V-136.789M329.956 -201.229H394.395M329.956 -136.789V-72.3496M329.956 -136.789H394.395M329.956 -72.3496V-7.91011M329.956 -72.3496H394.395M329.956 -7.91011V56.5293M329.956 -7.91011H394.395M329.956 56.5293V120.969M329.956 56.5293H394.395M329.956 120.969V185.408M329.956 120.969H394.395M329.956 185.408V249.848M329.956 185.408H394.395M329.956 249.848V314.287M329.956 249.848H394.395M329.956 314.287V378.727M329.956 314.287H394.395M329.956 378.727V443.166M329.956 378.727H394.395M329.956 443.166V507.606M329.956 443.166H394.395M329.956 507.606V572.045M329.956 507.606H394.395M329.956 572.045V636.485M329.956 572.045H394.395M329.956 636.485V700.924M329.956 636.485H394.395M329.956 700.924V765.363M329.956 700.924H394.395M329.956 765.363V829.803M329.956 765.363H394.395M329.956 829.803V894.242M329.956 829.803H394.395M329.956 894.242V958.682M329.956 894.242H394.395M329.956 958.682V1023.12M329.956 958.682H394.395M329.956 1023.12H394.395M394.395 -265.668V-201.229M394.395 -265.668H458.834M394.395 -201.229V-136.789M394.395 -201.229H458.834M394.395 -136.789V-72.3496M394.395 -136.789H458.834M394.395 -72.3496V-7.91011M394.395 -72.3496H458.834M394.395 -7.91011V56.5293M394.395 -7.91011H458.834M394.395 56.5293V120.969M394.395 56.5293H458.834M394.395 120.969V185.408M394.395 120.969H458.834M394.395 185.408V249.848M394.395 185.408H458.834M394.395 249.848V314.287M394.395 249.848H458.834M394.395 314.287V378.727M394.395 314.287H458.834M394.395 378.727V443.166M394.395 378.727H458.834M394.395 443.166V507.606M394.395 443.166H458.834M394.395 507.606V572.045M394.395 507.606H458.834M394.395 572.045V636.485M394.395 572.045H458.834M394.395 636.485V700.924M394.395 636.485H458.834M394.395 700.924V765.363M394.395 700.924H458.834M394.395 765.363V829.803M394.395 765.363H458.834M394.395 829.803V894.242M394.395 829.803H458.834M394.395 894.242V958.682M394.395 894.242H458.834M394.395 958.682V1023.12M394.395 958.682H458.834M394.395 1023.12H458.834M458.834 -265.668V-201.229M458.834 -265.668H523.274M458.834 -201.229V-136.789M458.834 -201.229H523.274M458.834 -136.789V-72.3496M458.834 -136.789H523.274M458.834 -72.3496V-7.91011M458.834 -72.3496H523.274M458.834 -7.91011V56.5293M458.834 -7.91011H523.274M458.834 56.5293V120.969M458.834 56.5293H523.274M458.834 120.969V185.408M458.834 120.969H523.274M458.834 185.408V249.848M458.834 185.408H523.274M458.834 249.848V314.287M458.834 249.848H523.274M458.834 314.287V378.727M458.834 314.287H523.274M458.834 378.727V443.166M458.834 378.727H523.274M458.834 443.166V507.606M458.834 443.166H523.274M458.834 507.606V572.045M458.834 507.606H523.274M458.834 572.045V636.485M458.834 572.045H523.274M458.834 636.485V700.924M458.834 636.485H523.274M458.834 700.924V765.363M458.834 700.924H523.274M458.834 765.363V829.803M458.834 765.363H523.274M458.834 829.803V894.242M458.834 829.803H523.274M458.834 894.242V958.682M458.834 894.242H523.274M458.834 958.682V1023.12M458.834 958.682H523.274M458.834 1023.12H523.274M523.274 -265.668V-201.229M523.274 -265.668H587.713M523.274 -201.229V-136.789M523.274 -201.229H587.713M523.274 -136.789V-72.3496M523.274 -136.789H587.713M523.274 -72.3496V-7.91011M523.274 -72.3496H587.713M523.274 -7.91011V56.5293M523.274 -7.91011H587.713M523.274 56.5293V120.969M523.274 56.5293H587.713M523.274 120.969V185.408M523.274 120.969H587.713M523.274 185.408V249.848M523.274 185.408H587.713M523.274 249.848V314.287M523.274 249.848H587.713M523.274 314.287V378.727M523.274 314.287H587.713M523.274 378.727V443.166M523.274 378.727H587.713M523.274 443.166V507.606M523.274 443.166H587.713M523.274 507.606V572.045M523.274 507.606H587.713M523.274 572.045V636.485M523.274 572.045H587.713M523.274 636.485V700.924M523.274 636.485H587.713M523.274 700.924V765.363M523.274 700.924H587.713M523.274 765.363V829.803M523.274 765.363H587.713M523.274 829.803V894.242M523.274 829.803H587.713M523.274 894.242V958.682M523.274 894.242H587.713M523.274 958.682V1023.12M523.274 958.682H587.713M523.274 1023.12H587.713M587.713 -265.668V-201.229M587.713 -265.668H652.153M587.713 -201.229V-136.789M587.713 -201.229H652.153M587.713 -136.789V-72.3496M587.713 -136.789H652.153M587.713 -72.3496V-7.91011M587.713 -72.3496H652.153M587.713 -7.91011V56.5293M587.713 -7.91011H652.153M587.713 56.5293V120.969M587.713 56.5293H652.153M587.713 120.969V185.408M587.713 120.969H652.153M587.713 185.408V249.848M587.713 185.408H652.153M587.713 249.848V314.287M587.713 249.848H652.153M587.713 314.287V378.727M587.713 314.287H652.153M587.713 378.727V443.166M587.713 378.727H652.153M587.713 443.166V507.606M587.713 443.166H652.153M587.713 507.606V572.045M587.713 507.606H652.153M587.713 572.045V636.485M587.713 572.045H652.153M587.713 636.485V700.924M587.713 636.485H652.153M587.713 700.924V765.363M587.713 700.924H652.153M587.713 765.363V829.803M587.713 765.363H652.153M587.713 829.803V894.242M587.713 829.803H652.153M587.713 894.242V958.682M587.713 894.242H652.153M587.713 958.682V1023.12M587.713 958.682H652.153M587.713 1023.12H652.153M652.153 -265.668V-201.229M652.153 -265.668H716.592M652.153 -201.229V-136.789M652.153 -201.229H716.592M652.153 -136.789V-72.3496M652.153 -136.789H716.592M652.153 -72.3496V-7.91011M652.153 -72.3496H716.592M652.153 -7.91011V56.5293M652.153 -7.91011H716.592M652.153 56.5293V120.969M652.153 56.5293H716.592M652.153 120.969V185.408M652.153 120.969H716.592M652.153 185.408V249.848M652.153 185.408H716.592M652.153 249.848V314.287M652.153 249.848H716.592M652.153 314.287V378.727M652.153 314.287H716.592M652.153 378.727V443.166M652.153 378.727H716.592M652.153 443.166V507.606M652.153 443.166H716.592M652.153 507.606V572.045M652.153 507.606H716.592M652.153 572.045V636.485M652.153 572.045H716.592M652.153 636.485V700.924M652.153 636.485H716.592M652.153 700.924V765.363M652.153 700.924H716.592M652.153 765.363V829.803M652.153 765.363H716.592M652.153 829.803V894.242M652.153 829.803H716.592M652.153 894.242V958.682M652.153 894.242H716.592M652.153 958.682V1023.12M652.153 958.682H716.592M652.153 1023.12H716.592M716.592 -265.668V-201.229M716.592 -265.668H781.032M716.592 -201.229V-136.789M716.592 -201.229H781.032M716.592 -136.789V-72.3496M716.592 -136.789H781.032M716.592 -72.3496V-7.91011M716.592 -72.3496H781.032M716.592 -7.91011V56.5293M716.592 -7.91011H781.032M716.592 56.5293V120.969M716.592 56.5293H781.032M716.592 120.969V185.408M716.592 120.969H781.032M716.592 185.408V249.848M716.592 185.408H781.032M716.592 249.848V314.287M716.592 249.848H781.032M716.592 314.287V378.727M716.592 314.287H781.032M716.592 378.727V443.166M716.592 378.727H781.032M716.592 443.166V507.606M716.592 443.166H781.032M716.592 507.606V572.045M716.592 507.606H781.032M716.592 572.045V636.485M716.592 572.045H781.032M716.592 636.485V700.924M716.592 636.485H781.032M716.592 700.924V765.363M716.592 700.924H781.032M716.592 765.363V829.803M716.592 765.363H781.032M716.592 829.803V894.242M716.592 829.803H781.032M716.592 894.242V958.682M716.592 894.242H781.032M716.592 958.682V1023.12M716.592 958.682H781.032M716.592 1023.12H781.032M781.032 -265.668V-201.229M781.032 -265.668H845.471M781.032 -201.229V-136.789M781.032 -201.229H845.471M781.032 -136.789V-72.3496M781.032 -136.789H845.471M781.032 -72.3496V-7.91011M781.032 -72.3496H845.471M781.032 -7.91011V56.5293M781.032 -7.91011H845.471M781.032 56.5293V120.969M781.032 56.5293H845.471M781.032 120.969V185.408M781.032 120.969H845.471M781.032 185.408V249.848M781.032 185.408H845.471M781.032 249.848V314.287M781.032 249.848H845.471M781.032 314.287V378.727M781.032 314.287H845.471M781.032 378.727V443.166M781.032 378.727H845.471M781.032 443.166V507.606M781.032 443.166H845.471M781.032 507.606V572.045M781.032 507.606H845.471M781.032 572.045V636.485M781.032 572.045H845.471M781.032 636.485V700.924M781.032 636.485H845.471M781.032 700.924V765.363M781.032 700.924H845.471M781.032 765.363V829.803M781.032 765.363H845.471M781.032 829.803V894.242M781.032 829.803H845.471M781.032 894.242V958.682M781.032 894.242H845.471M781.032 958.682V1023.12M781.032 958.682H845.471M781.032 1023.12H845.471M845.471 -265.668V-201.229M845.471 -265.668H909.911M845.471 -201.229V-136.789M845.471 -201.229H909.911M845.471 -136.789V-72.3496M845.471 -136.789H909.911M845.471 -72.3496V-7.91011M845.471 -72.3496H909.911M845.471 -7.91011V56.5293M845.471 -7.91011H909.911M845.471 56.5293V120.969M845.471 56.5293H909.911M845.471 120.969V185.408M845.471 120.969H909.911M845.471 185.408V249.848M845.471 185.408H909.911M845.471 249.848V314.287M845.471 249.848H909.911M845.471 314.287V378.727M845.471 314.287H909.911M845.471 378.727V443.166M845.471 378.727H909.911M845.471 443.166V507.606M845.471 443.166H909.911M845.471 507.606V572.045M845.471 507.606H909.911M845.471 572.045V636.485M845.471 572.045H909.911M845.471 636.485V700.924M845.471 636.485H909.911M845.471 700.924V765.363M845.471 700.924H909.911M845.471 765.363V829.803M845.471 765.363H909.911M845.471 829.803V894.242M845.471 829.803H909.911M845.471 894.242V958.682M845.471 894.242H909.911M845.471 958.682V1023.12M845.471 958.682H909.911M845.471 1023.12H909.911M909.911 -265.668V-201.229M909.911 -265.668H974.35M909.911 -201.229V-136.789M909.911 -201.229H974.35M909.911 -136.789V-72.3496M909.911 -136.789H974.35M909.911 -72.3496V-7.91011M909.911 -72.3496H974.35M909.911 -7.91011V56.5293M909.911 -7.91011H974.35M909.911 56.5293V120.969M909.911 56.5293H974.35M909.911 120.969V185.408M909.911 120.969H974.35M909.911 185.408V249.848M909.911 185.408H974.35M909.911 249.848V314.287M909.911 249.848H974.35M909.911 314.287V378.727M909.911 314.287H974.35M909.911 378.727V443.166M909.911 378.727H974.35M909.911 443.166V507.606M909.911 443.166H974.35M909.911 507.606V572.045M909.911 507.606H974.35M909.911 572.045V636.485M909.911 572.045H974.35M909.911 636.485V700.924M909.911 636.485H974.35M909.911 700.924V765.363M909.911 700.924H974.35M909.911 765.363V829.803M909.911 765.363H974.35M909.911 829.803V894.242M909.911 829.803H974.35M909.911 894.242V958.682M909.911 894.242H974.35M909.911 958.682V1023.12M909.911 958.682H974.35M909.911 1023.12H974.35M974.35 -265.668V-201.229M974.35 -265.668H1038.79M974.35 -201.229V-136.789M974.35 -201.229H1038.79M974.35 -136.789V-72.3496M974.35 -136.789H1038.79M974.35 -72.3496V-7.91011M974.35 -72.3496H1038.79M974.35 -7.91011V56.5293M974.35 -7.91011H1038.79M974.35 56.5293V120.969M974.35 56.5293H1038.79M974.35 120.969V185.408M974.35 120.969H1038.79M974.35 185.408V249.848M974.35 185.408H1038.79M974.35 249.848V314.287M974.35 249.848H1038.79M974.35 314.287V378.727M974.35 314.287H1038.79M974.35 378.727V443.166M974.35 378.727H1038.79M974.35 443.166V507.606M974.35 443.166H1038.79M974.35 507.606V572.045M974.35 507.606H1038.79M974.35 572.045V636.485M974.35 572.045H1038.79M974.35 636.485V700.924M974.35 636.485H1038.79M974.35 700.924V765.363M974.35 700.924H1038.79M974.35 765.363V829.803M974.35 765.363H1038.79M974.35 829.803V894.242M974.35 829.803H1038.79M974.35 894.242V958.682M974.35 894.242H1038.79M974.35 958.682V1023.12M974.35 958.682H1038.79M974.35 1023.12H1038.79M1038.79 -265.668V-201.229M1038.79 -265.668H1103.23M1038.79 -201.229V-136.789M1038.79 -201.229H1103.23M1038.79 -136.789V-72.3496M1038.79 -136.789H1103.23M1038.79 -72.3496V-7.91011M1038.79 -72.3496H1103.23M1038.79 -7.91011V56.5293M1038.79 -7.91011H1103.23M1038.79 56.5293V120.969M1038.79 56.5293H1103.23M1038.79 120.969V185.408M1038.79 120.969H1103.23M1038.79 185.408V249.848M1038.79 185.408H1103.23M1038.79 249.848V314.287M1038.79 249.848H1103.23M1038.79 314.287V378.727M1038.79 314.287H1103.23M1038.79 378.727V443.166M1038.79 378.727H1103.23M1038.79 443.166V507.606M1038.79 443.166H1103.23M1038.79 507.606V572.045M1038.79 507.606H1103.23M1038.79 572.045V636.485M1038.79 572.045H1103.23M1038.79 636.485V700.924M1038.79 636.485H1103.23M1038.79 700.924V765.363M1038.79 700.924H1103.23M1038.79 765.363V829.803M1038.79 765.363H1103.23M1038.79 829.803V894.242M1038.79 829.803H1103.23M1038.79 894.242V958.682M1038.79 894.242H1103.23M1038.79 958.682V1023.12M1038.79 958.682H1103.23M1038.79 1023.12H1103.23M1103.23 -265.668V-201.229M1103.23 -265.668H1167.67V-201.229M1103.23 -201.229V-136.789M1103.23 -201.229H1167.67M1103.23 -136.789V-72.3496M1103.23 -136.789H1167.67M1103.23 -72.3496V-7.91011M1103.23 -72.3496H1167.67M1103.23 -7.91011V56.5293M1103.23 -7.91011H1167.67M1103.23 56.5293V120.969M1103.23 56.5293H1167.67M1103.23 120.969V185.408M1103.23 120.969H1167.67M1103.23 185.408V249.848M1103.23 185.408H1167.67M1103.23 249.848V314.287M1103.23 249.848H1167.67M1103.23 314.287V378.727M1103.23 314.287H1167.67M1103.23 378.727V443.166M1103.23 378.727H1167.67M1103.23 443.166V507.606M1103.23 443.166H1167.67M1103.23 507.606V572.045M1103.23 507.606H1167.67M1103.23 572.045V636.485M1103.23 572.045H1167.67M1103.23 636.485V700.924M1103.23 636.485H1167.67M1103.23 700.924V765.363M1103.23 700.924H1167.67M1103.23 765.363V829.803M1103.23 765.363H1167.67M1103.23 829.803V894.242M1103.23 829.803H1167.67M1103.23 894.242V958.682M1103.23 894.242H1167.67M1103.23 958.682V1023.12M1103.23 958.682H1167.67M1103.23 1023.12H1167.67V958.682M1167.67 -201.229V-136.789M1167.67 -136.789V-72.3496M1167.67 -72.3496V-7.91011M1167.67 -7.91011V56.5293M1167.67 56.5293V120.969M1167.67 120.969V185.408M1167.67 185.408V249.848M1167.67 249.848V314.287M1167.67 314.287V378.727M1167.67 378.727V443.166M1167.67 443.166V507.606M1167.67 507.606V572.045M1167.67 572.045V636.485M1167.67 636.485V700.924M1167.67 700.924V765.363M1167.67 765.363V829.803M1167.67 829.803V894.242M1167.67 894.242V958.682" stroke="url(#paint0_radial_620_1694)" stroke-opacity="0.6" stroke-width="0.805493"/>
</g>
<g style="mix-blend-mode:soft-light" opacity="0.8">
<path d="M-1409.91 -27.2423V-7.91044M-1409.91 -7.91044V11.4214M-1409.91 -7.91044H-1429.24M-1409.91 -7.91044H-1390.58M-1409.91 488.274V507.605M-1409.91 507.605V526.937M-1409.91 507.605H-1429.24M-1409.91 507.605H-1390.58M-1409.91 1003.79V1023.12M-1409.91 1023.12V1042.45M-1409.91 1023.12H-1429.24M-1409.91 1023.12H-1390.58M-894.394 -27.2423V-7.91044M-894.394 -7.91044V11.4214M-894.394 -7.91044H-913.726M-894.394 -7.91044H-875.063M-894.394 488.274V507.605M-894.394 507.605V526.937M-894.394 507.605H-913.726M-894.394 507.605H-875.063M-894.394 1003.79V1023.12M-894.394 1023.12V1042.45M-894.394 1023.12H-913.726M-894.394 1023.12H-875.063M-378.879 -27.2423V-7.91044M-378.879 -7.91044V11.4214M-378.879 -7.91044H-398.211M-378.879 -7.91044H-359.547M-378.879 488.274V507.605M-378.879 507.605V526.937M-378.879 507.605H-398.211M-378.879 507.605H-359.547M-378.879 1003.79V1023.12M-378.879 1023.12V1042.45M-378.879 1023.12H-398.211M-378.879 1023.12H-359.547M136.637 -27.2423V-7.91044M136.637 -7.91044V11.4214M136.637 -7.91044H117.305M136.637 -7.91044H155.969M136.637 488.274V507.605M136.637 507.605V526.937M136.637 507.605H117.305M136.637 507.605H155.969M136.637 1003.79V1023.12M136.637 1023.12V1042.45M136.637 1023.12H117.305M136.637 1023.12H155.969M652.153 -27.2423V-7.91044M652.153 -7.91044V11.4214M652.153 -7.91044H632.821M652.153 -7.91044H671.485M652.153 488.274V507.605M652.153 507.605V526.937M652.153 507.605H632.821M652.153 507.605H671.485M652.153 1003.79V1023.12M652.153 1023.12V1042.45M652.153 1023.12H632.821M652.153 1023.12H671.485M1167.67 -27.2423V-7.91044M1167.67 -7.91044V11.4214M1167.67 -7.91044H1148.34M1167.67 -7.91044H1187M1167.67 488.274V507.605M1167.67 507.605V526.937M1167.67 507.605H1148.34M1167.67 507.605H1187M1167.67 1003.79V1023.12M1167.67 1023.12V1042.45M1167.67 1023.12H1148.34M1167.67 1023.12H1187M-1409.91 -285V-265.668M-1409.91 -265.668V-246.336M-1409.91 -265.668H-1429.24M-1409.91 -265.668H-1390.58M-1409.91 230.516V249.848M-1409.91 249.848V269.179M-1409.91 249.848H-1429.24M-1409.91 249.848H-1390.58M-1409.91 746.031V765.363M-1409.91 765.363V784.695M-1409.91 765.363H-1429.24M-1409.91 765.363H-1390.58M-894.394 -285V-265.668M-894.394 -265.668V-246.336M-894.394 -265.668H-913.726M-894.394 -265.668H-875.063M-894.394 230.516V249.848M-894.394 249.848V269.179M-894.394 249.848H-913.726M-894.394 249.848H-875.063M-894.394 746.031V765.363M-894.394 765.363V784.695M-894.394 765.363H-913.726M-894.394 765.363H-875.063M-378.879 -285V-265.668M-378.879 -265.668V-246.336M-378.879 -265.668H-398.211M-378.879 -265.668H-359.547M-378.879 230.516V249.848M-378.879 249.848V269.179M-378.879 249.848H-398.211M-378.879 249.848H-359.547M-378.879 746.031V765.363M-378.879 765.363V784.695M-378.879 765.363H-398.211M-378.879 765.363H-359.547M136.637 -285V-265.668M136.637 -265.668V-246.336M136.637 -265.668H117.305M136.637 -265.668H155.969M136.637 230.516V249.848M136.637 249.848V269.179M136.637 249.848H117.305M136.637 249.848H155.969M136.637 746.031V765.363M136.637 765.363V784.695M136.637 765.363H117.305M136.637 765.363H155.969M652.153 -285V-265.668M652.153 -265.668V-246.336M652.153 -265.668H632.821M652.153 -265.668H671.485M652.153 230.516V249.848M652.153 249.848V269.179M652.153 249.848H632.821M652.153 249.848H671.485M652.153 746.031V765.363M652.153 765.363V784.695M652.153 765.363H632.821M652.153 765.363H671.485M1167.67 -285V-265.668M1167.67 -265.668V-246.336M1167.67 -265.668H1148.34M1167.67 -265.668H1187M1167.67 230.516V249.848M1167.67 249.848V269.179M1167.67 249.848H1148.34M1167.67 249.848H1187M1167.67 746.031V765.363M1167.67 765.363V784.695M1167.67 765.363H1148.34M1167.67 765.363H1187M-1667.67 -27.2423V-7.91044M-1667.67 -7.91044V11.4214M-1667.67 -7.91044H-1687M-1667.67 -7.91044H-1648.34M-1667.67 488.274V507.605M-1667.67 507.605V526.937M-1667.67 507.605H-1687M-1667.67 507.605H-1648.34M-1667.67 1003.79V1023.12M-1667.67 1023.12V1042.45M-1667.67 1023.12H-1687M-1667.67 1023.12H-1648.34M-1152.15 -27.2423V-7.91044M-1152.15 -7.91044V11.4214M-1152.15 -7.91044H-1171.48M-1152.15 -7.91044H-1132.82M-1152.15 488.274V507.605M-1152.15 507.605V526.937M-1152.15 507.605H-1171.48M-1152.15 507.605H-1132.82M-1152.15 1003.79V1023.12M-1152.15 1023.12V1042.45M-1152.15 1023.12H-1171.48M-1152.15 1023.12H-1132.82M-636.637 -27.2423V-7.91044M-636.637 -7.91044V11.4214M-636.637 -7.91044H-655.968M-636.637 -7.91044H-617.305M-636.637 488.274V507.605M-636.637 507.605V526.937M-636.637 507.605H-655.968M-636.637 507.605H-617.305M-636.637 1003.79V1023.12M-636.637 1023.12V1042.45M-636.637 1023.12H-655.968M-636.637 1023.12H-617.305M-121.121 -27.2423V-7.91044M-121.121 -7.91044V11.4214M-121.121 -7.91044H-140.453M-121.121 -7.91044H-101.789M-121.121 488.274V507.605M-121.121 507.605V526.937M-121.121 507.605H-140.453M-121.121 507.605H-101.789M-121.121 1003.79V1023.12M-121.121 1023.12V1042.45M-121.121 1023.12H-140.453M-121.121 1023.12H-101.789M394.395 -27.2423V-7.91044M394.395 -7.91044V11.4214M394.395 -7.91044H375.063M394.395 -7.91044H413.727M394.395 488.274V507.605M394.395 507.605V526.937M394.395 507.605H375.063M394.395 507.605H413.727M394.395 1003.79V1023.12M394.395 1023.12V1042.45M394.395 1023.12H375.063M394.395 1023.12H413.727M909.91 -27.2423V-7.91044M909.91 -7.91044V11.4214M909.91 -7.91044H890.579M909.91 -7.91044H929.242M909.91 488.274V507.605M909.91 507.605V526.937M909.91 507.605H890.579M909.91 507.605H929.242M909.91 1003.79V1023.12M909.91 1023.12V1042.45M909.91 1023.12H890.579M909.91 1023.12H929.242M-1667.67 -285V-265.668M-1667.67 -265.668V-246.336M-1667.67 -265.668H-1687M-1667.67 -265.668H-1648.34M-1667.67 230.516V249.848M-1667.67 249.848V269.179M-1667.67 249.848H-1687M-1667.67 249.848H-1648.34M-1667.67 746.031V765.363M-1667.67 765.363V784.695M-1667.67 765.363H-1687M-1667.67 765.363H-1648.34M-1152.15 -285V-265.668M-1152.15 -265.668V-246.336M-1152.15 -265.668H-1171.48M-1152.15 -265.668H-1132.82M-1152.15 230.516V249.848M-1152.15 249.848V269.179M-1152.15 249.848H-1171.48M-1152.15 249.848H-1132.82M-1152.15 746.031V765.363M-1152.15 765.363V784.695M-1152.15 765.363H-1171.48M-1152.15 765.363H-1132.82M-636.637 -285V-265.668M-636.637 -265.668V-246.336M-636.637 -265.668H-655.968M-636.637 -265.668H-617.305M-636.637 230.516V249.848M-636.637 249.848V269.179M-636.637 249.848H-655.968M-636.637 249.848H-617.305M-636.637 746.031V765.363M-636.637 765.363V784.695M-636.637 765.363H-655.968M-636.637 765.363H-617.305M-121.121 -285V-265.668M-121.121 -265.668V-246.336M-121.121 -265.668H-140.453M-121.121 -265.668H-101.789M-121.121 230.516V249.848M-121.121 249.848V269.179M-121.121 249.848H-140.453M-121.121 249.848H-101.789M-121.121 746.031V765.363M-121.121 765.363V784.695M-121.121 765.363H-140.453M-121.121 765.363H-101.789M394.395 -285V-265.668M394.395 -265.668V-246.336M394.395 -265.668H375.063M394.395 -265.668H413.727M394.395 230.516V249.848M394.395 249.848V269.179M394.395 249.848H375.063M394.395 249.848H413.727M394.395 746.031V765.363M394.395 765.363V784.695M394.395 765.363H375.063M394.395 765.363H413.727M909.91 -285V-265.668M909.91 -265.668V-246.336M909.91 -265.668H890.579M909.91 -265.668H929.242M909.91 230.516V249.848M909.91 249.848V269.179M909.91 249.848H890.579M909.91 249.848H929.242M909.91 746.031V765.363M909.91 765.363V784.695M909.91 765.363H890.579M909.91 765.363H929.242" stroke="url(#paint1_radial_620_1694)" stroke-opacity="0.6" stroke-width="1.61099"/>
</g>
</g>
<defs>
<radialGradient id="paint0_radial_620_1694" cx="0" cy="0" r="1" gradientUnits="userSpaceOnUse" gradientTransform="translate(-250 378.727) rotate(90) scale(644.395 1417.67)">
<stop stop-color="white"/>
<stop offset="0.504808" stop-color="white" stop-opacity="0"/>
</radialGradient>
<radialGradient id="paint1_radial_620_1694" cx="0" cy="0" r="1" gradientUnits="userSpaceOnUse" gradientTransform="translate(-250 378.726) rotate(90) scale(663.726 1437)">
<stop stop-color="white"/>
<stop offset="0.504808" stop-color="white" stop-opacity="0"/>
</radialGradient>
<clipPath id="clip0_620_1694">
<rect width="1187" height="620" fill="white"/>
</clipPath>
</defs>
</svg>
