<svg width="540" height="620" viewBox="0 0 540 620" fill="none" xmlns="http://www.w3.org/2000/svg">
<g clip-path="url(#clip0_620_1698)">
<g style="mix-blend-mode:soft-light" opacity="0.7">
<path d="M-828.229 -265.668H-892.668V-201.229M-828.229 -265.668V-201.229M-828.229 -265.668H-763.789M-828.229 -201.229H-892.668M-828.229 -201.229V-136.789M-828.229 -201.229H-763.789M-892.668 -201.229V-136.789M-828.229 -136.789H-892.668M-828.229 -136.789V-72.3496M-828.229 -136.789H-763.789M-892.668 -136.789V-72.3496M-828.229 -72.3496H-892.668M-828.229 -72.3496V-7.91011M-828.229 -72.3496H-763.789M-892.668 -72.3496V-7.91011M-828.229 -7.91011H-892.668M-828.229 -7.91011V56.5293M-828.229 -7.91011H-763.789M-892.668 -7.91011V56.5293M-828.229 56.5293H-892.668M-828.229 56.5293V120.969M-828.229 56.5293H-763.789M-892.668 56.5293V120.969M-828.229 120.969H-892.668M-828.229 120.969V185.408M-828.229 120.969H-763.789M-892.668 120.969V185.408M-828.229 185.408H-892.668M-828.229 185.408V249.848M-828.229 185.408H-763.789M-892.668 185.408V249.848M-828.229 249.848H-892.668M-828.229 249.848V314.287M-828.229 249.848H-763.789M-892.668 249.848V314.287M-828.229 314.287H-892.668M-828.229 314.287V378.727M-828.229 314.287H-763.789M-892.668 314.287V378.727M-828.229 378.727H-892.668M-828.229 378.727V443.166M-828.229 378.727H-763.789M-892.668 378.727V443.166M-828.229 443.166H-892.668M-828.229 443.166V507.606M-828.229 443.166H-763.789M-892.668 443.166V507.606M-828.229 507.606H-892.668M-828.229 507.606V572.045M-828.229 507.606H-763.789M-892.668 507.606V572.045M-828.229 572.045H-892.668M-828.229 572.045V636.485M-828.229 572.045H-763.789M-892.668 572.045V636.485M-828.229 636.485H-892.668M-828.229 636.485V700.924M-828.229 636.485H-763.789M-892.668 636.485V700.924M-828.229 700.924H-892.668M-828.229 700.924V765.363M-828.229 700.924H-763.789M-892.668 700.924V765.363M-828.229 765.363H-892.668M-828.229 765.363V829.803M-828.229 765.363H-763.789M-892.668 765.363V829.803M-828.229 829.803H-892.668M-828.229 829.803V894.242M-828.229 829.803H-763.789M-892.668 829.803V894.242M-828.229 894.242H-892.668M-828.229 894.242V958.682M-828.229 894.242H-763.789M-892.668 894.242V958.682M-828.229 958.682H-892.668M-828.229 958.682V1023.12M-828.229 958.682H-763.789M-892.668 958.682V1023.12H-828.229M-828.229 1023.12H-763.789M-763.789 -265.668V-201.229M-763.789 -265.668H-699.35M-763.789 -201.229V-136.789M-763.789 -201.229H-699.35M-763.789 -136.789V-72.3496M-763.789 -136.789H-699.35M-763.789 -72.3496V-7.91011M-763.789 -72.3496H-699.35M-763.789 -7.91011V56.5293M-763.789 -7.91011H-699.35M-763.789 56.5293V120.969M-763.789 56.5293H-699.35M-763.789 120.969V185.408M-763.789 120.969H-699.35M-763.789 185.408V249.848M-763.789 185.408H-699.35M-763.789 249.848V314.287M-763.789 249.848H-699.35M-763.789 314.287V378.727M-763.789 314.287H-699.35M-763.789 378.727V443.166M-763.789 378.727H-699.35M-763.789 443.166V507.606M-763.789 443.166H-699.35M-763.789 507.606V572.045M-763.789 507.606H-699.35M-763.789 572.045V636.485M-763.789 572.045H-699.35M-763.789 636.485V700.924M-763.789 636.485H-699.35M-763.789 700.924V765.363M-763.789 700.924H-699.35M-763.789 765.363V829.803M-763.789 765.363H-699.35M-763.789 829.803V894.242M-763.789 829.803H-699.35M-763.789 894.242V958.682M-763.789 894.242H-699.35M-763.789 958.682V1023.12M-763.789 958.682H-699.35M-763.789 1023.12H-699.35M-699.35 -265.668V-201.229M-699.35 -265.668H-634.91M-699.35 -201.229V-136.789M-699.35 -201.229H-634.91M-699.35 -136.789V-72.3496M-699.35 -136.789H-634.91M-699.35 -72.3496V-7.91011M-699.35 -72.3496H-634.91M-699.35 -7.91011V56.5293M-699.35 -7.91011H-634.91M-699.35 56.5293V120.969M-699.35 56.5293H-634.91M-699.35 120.969V185.408M-699.35 120.969H-634.91M-699.35 185.408V249.848M-699.35 185.408H-634.91M-699.35 249.848V314.287M-699.35 249.848H-634.91M-699.35 314.287V378.727M-699.35 314.287H-634.91M-699.35 378.727V443.166M-699.35 378.727H-634.91M-699.35 443.166V507.606M-699.35 443.166H-634.91M-699.35 507.606V572.045M-699.35 507.606H-634.91M-699.35 572.045V636.485M-699.35 572.045H-634.91M-699.35 636.485V700.924M-699.35 636.485H-634.91M-699.35 700.924V765.363M-699.35 700.924H-634.91M-699.35 765.363V829.803M-699.35 765.363H-634.91M-699.35 829.803V894.242M-699.35 829.803H-634.91M-699.35 894.242V958.682M-699.35 894.242H-634.91M-699.35 958.682V1023.12M-699.35 958.682H-634.91M-699.35 1023.12H-634.91M-634.91 -265.668V-201.229M-634.91 -265.668H-570.471M-634.91 -201.229V-136.789M-634.91 -201.229H-570.471M-634.91 -136.789V-72.3496M-634.91 -136.789H-570.471M-634.91 -72.3496V-7.91011M-634.91 -72.3496H-570.471M-634.91 -7.91011V56.5293M-634.91 -7.91011H-570.471M-634.91 56.5293V120.969M-634.91 56.5293H-570.471M-634.91 120.969V185.408M-634.91 120.969H-570.471M-634.91 185.408V249.848M-634.91 185.408H-570.471M-634.91 249.848V314.287M-634.91 249.848H-570.471M-634.91 314.287V378.727M-634.91 314.287H-570.471M-634.91 378.727V443.166M-634.91 378.727H-570.471M-634.91 443.166V507.606M-634.91 443.166H-570.471M-634.91 507.606V572.045M-634.91 507.606H-570.471M-634.91 572.045V636.485M-634.91 572.045H-570.471M-634.91 636.485V700.924M-634.91 636.485H-570.471M-634.91 700.924V765.363M-634.91 700.924H-570.471M-634.91 765.363V829.803M-634.91 765.363H-570.471M-634.91 829.803V894.242M-634.91 829.803H-570.471M-634.91 894.242V958.682M-634.91 894.242H-570.471M-634.91 958.682V1023.12M-634.91 958.682H-570.471M-634.91 1023.12H-570.471M-570.471 -265.668V-201.229M-570.471 -265.668H-506.031M-570.471 -201.229V-136.789M-570.471 -201.229H-506.031M-570.471 -136.789V-72.3496M-570.471 -136.789H-506.031M-570.471 -72.3496V-7.91011M-570.471 -72.3496H-506.031M-570.471 -7.91011V56.5293M-570.471 -7.91011H-506.031M-570.471 56.5293V120.969M-570.471 56.5293H-506.031M-570.471 120.969V185.408M-570.471 120.969H-506.031M-570.471 185.408V249.848M-570.471 185.408H-506.031M-570.471 249.848V314.287M-570.471 249.848H-506.031M-570.471 314.287V378.727M-570.471 314.287H-506.031M-570.471 378.727V443.166M-570.471 378.727H-506.031M-570.471 443.166V507.606M-570.471 443.166H-506.031M-570.471 507.606V572.045M-570.471 507.606H-506.031M-570.471 572.045V636.485M-570.471 572.045H-506.031M-570.471 636.485V700.924M-570.471 636.485H-506.031M-570.471 700.924V765.363M-570.471 700.924H-506.031M-570.471 765.363V829.803M-570.471 765.363H-506.031M-570.471 829.803V894.242M-570.471 829.803H-506.031M-570.471 894.242V958.682M-570.471 894.242H-506.031M-570.471 958.682V1023.12M-570.471 958.682H-506.031M-570.471 1023.12H-506.031M-506.031 -265.668V-201.229M-506.031 -265.668H-441.592M-506.031 -201.229V-136.789M-506.031 -201.229H-441.592M-506.031 -136.789V-72.3496M-506.031 -136.789H-441.592M-506.031 -72.3496V-7.91011M-506.031 -72.3496H-441.592M-506.031 -7.91011V56.5293M-506.031 -7.91011H-441.592M-506.031 56.5293V120.969M-506.031 56.5293H-441.592M-506.031 120.969V185.408M-506.031 120.969H-441.592M-506.031 185.408V249.848M-506.031 185.408H-441.592M-506.031 249.848V314.287M-506.031 249.848H-441.592M-506.031 314.287V378.727M-506.031 314.287H-441.592M-506.031 378.727V443.166M-506.031 378.727H-441.592M-506.031 443.166V507.606M-506.031 443.166H-441.592M-506.031 507.606V572.045M-506.031 507.606H-441.592M-506.031 572.045V636.485M-506.031 572.045H-441.592M-506.031 636.485V700.924M-506.031 636.485H-441.592M-506.031 700.924V765.363M-506.031 700.924H-441.592M-506.031 765.363V829.803M-506.031 765.363H-441.592M-506.031 829.803V894.242M-506.031 829.803H-441.592M-506.031 894.242V958.682M-506.031 894.242H-441.592M-506.031 958.682V1023.12M-506.031 958.682H-441.592M-506.031 1023.12H-441.592M-441.592 -265.668V-201.229M-441.592 -265.668H-377.152M-441.592 -201.229V-136.789M-441.592 -201.229H-377.152M-441.592 -136.789V-72.3496M-441.592 -136.789H-377.152M-441.592 -72.3496V-7.91011M-441.592 -72.3496H-377.152M-441.592 -7.91011V56.5293M-441.592 -7.91011H-377.152M-441.592 56.5293V120.969M-441.592 56.5293H-377.152M-441.592 120.969V185.408M-441.592 120.969H-377.152M-441.592 185.408V249.848M-441.592 185.408H-377.152M-441.592 249.848V314.287M-441.592 249.848H-377.152M-441.592 314.287V378.727M-441.592 314.287H-377.152M-441.592 378.727V443.166M-441.592 378.727H-377.152M-441.592 443.166V507.606M-441.592 443.166H-377.152M-441.592 507.606V572.045M-441.592 507.606H-377.152M-441.592 572.045V636.485M-441.592 572.045H-377.152M-441.592 636.485V700.924M-441.592 636.485H-377.152M-441.592 700.924V765.363M-441.592 700.924H-377.152M-441.592 765.363V829.803M-441.592 765.363H-377.152M-441.592 829.803V894.242M-441.592 829.803H-377.152M-441.592 894.242V958.682M-441.592 894.242H-377.152M-441.592 958.682V1023.12M-441.592 958.682H-377.152M-441.592 1023.12H-377.152M-377.152 -265.668V-201.229M-377.152 -265.668H-312.713M-377.152 -201.229V-136.789M-377.152 -201.229H-312.713M-377.152 -136.789V-72.3496M-377.152 -136.789H-312.713M-377.152 -72.3496V-7.91011M-377.152 -72.3496H-312.713M-377.152 -7.91011V56.5293M-377.152 -7.91011H-312.713M-377.152 56.5293V120.969M-377.152 56.5293H-312.713M-377.152 120.969V185.408M-377.152 120.969H-312.713M-377.152 185.408V249.848M-377.152 185.408H-312.713M-377.152 249.848V314.287M-377.152 249.848H-312.713M-377.152 314.287V378.727M-377.152 314.287H-312.713M-377.152 378.727V443.166M-377.152 378.727H-312.713M-377.152 443.166V507.606M-377.152 443.166H-312.713M-377.152 507.606V572.045M-377.152 507.606H-312.713M-377.152 572.045V636.485M-377.152 572.045H-312.713M-377.152 636.485V700.924M-377.152 636.485H-312.713M-377.152 700.924V765.363M-377.152 700.924H-312.713M-377.152 765.363V829.803M-377.152 765.363H-312.713M-377.152 829.803V894.242M-377.152 829.803H-312.713M-377.152 894.242V958.682M-377.152 894.242H-312.713M-377.152 958.682V1023.12M-377.152 958.682H-312.713M-377.152 1023.12H-312.713M-312.713 -265.668V-201.229M-312.713 -265.668H-248.273M-312.713 -201.229V-136.789M-312.713 -201.229H-248.273M-312.713 -136.789V-72.3496M-312.713 -136.789H-248.273M-312.713 -72.3496V-7.91011M-312.713 -72.3496H-248.273M-312.713 -7.91011V56.5293M-312.713 -7.91011H-248.273M-312.713 56.5293V120.969M-312.713 56.5293H-248.273M-312.713 120.969V185.408M-312.713 120.969H-248.273M-312.713 185.408V249.848M-312.713 185.408H-248.273M-312.713 249.848V314.287M-312.713 249.848H-248.273M-312.713 314.287V378.727M-312.713 314.287H-248.273M-312.713 378.727V443.166M-312.713 378.727H-248.273M-312.713 443.166V507.606M-312.713 443.166H-248.273M-312.713 507.606V572.045M-312.713 507.606H-248.273M-312.713 572.045V636.485M-312.713 572.045H-248.273M-312.713 636.485V700.924M-312.713 636.485H-248.273M-312.713 700.924V765.363M-312.713 700.924H-248.273M-312.713 765.363V829.803M-312.713 765.363H-248.273M-312.713 829.803V894.242M-312.713 829.803H-248.273M-312.713 894.242V958.682M-312.713 894.242H-248.273M-312.713 958.682V1023.12M-312.713 958.682H-248.273M-312.713 1023.12H-248.273M-248.273 -265.668V-201.229M-248.273 -265.668H-183.834M-248.273 -201.229V-136.789M-248.273 -201.229H-183.834M-248.273 -136.789V-72.3496M-248.273 -136.789H-183.834M-248.273 -72.3496V-7.91011M-248.273 -72.3496H-183.834M-248.273 -7.91011V56.5293M-248.273 -7.91011H-183.834M-248.273 56.5293V120.969M-248.273 56.5293H-183.834M-248.273 120.969V185.408M-248.273 120.969H-183.834M-248.273 185.408V249.848M-248.273 185.408H-183.834M-248.273 249.848V314.287M-248.273 249.848H-183.834M-248.273 314.287V378.727M-248.273 314.287H-183.834M-248.273 378.727V443.166M-248.273 378.727H-183.834M-248.273 443.166V507.606M-248.273 443.166H-183.834M-248.273 507.606V572.045M-248.273 507.606H-183.834M-248.273 572.045V636.485M-248.273 572.045H-183.834M-248.273 636.485V700.924M-248.273 636.485H-183.834M-248.273 700.924V765.363M-248.273 700.924H-183.834M-248.273 765.363V829.803M-248.273 765.363H-183.834M-248.273 829.803V894.242M-248.273 829.803H-183.834M-248.273 894.242V958.682M-248.273 894.242H-183.834M-248.273 958.682V1023.12M-248.273 958.682H-183.834M-248.273 1023.12H-183.834M-183.834 -265.668V-201.229M-183.834 -265.668H-119.394M-183.834 -201.229V-136.789M-183.834 -201.229H-119.394M-183.834 -136.789V-72.3496M-183.834 -136.789H-119.394M-183.834 -72.3496V-7.91011M-183.834 -72.3496H-119.394M-183.834 -7.91011V56.5293M-183.834 -7.91011H-119.394M-183.834 56.5293V120.969M-183.834 56.5293H-119.394M-183.834 120.969V185.408M-183.834 120.969H-119.394M-183.834 185.408V249.848M-183.834 185.408H-119.394M-183.834 249.848V314.287M-183.834 249.848H-119.394M-183.834 314.287V378.727M-183.834 314.287H-119.394M-183.834 378.727V443.166M-183.834 378.727H-119.394M-183.834 443.166V507.606M-183.834 443.166H-119.394M-183.834 507.606V572.045M-183.834 507.606H-119.394M-183.834 572.045V636.485M-183.834 572.045H-119.394M-183.834 636.485V700.924M-183.834 636.485H-119.394M-183.834 700.924V765.363M-183.834 700.924H-119.394M-183.834 765.363V829.803M-183.834 765.363H-119.394M-183.834 829.803V894.242M-183.834 829.803H-119.394M-183.834 894.242V958.682M-183.834 894.242H-119.394M-183.834 958.682V1023.12M-183.834 958.682H-119.394M-183.834 1023.12H-119.394M-119.394 -265.668V-201.229M-119.394 -265.668H-54.9549M-119.394 -201.229V-136.789M-119.394 -201.229H-54.9549M-119.394 -136.789V-72.3496M-119.394 -136.789H-54.9549M-119.394 -72.3496V-7.91011M-119.394 -72.3496H-54.9549M-119.394 -7.91011V56.5293M-119.394 -7.91011H-54.9549M-119.394 56.5293V120.969M-119.394 56.5293H-54.9549M-119.394 120.969V185.408M-119.394 120.969H-54.9549M-119.394 185.408V249.848M-119.394 185.408H-54.9549M-119.394 249.848V314.287M-119.394 249.848H-54.9549M-119.394 314.287V378.727M-119.394 314.287H-54.9549M-119.394 378.727V443.166M-119.394 378.727H-54.9549M-119.394 443.166V507.606M-119.394 443.166H-54.9549M-119.394 507.606V572.045M-119.394 507.606H-54.9549M-119.394 572.045V636.485M-119.394 572.045H-54.9549M-119.394 636.485V700.924M-119.394 636.485H-54.9549M-119.394 700.924V765.363M-119.394 700.924H-54.9549M-119.394 765.363V829.803M-119.394 765.363H-54.9549M-119.394 829.803V894.242M-119.394 829.803H-54.9549M-119.394 894.242V958.682M-119.394 894.242H-54.9549M-119.394 958.682V1023.12M-119.394 958.682H-54.9549M-119.394 1023.12H-54.9549M-54.9549 -265.668V-201.229M-54.9549 -265.668H9.48459M-54.9549 -201.229V-136.789M-54.9549 -201.229H9.48459M-54.9549 -136.789V-72.3496M-54.9549 -136.789H9.48459M-54.9549 -72.3496V-7.91011M-54.9549 -72.3496H9.48459M-54.9549 -7.91011V56.5293M-54.9549 -7.91011H9.48459M-54.9549 56.5293V120.969M-54.9549 56.5293H9.48459M-54.9549 120.969V185.408M-54.9549 120.969H9.48459M-54.9549 185.408V249.848M-54.9549 185.408H9.48459M-54.9549 249.848V314.287M-54.9549 249.848H9.48459M-54.9549 314.287V378.727M-54.9549 314.287H9.48459M-54.9549 378.727V443.166M-54.9549 378.727H9.48459M-54.9549 443.166V507.606M-54.9549 443.166H9.48459M-54.9549 507.606V572.045M-54.9549 507.606H9.48459M-54.9549 572.045V636.485M-54.9549 572.045H9.48459M-54.9549 636.485V700.924M-54.9549 636.485H9.48459M-54.9549 700.924V765.363M-54.9549 700.924H9.48459M-54.9549 765.363V829.803M-54.9549 765.363H9.48459M-54.9549 829.803V894.242M-54.9549 829.803H9.48459M-54.9549 894.242V958.682M-54.9549 894.242H9.48459M-54.9549 958.682V1023.12M-54.9549 958.682H9.48459M-54.9549 1023.12H9.48459M9.48459 -265.668V-201.229M9.48459 -265.668H73.9241M9.48459 -201.229V-136.789M9.48459 -201.229H73.9241M9.48459 -136.789V-72.3496M9.48459 -136.789H73.9241M9.48459 -72.3496V-7.91011M9.48459 -72.3496H73.9241M9.48459 -7.91011V56.5293M9.48459 -7.91011H73.9241M9.48459 56.5293V120.969M9.48459 56.5293H73.9241M9.48459 120.969V185.408M9.48459 120.969H73.9241M9.48459 185.408V249.848M9.48459 185.408H73.9241M9.48459 249.848V314.287M9.48459 249.848H73.9241M9.48459 314.287V378.727M9.48459 314.287H73.9241M9.48459 378.727V443.166M9.48459 378.727H73.9241M9.48459 443.166V507.606M9.48459 443.166H73.9241M9.48459 507.606V572.045M9.48459 507.606H73.9241M9.48459 572.045V636.485M9.48459 572.045H73.9241M9.48459 636.485V700.924M9.48459 636.485H73.9241M9.48459 700.924V765.363M9.48459 700.924H73.9241M9.48459 765.363V829.803M9.48459 765.363H73.9241M9.48459 829.803V894.242M9.48459 829.803H73.9241M9.48459 894.242V958.682M9.48459 894.242H73.9241M9.48459 958.682V1023.12M9.48459 958.682H73.9241M9.48459 1023.12H73.9241M73.9241 -265.668V-201.229M73.9241 -265.668H138.364M73.9241 -201.229V-136.789M73.9241 -201.229H138.364M73.9241 -136.789V-72.3496M73.9241 -136.789H138.364M73.9241 -72.3496V-7.91011M73.9241 -72.3496H138.364M73.9241 -7.91011V56.5293M73.9241 -7.91011H138.364M73.9241 56.5293V120.969M73.9241 56.5293H138.364M73.9241 120.969V185.408M73.9241 120.969H138.364M73.9241 185.408V249.848M73.9241 185.408H138.364M73.9241 249.848V314.287M73.9241 249.848H138.364M73.9241 314.287V378.727M73.9241 314.287H138.364M73.9241 378.727V443.166M73.9241 378.727H138.364M73.9241 443.166V507.606M73.9241 443.166H138.364M73.9241 507.606V572.045M73.9241 507.606H138.364M73.9241 572.045V636.485M73.9241 572.045H138.364M73.9241 636.485V700.924M73.9241 636.485H138.364M73.9241 700.924V765.363M73.9241 700.924H138.364M73.9241 765.363V829.803M73.9241 765.363H138.364M73.9241 829.803V894.242M73.9241 829.803H138.364M73.9241 894.242V958.682M73.9241 894.242H138.364M73.9241 958.682V1023.12M73.9241 958.682H138.364M73.9241 1023.12H138.364M138.364 -265.668V-201.229M138.364 -265.668H202.803M138.364 -201.229V-136.789M138.364 -201.229H202.803M138.364 -136.789V-72.3496M138.364 -136.789H202.803M138.364 -72.3496V-7.91011M138.364 -72.3496H202.803M138.364 -7.91011V56.5293M138.364 -7.91011H202.803M138.364 56.5293V120.969M138.364 56.5293H202.803M138.364 120.969V185.408M138.364 120.969H202.803M138.364 185.408V249.848M138.364 185.408H202.803M138.364 249.848V314.287M138.364 249.848H202.803M138.364 314.287V378.727M138.364 314.287H202.803M138.364 378.727V443.166M138.364 378.727H202.803M138.364 443.166V507.606M138.364 443.166H202.803M138.364 507.606V572.045M138.364 507.606H202.803M138.364 572.045V636.485M138.364 572.045H202.803M138.364 636.485V700.924M138.364 636.485H202.803M138.364 700.924V765.363M138.364 700.924H202.803M138.364 765.363V829.803M138.364 765.363H202.803M138.364 829.803V894.242M138.364 829.803H202.803M138.364 894.242V958.682M138.364 894.242H202.803M138.364 958.682V1023.12M138.364 958.682H202.803M138.364 1023.12H202.803M202.803 -265.668V-201.229M202.803 -265.668H267.242M202.803 -201.229V-136.789M202.803 -201.229H267.242M202.803 -136.789V-72.3496M202.803 -136.789H267.242M202.803 -72.3496V-7.91011M202.803 -72.3496H267.242M202.803 -7.91011V56.5293M202.803 -7.91011H267.242M202.803 56.5293V120.969M202.803 56.5293H267.242M202.803 120.969V185.408M202.803 120.969H267.242M202.803 185.408V249.848M202.803 185.408H267.242M202.803 249.848V314.287M202.803 249.848H267.242M202.803 314.287V378.727M202.803 314.287H267.242M202.803 378.727V443.166M202.803 378.727H267.242M202.803 443.166V507.606M202.803 443.166H267.242M202.803 507.606V572.045M202.803 507.606H267.242M202.803 572.045V636.485M202.803 572.045H267.242M202.803 636.485V700.924M202.803 636.485H267.242M202.803 700.924V765.363M202.803 700.924H267.242M202.803 765.363V829.803M202.803 765.363H267.242M202.803 829.803V894.242M202.803 829.803H267.242M202.803 894.242V958.682M202.803 894.242H267.242M202.803 958.682V1023.12M202.803 958.682H267.242M202.803 1023.12H267.242M267.242 -265.668V-201.229M267.242 -265.668H331.682M267.242 -201.229V-136.789M267.242 -201.229H331.682M267.242 -136.789V-72.3496M267.242 -136.789H331.682M267.242 -72.3496V-7.91011M267.242 -72.3496H331.682M267.242 -7.91011V56.5293M267.242 -7.91011H331.682M267.242 56.5293V120.969M267.242 56.5293H331.682M267.242 120.969V185.408M267.242 120.969H331.682M267.242 185.408V249.848M267.242 185.408H331.682M267.242 249.848V314.287M267.242 249.848H331.682M267.242 314.287V378.727M267.242 314.287H331.682M267.242 378.727V443.166M267.242 378.727H331.682M267.242 443.166V507.606M267.242 443.166H331.682M267.242 507.606V572.045M267.242 507.606H331.682M267.242 572.045V636.485M267.242 572.045H331.682M267.242 636.485V700.924M267.242 636.485H331.682M267.242 700.924V765.363M267.242 700.924H331.682M267.242 765.363V829.803M267.242 765.363H331.682M267.242 829.803V894.242M267.242 829.803H331.682M267.242 894.242V958.682M267.242 894.242H331.682M267.242 958.682V1023.12M267.242 958.682H331.682M267.242 1023.12H331.682M331.682 -265.668V-201.229M331.682 -265.668H396.121M331.682 -201.229V-136.789M331.682 -201.229H396.121M331.682 -136.789V-72.3496M331.682 -136.789H396.121M331.682 -72.3496V-7.91011M331.682 -72.3496H396.121M331.682 -7.91011V56.5293M331.682 -7.91011H396.121M331.682 56.5293V120.969M331.682 56.5293H396.121M331.682 120.969V185.408M331.682 120.969H396.121M331.682 185.408V249.848M331.682 185.408H396.121M331.682 249.848V314.287M331.682 249.848H396.121M331.682 314.287V378.727M331.682 314.287H396.121M331.682 378.727V443.166M331.682 378.727H396.121M331.682 443.166V507.606M331.682 443.166H396.121M331.682 507.606V572.045M331.682 507.606H396.121M331.682 572.045V636.485M331.682 572.045H396.121M331.682 636.485V700.924M331.682 636.485H396.121M331.682 700.924V765.363M331.682 700.924H396.121M331.682 765.363V829.803M331.682 765.363H396.121M331.682 829.803V894.242M331.682 829.803H396.121M331.682 894.242V958.682M331.682 894.242H396.121M331.682 958.682V1023.12M331.682 958.682H396.121M331.682 1023.12H396.121M396.121 -265.668V-201.229M396.121 -265.668H460.561M396.121 -201.229V-136.789M396.121 -201.229H460.561M396.121 -136.789V-72.3496M396.121 -136.789H460.561M396.121 -72.3496V-7.91011M396.121 -72.3496H460.561M396.121 -7.91011V56.5293M396.121 -7.91011H460.561M396.121 56.5293V120.969M396.121 56.5293H460.561M396.121 120.969V185.408M396.121 120.969H460.561M396.121 185.408V249.848M396.121 185.408H460.561M396.121 249.848V314.287M396.121 249.848H460.561M396.121 314.287V378.727M396.121 314.287H460.561M396.121 378.727V443.166M396.121 378.727H460.561M396.121 443.166V507.606M396.121 443.166H460.561M396.121 507.606V572.045M396.121 507.606H460.561M396.121 572.045V636.485M396.121 572.045H460.561M396.121 636.485V700.924M396.121 636.485H460.561M396.121 700.924V765.363M396.121 700.924H460.561M396.121 765.363V829.803M396.121 765.363H460.561M396.121 829.803V894.242M396.121 829.803H460.561M396.121 894.242V958.682M396.121 894.242H460.561M396.121 958.682V1023.12M396.121 958.682H460.561M396.121 1023.12H460.561M460.561 -265.668V-201.229M460.561 -265.668H525M460.561 -201.229V-136.789M460.561 -201.229H525M460.561 -136.789V-72.3496M460.561 -136.789H525M460.561 -72.3496V-7.91011M460.561 -72.3496H525M460.561 -7.91011V56.5293M460.561 -7.91011H525M460.561 56.5293V120.969M460.561 56.5293H525M460.561 120.969V185.408M460.561 120.969H525M460.561 185.408V249.848M460.561 185.408H525M460.561 249.848V314.287M460.561 249.848H525M460.561 314.287V378.727M460.561 314.287H525M460.561 378.727V443.166M460.561 378.727H525M460.561 443.166V507.606M460.561 443.166H525M460.561 507.606V572.045M460.561 507.606H525M460.561 572.045V636.485M460.561 572.045H525M460.561 636.485V700.924M460.561 636.485H525M460.561 700.924V765.363M460.561 700.924H525M460.561 765.363V829.803M460.561 765.363H525M460.561 829.803V894.242M460.561 829.803H525M460.561 894.242V958.682M460.561 894.242H525M460.561 958.682V1023.12M460.561 958.682H525M460.561 1023.12H525M525 -265.668V-201.229M525 -265.668H589.44M525 -201.229V-136.789M525 -201.229H589.44M525 -136.789V-72.3496M525 -136.789H589.44M525 -72.3496V-7.91011M525 -72.3496H589.44M525 -7.91011V56.5293M525 -7.91011H589.44M525 56.5293V120.969M525 56.5293H589.44M525 120.969V185.408M525 120.969H589.44M525 185.408V249.848M525 185.408H589.44M525 249.848V314.287M525 249.848H589.44M525 314.287V378.727M525 314.287H589.44M525 378.727V443.166M525 378.727H589.44M525 443.166V507.606M525 443.166H589.44M525 507.606V572.045M525 507.606H589.44M525 572.045V636.485M525 572.045H589.44M525 636.485V700.924M525 636.485H589.44M525 700.924V765.363M525 700.924H589.44M525 765.363V829.803M525 765.363H589.44M525 829.803V894.242M525 829.803H589.44M525 894.242V958.682M525 894.242H589.44M525 958.682V1023.12M525 958.682H589.44M525 1023.12H589.44M589.44 -265.668V-201.229M589.44 -265.668H653.879M589.44 -201.229V-136.789M589.44 -201.229H653.879M589.44 -136.789V-72.3496M589.44 -136.789H653.879M589.44 -72.3496V-7.91011M589.44 -72.3496H653.879M589.44 -7.91011V56.5293M589.44 -7.91011H653.879M589.44 56.5293V120.969M589.44 56.5293H653.879M589.44 120.969V185.408M589.44 120.969H653.879M589.44 185.408V249.848M589.44 185.408H653.879M589.44 249.848V314.287M589.44 249.848H653.879M589.44 314.287V378.727M589.44 314.287H653.879M589.44 378.727V443.166M589.44 378.727H653.879M589.44 443.166V507.606M589.44 443.166H653.879M589.44 507.606V572.045M589.44 507.606H653.879M589.44 572.045V636.485M589.44 572.045H653.879M589.44 636.485V700.924M589.44 636.485H653.879M589.44 700.924V765.363M589.44 700.924H653.879M589.44 765.363V829.803M589.44 765.363H653.879M589.44 829.803V894.242M589.44 829.803H653.879M589.44 894.242V958.682M589.44 894.242H653.879M589.44 958.682V1023.12M589.44 958.682H653.879M589.44 1023.12H653.879M653.879 -265.668V-201.229M653.879 -265.668H718.319M653.879 -201.229V-136.789M653.879 -201.229H718.319M653.879 -136.789V-72.3496M653.879 -136.789H718.319M653.879 -72.3496V-7.91011M653.879 -72.3496H718.319M653.879 -7.91011V56.5293M653.879 -7.91011H718.319M653.879 56.5293V120.969M653.879 56.5293H718.319M653.879 120.969V185.408M653.879 120.969H718.319M653.879 185.408V249.848M653.879 185.408H718.319M653.879 249.848V314.287M653.879 249.848H718.319M653.879 314.287V378.727M653.879 314.287H718.319M653.879 378.727V443.166M653.879 378.727H718.319M653.879 443.166V507.606M653.879 443.166H718.319M653.879 507.606V572.045M653.879 507.606H718.319M653.879 572.045V636.485M653.879 572.045H718.319M653.879 636.485V700.924M653.879 636.485H718.319M653.879 700.924V765.363M653.879 700.924H718.319M653.879 765.363V829.803M653.879 765.363H718.319M653.879 829.803V894.242M653.879 829.803H718.319M653.879 894.242V958.682M653.879 894.242H718.319M653.879 958.682V1023.12M653.879 958.682H718.319M653.879 1023.12H718.319M718.319 -265.668V-201.229M718.319 -265.668H782.758M718.319 -201.229V-136.789M718.319 -201.229H782.758M718.319 -136.789V-72.3496M718.319 -136.789H782.758M718.319 -72.3496V-7.91011M718.319 -72.3496H782.758M718.319 -7.91011V56.5293M718.319 -7.91011H782.758M718.319 56.5293V120.969M718.319 56.5293H782.758M718.319 120.969V185.408M718.319 120.969H782.758M718.319 185.408V249.848M718.319 185.408H782.758M718.319 249.848V314.287M718.319 249.848H782.758M718.319 314.287V378.727M718.319 314.287H782.758M718.319 378.727V443.166M718.319 378.727H782.758M718.319 443.166V507.606M718.319 443.166H782.758M718.319 507.606V572.045M718.319 507.606H782.758M718.319 572.045V636.485M718.319 572.045H782.758M718.319 636.485V700.924M718.319 636.485H782.758M718.319 700.924V765.363M718.319 700.924H782.758M718.319 765.363V829.803M718.319 765.363H782.758M718.319 829.803V894.242M718.319 829.803H782.758M718.319 894.242V958.682M718.319 894.242H782.758M718.319 958.682V1023.12M718.319 958.682H782.758M718.319 1023.12H782.758M782.758 -265.668V-201.229M782.758 -265.668H847.198M782.758 -201.229V-136.789M782.758 -201.229H847.198M782.758 -136.789V-72.3496M782.758 -136.789H847.198M782.758 -72.3496V-7.91011M782.758 -72.3496H847.198M782.758 -7.91011V56.5293M782.758 -7.91011H847.198M782.758 56.5293V120.969M782.758 56.5293H847.198M782.758 120.969V185.408M782.758 120.969H847.198M782.758 185.408V249.848M782.758 185.408H847.198M782.758 249.848V314.287M782.758 249.848H847.198M782.758 314.287V378.727M782.758 314.287H847.198M782.758 378.727V443.166M782.758 378.727H847.198M782.758 443.166V507.606M782.758 443.166H847.198M782.758 507.606V572.045M782.758 507.606H847.198M782.758 572.045V636.485M782.758 572.045H847.198M782.758 636.485V700.924M782.758 636.485H847.198M782.758 700.924V765.363M782.758 700.924H847.198M782.758 765.363V829.803M782.758 765.363H847.198M782.758 829.803V894.242M782.758 829.803H847.198M782.758 894.242V958.682M782.758 894.242H847.198M782.758 958.682V1023.12M782.758 958.682H847.198M782.758 1023.12H847.198M847.198 -265.668V-201.229M847.198 -265.668H911.637M847.198 -201.229V-136.789M847.198 -201.229H911.637M847.198 -136.789V-72.3496M847.198 -136.789H911.637M847.198 -72.3496V-7.91011M847.198 -72.3496H911.637M847.198 -7.91011V56.5293M847.198 -7.91011H911.637M847.198 56.5293V120.969M847.198 56.5293H911.637M847.198 120.969V185.408M847.198 120.969H911.637M847.198 185.408V249.848M847.198 185.408H911.637M847.198 249.848V314.287M847.198 249.848H911.637M847.198 314.287V378.727M847.198 314.287H911.637M847.198 378.727V443.166M847.198 378.727H911.637M847.198 443.166V507.606M847.198 443.166H911.637M847.198 507.606V572.045M847.198 507.606H911.637M847.198 572.045V636.485M847.198 572.045H911.637M847.198 636.485V700.924M847.198 636.485H911.637M847.198 700.924V765.363M847.198 700.924H911.637M847.198 765.363V829.803M847.198 765.363H911.637M847.198 829.803V894.242M847.198 829.803H911.637M847.198 894.242V958.682M847.198 894.242H911.637M847.198 958.682V1023.12M847.198 958.682H911.637M847.198 1023.12H911.637M911.637 -265.668V-201.229M911.637 -265.668H976.077M911.637 -201.229V-136.789M911.637 -201.229H976.077M911.637 -136.789V-72.3496M911.637 -136.789H976.077M911.637 -72.3496V-7.91011M911.637 -72.3496H976.077M911.637 -7.91011V56.5293M911.637 -7.91011H976.077M911.637 56.5293V120.969M911.637 56.5293H976.077M911.637 120.969V185.408M911.637 120.969H976.077M911.637 185.408V249.848M911.637 185.408H976.077M911.637 249.848V314.287M911.637 249.848H976.077M911.637 314.287V378.727M911.637 314.287H976.077M911.637 378.727V443.166M911.637 378.727H976.077M911.637 443.166V507.606M911.637 443.166H976.077M911.637 507.606V572.045M911.637 507.606H976.077M911.637 572.045V636.485M911.637 572.045H976.077M911.637 636.485V700.924M911.637 636.485H976.077M911.637 700.924V765.363M911.637 700.924H976.077M911.637 765.363V829.803M911.637 765.363H976.077M911.637 829.803V894.242M911.637 829.803H976.077M911.637 894.242V958.682M911.637 894.242H976.077M911.637 958.682V1023.12M911.637 958.682H976.077M911.637 1023.12H976.077M976.077 -265.668V-201.229M976.077 -265.668H1040.52M976.077 -201.229V-136.789M976.077 -201.229H1040.52M976.077 -136.789V-72.3496M976.077 -136.789H1040.52M976.077 -72.3496V-7.91011M976.077 -72.3496H1040.52M976.077 -7.91011V56.5293M976.077 -7.91011H1040.52M976.077 56.5293V120.969M976.077 56.5293H1040.52M976.077 120.969V185.408M976.077 120.969H1040.52M976.077 185.408V249.848M976.077 185.408H1040.52M976.077 249.848V314.287M976.077 249.848H1040.52M976.077 314.287V378.727M976.077 314.287H1040.52M976.077 378.727V443.166M976.077 378.727H1040.52M976.077 443.166V507.606M976.077 443.166H1040.52M976.077 507.606V572.045M976.077 507.606H1040.52M976.077 572.045V636.485M976.077 572.045H1040.52M976.077 636.485V700.924M976.077 636.485H1040.52M976.077 700.924V765.363M976.077 700.924H1040.52M976.077 765.363V829.803M976.077 765.363H1040.52M976.077 829.803V894.242M976.077 829.803H1040.52M976.077 894.242V958.682M976.077 894.242H1040.52M976.077 958.682V1023.12M976.077 958.682H1040.52M976.077 1023.12H1040.52M1040.52 -265.668V-201.229M1040.52 -265.668H1104.96M1040.52 -201.229V-136.789M1040.52 -201.229H1104.96M1040.52 -136.789V-72.3496M1040.52 -136.789H1104.96M1040.52 -72.3496V-7.91011M1040.52 -72.3496H1104.96M1040.52 -7.91011V56.5293M1040.52 -7.91011H1104.96M1040.52 56.5293V120.969M1040.52 56.5293H1104.96M1040.52 120.969V185.408M1040.52 120.969H1104.96M1040.52 185.408V249.848M1040.52 185.408H1104.96M1040.52 249.848V314.287M1040.52 249.848H1104.96M1040.52 314.287V378.727M1040.52 314.287H1104.96M1040.52 378.727V443.166M1040.52 378.727H1104.96M1040.52 443.166V507.606M1040.52 443.166H1104.96M1040.52 507.606V572.045M1040.52 507.606H1104.96M1040.52 572.045V636.485M1040.52 572.045H1104.96M1040.52 636.485V700.924M1040.52 636.485H1104.96M1040.52 700.924V765.363M1040.52 700.924H1104.96M1040.52 765.363V829.803M1040.52 765.363H1104.96M1040.52 829.803V894.242M1040.52 829.803H1104.96M1040.52 894.242V958.682M1040.52 894.242H1104.96M1040.52 958.682V1023.12M1040.52 958.682H1104.96M1040.52 1023.12H1104.96M1104.96 -265.668V-201.229M1104.96 -265.668H1169.4M1104.96 -201.229V-136.789M1104.96 -201.229H1169.4M1104.96 -136.789V-72.3496M1104.96 -136.789H1169.4M1104.96 -72.3496V-7.91011M1104.96 -72.3496H1169.4M1104.96 -7.91011V56.5293M1104.96 -7.91011H1169.4M1104.96 56.5293V120.969M1104.96 56.5293H1169.4M1104.96 120.969V185.408M1104.96 120.969H1169.4M1104.96 185.408V249.848M1104.96 185.408H1169.4M1104.96 249.848V314.287M1104.96 249.848H1169.4M1104.96 314.287V378.727M1104.96 314.287H1169.4M1104.96 378.727V443.166M1104.96 378.727H1169.4M1104.96 443.166V507.606M1104.96 443.166H1169.4M1104.96 507.606V572.045M1104.96 507.606H1169.4M1104.96 572.045V636.485M1104.96 572.045H1169.4M1104.96 636.485V700.924M1104.96 636.485H1169.4M1104.96 700.924V765.363M1104.96 700.924H1169.4M1104.96 765.363V829.803M1104.96 765.363H1169.4M1104.96 829.803V894.242M1104.96 829.803H1169.4M1104.96 894.242V958.682M1104.96 894.242H1169.4M1104.96 958.682V1023.12M1104.96 958.682H1169.4M1104.96 1023.12H1169.4M1169.4 -265.668V-201.229M1169.4 -265.668H1233.83M1169.4 -201.229V-136.789M1169.4 -201.229H1233.83M1169.4 -136.789V-72.3496M1169.4 -136.789H1233.83M1169.4 -72.3496V-7.91011M1169.4 -72.3496H1233.83M1169.4 -7.91011V56.5293M1169.4 -7.91011H1233.83M1169.4 56.5293V120.969M1169.4 56.5293H1233.83M1169.4 120.969V185.408M1169.4 120.969H1233.83M1169.4 185.408V249.848M1169.4 185.408H1233.83M1169.4 249.848V314.287M1169.4 249.848H1233.83M1169.4 314.287V378.727M1169.4 314.287H1233.83M1169.4 378.727V443.166M1169.4 378.727H1233.83M1169.4 443.166V507.606M1169.4 443.166H1233.83M1169.4 507.606V572.045M1169.4 507.606H1233.83M1169.4 572.045V636.485M1169.4 572.045H1233.83M1169.4 636.485V700.924M1169.4 636.485H1233.83M1169.4 700.924V765.363M1169.4 700.924H1233.83M1169.4 765.363V829.803M1169.4 765.363H1233.83M1169.4 829.803V894.242M1169.4 829.803H1233.83M1169.4 894.242V958.682M1169.4 894.242H1233.83M1169.4 958.682V1023.12M1169.4 958.682H1233.83M1169.4 1023.12H1233.83M1233.83 -265.668V-201.229M1233.83 -265.668H1298.27M1233.83 -201.229V-136.789M1233.83 -201.229H1298.27M1233.83 -136.789V-72.3496M1233.83 -136.789H1298.27M1233.83 -72.3496V-7.91011M1233.83 -72.3496H1298.27M1233.83 -7.91011V56.5293M1233.83 -7.91011H1298.27M1233.83 56.5293V120.969M1233.83 56.5293H1298.27M1233.83 120.969V185.408M1233.83 120.969H1298.27M1233.83 185.408V249.848M1233.83 185.408H1298.27M1233.83 249.848V314.287M1233.83 249.848H1298.27M1233.83 314.287V378.727M1233.83 314.287H1298.27M1233.83 378.727V443.166M1233.83 378.727H1298.27M1233.83 443.166V507.606M1233.83 443.166H1298.27M1233.83 507.606V572.045M1233.83 507.606H1298.27M1233.83 572.045V636.485M1233.83 572.045H1298.27M1233.83 636.485V700.924M1233.83 636.485H1298.27M1233.83 700.924V765.363M1233.83 700.924H1298.27M1233.83 765.363V829.803M1233.83 765.363H1298.27M1233.83 829.803V894.242M1233.83 829.803H1298.27M1233.83 894.242V958.682M1233.83 894.242H1298.27M1233.83 958.682V1023.12M1233.83 958.682H1298.27M1233.83 1023.12H1298.27M1298.27 -265.668V-201.229M1298.27 -265.668H1362.71M1298.27 -201.229V-136.789M1298.27 -201.229H1362.71M1298.27 -136.789V-72.3496M1298.27 -136.789H1362.71M1298.27 -72.3496V-7.91011M1298.27 -72.3496H1362.71M1298.27 -7.91011V56.5293M1298.27 -7.91011H1362.71M1298.27 56.5293V120.969M1298.27 56.5293H1362.71M1298.27 120.969V185.408M1298.27 120.969H1362.71M1298.27 185.408V249.848M1298.27 185.408H1362.71M1298.27 249.848V314.287M1298.27 249.848H1362.71M1298.27 314.287V378.727M1298.27 314.287H1362.71M1298.27 378.727V443.166M1298.27 378.727H1362.71M1298.27 443.166V507.606M1298.27 443.166H1362.71M1298.27 507.606V572.045M1298.27 507.606H1362.71M1298.27 572.045V636.485M1298.27 572.045H1362.71M1298.27 636.485V700.924M1298.27 636.485H1362.71M1298.27 700.924V765.363M1298.27 700.924H1362.71M1298.27 765.363V829.803M1298.27 765.363H1362.71M1298.27 829.803V894.242M1298.27 829.803H1362.71M1298.27 894.242V958.682M1298.27 894.242H1362.71M1298.27 958.682V1023.12M1298.27 958.682H1362.71M1298.27 1023.12H1362.71M1362.71 -265.668V-201.229M1362.71 -265.668H1427.15M1362.71 -201.229V-136.789M1362.71 -201.229H1427.15M1362.71 -136.789V-72.3496M1362.71 -136.789H1427.15M1362.71 -72.3496V-7.91011M1362.71 -72.3496H1427.15M1362.71 -7.91011V56.5293M1362.71 -7.91011H1427.15M1362.71 56.5293V120.969M1362.71 56.5293H1427.15M1362.71 120.969V185.408M1362.71 120.969H1427.15M1362.71 185.408V249.848M1362.71 185.408H1427.15M1362.71 249.848V314.287M1362.71 249.848H1427.15M1362.71 314.287V378.727M1362.71 314.287H1427.15M1362.71 378.727V443.166M1362.71 378.727H1427.15M1362.71 443.166V507.606M1362.71 443.166H1427.15M1362.71 507.606V572.045M1362.71 507.606H1427.15M1362.71 572.045V636.485M1362.71 572.045H1427.15M1362.71 636.485V700.924M1362.71 636.485H1427.15M1362.71 700.924V765.363M1362.71 700.924H1427.15M1362.71 765.363V829.803M1362.71 765.363H1427.15M1362.71 829.803V894.242M1362.71 829.803H1427.15M1362.71 894.242V958.682M1362.71 894.242H1427.15M1362.71 958.682V1023.12M1362.71 958.682H1427.15M1362.71 1023.12H1427.15M1427.15 -265.668V-201.229M1427.15 -265.668H1491.59M1427.15 -201.229V-136.789M1427.15 -201.229H1491.59M1427.15 -136.789V-72.3496M1427.15 -136.789H1491.59M1427.15 -72.3496V-7.91011M1427.15 -72.3496H1491.59M1427.15 -7.91011V56.5293M1427.15 -7.91011H1491.59M1427.15 56.5293V120.969M1427.15 56.5293H1491.59M1427.15 120.969V185.408M1427.15 120.969H1491.59M1427.15 185.408V249.848M1427.15 185.408H1491.59M1427.15 249.848V314.287M1427.15 249.848H1491.59M1427.15 314.287V378.727M1427.15 314.287H1491.59M1427.15 378.727V443.166M1427.15 378.727H1491.59M1427.15 443.166V507.606M1427.15 443.166H1491.59M1427.15 507.606V572.045M1427.15 507.606H1491.59M1427.15 572.045V636.485M1427.15 572.045H1491.59M1427.15 636.485V700.924M1427.15 636.485H1491.59M1427.15 700.924V765.363M1427.15 700.924H1491.59M1427.15 765.363V829.803M1427.15 765.363H1491.59M1427.15 829.803V894.242M1427.15 829.803H1491.59M1427.15 894.242V958.682M1427.15 894.242H1491.59M1427.15 958.682V1023.12M1427.15 958.682H1491.59M1427.15 1023.12H1491.59M1491.59 -265.668V-201.229M1491.59 -265.668H1556.03M1491.59 -201.229V-136.789M1491.59 -201.229H1556.03M1491.59 -136.789V-72.3496M1491.59 -136.789H1556.03M1491.59 -72.3496V-7.91011M1491.59 -72.3496H1556.03M1491.59 -7.91011V56.5293M1491.59 -7.91011H1556.03M1491.59 56.5293V120.969M1491.59 56.5293H1556.03M1491.59 120.969V185.408M1491.59 120.969H1556.03M1491.59 185.408V249.848M1491.59 185.408H1556.03M1491.59 249.848V314.287M1491.59 249.848H1556.03M1491.59 314.287V378.727M1491.59 314.287H1556.03M1491.59 378.727V443.166M1491.59 378.727H1556.03M1491.59 443.166V507.606M1491.59 443.166H1556.03M1491.59 507.606V572.045M1491.59 507.606H1556.03M1491.59 572.045V636.485M1491.59 572.045H1556.03M1491.59 636.485V700.924M1491.59 636.485H1556.03M1491.59 700.924V765.363M1491.59 700.924H1556.03M1491.59 765.363V829.803M1491.59 765.363H1556.03M1491.59 829.803V894.242M1491.59 829.803H1556.03M1491.59 894.242V958.682M1491.59 894.242H1556.03M1491.59 958.682V1023.12M1491.59 958.682H1556.03M1491.59 1023.12H1556.03M1556.03 -265.668V-201.229M1556.03 -265.668H1620.47M1556.03 -201.229V-136.789M1556.03 -201.229H1620.47M1556.03 -136.789V-72.3496M1556.03 -136.789H1620.47M1556.03 -72.3496V-7.91011M1556.03 -72.3496H1620.47M1556.03 -7.91011V56.5293M1556.03 -7.91011H1620.47M1556.03 56.5293V120.969M1556.03 56.5293H1620.47M1556.03 120.969V185.408M1556.03 120.969H1620.47M1556.03 185.408V249.848M1556.03 185.408H1620.47M1556.03 249.848V314.287M1556.03 249.848H1620.47M1556.03 314.287V378.727M1556.03 314.287H1620.47M1556.03 378.727V443.166M1556.03 378.727H1620.47M1556.03 443.166V507.606M1556.03 443.166H1620.47M1556.03 507.606V572.045M1556.03 507.606H1620.47M1556.03 572.045V636.485M1556.03 572.045H1620.47M1556.03 636.485V700.924M1556.03 636.485H1620.47M1556.03 700.924V765.363M1556.03 700.924H1620.47M1556.03 765.363V829.803M1556.03 765.363H1620.47M1556.03 829.803V894.242M1556.03 829.803H1620.47M1556.03 894.242V958.682M1556.03 894.242H1620.47M1556.03 958.682V1023.12M1556.03 958.682H1620.47M1556.03 1023.12H1620.47M1620.47 -265.668V-201.229M1620.47 -265.668H1684.91M1620.47 -201.229V-136.789M1620.47 -201.229H1684.91M1620.47 -136.789V-72.3496M1620.47 -136.789H1684.91M1620.47 -72.3496V-7.91011M1620.47 -72.3496H1684.91M1620.47 -7.91011V56.5293M1620.47 -7.91011H1684.91M1620.47 56.5293V120.969M1620.47 56.5293H1684.91M1620.47 120.969V185.408M1620.47 120.969H1684.91M1620.47 185.408V249.848M1620.47 185.408H1684.91M1620.47 249.848V314.287M1620.47 249.848H1684.91M1620.47 314.287V378.727M1620.47 314.287H1684.91M1620.47 378.727V443.166M1620.47 378.727H1684.91M1620.47 443.166V507.606M1620.47 443.166H1684.91M1620.47 507.606V572.045M1620.47 507.606H1684.91M1620.47 572.045V636.485M1620.47 572.045H1684.91M1620.47 636.485V700.924M1620.47 636.485H1684.91M1620.47 700.924V765.363M1620.47 700.924H1684.91M1620.47 765.363V829.803M1620.47 765.363H1684.91M1620.47 829.803V894.242M1620.47 829.803H1684.91M1620.47 894.242V958.682M1620.47 894.242H1684.91M1620.47 958.682V1023.12M1620.47 958.682H1684.91M1620.47 1023.12H1684.91M1684.91 -265.668V-201.229M1684.91 -265.668H1749.35M1684.91 -201.229V-136.789M1684.91 -201.229H1749.35M1684.91 -136.789V-72.3496M1684.91 -136.789H1749.35M1684.91 -72.3496V-7.91011M1684.91 -72.3496H1749.35M1684.91 -7.91011V56.5293M1684.91 -7.91011H1749.35M1684.91 56.5293V120.969M1684.91 56.5293H1749.35M1684.91 120.969V185.408M1684.91 120.969H1749.35M1684.91 185.408V249.848M1684.91 185.408H1749.35M1684.91 249.848V314.287M1684.91 249.848H1749.35M1684.91 314.287V378.727M1684.91 314.287H1749.35M1684.91 378.727V443.166M1684.91 378.727H1749.35M1684.91 443.166V507.606M1684.91 443.166H1749.35M1684.91 507.606V572.045M1684.91 507.606H1749.35M1684.91 572.045V636.485M1684.91 572.045H1749.35M1684.91 636.485V700.924M1684.91 636.485H1749.35M1684.91 700.924V765.363M1684.91 700.924H1749.35M1684.91 765.363V829.803M1684.91 765.363H1749.35M1684.91 829.803V894.242M1684.91 829.803H1749.35M1684.91 894.242V958.682M1684.91 894.242H1749.35M1684.91 958.682V1023.12M1684.91 958.682H1749.35M1684.91 1023.12H1749.35M1749.35 -265.668V-201.229M1749.35 -265.668H1813.79M1749.35 -201.229V-136.789M1749.35 -201.229H1813.79M1749.35 -136.789V-72.3496M1749.35 -136.789H1813.79M1749.35 -72.3496V-7.91011M1749.35 -72.3496H1813.79M1749.35 -7.91011V56.5293M1749.35 -7.91011H1813.79M1749.35 56.5293V120.969M1749.35 56.5293H1813.79M1749.35 120.969V185.408M1749.35 120.969H1813.79M1749.35 185.408V249.848M1749.35 185.408H1813.79M1749.35 249.848V314.287M1749.35 249.848H1813.79M1749.35 314.287V378.727M1749.35 314.287H1813.79M1749.35 378.727V443.166M1749.35 378.727H1813.79M1749.35 443.166V507.606M1749.35 443.166H1813.79M1749.35 507.606V572.045M1749.35 507.606H1813.79M1749.35 572.045V636.485M1749.35 572.045H1813.79M1749.35 636.485V700.924M1749.35 636.485H1813.79M1749.35 700.924V765.363M1749.35 700.924H1813.79M1749.35 765.363V829.803M1749.35 765.363H1813.79M1749.35 829.803V894.242M1749.35 829.803H1813.79M1749.35 894.242V958.682M1749.35 894.242H1813.79M1749.35 958.682V1023.12M1749.35 958.682H1813.79M1749.35 1023.12H1813.79M1813.79 -265.668V-201.229M1813.79 -265.668H1878.23M1813.79 -201.229V-136.789M1813.79 -201.229H1878.23M1813.79 -136.789V-72.3496M1813.79 -136.789H1878.23M1813.79 -72.3496V-7.91011M1813.79 -72.3496H1878.23M1813.79 -7.91011V56.5293M1813.79 -7.91011H1878.23M1813.79 56.5293V120.969M1813.79 56.5293H1878.23M1813.79 120.969V185.408M1813.79 120.969H1878.23M1813.79 185.408V249.848M1813.79 185.408H1878.23M1813.79 249.848V314.287M1813.79 249.848H1878.23M1813.79 314.287V378.727M1813.79 314.287H1878.23M1813.79 378.727V443.166M1813.79 378.727H1878.23M1813.79 443.166V507.606M1813.79 443.166H1878.23M1813.79 507.606V572.045M1813.79 507.606H1878.23M1813.79 572.045V636.485M1813.79 572.045H1878.23M1813.79 636.485V700.924M1813.79 636.485H1878.23M1813.79 700.924V765.363M1813.79 700.924H1878.23M1813.79 765.363V829.803M1813.79 765.363H1878.23M1813.79 829.803V894.242M1813.79 829.803H1878.23M1813.79 894.242V958.682M1813.79 894.242H1878.23M1813.79 958.682V1023.12M1813.79 958.682H1878.23M1813.79 1023.12H1878.23M1878.23 -265.668V-201.229M1878.23 -265.668H1942.67V-201.229M1878.23 -201.229V-136.789M1878.23 -201.229H1942.67M1878.23 -136.789V-72.3496M1878.23 -136.789H1942.67M1878.23 -72.3496V-7.91011M1878.23 -72.3496H1942.67M1878.23 -7.91011V56.5293M1878.23 -7.91011H1942.67M1878.23 56.5293V120.969M1878.23 56.5293H1942.67M1878.23 120.969V185.408M1878.23 120.969H1942.67M1878.23 185.408V249.848M1878.23 185.408H1942.67M1878.23 249.848V314.287M1878.23 249.848H1942.67M1878.23 314.287V378.727M1878.23 314.287H1942.67M1878.23 378.727V443.166M1878.23 378.727H1942.67M1878.23 443.166V507.606M1878.23 443.166H1942.67M1878.23 507.606V572.045M1878.23 507.606H1942.67M1878.23 572.045V636.485M1878.23 572.045H1942.67M1878.23 636.485V700.924M1878.23 636.485H1942.67M1878.23 700.924V765.363M1878.23 700.924H1942.67M1878.23 765.363V829.803M1878.23 765.363H1942.67M1878.23 829.803V894.242M1878.23 829.803H1942.67M1878.23 894.242V958.682M1878.23 894.242H1942.67M1878.23 958.682V1023.12M1878.23 958.682H1942.67M1878.23 1023.12H1942.67V958.682M1942.67 -201.229V-136.789M1942.67 -136.789V-72.3496M1942.67 -72.3496V-7.91011M1942.67 -7.91011V56.5293M1942.67 56.5293V120.969M1942.67 120.969V185.408M1942.67 185.408V249.848M1942.67 249.848V314.287M1942.67 314.287V378.727M1942.67 378.727V443.166M1942.67 443.166V507.606M1942.67 507.606V572.045M1942.67 572.045V636.485M1942.67 636.485V700.924M1942.67 700.924V765.363M1942.67 765.363V829.803M1942.67 829.803V894.242M1942.67 894.242V958.682" stroke="url(#paint0_radial_620_1698)" stroke-opacity="0.6" stroke-width="0.805493"/>
</g>
<g style="mix-blend-mode:soft-light" opacity="0.8">
<path d="M-634.91 -27.2423V-7.91044M-634.91 -7.91044V11.4214M-634.91 -7.91044H-654.242M-634.91 -7.91044H-615.578M-634.91 488.274V507.605M-634.91 507.605V526.937M-634.91 507.605H-654.242M-634.91 507.605H-615.578M-634.91 1003.79V1023.12M-634.91 1023.12V1042.45M-634.91 1023.12H-654.242M-634.91 1023.12H-615.578M-119.394 -27.2423V-7.91044M-119.394 -7.91044V11.4214M-119.394 -7.91044H-138.726M-119.394 -7.91044H-100.063M-119.394 488.274V507.605M-119.394 507.605V526.937M-119.394 507.605H-138.726M-119.394 507.605H-100.063M-119.394 1003.79V1023.12M-119.394 1023.12V1042.45M-119.394 1023.12H-138.726M-119.394 1023.12H-100.063M396.121 -27.2423V-7.91044M396.121 -7.91044V11.4214M396.121 -7.91044H376.789M396.121 -7.91044H415.453M396.121 488.274V507.605M396.121 507.605V526.937M396.121 507.605H376.789M396.121 507.605H415.453M396.121 1003.79V1023.12M396.121 1023.12V1042.45M396.121 1023.12H376.789M396.121 1023.12H415.453M911.637 -27.2423V-7.91044M911.637 -7.91044V11.4214M911.637 -7.91044H892.305M911.637 -7.91044H930.969M911.637 488.274V507.605M911.637 507.605V526.937M911.637 507.605H892.305M911.637 507.605H930.969M911.637 1003.79V1023.12M911.637 1023.12V1042.45M911.637 1023.12H892.305M911.637 1023.12H930.969M1427.15 -27.2423V-7.91044M1427.15 -7.91044V11.4214M1427.15 -7.91044H1407.82M1427.15 -7.91044H1446.48M1427.15 488.274V507.605M1427.15 507.605V526.937M1427.15 507.605H1407.82M1427.15 507.605H1446.48M1427.15 1003.79V1023.12M1427.15 1023.12V1042.45M1427.15 1023.12H1407.82M1427.15 1023.12H1446.48M1942.67 -27.2423V-7.91044M1942.67 -7.91044V11.4214M1942.67 -7.91044H1923.34M1942.67 -7.91044H1962M1942.67 488.274V507.605M1942.67 507.605V526.937M1942.67 507.605H1923.34M1942.67 507.605H1962M1942.67 1003.79V1023.12M1942.67 1023.12V1042.45M1942.67 1023.12H1923.34M1942.67 1023.12H1962M-634.91 -285V-265.668M-634.91 -265.668V-246.336M-634.91 -265.668H-654.242M-634.91 -265.668H-615.578M-634.91 230.516V249.848M-634.91 249.848V269.179M-634.91 249.848H-654.242M-634.91 249.848H-615.578M-634.91 746.031V765.363M-634.91 765.363V784.695M-634.91 765.363H-654.242M-634.91 765.363H-615.578M-119.394 -285V-265.668M-119.394 -265.668V-246.336M-119.394 -265.668H-138.726M-119.394 -265.668H-100.063M-119.394 230.516V249.848M-119.394 249.848V269.179M-119.394 249.848H-138.726M-119.394 249.848H-100.063M-119.394 746.031V765.363M-119.394 765.363V784.695M-119.394 765.363H-138.726M-119.394 765.363H-100.063M396.121 -285V-265.668M396.121 -265.668V-246.336M396.121 -265.668H376.789M396.121 -265.668H415.453M396.121 230.516V249.848M396.121 249.848V269.179M396.121 249.848H376.789M396.121 249.848H415.453M396.121 746.031V765.363M396.121 765.363V784.695M396.121 765.363H376.789M396.121 765.363H415.453M911.637 -285V-265.668M911.637 -265.668V-246.336M911.637 -265.668H892.305M911.637 -265.668H930.969M911.637 230.516V249.848M911.637 249.848V269.179M911.637 249.848H892.305M911.637 249.848H930.969M911.637 746.031V765.363M911.637 765.363V784.695M911.637 765.363H892.305M911.637 765.363H930.969M1427.15 -285V-265.668M1427.15 -265.668V-246.336M1427.15 -265.668H1407.82M1427.15 -265.668H1446.48M1427.15 230.516V249.848M1427.15 249.848V269.179M1427.15 249.848H1407.82M1427.15 249.848H1446.48M1427.15 746.031V765.363M1427.15 765.363V784.695M1427.15 765.363H1407.82M1427.15 765.363H1446.48M1942.67 -285V-265.668M1942.67 -265.668V-246.336M1942.67 -265.668H1923.34M1942.67 -265.668H1962M1942.67 230.516V249.848M1942.67 249.848V269.179M1942.67 249.848H1923.34M1942.67 249.848H1962M1942.67 746.031V765.363M1942.67 765.363V784.695M1942.67 765.363H1923.34M1942.67 765.363H1962M-892.668 -27.2423V-7.91044M-892.668 -7.91044V11.4214M-892.668 -7.91044H-912M-892.668 -7.91044H-873.336M-892.668 488.274V507.605M-892.668 507.605V526.937M-892.668 507.605H-912M-892.668 507.605H-873.336M-892.668 1003.79V1023.12M-892.668 1023.12V1042.45M-892.668 1023.12H-912M-892.668 1023.12H-873.336M-377.152 -27.2423V-7.91044M-377.152 -7.91044V11.4214M-377.152 -7.91044H-396.484M-377.152 -7.91044H-357.82M-377.152 488.274V507.605M-377.152 507.605V526.937M-377.152 507.605H-396.484M-377.152 507.605H-357.82M-377.152 1003.79V1023.12M-377.152 1023.12V1042.45M-377.152 1023.12H-396.484M-377.152 1023.12H-357.82M138.363 -27.2423V-7.91044M138.363 -7.91044V11.4214M138.363 -7.91044H119.032M138.363 -7.91044H157.695M138.363 488.274V507.605M138.363 507.605V526.937M138.363 507.605H119.032M138.363 507.605H157.695M138.363 1003.79V1023.12M138.363 1023.12V1042.45M138.363 1023.12H119.032M138.363 1023.12H157.695M653.879 -27.2423V-7.91044M653.879 -7.91044V11.4214M653.879 -7.91044H634.547M653.879 -7.91044H673.211M653.879 488.274V507.605M653.879 507.605V526.937M653.879 507.605H634.547M653.879 507.605H673.211M653.879 1003.79V1023.12M653.879 1023.12V1042.45M653.879 1023.12H634.547M653.879 1023.12H673.211M1169.39 -27.2423V-7.91044M1169.39 -7.91044V11.4214M1169.39 -7.91044H1150.06M1169.39 -7.91044H1188.73M1169.39 488.274V507.605M1169.39 507.605V526.937M1169.39 507.605H1150.06M1169.39 507.605H1188.73M1169.39 1003.79V1023.12M1169.39 1023.12V1042.45M1169.39 1023.12H1150.06M1169.39 1023.12H1188.73M1684.91 -27.2423V-7.91044M1684.91 -7.91044V11.4214M1684.91 -7.91044H1665.58M1684.91 -7.91044H1704.24M1684.91 488.274V507.605M1684.91 507.605V526.937M1684.91 507.605H1665.58M1684.91 507.605H1704.24M1684.91 1003.79V1023.12M1684.91 1023.12V1042.45M1684.91 1023.12H1665.58M1684.91 1023.12H1704.24M-892.668 -285V-265.668M-892.668 -265.668V-246.336M-892.668 -265.668H-912M-892.668 -265.668H-873.336M-892.668 230.516V249.848M-892.668 249.848V269.179M-892.668 249.848H-912M-892.668 249.848H-873.336M-892.668 746.031V765.363M-892.668 765.363V784.695M-892.668 765.363H-912M-892.668 765.363H-873.336M-377.152 -285V-265.668M-377.152 -265.668V-246.336M-377.152 -265.668H-396.484M-377.152 -265.668H-357.82M-377.152 230.516V249.848M-377.152 249.848V269.179M-377.152 249.848H-396.484M-377.152 249.848H-357.82M-377.152 746.031V765.363M-377.152 765.363V784.695M-377.152 765.363H-396.484M-377.152 765.363H-357.82M138.363 -285V-265.668M138.363 -265.668V-246.336M138.363 -265.668H119.032M138.363 -265.668H157.695M138.363 230.516V249.848M138.363 249.848V269.179M138.363 249.848H119.032M138.363 249.848H157.695M138.363 746.031V765.363M138.363 765.363V784.695M138.363 765.363H119.032M138.363 765.363H157.695M653.879 -285V-265.668M653.879 -265.668V-246.336M653.879 -265.668H634.547M653.879 -265.668H673.211M653.879 230.516V249.848M653.879 249.848V269.179M653.879 249.848H634.547M653.879 249.848H673.211M653.879 746.031V765.363M653.879 765.363V784.695M653.879 765.363H634.547M653.879 765.363H673.211M1169.39 -285V-265.668M1169.39 -265.668V-246.336M1169.39 -265.668H1150.06M1169.39 -265.668H1188.73M1169.39 230.516V249.848M1169.39 249.848V269.179M1169.39 249.848H1150.06M1169.39 249.848H1188.73M1169.39 746.031V765.363M1169.39 765.363V784.695M1169.39 765.363H1150.06M1169.39 765.363H1188.73M1684.91 -285V-265.668M1684.91 -265.668V-246.336M1684.91 -265.668H1665.58M1684.91 -265.668H1704.24M1684.91 230.516V249.848M1684.91 249.848V269.179M1684.91 249.848H1665.58M1684.91 249.848H1704.24M1684.91 746.031V765.363M1684.91 765.363V784.695M1684.91 765.363H1665.58M1684.91 765.363H1704.24" stroke="url(#paint1_radial_620_1698)" stroke-opacity="0.6" stroke-width="1.61099"/>
</g>
</g>
<defs>
<radialGradient id="paint0_radial_620_1698" cx="0" cy="0" r="1" gradientUnits="userSpaceOnUse" gradientTransform="translate(525 378.727) rotate(90) scale(644.395 1417.67)">
<stop stop-color="white"/>
<stop offset="0.504808" stop-color="white" stop-opacity="0"/>
</radialGradient>
<radialGradient id="paint1_radial_620_1698" cx="0" cy="0" r="1" gradientUnits="userSpaceOnUse" gradientTransform="translate(525 378.726) rotate(90) scale(663.726 1437)">
<stop stop-color="white"/>
<stop offset="0.504808" stop-color="white" stop-opacity="0"/>
</radialGradient>
<clipPath id="clip0_620_1698">
<rect width="540" height="620" fill="white"/>
</clipPath>
</defs>
</svg>
