<svg width="569" height="896" viewBox="0 0 569 896" fill="none" xmlns="http://www.w3.org/2000/svg">
<path opacity="0.15" d="M1 895.707C314.142 895.707 568 648.129 568 342.707" stroke="white" stroke-miterlimit="10"/>
<g opacity="0.15">
<path d="M1.00001 211.49L1 343.176L135.822 343.176L135.822 211.49L1.00001 211.49Z" stroke="white" stroke-miterlimit="10"/>
<path d="M1.00001 0.794037L1 211.492L216.715 211.492L216.715 0.794046L1.00001 0.794037Z" stroke="white" stroke-miterlimit="10"/>
<path d="M216.717 0.791443L216.717 343.176L567.253 343.176L567.253 0.791458L216.717 0.791443Z" stroke="white" stroke-miterlimit="10"/>
<path d="M135.822 264.164L135.822 343.176L216.715 343.176L216.715 264.164L135.822 264.164Z" stroke="white" stroke-miterlimit="10"/>
<path d="M162.785 211.49L162.785 264.164L216.714 264.164L216.714 211.49L162.785 211.49Z" stroke="white" stroke-miterlimit="10"/>
<path d="M135.822 237.827L135.822 264.164L162.787 264.164L162.787 237.827L135.822 237.827Z" stroke="white" stroke-miterlimit="10"/>
<path d="M135.822 211.491L135.822 237.828L162.787 237.828L162.787 211.491L135.822 211.491Z" stroke="white" stroke-miterlimit="10"/>
<path d="M162.787 264.164C147.897 264.164 135.822 252.371 135.822 237.827C135.822 223.283 147.897 211.49 162.787 211.49" stroke="white" stroke-miterlimit="10"/>
<path d="M162.785 211.49C192.565 211.49 216.714 235.077 216.714 264.164" stroke="white" stroke-miterlimit="10"/>
<path d="M135.822 343.176C180.492 343.176 216.715 307.795 216.715 264.164" stroke="white" stroke-miterlimit="10"/>
<path d="M135.822 343.176C61.359 343.176 1 284.221 1.00001 211.49" stroke="white" stroke-miterlimit="10"/>
<path d="M1 211.492C1.00001 95.1301 97.582 0.794043 216.715 0.794048" stroke="white" stroke-miterlimit="10"/>
<path d="M216.717 0.79144C410.312 0.791449 567.253 154.083 567.253 343.176" stroke="white" stroke-miterlimit="10"/>
</g>
<path opacity="0.15" d="M568 895.707L568 342.707L1 342.707L0.999976 895.707L568 895.707Z" stroke="white" stroke-miterlimit="10"/>
</svg>
