<svg width="140" height="620" viewBox="0 0 140 620" fill="none" xmlns="http://www.w3.org/2000/svg">
<g clip-path="url(#clip0_620_1623)">
<g style="mix-blend-mode:soft-light" opacity="0.7">
<path d="M-828.229 -269.668H-892.668V-205.229M-828.229 -269.668V-205.229M-828.229 -269.668H-763.789M-828.229 -205.229H-892.668M-828.229 -205.229V-140.789M-828.229 -205.229H-763.789M-892.668 -205.229V-140.789M-828.229 -140.789H-892.668M-828.229 -140.789V-76.3496M-828.229 -140.789H-763.789M-892.668 -140.789V-76.3496M-828.229 -76.3496H-892.668M-828.229 -76.3496V-11.9101M-828.229 -76.3496H-763.789M-892.668 -76.3496V-11.9101M-828.229 -11.9101H-892.668M-828.229 -11.9101V52.5293M-828.229 -11.9101H-763.789M-892.668 -11.9101V52.5293M-828.229 52.5293H-892.668M-828.229 52.5293V116.969M-828.229 52.5293H-763.789M-892.668 52.5293V116.969M-828.229 116.969H-892.668M-828.229 116.969V181.408M-828.229 116.969H-763.789M-892.668 116.969V181.408M-828.229 181.408H-892.668M-828.229 181.408V245.848M-828.229 181.408H-763.789M-892.668 181.408V245.848M-828.229 245.848H-892.668M-828.229 245.848V310.287M-828.229 245.848H-763.789M-892.668 245.848V310.287M-828.229 310.287H-892.668M-828.229 310.287V374.727M-828.229 310.287H-763.789M-892.668 310.287V374.727M-828.229 374.727H-892.668M-828.229 374.727V439.166M-828.229 374.727H-763.789M-892.668 374.727V439.166M-828.229 439.166H-892.668M-828.229 439.166V503.606M-828.229 439.166H-763.789M-892.668 439.166V503.606M-828.229 503.606H-892.668M-828.229 503.606V568.045M-828.229 503.606H-763.789M-892.668 503.606V568.045M-828.229 568.045H-892.668M-828.229 568.045V632.485M-828.229 568.045H-763.789M-892.668 568.045V632.485M-828.229 632.485H-892.668M-828.229 632.485V696.924M-828.229 632.485H-763.789M-892.668 632.485V696.924M-828.229 696.924H-892.668M-828.229 696.924V761.363M-828.229 696.924H-763.789M-892.668 696.924V761.363M-828.229 761.363H-892.668M-828.229 761.363V825.803M-828.229 761.363H-763.789M-892.668 761.363V825.803M-828.229 825.803H-892.668M-828.229 825.803V890.242M-828.229 825.803H-763.789M-892.668 825.803V890.242M-828.229 890.242H-892.668M-828.229 890.242V954.682M-828.229 890.242H-763.789M-892.668 890.242V954.682M-828.229 954.682H-892.668M-828.229 954.682V1019.12M-828.229 954.682H-763.789M-892.668 954.682V1019.12H-828.229M-828.229 1019.12H-763.789M-763.789 -269.668V-205.229M-763.789 -269.668H-699.35M-763.789 -205.229V-140.789M-763.789 -205.229H-699.35M-763.789 -140.789V-76.3496M-763.789 -140.789H-699.35M-763.789 -76.3496V-11.9101M-763.789 -76.3496H-699.35M-763.789 -11.9101V52.5293M-763.789 -11.9101H-699.35M-763.789 52.5293V116.969M-763.789 52.5293H-699.35M-763.789 116.969V181.408M-763.789 116.969H-699.35M-763.789 181.408V245.848M-763.789 181.408H-699.35M-763.789 245.848V310.287M-763.789 245.848H-699.35M-763.789 310.287V374.727M-763.789 310.287H-699.35M-763.789 374.727V439.166M-763.789 374.727H-699.35M-763.789 439.166V503.606M-763.789 439.166H-699.35M-763.789 503.606V568.045M-763.789 503.606H-699.35M-763.789 568.045V632.485M-763.789 568.045H-699.35M-763.789 632.485V696.924M-763.789 632.485H-699.35M-763.789 696.924V761.363M-763.789 696.924H-699.35M-763.789 761.363V825.803M-763.789 761.363H-699.35M-763.789 825.803V890.242M-763.789 825.803H-699.35M-763.789 890.242V954.682M-763.789 890.242H-699.35M-763.789 954.682V1019.12M-763.789 954.682H-699.35M-763.789 1019.12H-699.35M-699.35 -269.668V-205.229M-699.35 -269.668H-634.91M-699.35 -205.229V-140.789M-699.35 -205.229H-634.91M-699.35 -140.789V-76.3496M-699.35 -140.789H-634.91M-699.35 -76.3496V-11.9101M-699.35 -76.3496H-634.91M-699.35 -11.9101V52.5293M-699.35 -11.9101H-634.91M-699.35 52.5293V116.969M-699.35 52.5293H-634.91M-699.35 116.969V181.408M-699.35 116.969H-634.91M-699.35 181.408V245.848M-699.35 181.408H-634.91M-699.35 245.848V310.287M-699.35 245.848H-634.91M-699.35 310.287V374.727M-699.35 310.287H-634.91M-699.35 374.727V439.166M-699.35 374.727H-634.91M-699.35 439.166V503.606M-699.35 439.166H-634.91M-699.35 503.606V568.045M-699.35 503.606H-634.91M-699.35 568.045V632.485M-699.35 568.045H-634.91M-699.35 632.485V696.924M-699.35 632.485H-634.91M-699.35 696.924V761.363M-699.35 696.924H-634.91M-699.35 761.363V825.803M-699.35 761.363H-634.91M-699.35 825.803V890.242M-699.35 825.803H-634.91M-699.35 890.242V954.682M-699.35 890.242H-634.91M-699.35 954.682V1019.12M-699.35 954.682H-634.91M-699.35 1019.12H-634.91M-634.91 -269.668V-205.229M-634.91 -269.668H-570.471M-634.91 -205.229V-140.789M-634.91 -205.229H-570.471M-634.91 -140.789V-76.3496M-634.91 -140.789H-570.471M-634.91 -76.3496V-11.9101M-634.91 -76.3496H-570.471M-634.91 -11.9101V52.5293M-634.91 -11.9101H-570.471M-634.91 52.5293V116.969M-634.91 52.5293H-570.471M-634.91 116.969V181.408M-634.91 116.969H-570.471M-634.91 181.408V245.848M-634.91 181.408H-570.471M-634.91 245.848V310.287M-634.91 245.848H-570.471M-634.91 310.287V374.727M-634.91 310.287H-570.471M-634.91 374.727V439.166M-634.91 374.727H-570.471M-634.91 439.166V503.606M-634.91 439.166H-570.471M-634.91 503.606V568.045M-634.91 503.606H-570.471M-634.91 568.045V632.485M-634.91 568.045H-570.471M-634.91 632.485V696.924M-634.91 632.485H-570.471M-634.91 696.924V761.363M-634.91 696.924H-570.471M-634.91 761.363V825.803M-634.91 761.363H-570.471M-634.91 825.803V890.242M-634.91 825.803H-570.471M-634.91 890.242V954.682M-634.91 890.242H-570.471M-634.91 954.682V1019.12M-634.91 954.682H-570.471M-634.91 1019.12H-570.471M-570.471 -269.668V-205.229M-570.471 -269.668H-506.031M-570.471 -205.229V-140.789M-570.471 -205.229H-506.031M-570.471 -140.789V-76.3496M-570.471 -140.789H-506.031M-570.471 -76.3496V-11.9101M-570.471 -76.3496H-506.031M-570.471 -11.9101V52.5293M-570.471 -11.9101H-506.031M-570.471 52.5293V116.969M-570.471 52.5293H-506.031M-570.471 116.969V181.408M-570.471 116.969H-506.031M-570.471 181.408V245.848M-570.471 181.408H-506.031M-570.471 245.848V310.287M-570.471 245.848H-506.031M-570.471 310.287V374.727M-570.471 310.287H-506.031M-570.471 374.727V439.166M-570.471 374.727H-506.031M-570.471 439.166V503.606M-570.471 439.166H-506.031M-570.471 503.606V568.045M-570.471 503.606H-506.031M-570.471 568.045V632.485M-570.471 568.045H-506.031M-570.471 632.485V696.924M-570.471 632.485H-506.031M-570.471 696.924V761.363M-570.471 696.924H-506.031M-570.471 761.363V825.803M-570.471 761.363H-506.031M-570.471 825.803V890.242M-570.471 825.803H-506.031M-570.471 890.242V954.682M-570.471 890.242H-506.031M-570.471 954.682V1019.12M-570.471 954.682H-506.031M-570.471 1019.12H-506.031M-506.031 -269.668V-205.229M-506.031 -269.668H-441.592M-506.031 -205.229V-140.789M-506.031 -205.229H-441.592M-506.031 -140.789V-76.3496M-506.031 -140.789H-441.592M-506.031 -76.3496V-11.9101M-506.031 -76.3496H-441.592M-506.031 -11.9101V52.5293M-506.031 -11.9101H-441.592M-506.031 52.5293V116.969M-506.031 52.5293H-441.592M-506.031 116.969V181.408M-506.031 116.969H-441.592M-506.031 181.408V245.848M-506.031 181.408H-441.592M-506.031 245.848V310.287M-506.031 245.848H-441.592M-506.031 310.287V374.727M-506.031 310.287H-441.592M-506.031 374.727V439.166M-506.031 374.727H-441.592M-506.031 439.166V503.606M-506.031 439.166H-441.592M-506.031 503.606V568.045M-506.031 503.606H-441.592M-506.031 568.045V632.485M-506.031 568.045H-441.592M-506.031 632.485V696.924M-506.031 632.485H-441.592M-506.031 696.924V761.363M-506.031 696.924H-441.592M-506.031 761.363V825.803M-506.031 761.363H-441.592M-506.031 825.803V890.242M-506.031 825.803H-441.592M-506.031 890.242V954.682M-506.031 890.242H-441.592M-506.031 954.682V1019.12M-506.031 954.682H-441.592M-506.031 1019.12H-441.592M-441.592 -269.668V-205.229M-441.592 -269.668H-377.152M-441.592 -205.229V-140.789M-441.592 -205.229H-377.152M-441.592 -140.789V-76.3496M-441.592 -140.789H-377.152M-441.592 -76.3496V-11.9101M-441.592 -76.3496H-377.152M-441.592 -11.9101V52.5293M-441.592 -11.9101H-377.152M-441.592 52.5293V116.969M-441.592 52.5293H-377.152M-441.592 116.969V181.408M-441.592 116.969H-377.152M-441.592 181.408V245.848M-441.592 181.408H-377.152M-441.592 245.848V310.287M-441.592 245.848H-377.152M-441.592 310.287V374.727M-441.592 310.287H-377.152M-441.592 374.727V439.166M-441.592 374.727H-377.152M-441.592 439.166V503.606M-441.592 439.166H-377.152M-441.592 503.606V568.045M-441.592 503.606H-377.152M-441.592 568.045V632.485M-441.592 568.045H-377.152M-441.592 632.485V696.924M-441.592 632.485H-377.152M-441.592 696.924V761.363M-441.592 696.924H-377.152M-441.592 761.363V825.803M-441.592 761.363H-377.152M-441.592 825.803V890.242M-441.592 825.803H-377.152M-441.592 890.242V954.682M-441.592 890.242H-377.152M-441.592 954.682V1019.12M-441.592 954.682H-377.152M-441.592 1019.12H-377.152M-377.152 -269.668V-205.229M-377.152 -269.668H-312.713M-377.152 -205.229V-140.789M-377.152 -205.229H-312.713M-377.152 -140.789V-76.3496M-377.152 -140.789H-312.713M-377.152 -76.3496V-11.9101M-377.152 -76.3496H-312.713M-377.152 -11.9101V52.5293M-377.152 -11.9101H-312.713M-377.152 52.5293V116.969M-377.152 52.5293H-312.713M-377.152 116.969V181.408M-377.152 116.969H-312.713M-377.152 181.408V245.848M-377.152 181.408H-312.713M-377.152 245.848V310.287M-377.152 245.848H-312.713M-377.152 310.287V374.727M-377.152 310.287H-312.713M-377.152 374.727V439.166M-377.152 374.727H-312.713M-377.152 439.166V503.606M-377.152 439.166H-312.713M-377.152 503.606V568.045M-377.152 503.606H-312.713M-377.152 568.045V632.485M-377.152 568.045H-312.713M-377.152 632.485V696.924M-377.152 632.485H-312.713M-377.152 696.924V761.363M-377.152 696.924H-312.713M-377.152 761.363V825.803M-377.152 761.363H-312.713M-377.152 825.803V890.242M-377.152 825.803H-312.713M-377.152 890.242V954.682M-377.152 890.242H-312.713M-377.152 954.682V1019.12M-377.152 954.682H-312.713M-377.152 1019.12H-312.713M-312.713 -269.668V-205.229M-312.713 -269.668H-248.273M-312.713 -205.229V-140.789M-312.713 -205.229H-248.273M-312.713 -140.789V-76.3496M-312.713 -140.789H-248.273M-312.713 -76.3496V-11.9101M-312.713 -76.3496H-248.273M-312.713 -11.9101V52.5293M-312.713 -11.9101H-248.273M-312.713 52.5293V116.969M-312.713 52.5293H-248.273M-312.713 116.969V181.408M-312.713 116.969H-248.273M-312.713 181.408V245.848M-312.713 181.408H-248.273M-312.713 245.848V310.287M-312.713 245.848H-248.273M-312.713 310.287V374.727M-312.713 310.287H-248.273M-312.713 374.727V439.166M-312.713 374.727H-248.273M-312.713 439.166V503.606M-312.713 439.166H-248.273M-312.713 503.606V568.045M-312.713 503.606H-248.273M-312.713 568.045V632.485M-312.713 568.045H-248.273M-312.713 632.485V696.924M-312.713 632.485H-248.273M-312.713 696.924V761.363M-312.713 696.924H-248.273M-312.713 761.363V825.803M-312.713 761.363H-248.273M-312.713 825.803V890.242M-312.713 825.803H-248.273M-312.713 890.242V954.682M-312.713 890.242H-248.273M-312.713 954.682V1019.12M-312.713 954.682H-248.273M-312.713 1019.12H-248.273M-248.273 -269.668V-205.229M-248.273 -269.668H-183.834M-248.273 -205.229V-140.789M-248.273 -205.229H-183.834M-248.273 -140.789V-76.3496M-248.273 -140.789H-183.834M-248.273 -76.3496V-11.9101M-248.273 -76.3496H-183.834M-248.273 -11.9101V52.5293M-248.273 -11.9101H-183.834M-248.273 52.5293V116.969M-248.273 52.5293H-183.834M-248.273 116.969V181.408M-248.273 116.969H-183.834M-248.273 181.408V245.848M-248.273 181.408H-183.834M-248.273 245.848V310.287M-248.273 245.848H-183.834M-248.273 310.287V374.727M-248.273 310.287H-183.834M-248.273 374.727V439.166M-248.273 374.727H-183.834M-248.273 439.166V503.606M-248.273 439.166H-183.834M-248.273 503.606V568.045M-248.273 503.606H-183.834M-248.273 568.045V632.485M-248.273 568.045H-183.834M-248.273 632.485V696.924M-248.273 632.485H-183.834M-248.273 696.924V761.363M-248.273 696.924H-183.834M-248.273 761.363V825.803M-248.273 761.363H-183.834M-248.273 825.803V890.242M-248.273 825.803H-183.834M-248.273 890.242V954.682M-248.273 890.242H-183.834M-248.273 954.682V1019.12M-248.273 954.682H-183.834M-248.273 1019.12H-183.834M-183.834 -269.668V-205.229M-183.834 -269.668H-119.394M-183.834 -205.229V-140.789M-183.834 -205.229H-119.394M-183.834 -140.789V-76.3496M-183.834 -140.789H-119.394M-183.834 -76.3496V-11.9101M-183.834 -76.3496H-119.394M-183.834 -11.9101V52.5293M-183.834 -11.9101H-119.394M-183.834 52.5293V116.969M-183.834 52.5293H-119.394M-183.834 116.969V181.408M-183.834 116.969H-119.394M-183.834 181.408V245.848M-183.834 181.408H-119.394M-183.834 245.848V310.287M-183.834 245.848H-119.394M-183.834 310.287V374.727M-183.834 310.287H-119.394M-183.834 374.727V439.166M-183.834 374.727H-119.394M-183.834 439.166V503.606M-183.834 439.166H-119.394M-183.834 503.606V568.045M-183.834 503.606H-119.394M-183.834 568.045V632.485M-183.834 568.045H-119.394M-183.834 632.485V696.924M-183.834 632.485H-119.394M-183.834 696.924V761.363M-183.834 696.924H-119.394M-183.834 761.363V825.803M-183.834 761.363H-119.394M-183.834 825.803V890.242M-183.834 825.803H-119.394M-183.834 890.242V954.682M-183.834 890.242H-119.394M-183.834 954.682V1019.12M-183.834 954.682H-119.394M-183.834 1019.12H-119.394M-119.394 -269.668V-205.229M-119.394 -269.668H-54.9549M-119.394 -205.229V-140.789M-119.394 -205.229H-54.9549M-119.394 -140.789V-76.3496M-119.394 -140.789H-54.9549M-119.394 -76.3496V-11.9101M-119.394 -76.3496H-54.9549M-119.394 -11.9101V52.5293M-119.394 -11.9101H-54.9549M-119.394 52.5293V116.969M-119.394 52.5293H-54.9549M-119.394 116.969V181.408M-119.394 116.969H-54.9549M-119.394 181.408V245.848M-119.394 181.408H-54.9549M-119.394 245.848V310.287M-119.394 245.848H-54.9549M-119.394 310.287V374.727M-119.394 310.287H-54.9549M-119.394 374.727V439.166M-119.394 374.727H-54.9549M-119.394 439.166V503.606M-119.394 439.166H-54.9549M-119.394 503.606V568.045M-119.394 503.606H-54.9549M-119.394 568.045V632.485M-119.394 568.045H-54.9549M-119.394 632.485V696.924M-119.394 632.485H-54.9549M-119.394 696.924V761.363M-119.394 696.924H-54.9549M-119.394 761.363V825.803M-119.394 761.363H-54.9549M-119.394 825.803V890.242M-119.394 825.803H-54.9549M-119.394 890.242V954.682M-119.394 890.242H-54.9549M-119.394 954.682V1019.12M-119.394 954.682H-54.9549M-119.394 1019.12H-54.9549M-54.9549 -269.668V-205.229M-54.9549 -269.668H9.48459M-54.9549 -205.229V-140.789M-54.9549 -205.229H9.48459M-54.9549 -140.789V-76.3496M-54.9549 -140.789H9.48459M-54.9549 -76.3496V-11.9101M-54.9549 -76.3496H9.48459M-54.9549 -11.9101V52.5293M-54.9549 -11.9101H9.48459M-54.9549 52.5293V116.969M-54.9549 52.5293H9.48459M-54.9549 116.969V181.408M-54.9549 116.969H9.48459M-54.9549 181.408V245.848M-54.9549 181.408H9.48459M-54.9549 245.848V310.287M-54.9549 245.848H9.48459M-54.9549 310.287V374.727M-54.9549 310.287H9.48459M-54.9549 374.727V439.166M-54.9549 374.727H9.48459M-54.9549 439.166V503.606M-54.9549 439.166H9.48459M-54.9549 503.606V568.045M-54.9549 503.606H9.48459M-54.9549 568.045V632.485M-54.9549 568.045H9.48459M-54.9549 632.485V696.924M-54.9549 632.485H9.48459M-54.9549 696.924V761.363M-54.9549 696.924H9.48459M-54.9549 761.363V825.803M-54.9549 761.363H9.48459M-54.9549 825.803V890.242M-54.9549 825.803H9.48459M-54.9549 890.242V954.682M-54.9549 890.242H9.48459M-54.9549 954.682V1019.12M-54.9549 954.682H9.48459M-54.9549 1019.12H9.48459M9.48459 -269.668V-205.229M9.48459 -269.668H73.9241M9.48459 -205.229V-140.789M9.48459 -205.229H73.9241M9.48459 -140.789V-76.3496M9.48459 -140.789H73.9241M9.48459 -76.3496V-11.9101M9.48459 -76.3496H73.9241M9.48459 -11.9101V52.5293M9.48459 -11.9101H73.9241M9.48459 52.5293V116.969M9.48459 52.5293H73.9241M9.48459 116.969V181.408M9.48459 116.969H73.9241M9.48459 181.408V245.848M9.48459 181.408H73.9241M9.48459 245.848V310.287M9.48459 245.848H73.9241M9.48459 310.287V374.727M9.48459 310.287H73.9241M9.48459 374.727V439.166M9.48459 374.727H73.9241M9.48459 439.166V503.606M9.48459 439.166H73.9241M9.48459 503.606V568.045M9.48459 503.606H73.9241M9.48459 568.045V632.485M9.48459 568.045H73.9241M9.48459 632.485V696.924M9.48459 632.485H73.9241M9.48459 696.924V761.363M9.48459 696.924H73.9241M9.48459 761.363V825.803M9.48459 761.363H73.9241M9.48459 825.803V890.242M9.48459 825.803H73.9241M9.48459 890.242V954.682M9.48459 890.242H73.9241M9.48459 954.682V1019.12M9.48459 954.682H73.9241M9.48459 1019.12H73.9241M73.9241 -269.668V-205.229M73.9241 -269.668H138.364M73.9241 -205.229V-140.789M73.9241 -205.229H138.364M73.9241 -140.789V-76.3496M73.9241 -140.789H138.364M73.9241 -76.3496V-11.9101M73.9241 -76.3496H138.364M73.9241 -11.9101V52.5293M73.9241 -11.9101H138.364M73.9241 52.5293V116.969M73.9241 52.5293H138.364M73.9241 116.969V181.408M73.9241 116.969H138.364M73.9241 181.408V245.848M73.9241 181.408H138.364M73.9241 245.848V310.287M73.9241 245.848H138.364M73.9241 310.287V374.727M73.9241 310.287H138.364M73.9241 374.727V439.166M73.9241 374.727H138.364M73.9241 439.166V503.606M73.9241 439.166H138.364M73.9241 503.606V568.045M73.9241 503.606H138.364M73.9241 568.045V632.485M73.9241 568.045H138.364M73.9241 632.485V696.924M73.9241 632.485H138.364M73.9241 696.924V761.363M73.9241 696.924H138.364M73.9241 761.363V825.803M73.9241 761.363H138.364M73.9241 825.803V890.242M73.9241 825.803H138.364M73.9241 890.242V954.682M73.9241 890.242H138.364M73.9241 954.682V1019.12M73.9241 954.682H138.364M73.9241 1019.12H138.364M138.364 -269.668V-205.229M138.364 -269.668H202.803M138.364 -205.229V-140.789M138.364 -205.229H202.803M138.364 -140.789V-76.3496M138.364 -140.789H202.803M138.364 -76.3496V-11.9101M138.364 -76.3496H202.803M138.364 -11.9101V52.5293M138.364 -11.9101H202.803M138.364 52.5293V116.969M138.364 52.5293H202.803M138.364 116.969V181.408M138.364 116.969H202.803M138.364 181.408V245.848M138.364 181.408H202.803M138.364 245.848V310.287M138.364 245.848H202.803M138.364 310.287V374.727M138.364 310.287H202.803M138.364 374.727V439.166M138.364 374.727H202.803M138.364 439.166V503.606M138.364 439.166H202.803M138.364 503.606V568.045M138.364 503.606H202.803M138.364 568.045V632.485M138.364 568.045H202.803M138.364 632.485V696.924M138.364 632.485H202.803M138.364 696.924V761.363M138.364 696.924H202.803M138.364 761.363V825.803M138.364 761.363H202.803M138.364 825.803V890.242M138.364 825.803H202.803M138.364 890.242V954.682M138.364 890.242H202.803M138.364 954.682V1019.12M138.364 954.682H202.803M138.364 1019.12H202.803M202.803 -269.668V-205.229M202.803 -269.668H267.242M202.803 -205.229V-140.789M202.803 -205.229H267.242M202.803 -140.789V-76.3496M202.803 -140.789H267.242M202.803 -76.3496V-11.9101M202.803 -76.3496H267.242M202.803 -11.9101V52.5293M202.803 -11.9101H267.242M202.803 52.5293V116.969M202.803 52.5293H267.242M202.803 116.969V181.408M202.803 116.969H267.242M202.803 181.408V245.848M202.803 181.408H267.242M202.803 245.848V310.287M202.803 245.848H267.242M202.803 310.287V374.727M202.803 310.287H267.242M202.803 374.727V439.166M202.803 374.727H267.242M202.803 439.166V503.606M202.803 439.166H267.242M202.803 503.606V568.045M202.803 503.606H267.242M202.803 568.045V632.485M202.803 568.045H267.242M202.803 632.485V696.924M202.803 632.485H267.242M202.803 696.924V761.363M202.803 696.924H267.242M202.803 761.363V825.803M202.803 761.363H267.242M202.803 825.803V890.242M202.803 825.803H267.242M202.803 890.242V954.682M202.803 890.242H267.242M202.803 954.682V1019.12M202.803 954.682H267.242M202.803 1019.12H267.242M267.242 -269.668V-205.229M267.242 -269.668H331.682M267.242 -205.229V-140.789M267.242 -205.229H331.682M267.242 -140.789V-76.3496M267.242 -140.789H331.682M267.242 -76.3496V-11.9101M267.242 -76.3496H331.682M267.242 -11.9101V52.5293M267.242 -11.9101H331.682M267.242 52.5293V116.969M267.242 52.5293H331.682M267.242 116.969V181.408M267.242 116.969H331.682M267.242 181.408V245.848M267.242 181.408H331.682M267.242 245.848V310.287M267.242 245.848H331.682M267.242 310.287V374.727M267.242 310.287H331.682M267.242 374.727V439.166M267.242 374.727H331.682M267.242 439.166V503.606M267.242 439.166H331.682M267.242 503.606V568.045M267.242 503.606H331.682M267.242 568.045V632.485M267.242 568.045H331.682M267.242 632.485V696.924M267.242 632.485H331.682M267.242 696.924V761.363M267.242 696.924H331.682M267.242 761.363V825.803M267.242 761.363H331.682M267.242 825.803V890.242M267.242 825.803H331.682M267.242 890.242V954.682M267.242 890.242H331.682M267.242 954.682V1019.12M267.242 954.682H331.682M267.242 1019.12H331.682M331.682 -269.668V-205.229M331.682 -269.668H396.121M331.682 -205.229V-140.789M331.682 -205.229H396.121M331.682 -140.789V-76.3496M331.682 -140.789H396.121M331.682 -76.3496V-11.9101M331.682 -76.3496H396.121M331.682 -11.9101V52.5293M331.682 -11.9101H396.121M331.682 52.5293V116.969M331.682 52.5293H396.121M331.682 116.969V181.408M331.682 116.969H396.121M331.682 181.408V245.848M331.682 181.408H396.121M331.682 245.848V310.287M331.682 245.848H396.121M331.682 310.287V374.727M331.682 310.287H396.121M331.682 374.727V439.166M331.682 374.727H396.121M331.682 439.166V503.606M331.682 439.166H396.121M331.682 503.606V568.045M331.682 503.606H396.121M331.682 568.045V632.485M331.682 568.045H396.121M331.682 632.485V696.924M331.682 632.485H396.121M331.682 696.924V761.363M331.682 696.924H396.121M331.682 761.363V825.803M331.682 761.363H396.121M331.682 825.803V890.242M331.682 825.803H396.121M331.682 890.242V954.682M331.682 890.242H396.121M331.682 954.682V1019.12M331.682 954.682H396.121M331.682 1019.12H396.121M396.121 -269.668V-205.229M396.121 -269.668H460.561M396.121 -205.229V-140.789M396.121 -205.229H460.561M396.121 -140.789V-76.3496M396.121 -140.789H460.561M396.121 -76.3496V-11.9101M396.121 -76.3496H460.561M396.121 -11.9101V52.5293M396.121 -11.9101H460.561M396.121 52.5293V116.969M396.121 52.5293H460.561M396.121 116.969V181.408M396.121 116.969H460.561M396.121 181.408V245.848M396.121 181.408H460.561M396.121 245.848V310.287M396.121 245.848H460.561M396.121 310.287V374.727M396.121 310.287H460.561M396.121 374.727V439.166M396.121 374.727H460.561M396.121 439.166V503.606M396.121 439.166H460.561M396.121 503.606V568.045M396.121 503.606H460.561M396.121 568.045V632.485M396.121 568.045H460.561M396.121 632.485V696.924M396.121 632.485H460.561M396.121 696.924V761.363M396.121 696.924H460.561M396.121 761.363V825.803M396.121 761.363H460.561M396.121 825.803V890.242M396.121 825.803H460.561M396.121 890.242V954.682M396.121 890.242H460.561M396.121 954.682V1019.12M396.121 954.682H460.561M396.121 1019.12H460.561M460.561 -269.668V-205.229M460.561 -269.668H525M460.561 -205.229V-140.789M460.561 -205.229H525M460.561 -140.789V-76.3496M460.561 -140.789H525M460.561 -76.3496V-11.9101M460.561 -76.3496H525M460.561 -11.9101V52.5293M460.561 -11.9101H525M460.561 52.5293V116.969M460.561 52.5293H525M460.561 116.969V181.408M460.561 116.969H525M460.561 181.408V245.848M460.561 181.408H525M460.561 245.848V310.287M460.561 245.848H525M460.561 310.287V374.727M460.561 310.287H525M460.561 374.727V439.166M460.561 374.727H525M460.561 439.166V503.606M460.561 439.166H525M460.561 503.606V568.045M460.561 503.606H525M460.561 568.045V632.485M460.561 568.045H525M460.561 632.485V696.924M460.561 632.485H525M460.561 696.924V761.363M460.561 696.924H525M460.561 761.363V825.803M460.561 761.363H525M460.561 825.803V890.242M460.561 825.803H525M460.561 890.242V954.682M460.561 890.242H525M460.561 954.682V1019.12M460.561 954.682H525M460.561 1019.12H525M525 -269.668V-205.229M525 -269.668H589.44M525 -205.229V-140.789M525 -205.229H589.44M525 -140.789V-76.3496M525 -140.789H589.44M525 -76.3496V-11.9101M525 -76.3496H589.44M525 -11.9101V52.5293M525 -11.9101H589.44M525 52.5293V116.969M525 52.5293H589.44M525 116.969V181.408M525 116.969H589.44M525 181.408V245.848M525 181.408H589.44M525 245.848V310.287M525 245.848H589.44M525 310.287V374.727M525 310.287H589.44M525 374.727V439.166M525 374.727H589.44M525 439.166V503.606M525 439.166H589.44M525 503.606V568.045M525 503.606H589.44M525 568.045V632.485M525 568.045H589.44M525 632.485V696.924M525 632.485H589.44M525 696.924V761.363M525 696.924H589.44M525 761.363V825.803M525 761.363H589.44M525 825.803V890.242M525 825.803H589.44M525 890.242V954.682M525 890.242H589.44M525 954.682V1019.12M525 954.682H589.44M525 1019.12H589.44M589.44 -269.668V-205.229M589.44 -269.668H653.879M589.44 -205.229V-140.789M589.44 -205.229H653.879M589.44 -140.789V-76.3496M589.44 -140.789H653.879M589.44 -76.3496V-11.9101M589.44 -76.3496H653.879M589.44 -11.9101V52.5293M589.44 -11.9101H653.879M589.44 52.5293V116.969M589.44 52.5293H653.879M589.44 116.969V181.408M589.44 116.969H653.879M589.44 181.408V245.848M589.44 181.408H653.879M589.44 245.848V310.287M589.44 245.848H653.879M589.44 310.287V374.727M589.44 310.287H653.879M589.44 374.727V439.166M589.44 374.727H653.879M589.44 439.166V503.606M589.44 439.166H653.879M589.44 503.606V568.045M589.44 503.606H653.879M589.44 568.045V632.485M589.44 568.045H653.879M589.44 632.485V696.924M589.44 632.485H653.879M589.44 696.924V761.363M589.44 696.924H653.879M589.44 761.363V825.803M589.44 761.363H653.879M589.44 825.803V890.242M589.44 825.803H653.879M589.44 890.242V954.682M589.44 890.242H653.879M589.44 954.682V1019.12M589.44 954.682H653.879M589.44 1019.12H653.879M653.879 -269.668V-205.229M653.879 -269.668H718.319M653.879 -205.229V-140.789M653.879 -205.229H718.319M653.879 -140.789V-76.3496M653.879 -140.789H718.319M653.879 -76.3496V-11.9101M653.879 -76.3496H718.319M653.879 -11.9101V52.5293M653.879 -11.9101H718.319M653.879 52.5293V116.969M653.879 52.5293H718.319M653.879 116.969V181.408M653.879 116.969H718.319M653.879 181.408V245.848M653.879 181.408H718.319M653.879 245.848V310.287M653.879 245.848H718.319M653.879 310.287V374.727M653.879 310.287H718.319M653.879 374.727V439.166M653.879 374.727H718.319M653.879 439.166V503.606M653.879 439.166H718.319M653.879 503.606V568.045M653.879 503.606H718.319M653.879 568.045V632.485M653.879 568.045H718.319M653.879 632.485V696.924M653.879 632.485H718.319M653.879 696.924V761.363M653.879 696.924H718.319M653.879 761.363V825.803M653.879 761.363H718.319M653.879 825.803V890.242M653.879 825.803H718.319M653.879 890.242V954.682M653.879 890.242H718.319M653.879 954.682V1019.12M653.879 954.682H718.319M653.879 1019.12H718.319M718.319 -269.668V-205.229M718.319 -269.668H782.758M718.319 -205.229V-140.789M718.319 -205.229H782.758M718.319 -140.789V-76.3496M718.319 -140.789H782.758M718.319 -76.3496V-11.9101M718.319 -76.3496H782.758M718.319 -11.9101V52.5293M718.319 -11.9101H782.758M718.319 52.5293V116.969M718.319 52.5293H782.758M718.319 116.969V181.408M718.319 116.969H782.758M718.319 181.408V245.848M718.319 181.408H782.758M718.319 245.848V310.287M718.319 245.848H782.758M718.319 310.287V374.727M718.319 310.287H782.758M718.319 374.727V439.166M718.319 374.727H782.758M718.319 439.166V503.606M718.319 439.166H782.758M718.319 503.606V568.045M718.319 503.606H782.758M718.319 568.045V632.485M718.319 568.045H782.758M718.319 632.485V696.924M718.319 632.485H782.758M718.319 696.924V761.363M718.319 696.924H782.758M718.319 761.363V825.803M718.319 761.363H782.758M718.319 825.803V890.242M718.319 825.803H782.758M718.319 890.242V954.682M718.319 890.242H782.758M718.319 954.682V1019.12M718.319 954.682H782.758M718.319 1019.12H782.758M782.758 -269.668V-205.229M782.758 -269.668H847.198M782.758 -205.229V-140.789M782.758 -205.229H847.198M782.758 -140.789V-76.3496M782.758 -140.789H847.198M782.758 -76.3496V-11.9101M782.758 -76.3496H847.198M782.758 -11.9101V52.5293M782.758 -11.9101H847.198M782.758 52.5293V116.969M782.758 52.5293H847.198M782.758 116.969V181.408M782.758 116.969H847.198M782.758 181.408V245.848M782.758 181.408H847.198M782.758 245.848V310.287M782.758 245.848H847.198M782.758 310.287V374.727M782.758 310.287H847.198M782.758 374.727V439.166M782.758 374.727H847.198M782.758 439.166V503.606M782.758 439.166H847.198M782.758 503.606V568.045M782.758 503.606H847.198M782.758 568.045V632.485M782.758 568.045H847.198M782.758 632.485V696.924M782.758 632.485H847.198M782.758 696.924V761.363M782.758 696.924H847.198M782.758 761.363V825.803M782.758 761.363H847.198M782.758 825.803V890.242M782.758 825.803H847.198M782.758 890.242V954.682M782.758 890.242H847.198M782.758 954.682V1019.12M782.758 954.682H847.198M782.758 1019.12H847.198M847.198 -269.668V-205.229M847.198 -269.668H911.637M847.198 -205.229V-140.789M847.198 -205.229H911.637M847.198 -140.789V-76.3496M847.198 -140.789H911.637M847.198 -76.3496V-11.9101M847.198 -76.3496H911.637M847.198 -11.9101V52.5293M847.198 -11.9101H911.637M847.198 52.5293V116.969M847.198 52.5293H911.637M847.198 116.969V181.408M847.198 116.969H911.637M847.198 181.408V245.848M847.198 181.408H911.637M847.198 245.848V310.287M847.198 245.848H911.637M847.198 310.287V374.727M847.198 310.287H911.637M847.198 374.727V439.166M847.198 374.727H911.637M847.198 439.166V503.606M847.198 439.166H911.637M847.198 503.606V568.045M847.198 503.606H911.637M847.198 568.045V632.485M847.198 568.045H911.637M847.198 632.485V696.924M847.198 632.485H911.637M847.198 696.924V761.363M847.198 696.924H911.637M847.198 761.363V825.803M847.198 761.363H911.637M847.198 825.803V890.242M847.198 825.803H911.637M847.198 890.242V954.682M847.198 890.242H911.637M847.198 954.682V1019.12M847.198 954.682H911.637M847.198 1019.12H911.637M911.637 -269.668V-205.229M911.637 -269.668H976.077M911.637 -205.229V-140.789M911.637 -205.229H976.077M911.637 -140.789V-76.3496M911.637 -140.789H976.077M911.637 -76.3496V-11.9101M911.637 -76.3496H976.077M911.637 -11.9101V52.5293M911.637 -11.9101H976.077M911.637 52.5293V116.969M911.637 52.5293H976.077M911.637 116.969V181.408M911.637 116.969H976.077M911.637 181.408V245.848M911.637 181.408H976.077M911.637 245.848V310.287M911.637 245.848H976.077M911.637 310.287V374.727M911.637 310.287H976.077M911.637 374.727V439.166M911.637 374.727H976.077M911.637 439.166V503.606M911.637 439.166H976.077M911.637 503.606V568.045M911.637 503.606H976.077M911.637 568.045V632.485M911.637 568.045H976.077M911.637 632.485V696.924M911.637 632.485H976.077M911.637 696.924V761.363M911.637 696.924H976.077M911.637 761.363V825.803M911.637 761.363H976.077M911.637 825.803V890.242M911.637 825.803H976.077M911.637 890.242V954.682M911.637 890.242H976.077M911.637 954.682V1019.12M911.637 954.682H976.077M911.637 1019.12H976.077M976.077 -269.668V-205.229M976.077 -269.668H1040.52M976.077 -205.229V-140.789M976.077 -205.229H1040.52M976.077 -140.789V-76.3496M976.077 -140.789H1040.52M976.077 -76.3496V-11.9101M976.077 -76.3496H1040.52M976.077 -11.9101V52.5293M976.077 -11.9101H1040.52M976.077 52.5293V116.969M976.077 52.5293H1040.52M976.077 116.969V181.408M976.077 116.969H1040.52M976.077 181.408V245.848M976.077 181.408H1040.52M976.077 245.848V310.287M976.077 245.848H1040.52M976.077 310.287V374.727M976.077 310.287H1040.52M976.077 374.727V439.166M976.077 374.727H1040.52M976.077 439.166V503.606M976.077 439.166H1040.52M976.077 503.606V568.045M976.077 503.606H1040.52M976.077 568.045V632.485M976.077 568.045H1040.52M976.077 632.485V696.924M976.077 632.485H1040.52M976.077 696.924V761.363M976.077 696.924H1040.52M976.077 761.363V825.803M976.077 761.363H1040.52M976.077 825.803V890.242M976.077 825.803H1040.52M976.077 890.242V954.682M976.077 890.242H1040.52M976.077 954.682V1019.12M976.077 954.682H1040.52M976.077 1019.12H1040.52M1040.52 -269.668V-205.229M1040.52 -269.668H1104.96M1040.52 -205.229V-140.789M1040.52 -205.229H1104.96M1040.52 -140.789V-76.3496M1040.52 -140.789H1104.96M1040.52 -76.3496V-11.9101M1040.52 -76.3496H1104.96M1040.52 -11.9101V52.5293M1040.52 -11.9101H1104.96M1040.52 52.5293V116.969M1040.52 52.5293H1104.96M1040.52 116.969V181.408M1040.52 116.969H1104.96M1040.52 181.408V245.848M1040.52 181.408H1104.96M1040.52 245.848V310.287M1040.52 245.848H1104.96M1040.52 310.287V374.727M1040.52 310.287H1104.96M1040.52 374.727V439.166M1040.52 374.727H1104.96M1040.52 439.166V503.606M1040.52 439.166H1104.96M1040.52 503.606V568.045M1040.52 503.606H1104.96M1040.52 568.045V632.485M1040.52 568.045H1104.96M1040.52 632.485V696.924M1040.52 632.485H1104.96M1040.52 696.924V761.363M1040.52 696.924H1104.96M1040.52 761.363V825.803M1040.52 761.363H1104.96M1040.52 825.803V890.242M1040.52 825.803H1104.96M1040.52 890.242V954.682M1040.52 890.242H1104.96M1040.52 954.682V1019.12M1040.52 954.682H1104.96M1040.52 1019.12H1104.96M1104.96 -269.668V-205.229M1104.96 -269.668H1169.4M1104.96 -205.229V-140.789M1104.96 -205.229H1169.4M1104.96 -140.789V-76.3496M1104.96 -140.789H1169.4M1104.96 -76.3496V-11.9101M1104.96 -76.3496H1169.4M1104.96 -11.9101V52.5293M1104.96 -11.9101H1169.4M1104.96 52.5293V116.969M1104.96 52.5293H1169.4M1104.96 116.969V181.408M1104.96 116.969H1169.4M1104.96 181.408V245.848M1104.96 181.408H1169.4M1104.96 245.848V310.287M1104.96 245.848H1169.4M1104.96 310.287V374.727M1104.96 310.287H1169.4M1104.96 374.727V439.166M1104.96 374.727H1169.4M1104.96 439.166V503.606M1104.96 439.166H1169.4M1104.96 503.606V568.045M1104.96 503.606H1169.4M1104.96 568.045V632.485M1104.96 568.045H1169.4M1104.96 632.485V696.924M1104.96 632.485H1169.4M1104.96 696.924V761.363M1104.96 696.924H1169.4M1104.96 761.363V825.803M1104.96 761.363H1169.4M1104.96 825.803V890.242M1104.96 825.803H1169.4M1104.96 890.242V954.682M1104.96 890.242H1169.4M1104.96 954.682V1019.12M1104.96 954.682H1169.4M1104.96 1019.12H1169.4M1169.4 -269.668V-205.229M1169.4 -269.668H1233.83M1169.4 -205.229V-140.789M1169.4 -205.229H1233.83M1169.4 -140.789V-76.3496M1169.4 -140.789H1233.83M1169.4 -76.3496V-11.9101M1169.4 -76.3496H1233.83M1169.4 -11.9101V52.5293M1169.4 -11.9101H1233.83M1169.4 52.5293V116.969M1169.4 52.5293H1233.83M1169.4 116.969V181.408M1169.4 116.969H1233.83M1169.4 181.408V245.848M1169.4 181.408H1233.83M1169.4 245.848V310.287M1169.4 245.848H1233.83M1169.4 310.287V374.727M1169.4 310.287H1233.83M1169.4 374.727V439.166M1169.4 374.727H1233.83M1169.4 439.166V503.606M1169.4 439.166H1233.83M1169.4 503.606V568.045M1169.4 503.606H1233.83M1169.4 568.045V632.485M1169.4 568.045H1233.83M1169.4 632.485V696.924M1169.4 632.485H1233.83M1169.4 696.924V761.363M1169.4 696.924H1233.83M1169.4 761.363V825.803M1169.4 761.363H1233.83M1169.4 825.803V890.242M1169.4 825.803H1233.83M1169.4 890.242V954.682M1169.4 890.242H1233.83M1169.4 954.682V1019.12M1169.4 954.682H1233.83M1169.4 1019.12H1233.83M1233.83 -269.668V-205.229M1233.83 -269.668H1298.27M1233.83 -205.229V-140.789M1233.83 -205.229H1298.27M1233.83 -140.789V-76.3496M1233.83 -140.789H1298.27M1233.83 -76.3496V-11.9101M1233.83 -76.3496H1298.27M1233.83 -11.9101V52.5293M1233.83 -11.9101H1298.27M1233.83 52.5293V116.969M1233.83 52.5293H1298.27M1233.83 116.969V181.408M1233.83 116.969H1298.27M1233.83 181.408V245.848M1233.83 181.408H1298.27M1233.83 245.848V310.287M1233.83 245.848H1298.27M1233.83 310.287V374.727M1233.83 310.287H1298.27M1233.83 374.727V439.166M1233.83 374.727H1298.27M1233.83 439.166V503.606M1233.83 439.166H1298.27M1233.83 503.606V568.045M1233.83 503.606H1298.27M1233.83 568.045V632.485M1233.83 568.045H1298.27M1233.83 632.485V696.924M1233.83 632.485H1298.27M1233.83 696.924V761.363M1233.83 696.924H1298.27M1233.83 761.363V825.803M1233.83 761.363H1298.27M1233.83 825.803V890.242M1233.83 825.803H1298.27M1233.83 890.242V954.682M1233.83 890.242H1298.27M1233.83 954.682V1019.12M1233.83 954.682H1298.27M1233.83 1019.12H1298.27M1298.27 -269.668V-205.229M1298.27 -269.668H1362.71M1298.27 -205.229V-140.789M1298.27 -205.229H1362.71M1298.27 -140.789V-76.3496M1298.27 -140.789H1362.71M1298.27 -76.3496V-11.9101M1298.27 -76.3496H1362.71M1298.27 -11.9101V52.5293M1298.27 -11.9101H1362.71M1298.27 52.5293V116.969M1298.27 52.5293H1362.71M1298.27 116.969V181.408M1298.27 116.969H1362.71M1298.27 181.408V245.848M1298.27 181.408H1362.71M1298.27 245.848V310.287M1298.27 245.848H1362.71M1298.27 310.287V374.727M1298.27 310.287H1362.71M1298.27 374.727V439.166M1298.27 374.727H1362.71M1298.27 439.166V503.606M1298.27 439.166H1362.71M1298.27 503.606V568.045M1298.27 503.606H1362.71M1298.27 568.045V632.485M1298.27 568.045H1362.71M1298.27 632.485V696.924M1298.27 632.485H1362.71M1298.27 696.924V761.363M1298.27 696.924H1362.71M1298.27 761.363V825.803M1298.27 761.363H1362.71M1298.27 825.803V890.242M1298.27 825.803H1362.71M1298.27 890.242V954.682M1298.27 890.242H1362.71M1298.27 954.682V1019.12M1298.27 954.682H1362.71M1298.27 1019.12H1362.71M1362.71 -269.668V-205.229M1362.71 -269.668H1427.15M1362.71 -205.229V-140.789M1362.71 -205.229H1427.15M1362.71 -140.789V-76.3496M1362.71 -140.789H1427.15M1362.71 -76.3496V-11.9101M1362.71 -76.3496H1427.15M1362.71 -11.9101V52.5293M1362.71 -11.9101H1427.15M1362.71 52.5293V116.969M1362.71 52.5293H1427.15M1362.71 116.969V181.408M1362.71 116.969H1427.15M1362.71 181.408V245.848M1362.71 181.408H1427.15M1362.71 245.848V310.287M1362.71 245.848H1427.15M1362.71 310.287V374.727M1362.71 310.287H1427.15M1362.71 374.727V439.166M1362.71 374.727H1427.15M1362.71 439.166V503.606M1362.71 439.166H1427.15M1362.71 503.606V568.045M1362.71 503.606H1427.15M1362.71 568.045V632.485M1362.71 568.045H1427.15M1362.71 632.485V696.924M1362.71 632.485H1427.15M1362.71 696.924V761.363M1362.71 696.924H1427.15M1362.71 761.363V825.803M1362.71 761.363H1427.15M1362.71 825.803V890.242M1362.71 825.803H1427.15M1362.71 890.242V954.682M1362.71 890.242H1427.15M1362.71 954.682V1019.12M1362.71 954.682H1427.15M1362.71 1019.12H1427.15M1427.15 -269.668V-205.229M1427.15 -269.668H1491.59M1427.15 -205.229V-140.789M1427.15 -205.229H1491.59M1427.15 -140.789V-76.3496M1427.15 -140.789H1491.59M1427.15 -76.3496V-11.9101M1427.15 -76.3496H1491.59M1427.15 -11.9101V52.5293M1427.15 -11.9101H1491.59M1427.15 52.5293V116.969M1427.15 52.5293H1491.59M1427.15 116.969V181.408M1427.15 116.969H1491.59M1427.15 181.408V245.848M1427.15 181.408H1491.59M1427.15 245.848V310.287M1427.15 245.848H1491.59M1427.15 310.287V374.727M1427.15 310.287H1491.59M1427.15 374.727V439.166M1427.15 374.727H1491.59M1427.15 439.166V503.606M1427.15 439.166H1491.59M1427.15 503.606V568.045M1427.15 503.606H1491.59M1427.15 568.045V632.485M1427.15 568.045H1491.59M1427.15 632.485V696.924M1427.15 632.485H1491.59M1427.15 696.924V761.363M1427.15 696.924H1491.59M1427.15 761.363V825.803M1427.15 761.363H1491.59M1427.15 825.803V890.242M1427.15 825.803H1491.59M1427.15 890.242V954.682M1427.15 890.242H1491.59M1427.15 954.682V1019.12M1427.15 954.682H1491.59M1427.15 1019.12H1491.59M1491.59 -269.668V-205.229M1491.59 -269.668H1556.03M1491.59 -205.229V-140.789M1491.59 -205.229H1556.03M1491.59 -140.789V-76.3496M1491.59 -140.789H1556.03M1491.59 -76.3496V-11.9101M1491.59 -76.3496H1556.03M1491.59 -11.9101V52.5293M1491.59 -11.9101H1556.03M1491.59 52.5293V116.969M1491.59 52.5293H1556.03M1491.59 116.969V181.408M1491.59 116.969H1556.03M1491.59 181.408V245.848M1491.59 181.408H1556.03M1491.59 245.848V310.287M1491.59 245.848H1556.03M1491.59 310.287V374.727M1491.59 310.287H1556.03M1491.59 374.727V439.166M1491.59 374.727H1556.03M1491.59 439.166V503.606M1491.59 439.166H1556.03M1491.59 503.606V568.045M1491.59 503.606H1556.03M1491.59 568.045V632.485M1491.59 568.045H1556.03M1491.59 632.485V696.924M1491.59 632.485H1556.03M1491.59 696.924V761.363M1491.59 696.924H1556.03M1491.59 761.363V825.803M1491.59 761.363H1556.03M1491.59 825.803V890.242M1491.59 825.803H1556.03M1491.59 890.242V954.682M1491.59 890.242H1556.03M1491.59 954.682V1019.12M1491.59 954.682H1556.03M1491.59 1019.12H1556.03M1556.03 -269.668V-205.229M1556.03 -269.668H1620.47M1556.03 -205.229V-140.789M1556.03 -205.229H1620.47M1556.03 -140.789V-76.3496M1556.03 -140.789H1620.47M1556.03 -76.3496V-11.9101M1556.03 -76.3496H1620.47M1556.03 -11.9101V52.5293M1556.03 -11.9101H1620.47M1556.03 52.5293V116.969M1556.03 52.5293H1620.47M1556.03 116.969V181.408M1556.03 116.969H1620.47M1556.03 181.408V245.848M1556.03 181.408H1620.47M1556.03 245.848V310.287M1556.03 245.848H1620.47M1556.03 310.287V374.727M1556.03 310.287H1620.47M1556.03 374.727V439.166M1556.03 374.727H1620.47M1556.03 439.166V503.606M1556.03 439.166H1620.47M1556.03 503.606V568.045M1556.03 503.606H1620.47M1556.03 568.045V632.485M1556.03 568.045H1620.47M1556.03 632.485V696.924M1556.03 632.485H1620.47M1556.03 696.924V761.363M1556.03 696.924H1620.47M1556.03 761.363V825.803M1556.03 761.363H1620.47M1556.03 825.803V890.242M1556.03 825.803H1620.47M1556.03 890.242V954.682M1556.03 890.242H1620.47M1556.03 954.682V1019.12M1556.03 954.682H1620.47M1556.03 1019.12H1620.47M1620.47 -269.668V-205.229M1620.47 -269.668H1684.91M1620.47 -205.229V-140.789M1620.47 -205.229H1684.91M1620.47 -140.789V-76.3496M1620.47 -140.789H1684.91M1620.47 -76.3496V-11.9101M1620.47 -76.3496H1684.91M1620.47 -11.9101V52.5293M1620.47 -11.9101H1684.91M1620.47 52.5293V116.969M1620.47 52.5293H1684.91M1620.47 116.969V181.408M1620.47 116.969H1684.91M1620.47 181.408V245.848M1620.47 181.408H1684.91M1620.47 245.848V310.287M1620.47 245.848H1684.91M1620.47 310.287V374.727M1620.47 310.287H1684.91M1620.47 374.727V439.166M1620.47 374.727H1684.91M1620.47 439.166V503.606M1620.47 439.166H1684.91M1620.47 503.606V568.045M1620.47 503.606H1684.91M1620.47 568.045V632.485M1620.47 568.045H1684.91M1620.47 632.485V696.924M1620.47 632.485H1684.91M1620.47 696.924V761.363M1620.47 696.924H1684.91M1620.47 761.363V825.803M1620.47 761.363H1684.91M1620.47 825.803V890.242M1620.47 825.803H1684.91M1620.47 890.242V954.682M1620.47 890.242H1684.91M1620.47 954.682V1019.12M1620.47 954.682H1684.91M1620.47 1019.12H1684.91M1684.91 -269.668V-205.229M1684.91 -269.668H1749.35M1684.91 -205.229V-140.789M1684.91 -205.229H1749.35M1684.91 -140.789V-76.3496M1684.91 -140.789H1749.35M1684.91 -76.3496V-11.9101M1684.91 -76.3496H1749.35M1684.91 -11.9101V52.5293M1684.91 -11.9101H1749.35M1684.91 52.5293V116.969M1684.91 52.5293H1749.35M1684.91 116.969V181.408M1684.91 116.969H1749.35M1684.91 181.408V245.848M1684.91 181.408H1749.35M1684.91 245.848V310.287M1684.91 245.848H1749.35M1684.91 310.287V374.727M1684.91 310.287H1749.35M1684.91 374.727V439.166M1684.91 374.727H1749.35M1684.91 439.166V503.606M1684.91 439.166H1749.35M1684.91 503.606V568.045M1684.91 503.606H1749.35M1684.91 568.045V632.485M1684.91 568.045H1749.35M1684.91 632.485V696.924M1684.91 632.485H1749.35M1684.91 696.924V761.363M1684.91 696.924H1749.35M1684.91 761.363V825.803M1684.91 761.363H1749.35M1684.91 825.803V890.242M1684.91 825.803H1749.35M1684.91 890.242V954.682M1684.91 890.242H1749.35M1684.91 954.682V1019.12M1684.91 954.682H1749.35M1684.91 1019.12H1749.35M1749.35 -269.668V-205.229M1749.35 -269.668H1813.79M1749.35 -205.229V-140.789M1749.35 -205.229H1813.79M1749.35 -140.789V-76.3496M1749.35 -140.789H1813.79M1749.35 -76.3496V-11.9101M1749.35 -76.3496H1813.79M1749.35 -11.9101V52.5293M1749.35 -11.9101H1813.79M1749.35 52.5293V116.969M1749.35 52.5293H1813.79M1749.35 116.969V181.408M1749.35 116.969H1813.79M1749.35 181.408V245.848M1749.35 181.408H1813.79M1749.35 245.848V310.287M1749.35 245.848H1813.79M1749.35 310.287V374.727M1749.35 310.287H1813.79M1749.35 374.727V439.166M1749.35 374.727H1813.79M1749.35 439.166V503.606M1749.35 439.166H1813.79M1749.35 503.606V568.045M1749.35 503.606H1813.79M1749.35 568.045V632.485M1749.35 568.045H1813.79M1749.35 632.485V696.924M1749.35 632.485H1813.79M1749.35 696.924V761.363M1749.35 696.924H1813.79M1749.35 761.363V825.803M1749.35 761.363H1813.79M1749.35 825.803V890.242M1749.35 825.803H1813.79M1749.35 890.242V954.682M1749.35 890.242H1813.79M1749.35 954.682V1019.12M1749.35 954.682H1813.79M1749.35 1019.12H1813.79M1813.79 -269.668V-205.229M1813.79 -269.668H1878.23M1813.79 -205.229V-140.789M1813.79 -205.229H1878.23M1813.79 -140.789V-76.3496M1813.79 -140.789H1878.23M1813.79 -76.3496V-11.9101M1813.79 -76.3496H1878.23M1813.79 -11.9101V52.5293M1813.79 -11.9101H1878.23M1813.79 52.5293V116.969M1813.79 52.5293H1878.23M1813.79 116.969V181.408M1813.79 116.969H1878.23M1813.79 181.408V245.848M1813.79 181.408H1878.23M1813.79 245.848V310.287M1813.79 245.848H1878.23M1813.79 310.287V374.727M1813.79 310.287H1878.23M1813.79 374.727V439.166M1813.79 374.727H1878.23M1813.79 439.166V503.606M1813.79 439.166H1878.23M1813.79 503.606V568.045M1813.79 503.606H1878.23M1813.79 568.045V632.485M1813.79 568.045H1878.23M1813.79 632.485V696.924M1813.79 632.485H1878.23M1813.79 696.924V761.363M1813.79 696.924H1878.23M1813.79 761.363V825.803M1813.79 761.363H1878.23M1813.79 825.803V890.242M1813.79 825.803H1878.23M1813.79 890.242V954.682M1813.79 890.242H1878.23M1813.79 954.682V1019.12M1813.79 954.682H1878.23M1813.79 1019.12H1878.23M1878.23 -269.668V-205.229M1878.23 -269.668H1942.67V-205.229M1878.23 -205.229V-140.789M1878.23 -205.229H1942.67M1878.23 -140.789V-76.3496M1878.23 -140.789H1942.67M1878.23 -76.3496V-11.9101M1878.23 -76.3496H1942.67M1878.23 -11.9101V52.5293M1878.23 -11.9101H1942.67M1878.23 52.5293V116.969M1878.23 52.5293H1942.67M1878.23 116.969V181.408M1878.23 116.969H1942.67M1878.23 181.408V245.848M1878.23 181.408H1942.67M1878.23 245.848V310.287M1878.23 245.848H1942.67M1878.23 310.287V374.727M1878.23 310.287H1942.67M1878.23 374.727V439.166M1878.23 374.727H1942.67M1878.23 439.166V503.606M1878.23 439.166H1942.67M1878.23 503.606V568.045M1878.23 503.606H1942.67M1878.23 568.045V632.485M1878.23 568.045H1942.67M1878.23 632.485V696.924M1878.23 632.485H1942.67M1878.23 696.924V761.363M1878.23 696.924H1942.67M1878.23 761.363V825.803M1878.23 761.363H1942.67M1878.23 825.803V890.242M1878.23 825.803H1942.67M1878.23 890.242V954.682M1878.23 890.242H1942.67M1878.23 954.682V1019.12M1878.23 954.682H1942.67M1878.23 1019.12H1942.67V954.682M1942.67 -205.229V-140.789M1942.67 -140.789V-76.3496M1942.67 -76.3496V-11.9101M1942.67 -11.9101V52.5293M1942.67 52.5293V116.969M1942.67 116.969V181.408M1942.67 181.408V245.848M1942.67 245.848V310.287M1942.67 310.287V374.727M1942.67 374.727V439.166M1942.67 439.166V503.606M1942.67 503.606V568.045M1942.67 568.045V632.485M1942.67 632.485V696.924M1942.67 696.924V761.363M1942.67 761.363V825.803M1942.67 825.803V890.242M1942.67 890.242V954.682" stroke="url(#paint0_radial_620_1623)" stroke-opacity="0.6" stroke-width="0.805493"/>
</g>
<g style="mix-blend-mode:soft-light" opacity="0.8">
<path d="M-634.91 -31.2423V-11.9104M-634.91 -11.9104V7.42141M-634.91 -11.9104H-654.242M-634.91 -11.9104H-615.578M-634.91 484.274V503.605M-634.91 503.605V522.937M-634.91 503.605H-654.242M-634.91 503.605H-615.578M-634.91 999.789V1019.12M-634.91 1019.12V1038.45M-634.91 1019.12H-654.242M-634.91 1019.12H-615.578M-119.394 -31.2423V-11.9104M-119.394 -11.9104V7.42141M-119.394 -11.9104H-138.726M-119.394 -11.9104H-100.063M-119.394 484.274V503.605M-119.394 503.605V522.937M-119.394 503.605H-138.726M-119.394 503.605H-100.063M-119.394 999.789V1019.12M-119.394 1019.12V1038.45M-119.394 1019.12H-138.726M-119.394 1019.12H-100.063M396.121 -31.2423V-11.9104M396.121 -11.9104V7.42141M396.121 -11.9104H376.789M396.121 -11.9104H415.453M396.121 484.274V503.605M396.121 503.605V522.937M396.121 503.605H376.789M396.121 503.605H415.453M396.121 999.789V1019.12M396.121 1019.12V1038.45M396.121 1019.12H376.789M396.121 1019.12H415.453M911.637 -31.2423V-11.9104M911.637 -11.9104V7.42141M911.637 -11.9104H892.305M911.637 -11.9104H930.969M911.637 484.274V503.605M911.637 503.605V522.937M911.637 503.605H892.305M911.637 503.605H930.969M911.637 999.789V1019.12M911.637 1019.12V1038.45M911.637 1019.12H892.305M911.637 1019.12H930.969M1427.15 -31.2423V-11.9104M1427.15 -11.9104V7.42141M1427.15 -11.9104H1407.82M1427.15 -11.9104H1446.48M1427.15 484.274V503.605M1427.15 503.605V522.937M1427.15 503.605H1407.82M1427.15 503.605H1446.48M1427.15 999.789V1019.12M1427.15 1019.12V1038.45M1427.15 1019.12H1407.82M1427.15 1019.12H1446.48M1942.67 -31.2423V-11.9104M1942.67 -11.9104V7.42141M1942.67 -11.9104H1923.34M1942.67 -11.9104H1962M1942.67 484.274V503.605M1942.67 503.605V522.937M1942.67 503.605H1923.34M1942.67 503.605H1962M1942.67 999.789V1019.12M1942.67 1019.12V1038.45M1942.67 1019.12H1923.34M1942.67 1019.12H1962M-634.91 -289V-269.668M-634.91 -269.668V-250.336M-634.91 -269.668H-654.242M-634.91 -269.668H-615.578M-634.91 226.516V245.848M-634.91 245.848V265.179M-634.91 245.848H-654.242M-634.91 245.848H-615.578M-634.91 742.031V761.363M-634.91 761.363V780.695M-634.91 761.363H-654.242M-634.91 761.363H-615.578M-119.394 -289V-269.668M-119.394 -269.668V-250.336M-119.394 -269.668H-138.726M-119.394 -269.668H-100.063M-119.394 226.516V245.848M-119.394 245.848V265.179M-119.394 245.848H-138.726M-119.394 245.848H-100.063M-119.394 742.031V761.363M-119.394 761.363V780.695M-119.394 761.363H-138.726M-119.394 761.363H-100.063M396.121 -289V-269.668M396.121 -269.668V-250.336M396.121 -269.668H376.789M396.121 -269.668H415.453M396.121 226.516V245.848M396.121 245.848V265.179M396.121 245.848H376.789M396.121 245.848H415.453M396.121 742.031V761.363M396.121 761.363V780.695M396.121 761.363H376.789M396.121 761.363H415.453M911.637 -289V-269.668M911.637 -269.668V-250.336M911.637 -269.668H892.305M911.637 -269.668H930.969M911.637 226.516V245.848M911.637 245.848V265.179M911.637 245.848H892.305M911.637 245.848H930.969M911.637 742.031V761.363M911.637 761.363V780.695M911.637 761.363H892.305M911.637 761.363H930.969M1427.15 -289V-269.668M1427.15 -269.668V-250.336M1427.15 -269.668H1407.82M1427.15 -269.668H1446.48M1427.15 226.516V245.848M1427.15 245.848V265.179M1427.15 245.848H1407.82M1427.15 245.848H1446.48M1427.15 742.031V761.363M1427.15 761.363V780.695M1427.15 761.363H1407.82M1427.15 761.363H1446.48M1942.67 -289V-269.668M1942.67 -269.668V-250.336M1942.67 -269.668H1923.34M1942.67 -269.668H1962M1942.67 226.516V245.848M1942.67 245.848V265.179M1942.67 245.848H1923.34M1942.67 245.848H1962M1942.67 742.031V761.363M1942.67 761.363V780.695M1942.67 761.363H1923.34M1942.67 761.363H1962M-892.668 -31.2423V-11.9104M-892.668 -11.9104V7.42141M-892.668 -11.9104H-912M-892.668 -11.9104H-873.336M-892.668 484.274V503.605M-892.668 503.605V522.937M-892.668 503.605H-912M-892.668 503.605H-873.336M-892.668 999.789V1019.12M-892.668 1019.12V1038.45M-892.668 1019.12H-912M-892.668 1019.12H-873.336M-377.152 -31.2423V-11.9104M-377.152 -11.9104V7.42141M-377.152 -11.9104H-396.484M-377.152 -11.9104H-357.82M-377.152 484.274V503.605M-377.152 503.605V522.937M-377.152 503.605H-396.484M-377.152 503.605H-357.82M-377.152 999.789V1019.12M-377.152 1019.12V1038.45M-377.152 1019.12H-396.484M-377.152 1019.12H-357.82M138.363 -31.2423V-11.9104M138.363 -11.9104V7.42141M138.363 -11.9104H119.032M138.363 -11.9104H157.695M138.363 484.274V503.605M138.363 503.605V522.937M138.363 503.605H119.032M138.363 503.605H157.695M138.363 999.789V1019.12M138.363 1019.12V1038.45M138.363 1019.12H119.032M138.363 1019.12H157.695M653.879 -31.2423V-11.9104M653.879 -11.9104V7.42141M653.879 -11.9104H634.547M653.879 -11.9104H673.211M653.879 484.274V503.605M653.879 503.605V522.937M653.879 503.605H634.547M653.879 503.605H673.211M653.879 999.789V1019.12M653.879 1019.12V1038.45M653.879 1019.12H634.547M653.879 1019.12H673.211M1169.39 -31.2423V-11.9104M1169.39 -11.9104V7.42141M1169.39 -11.9104H1150.06M1169.39 -11.9104H1188.73M1169.39 484.274V503.605M1169.39 503.605V522.937M1169.39 503.605H1150.06M1169.39 503.605H1188.73M1169.39 999.789V1019.12M1169.39 1019.12V1038.45M1169.39 1019.12H1150.06M1169.39 1019.12H1188.73M1684.91 -31.2423V-11.9104M1684.91 -11.9104V7.42141M1684.91 -11.9104H1665.58M1684.91 -11.9104H1704.24M1684.91 484.274V503.605M1684.91 503.605V522.937M1684.91 503.605H1665.58M1684.91 503.605H1704.24M1684.91 999.789V1019.12M1684.91 1019.12V1038.45M1684.91 1019.12H1665.58M1684.91 1019.12H1704.24M-892.668 -289V-269.668M-892.668 -269.668V-250.336M-892.668 -269.668H-912M-892.668 -269.668H-873.336M-892.668 226.516V245.848M-892.668 245.848V265.179M-892.668 245.848H-912M-892.668 245.848H-873.336M-892.668 742.031V761.363M-892.668 761.363V780.695M-892.668 761.363H-912M-892.668 761.363H-873.336M-377.152 -289V-269.668M-377.152 -269.668V-250.336M-377.152 -269.668H-396.484M-377.152 -269.668H-357.82M-377.152 226.516V245.848M-377.152 245.848V265.179M-377.152 245.848H-396.484M-377.152 245.848H-357.82M-377.152 742.031V761.363M-377.152 761.363V780.695M-377.152 761.363H-396.484M-377.152 761.363H-357.82M138.363 -289V-269.668M138.363 -269.668V-250.336M138.363 -269.668H119.032M138.363 -269.668H157.695M138.363 226.516V245.848M138.363 245.848V265.179M138.363 245.848H119.032M138.363 245.848H157.695M138.363 742.031V761.363M138.363 761.363V780.695M138.363 761.363H119.032M138.363 761.363H157.695M653.879 -289V-269.668M653.879 -269.668V-250.336M653.879 -269.668H634.547M653.879 -269.668H673.211M653.879 226.516V245.848M653.879 245.848V265.179M653.879 245.848H634.547M653.879 245.848H673.211M653.879 742.031V761.363M653.879 761.363V780.695M653.879 761.363H634.547M653.879 761.363H673.211M1169.39 -289V-269.668M1169.39 -269.668V-250.336M1169.39 -269.668H1150.06M1169.39 -269.668H1188.73M1169.39 226.516V245.848M1169.39 245.848V265.179M1169.39 245.848H1150.06M1169.39 245.848H1188.73M1169.39 742.031V761.363M1169.39 761.363V780.695M1169.39 761.363H1150.06M1169.39 761.363H1188.73M1684.91 -289V-269.668M1684.91 -269.668V-250.336M1684.91 -269.668H1665.58M1684.91 -269.668H1704.24M1684.91 226.516V245.848M1684.91 245.848V265.179M1684.91 245.848H1665.58M1684.91 245.848H1704.24M1684.91 742.031V761.363M1684.91 761.363V780.695M1684.91 761.363H1665.58M1684.91 761.363H1704.24" stroke="url(#paint1_radial_620_1623)" stroke-opacity="0.6" stroke-width="1.61099"/>
</g>
</g>
<defs>
<radialGradient id="paint0_radial_620_1623" cx="0" cy="0" r="1" gradientUnits="userSpaceOnUse" gradientTransform="translate(525 374.727) rotate(90) scale(644.395 1417.67)">
<stop stop-color="white"/>
<stop offset="0.504808" stop-color="white" stop-opacity="0"/>
</radialGradient>
<radialGradient id="paint1_radial_620_1623" cx="0" cy="0" r="1" gradientUnits="userSpaceOnUse" gradientTransform="translate(525 374.726) rotate(90) scale(663.726 1437)">
<stop stop-color="white"/>
<stop offset="0.504808" stop-color="white" stop-opacity="0"/>
</radialGradient>
<clipPath id="clip0_620_1623">
<rect width="540" height="620" fill="white"/>
</clipPath>
</defs>
</svg>
