<svg width="173" height="81" viewBox="0 0 173 81" fill="none" xmlns="http://www.w3.org/2000/svg">
    <path d="M76.9299 64.139L60.231 40.0696L75.3176 18.3035L76.9875 16.4033L76.7571 16.173L76.8723 16.0002L73.187 11.9695L63.4556 0.337855L46.181 17.6125L32.937 0.971259L28.3881 5.92333L23.6663 0.280273L20.1538 4.54136L16.0079 0.395436L0 16.4033L24.0694 40.4727L0 64.5997L16.0654 80.6651L20.2114 76.5192L23.7239 80.7227L28.2153 75.5403L31.6702 80.0317L45.6051 62.757L63.5132 80.6651L76.9875 64.4845L76.7571 64.2542L76.9299 64.139ZM60.3462 5.46267L49.8086 22.0464L47.1023 18.649L60.3462 5.46267ZM16.0654 78.6497L2.01538 64.5997L26.0848 40.5303L2.01538 16.4609L16.0654 2.41082L19.2901 5.63542L10.2496 16.4609L30.3458 40.5303L10.2496 64.5997L19.2901 75.4251L16.0654 78.6497ZM23.7239 78.5346L12.0923 64.5997L32.1885 40.5303L12.0923 16.4033L23.7239 2.4684L27.4667 6.95981L19.4628 15.7123L39.559 40.1272L18.6566 63.3904L27.3516 74.5038L23.7239 78.5346ZM46.5265 61.7205L49.2904 58.3232L61.613 76.8071L46.5265 61.7205Z"
          fill="white"/>
    <path d="M99.2142 62.8722V66.0968L96.9109 67.4212H91.7285V65.6938H97.2564V63.2753H94.0318L91.7285 61.9509V58.8415L94.0318 57.5171H98.9839V59.2446H93.6287V61.5478H96.8534L99.2142 62.8722Z"
          fill="white"/>
    <path d="M107.564 59.2443V57.5169H109.406V55.847L111.364 54.7529V57.5169H113.725V59.2443H111.364V65.6936H113.725V67.421H111.71L109.406 66.0966V59.1868H107.564V59.2443Z"
          fill="white"/>
    <path d="M124.378 67.5364L122.074 66.212V62.9874L124.378 61.663H128.005V59.2446H123.053V57.5171H127.602L129.906 58.8415V67.5364H129.387L127.948 66.7303L126.508 67.5364H124.378ZM123.975 63.3329V65.7514H127.948V63.3329H123.975Z"
          fill="white"/>
    <path d="M147.526 58.7262V67.4212H145.568V59.1293H140.961V67.4212H139.004V57.4019H140.443L140.904 58.208L142.343 57.4019H145.165L147.526 58.7262Z"
          fill="white"/>
    <path d="M158.985 57.4016H161.979L163.418 58.2077V52.9102H165.376V67.536H163.937L163.476 66.7299L162.036 67.536H159.042L156.739 66.2117V58.726L158.985 57.4016ZM163.418 65.8086V59.129H158.639V65.8086H163.418Z"
          fill="white"/>
    <path d="M82.8033 37.9971H72.5536V42.0278H82.8033V37.9971Z" fill="white"/>
    <path d="M114.358 49.9738H107.333L100.481 37.9391H96.5079V49.9738H90.1162V18.0732H107.391L112.688 21.1251V34.8873L107.391 37.9391L114.358 49.9738ZM96.5079 23.5436V32.4688H106.297V23.5436H96.5079Z"
          fill="white"/>
    <path d="M135.203 18.0732L146.604 49.9738H140.328L137.91 43.1215H125.99L123.572 49.9738H117.295L128.696 18.0732H135.203ZM131.863 26.0772L127.833 37.5936H135.894L131.921 26.0772H131.863Z"
          fill="white"/>
    <path d="M155.472 49.9738V36.3268L145.222 18.0732H152.132L158.582 29.9928H158.697L165.204 18.0732H172.113L161.806 36.3844V49.9738H155.472Z"
          fill="white"/>
</svg>
