<svg width="267" height="164" viewBox="0 0 267 164" fill="none" xmlns="http://www.w3.org/2000/svg">
    <path d="M208.547 25.0659V157.728C208.547 161.134 205.779 163.89 202.373 163.89H63.6839C60.2782 163.89 57.5219 161.134 57.5219 157.728V25.0659H208.547Z"
          fill="#4A596A"/>
    <path d="M208.547 6.71455V25.066H57.5219V6.71455C57.5219 3.30888 60.2782 0.55249 63.6839 0.55249H202.373C205.779 0.55249 208.547 3.30888 208.547 6.71455Z"
          fill="#3D4B5E"/>
    <path d="M83.2113 17.532C83.2113 21.6114 79.9037 24.9313 75.812 24.9313C71.7203 24.9313 68.4126 21.6237 68.4126 17.532C68.4126 13.4402 71.7203 10.1326 75.812 10.1326C79.9037 10.1326 83.2113 13.4402 83.2113 17.532Z"
          fill="#4A596A"/>
    <path d="M197.644 17.532C197.644 21.6114 194.337 24.9313 190.245 24.9313C186.153 24.9313 182.846 21.6237 182.846 17.532C182.846 13.4402 186.153 10.1326 190.245 10.1326C194.337 10.1326 197.644 13.4402 197.644 17.532Z"
          fill="#4A596A"/>
    <path d="M83.2115 146.764C83.2115 150.843 79.9038 154.163 75.8121 154.163C71.7204 154.163 68.4127 150.855 68.4127 146.764C68.4127 142.672 71.7204 139.364 75.8121 139.364C79.9038 139.364 83.2115 142.672 83.2115 146.764Z"
          fill="#3D4B5E"/>
    <path d="M197.644 146.764C197.644 150.843 194.337 154.163 190.245 154.163C186.153 154.163 182.846 150.855 182.846 146.764C182.846 142.672 186.153 139.364 190.245 139.364C194.337 139.364 197.644 142.672 197.644 146.764Z"
          fill="#3D4B5E"/>
    <path d="M57.522 25.066H6.20418C1.46319 25.066 -1.51371 30.1622 0.801657 34.2907L34.3194 94.0002C39.0236 102.38 47.893 107.574 57.5098 107.574V25.0537L57.522 25.066Z"
          fill="#3D4B5E"/>
    <path d="M208.535 25.066H259.841C264.582 25.066 267.559 30.1622 265.244 34.2907L231.726 94.0002C227.022 102.38 218.152 107.574 208.535 107.574V25.0537V25.066Z"
          fill="#3D4B5E"/>
    <path d="M173.491 122.598C195.838 100.251 195.838 64.0198 173.491 41.673C151.144 19.3261 114.912 19.3262 92.5657 41.673C70.2188 64.0198 70.2188 100.251 92.5657 122.598C114.912 144.945 151.144 144.945 173.491 122.598Z"
          fill="#3D4B5E"/>
    <path d="M132.938 132C160.277 132 182.438 109.838 182.438 82.4998C182.438 55.1617 160.277 32.9998 132.938 32.9998C105.6 32.9998 83.4385 55.1617 83.4385 82.4998C83.4385 109.838 105.6 132 132.938 132Z"
          fill="#9AEDD3"/>
    <path d="M182.858 82.1416C182.858 109.657 160.55 131.965 133.035 131.965C105.52 131.965 83.2117 109.657 83.2117 82.1416C83.2117 73.7622 85.282 65.8728 88.9327 58.939C97.2876 74.7545 113.899 85.5473 133.035 85.5473C152.17 85.5473 168.782 74.7545 177.137 58.939C180.788 65.8728 182.858 73.7622 182.858 82.1416Z"
          fill="#89DAC4"/>
</svg>
