<svg width="499" height="187" viewBox="0 0 499 187" fill="none" xmlns="http://www.w3.org/2000/svg">
    <path d="M208.547 36.0659V168.728C208.547 172.134 205.779 174.89 202.373 174.89H63.6839C60.2782 174.89 57.5219 172.134 57.5219 168.728V36.0659H208.547Z"
          fill="#4A596A"/>
    <path d="M208.547 17.7146V36.066H57.5219V17.7146C57.5219 14.3089 60.2782 11.5525 63.6839 11.5525H202.373C205.779 11.5525 208.547 14.3089 208.547 17.7146Z"
          fill="#3D4B5E"/>
    <path d="M83.2113 28.532C83.2113 32.6114 79.9037 35.9313 75.812 35.9313C71.7203 35.9313 68.4126 32.6237 68.4126 28.532C68.4126 24.4402 71.7203 21.1326 75.812 21.1326C79.9037 21.1326 83.2113 24.4402 83.2113 28.532Z"
          fill="#4A596A"/>
    <path d="M197.644 28.532C197.644 32.6114 194.337 35.9313 190.245 35.9313C186.153 35.9313 182.846 32.6237 182.846 28.532C182.846 24.4402 186.153 21.1326 190.245 21.1326C194.337 21.1326 197.644 24.4402 197.644 28.532Z"
          fill="#4A596A"/>
    <path d="M83.2115 157.764C83.2115 161.843 79.9038 165.163 75.8121 165.163C71.7204 165.163 68.4127 161.855 68.4127 157.764C68.4127 153.672 71.7204 150.364 75.8121 150.364C79.9038 150.364 83.2115 153.672 83.2115 157.764Z"
          fill="#3D4B5E"/>
    <path d="M197.644 157.764C197.644 161.843 194.337 165.163 190.245 165.163C186.153 165.163 182.846 161.855 182.846 157.764C182.846 153.672 186.153 150.364 190.245 150.364C194.337 150.364 197.644 153.672 197.644 157.764Z"
          fill="#3D4B5E"/>
    <path d="M57.522 36.066H6.20418C1.46319 36.066 -1.51371 41.1622 0.801657 45.2907L34.3194 105C39.0236 113.38 47.893 118.574 57.5098 118.574V36.0537L57.522 36.066Z"
          fill="#3D4B5E"/>
    <path d="M173.491 133.598C195.838 111.251 195.838 75.0198 173.491 52.673C151.144 30.3261 114.912 30.3262 92.5657 52.673C70.2188 75.0198 70.2188 111.251 92.5657 133.598C114.912 155.945 151.144 155.945 173.491 133.598Z"
          fill="#3D4B5E"/>
    <g filter="url(#filter0_d_0_1)">
        <path d="M132.938 143C160.277 143 182.438 120.838 182.438 93.4998C182.438 66.1617 160.277 43.9998 132.938 43.9998C105.6 43.9998 83.4385 66.1617 83.4385 93.4998C83.4385 120.838 105.6 143 132.938 143Z"
              fill="#9AEDD3"/>
    </g>
    <path d="M182.858 93.1416C182.858 120.657 160.55 142.965 133.035 142.965C105.52 142.965 83.2117 120.657 83.2117 93.1416C83.2117 84.7622 85.282 76.8728 88.9327 69.939C97.2876 85.7545 113.899 96.5473 133.035 96.5473C152.17 96.5473 168.782 85.7545 177.137 69.939C180.788 76.8728 182.858 84.7622 182.858 93.1416Z"
          fill="#89DAC4"/>
    <g filter="url(#filter1_f_0_1)">
        <path d="M208.5 47.1231L483 16V163L208.5 132V47.1231Z" fill="url(#paint0_linear_0_1)" fill-opacity="0.7"/>
    </g>
    <path d="M208.5 35.7286H259.806C264.547 35.7286 267.523 40.8248 265.208 44.9533L231.69 104.663C226.986 113.042 218.117 118.236 208.5 118.236V35.7163V35.7286Z"
          fill="#3D4B5E"/>
    <path d="M263.408 76.848H265.928C266.36 76.848 266.76 76.816 267.128 76.752C267.512 76.688 267.84 76.576 268.112 76.416C268.4 76.256 268.624 76.048 268.784 75.792C268.944 75.536 269.024 75.216 269.024 74.832C269.024 74.288 268.808 73.88 268.376 73.608C267.944 73.336 267.336 73.2 266.552 73.2C265.672 73.2 264.904 73.304 264.248 73.512C263.592 73.704 262.968 73.968 262.376 74.304L261.176 71.352C261.816 70.952 262.584 70.632 263.48 70.392C264.392 70.136 265.424 70.008 266.576 70.008C267.472 70.008 268.304 70.112 269.072 70.32C269.84 70.512 270.504 70.808 271.064 71.208C271.624 71.592 272.056 72.088 272.36 72.696C272.68 73.288 272.84 73.984 272.84 74.784C272.84 75.392 272.672 76 272.336 76.608C272.016 77.2 271.52 77.704 270.848 78.12C271.216 78.312 271.56 78.536 271.88 78.792C272.216 79.048 272.504 79.344 272.744 79.68C273 80.016 273.2 80.4 273.344 80.832C273.488 81.248 273.56 81.72 273.56 82.248C273.56 84.024 272.928 85.32 271.664 86.136C270.416 86.936 268.672 87.336 266.432 87.336C265.872 87.336 265.312 87.296 264.752 87.216C264.208 87.136 263.68 87.04 263.168 86.928C262.672 86.8 262.2 86.656 261.752 86.496C261.32 86.336 260.936 86.168 260.6 85.992L261.704 83.064C261.928 83.16 262.2 83.272 262.52 83.4C262.856 83.512 263.224 83.624 263.624 83.736C264.024 83.848 264.44 83.944 264.872 84.024C265.304 84.104 265.736 84.144 266.168 84.144C267.224 84.144 268.072 83.992 268.712 83.688C269.368 83.384 269.696 82.856 269.696 82.104C269.696 81.64 269.592 81.264 269.384 80.976C269.176 80.688 268.888 80.472 268.52 80.328C268.168 80.168 267.744 80.064 267.248 80.016C266.768 79.952 266.24 79.92 265.664 79.92H263.408V76.848ZM275.978 80.784C275.978 79.664 276.146 78.688 276.482 77.856C276.834 77.008 277.29 76.304 277.85 75.744C278.41 75.184 279.05 74.76 279.77 74.472C280.506 74.184 281.258 74.04 282.026 74.04C283.818 74.04 285.234 74.592 286.274 75.696C287.314 76.784 287.834 78.392 287.834 80.52C287.834 80.728 287.826 80.96 287.81 81.216C287.794 81.456 287.778 81.672 287.762 81.864H279.65C279.73 82.6 280.074 83.184 280.682 83.616C281.29 84.048 282.106 84.264 283.13 84.264C283.786 84.264 284.426 84.208 285.05 84.096C285.69 83.968 286.21 83.816 286.61 83.64L287.09 86.544C286.898 86.64 286.642 86.736 286.322 86.832C286.002 86.928 285.642 87.008 285.242 87.072C284.858 87.152 284.442 87.216 283.994 87.264C283.546 87.312 283.098 87.336 282.65 87.336C281.514 87.336 280.522 87.168 279.674 86.832C278.842 86.496 278.146 86.04 277.586 85.464C277.042 84.872 276.634 84.176 276.362 83.376C276.106 82.576 275.978 81.712 275.978 80.784ZM284.378 79.416C284.362 79.112 284.306 78.816 284.21 78.528C284.13 78.24 283.994 77.984 283.802 77.76C283.626 77.536 283.394 77.352 283.106 77.208C282.834 77.064 282.49 76.992 282.074 76.992C281.674 76.992 281.33 77.064 281.042 77.208C280.754 77.336 280.514 77.512 280.322 77.736C280.13 77.96 279.978 78.224 279.866 78.528C279.77 78.816 279.698 79.112 279.65 79.416H284.378ZM296.508 77.304C296.492 77.768 296.468 78.264 296.436 78.792C296.42 79.304 296.38 79.824 296.316 80.352C296.252 80.864 296.164 81.368 296.052 81.864C295.956 82.36 295.828 82.824 295.668 83.256C295.476 83.768 295.228 84.248 294.924 84.696C294.636 85.128 294.26 85.52 293.796 85.872C293.348 86.224 292.796 86.52 292.14 86.76C291.5 86.984 290.748 87.136 289.884 87.216L289.404 84.24C290.22 84.08 290.852 83.856 291.3 83.568C291.748 83.264 292.084 82.88 292.308 82.416C292.484 82.016 292.62 81.552 292.716 81.024C292.828 80.496 292.908 79.944 292.956 79.368C293.004 78.776 293.028 78.176 293.028 77.568C293.044 76.96 293.052 76.376 293.052 75.816V74.376H302.532V87H298.956V77.304H296.508ZM305.541 80.784C305.541 79.664 305.709 78.688 306.045 77.856C306.397 77.008 306.853 76.304 307.413 75.744C307.973 75.184 308.613 74.76 309.333 74.472C310.069 74.184 310.821 74.04 311.589 74.04C313.381 74.04 314.797 74.592 315.837 75.696C316.877 76.784 317.397 78.392 317.397 80.52C317.397 80.728 317.389 80.96 317.373 81.216C317.357 81.456 317.341 81.672 317.325 81.864H309.213C309.293 82.6 309.637 83.184 310.245 83.616C310.853 84.048 311.669 84.264 312.693 84.264C313.349 84.264 313.989 84.208 314.613 84.096C315.253 83.968 315.773 83.816 316.173 83.64L316.653 86.544C316.461 86.64 316.205 86.736 315.885 86.832C315.565 86.928 315.205 87.008 314.805 87.072C314.421 87.152 314.005 87.216 313.557 87.264C313.109 87.312 312.661 87.336 312.213 87.336C311.077 87.336 310.085 87.168 309.237 86.832C308.405 86.496 307.709 86.04 307.149 85.464C306.605 84.872 306.197 84.176 305.925 83.376C305.669 82.576 305.541 81.712 305.541 80.784ZM313.941 79.416C313.925 79.112 313.869 78.816 313.773 78.528C313.693 78.24 313.557 77.984 313.365 77.76C313.189 77.536 312.957 77.352 312.669 77.208C312.397 77.064 312.053 76.992 311.637 76.992C311.237 76.992 310.893 77.064 310.605 77.208C310.317 77.336 310.077 77.512 309.885 77.736C309.693 77.96 309.541 78.224 309.429 78.528C309.333 78.816 309.261 79.112 309.213 79.416H313.941ZM308.925 72.552C308.429 72.552 307.997 72.392 307.629 72.072C307.261 71.736 307.077 71.288 307.077 70.728C307.077 70.168 307.261 69.728 307.629 69.408C307.997 69.072 308.429 68.904 308.925 68.904C309.421 68.904 309.853 69.072 310.221 69.408C310.589 69.728 310.773 70.168 310.773 70.728C310.773 71.288 310.589 71.736 310.221 72.072C309.853 72.392 309.421 72.552 308.925 72.552ZM314.277 72.552C313.781 72.552 313.349 72.392 312.981 72.072C312.613 71.736 312.429 71.288 312.429 70.728C312.429 70.168 312.613 69.728 312.981 69.408C313.349 69.072 313.781 68.904 314.277 68.904C314.773 68.904 315.205 69.072 315.573 69.408C315.941 69.728 316.125 70.168 316.125 70.728C316.125 71.288 315.941 71.736 315.573 72.072C315.205 72.392 314.773 72.552 314.277 72.552ZM331.279 87H327.703V82.008H323.983V87H320.407V74.376H323.983V79.08H327.703V74.376H331.279V87ZM351.299 87H347.723V74.376H351.299V87ZM340.235 84.504C340.891 84.504 341.403 84.384 341.771 84.144C342.155 83.888 342.347 83.48 342.347 82.92C342.347 82.632 342.283 82.392 342.155 82.2C342.027 81.992 341.851 81.832 341.627 81.72C341.403 81.592 341.139 81.504 340.835 81.456C340.547 81.408 340.235 81.384 339.899 81.384C339.659 81.384 339.395 81.4 339.107 81.432C338.819 81.464 338.603 81.496 338.459 81.528V84.408C338.651 84.44 338.907 84.464 339.227 84.48C339.547 84.496 339.883 84.504 340.235 84.504ZM338.459 78.864C338.683 78.8 338.971 78.752 339.323 78.72C339.691 78.672 340.107 78.648 340.571 78.648C341.307 78.648 341.995 78.736 342.635 78.912C343.291 79.088 343.859 79.36 344.339 79.728C344.819 80.08 345.195 80.536 345.467 81.096C345.755 81.64 345.899 82.28 345.899 83.016C345.899 83.752 345.771 84.392 345.515 84.936C345.259 85.464 344.891 85.904 344.411 86.256C343.931 86.592 343.355 86.84 342.683 87C342.027 87.176 341.291 87.264 340.475 87.264C339.419 87.264 338.451 87.208 337.571 87.096C336.691 87 335.795 86.84 334.883 86.616V74.376H338.459V78.864ZM366.41 74.376V87H362.81C362.81 86.2 362.818 85.408 362.834 84.624C362.85 83.824 362.866 83.088 362.882 82.416C362.898 81.744 362.914 81.16 362.93 80.664C362.962 80.152 362.978 79.776 362.978 79.536C362.514 80.192 362.05 80.856 361.586 81.528C361.122 82.2 360.674 82.864 360.242 83.52C359.826 84.16 359.426 84.776 359.042 85.368C358.674 85.96 358.346 86.504 358.058 87H354.914V74.376H358.49C358.49 75.176 358.482 75.944 358.466 76.68C358.466 77.4 358.458 78.056 358.442 78.648C358.426 79.24 358.41 79.76 358.394 80.208C358.378 80.64 358.37 80.976 358.37 81.216C359.33 79.808 360.21 78.544 361.01 77.424C361.826 76.304 362.618 75.288 363.386 74.376H366.41ZM360.722 72.648C360.21 72.648 359.714 72.576 359.234 72.432C358.77 72.272 358.346 72.048 357.962 71.76C357.578 71.456 357.258 71.096 357.002 70.68C356.762 70.248 356.618 69.76 356.57 69.216L359.042 68.568C359.17 69.176 359.378 69.608 359.666 69.864C359.97 70.12 360.322 70.248 360.722 70.248C361.138 70.248 361.49 70.136 361.778 69.912C362.082 69.672 362.298 69.232 362.426 68.592L364.874 69.24C364.826 69.784 364.674 70.272 364.418 70.704C364.178 71.12 363.866 71.472 363.482 71.76C363.114 72.048 362.69 72.272 362.21 72.432C361.73 72.576 361.234 72.648 360.722 72.648ZM374.359 78.336H398.359V81.312H374.359V78.336ZM265.232 103.728C265.2 104.288 265.168 104.896 265.136 105.552C265.104 106.208 265.072 106.872 265.04 107.544C265.024 108.2 265 108.832 264.968 109.44C264.952 110.032 264.936 110.552 264.92 111H261.44C261.472 110.12 261.52 109.128 261.584 108.024C261.664 106.92 261.744 105.8 261.824 104.664C261.92 103.512 262.016 102.392 262.112 101.304C262.224 100.216 262.328 99.24 262.424 98.376H265.4C266.088 99.496 266.72 100.656 267.296 101.856C267.872 103.056 268.48 104.376 269.12 105.816C269.792 104.28 270.448 102.864 271.088 101.568C271.728 100.256 272.304 99.192 272.816 98.376H275.84C275.952 99.24 276.056 100.216 276.152 101.304C276.264 102.392 276.36 103.512 276.44 104.664C276.536 105.8 276.616 106.92 276.68 108.024C276.744 109.128 276.792 110.12 276.824 111H273.272C273.24 109.752 273.192 108.512 273.128 107.28C273.08 106.048 273.032 104.856 272.984 103.704L270.344 109.512H267.872L265.232 103.728ZM291.996 104.664C291.996 105.656 291.852 106.568 291.564 107.4C291.276 108.216 290.86 108.92 290.316 109.512C289.772 110.088 289.116 110.536 288.348 110.856C287.596 111.176 286.748 111.336 285.804 111.336C284.876 111.336 284.028 111.176 283.26 110.856C282.508 110.536 281.86 110.088 281.316 109.512C280.772 108.92 280.348 108.216 280.044 107.4C279.74 106.568 279.588 105.656 279.588 104.664C279.588 103.672 279.74 102.768 280.044 101.952C280.364 101.136 280.796 100.44 281.34 99.864C281.9 99.288 282.556 98.84 283.308 98.52C284.076 98.2 284.908 98.04 285.804 98.04C286.716 98.04 287.548 98.2 288.3 98.52C289.068 98.84 289.724 99.288 290.268 99.864C290.812 100.44 291.236 101.136 291.54 101.952C291.844 102.768 291.996 103.672 291.996 104.664ZM288.348 104.664C288.348 103.56 288.124 102.696 287.676 102.072C287.244 101.432 286.62 101.112 285.804 101.112C284.988 101.112 284.356 101.432 283.908 102.072C283.46 102.696 283.236 103.56 283.236 104.664C283.236 105.768 283.46 106.648 283.908 107.304C284.356 107.944 284.988 108.264 285.804 108.264C286.62 108.264 287.244 107.944 287.676 107.304C288.124 106.648 288.348 105.768 288.348 104.664ZM293.248 111C294.048 109.704 294.872 108.512 295.72 107.424C296.568 106.336 297.472 105.28 298.432 104.256C297.424 103.216 296.504 102.2 295.672 101.208C294.856 100.2 294.128 99.256 293.488 98.376H297.664C298.08 98.968 298.576 99.656 299.152 100.44C299.744 101.208 300.512 102.184 301.456 103.368V98.376H304.936V103.368C305.912 102.2 306.688 101.224 307.264 100.44C307.84 99.64 308.336 98.952 308.752 98.376H312.88C312.288 99.288 311.592 100.232 310.792 101.208C309.992 102.168 309.056 103.176 307.984 104.232C308.56 104.84 309.072 105.416 309.52 105.96C309.984 106.488 310.416 107.016 310.816 107.544C311.232 108.072 311.624 108.624 311.992 109.2C312.36 109.76 312.744 110.36 313.144 111H309.16C307.96 109.192 306.552 107.288 304.936 105.288V111H301.456V105.288C300.64 106.376 299.864 107.4 299.128 108.36C298.392 109.32 297.76 110.2 297.232 111H293.248ZM326.177 111H322.601V106.008H318.881V111H315.305V98.376H318.881V103.08H322.601V98.376H326.177V111ZM341.59 104.664C341.59 105.656 341.446 106.568 341.158 107.4C340.87 108.216 340.454 108.92 339.91 109.512C339.366 110.088 338.71 110.536 337.942 110.856C337.19 111.176 336.342 111.336 335.398 111.336C334.47 111.336 333.622 111.176 332.854 110.856C332.102 110.536 331.454 110.088 330.91 109.512C330.366 108.92 329.942 108.216 329.638 107.4C329.334 106.568 329.182 105.656 329.182 104.664C329.182 103.672 329.334 102.768 329.638 101.952C329.958 101.136 330.39 100.44 330.934 99.864C331.494 99.288 332.15 98.84 332.902 98.52C333.67 98.2 334.502 98.04 335.398 98.04C336.31 98.04 337.142 98.2 337.894 98.52C338.662 98.84 339.318 99.288 339.862 99.864C340.406 100.44 340.83 101.136 341.134 101.952C341.438 102.768 341.59 103.672 341.59 104.664ZM337.942 104.664C337.942 103.56 337.718 102.696 337.27 102.072C336.838 101.432 336.214 101.112 335.398 101.112C334.582 101.112 333.95 101.432 333.502 102.072C333.054 102.696 332.83 103.56 332.83 104.664C332.83 105.768 333.054 106.648 333.502 107.304C333.95 107.944 334.582 108.264 335.398 108.264C336.214 108.264 336.838 107.944 337.27 107.304C337.718 106.648 337.942 105.768 337.942 104.664ZM362.121 98.376V111H358.521C358.521 110.2 358.529 109.408 358.545 108.624C358.561 107.824 358.577 107.088 358.593 106.416C358.609 105.744 358.625 105.16 358.641 104.664C358.673 104.152 358.689 103.776 358.689 103.536C358.225 104.192 357.761 104.856 357.297 105.528C356.833 106.2 356.385 106.864 355.953 107.52C355.537 108.16 355.137 108.776 354.753 109.368C354.385 109.96 354.057 110.504 353.769 111H350.625V98.376H354.201C354.201 99.176 354.193 99.944 354.177 100.68C354.177 101.4 354.169 102.056 354.153 102.648C354.137 103.24 354.121 103.76 354.105 104.208C354.089 104.64 354.081 104.976 354.081 105.216C355.041 103.808 355.921 102.544 356.721 101.424C357.537 100.304 358.329 99.288 359.097 98.376H362.121ZM364.535 108.072H366.095C366.543 107.528 366.887 106.856 367.127 106.056C367.383 105.24 367.559 104.384 367.655 103.488C367.767 102.576 367.831 101.672 367.847 100.776C367.863 99.88 367.871 99.08 367.871 98.376H377.711V108.072H379.847V114.6H376.799V111H367.583V114.6H364.535V108.072ZM374.135 108.072V101.304H371.207C371.175 101.864 371.135 102.448 371.087 103.056C371.055 103.648 370.983 104.24 370.871 104.832C370.775 105.408 370.639 105.976 370.463 106.536C370.287 107.096 370.055 107.608 369.767 108.072H374.135ZM392.386 101.304H388.354V111H384.778V101.304H380.746V98.376H392.386V101.304ZM406.301 98.376V111H402.701C402.701 110.2 402.709 109.408 402.725 108.624C402.741 107.824 402.757 107.088 402.773 106.416C402.789 105.744 402.805 105.16 402.821 104.664C402.853 104.152 402.869 103.776 402.869 103.536C402.405 104.192 401.941 104.856 401.477 105.528C401.013 106.2 400.565 106.864 400.133 107.52C399.717 108.16 399.317 108.776 398.933 109.368C398.565 109.96 398.237 110.504 397.949 111H394.805V98.376H398.381C398.381 99.176 398.373 99.944 398.357 100.68C398.357 101.4 398.349 102.056 398.333 102.648C398.317 103.24 398.301 103.76 398.285 104.208C398.269 104.64 398.261 104.976 398.261 105.216C399.221 103.808 400.101 102.544 400.901 101.424C401.717 100.304 402.509 99.288 403.277 98.376H406.301Z"
          fill="white"/>
    <defs>
        <filter id="filter0_d_0_1" x="39.4385" y="-0.000244141" width="187" height="187" filterUnits="userSpaceOnUse"
                color-interpolation-filters="sRGB">
            <feFlood flood-opacity="0" result="BackgroundImageFix"/>
            <feColorMatrix in="SourceAlpha" type="matrix" values="0 0 0 0 0 0 0 0 0 0 0 0 0 0 0 0 0 0 127 0"
                           result="hardAlpha"/>
            <feOffset/>
            <feGaussianBlur stdDeviation="22"/>
            <feComposite in2="hardAlpha" operator="out"/>
            <feColorMatrix type="matrix" values="0 0 0 0 0.603922 0 0 0 0 0.929412 0 0 0 0 0.827451 0 0 0 1 0"/>
            <feBlend mode="normal" in2="BackgroundImageFix" result="effect1_dropShadow_0_1"/>
            <feBlend mode="normal" in="SourceGraphic" in2="effect1_dropShadow_0_1" result="shape"/>
        </filter>
        <filter id="filter1_f_0_1" x="193.2" y="0.7" width="305.1" height="177.6" filterUnits="userSpaceOnUse"
                color-interpolation-filters="sRGB">
            <feFlood flood-opacity="0" result="BackgroundImageFix"/>
            <feBlend mode="normal" in="SourceGraphic" in2="BackgroundImageFix" result="shape"/>
            <feGaussianBlur stdDeviation="7.65" result="effect1_foregroundBlur_0_1"/>
        </filter>
        <linearGradient id="paint0_linear_0_1" x1="209" y1="84.8416" x2="483" y2="84.8415"
                        gradientUnits="userSpaceOnUse">
            <stop stop-color="#9AEDD3"/>
            <stop offset="1" stop-color="#9AEDD3" stop-opacity="0"/>
        </linearGradient>
    </defs>
</svg>
