<svg width="499" height="179" viewBox="0 0 499 179" fill="none" xmlns="http://www.w3.org/2000/svg">
    <path d="M208.547 35.5135V168.175C208.547 171.581 205.779 174.338 202.373 174.338H63.6839C60.2782 174.338 57.5219 171.581 57.5219 168.175V35.5135H208.547Z"
          fill="#4A596A"/>
    <path d="M208.547 17.1621V35.5135H57.5219V17.1621C57.5219 13.7564 60.2782 11 63.6839 11H202.373C205.779 11 208.547 13.7564 208.547 17.1621Z"
          fill="#57697A"/>
    <path d="M83.2113 27.9915C83.2113 32.071 79.9037 35.3909 75.812 35.3909C71.7203 35.3909 68.4126 32.0832 68.4126 27.9915C68.4126 23.8998 71.7203 20.5922 75.812 20.5922C79.9037 20.5922 83.2113 23.8998 83.2113 27.9915Z"
          fill="#4A596A"/>
    <path d="M197.644 27.9915C197.644 32.071 194.337 35.3909 190.245 35.3909C186.153 35.3909 182.846 32.0832 182.846 27.9915C182.846 23.8998 186.153 20.5922 190.245 20.5922C194.337 20.5922 197.644 23.8998 197.644 27.9915Z"
          fill="#4A596A"/>
    <path d="M83.2115 157.211C83.2115 161.29 79.9038 164.61 75.8121 164.61C71.7204 164.61 68.4127 161.303 68.4127 157.211C68.4127 153.119 71.7204 149.812 75.8121 149.812C79.9038 149.812 83.2115 153.119 83.2115 157.211Z"
          fill="#3D4B5E"/>
    <path d="M197.644 157.211C197.644 161.29 194.337 164.61 190.245 164.61C186.153 164.61 182.846 161.303 182.846 157.211C182.846 153.119 186.153 149.812 190.245 149.812C194.337 149.812 197.644 153.119 197.644 157.211Z"
          fill="#3D4B5E"/>
    <path d="M57.5219 35.3788H6.20406C1.46307 35.3788 -1.51383 40.475 0.801535 44.6035L34.3192 104.313C39.0235 112.692 47.8929 117.887 57.5096 117.887V35.3788H57.5219Z"
          fill="#3D4B5E"/>
    <path d="M188.667 106.011C196.077 75.2891 177.178 44.377 146.456 36.9672C115.734 29.5574 84.8214 48.4559 77.4116 79.1781C70.0018 109.9 88.9003 140.812 119.623 148.222C150.345 155.632 181.257 136.734 188.667 106.011Z"
          fill="#3D4B5E"/>
    <path d="M182.858 92.6011C182.858 120.116 160.55 142.424 133.035 142.424C105.52 142.424 83.2114 120.116 83.2114 92.6011C83.2114 84.2217 85.2818 76.3323 88.9325 69.3984C97.2874 85.214 113.899 96.0068 133.035 96.0068C152.17 96.0068 168.782 85.214 177.137 69.3984C180.788 76.3323 182.858 84.2217 182.858 92.6011Z"
          fill="#E2725C"/>
<!--    <g filter="url(#filter0_f_0_1)">-->
<!--        <path d="M208.5 47.1231L483 16V163L208.5 132V47.1231Z" fill="url(#paint0_linear_0_1)" fill-opacity="0.7"/>-->
<!--    </g>-->
    <path d="M208.5 35.7286H259.806C264.547 35.7286 267.523 40.8248 265.208 44.9533L231.69 104.663C226.986 113.042 218.117 118.236 208.5 118.236V35.7163V35.7286Z"
          fill="#3D4B5E"/>
    <path d="M271.736 87C271.4 86.456 271 85.872 270.536 85.248C270.088 84.608 269.592 83.976 269.048 83.352C268.52 82.712 267.968 82.104 267.392 81.528C266.816 80.936 266.24 80.416 265.664 79.968V87H261.92V70.368H265.664V76.656C266.64 75.632 267.616 74.568 268.592 73.464C269.584 72.344 270.504 71.312 271.352 70.368H275.792C274.656 71.712 273.512 73.008 272.36 74.256C271.224 75.504 270.024 76.76 268.76 78.024C270.088 79.128 271.368 80.44 272.6 81.96C273.848 83.48 275.04 85.16 276.176 87H271.736ZM286.424 80.784C286.424 79.68 286.176 78.8 285.68 78.144C285.184 77.472 284.448 77.136 283.472 77.136C283.152 77.136 282.856 77.152 282.584 77.184C282.312 77.2 282.088 77.224 281.912 77.256V83.712C282.136 83.856 282.424 83.976 282.776 84.072C283.144 84.168 283.512 84.216 283.88 84.216C285.576 84.216 286.424 83.072 286.424 80.784ZM290.072 80.688C290.072 81.664 289.952 82.552 289.712 83.352C289.472 84.152 289.12 84.84 288.656 85.416C288.192 85.992 287.616 86.44 286.928 86.76C286.24 87.08 285.448 87.24 284.552 87.24C284.056 87.24 283.592 87.192 283.16 87.096C282.728 87 282.312 86.864 281.912 86.688V91.44H278.336V74.808C278.656 74.712 279.024 74.624 279.44 74.544C279.856 74.448 280.288 74.368 280.736 74.304C281.2 74.24 281.664 74.192 282.128 74.16C282.608 74.112 283.064 74.088 283.496 74.088C284.536 74.088 285.464 74.248 286.28 74.568C287.096 74.872 287.784 75.312 288.344 75.888C288.904 76.448 289.328 77.136 289.616 77.952C289.92 78.768 290.072 79.68 290.072 80.688ZM297.895 84.504C298.247 84.504 298.583 84.496 298.903 84.48C299.223 84.464 299.479 84.44 299.671 84.408V81.696C299.527 81.664 299.311 81.632 299.023 81.6C298.735 81.568 298.471 81.552 298.231 81.552C297.895 81.552 297.575 81.576 297.271 81.624C296.983 81.656 296.727 81.728 296.503 81.84C296.279 81.952 296.103 82.104 295.975 82.296C295.847 82.488 295.783 82.728 295.783 83.016C295.783 83.576 295.967 83.968 296.335 84.192C296.719 84.4 297.239 84.504 297.895 84.504ZM297.607 74.04C298.663 74.04 299.543 74.16 300.247 74.4C300.951 74.64 301.511 74.984 301.927 75.432C302.359 75.88 302.663 76.424 302.839 77.064C303.015 77.704 303.103 78.416 303.103 79.2V86.64C302.591 86.752 301.879 86.88 300.967 87.024C300.055 87.184 298.951 87.264 297.655 87.264C296.839 87.264 296.095 87.192 295.423 87.048C294.767 86.904 294.199 86.672 293.719 86.352C293.239 86.016 292.871 85.584 292.615 85.056C292.359 84.528 292.231 83.88 292.231 83.112C292.231 82.376 292.375 81.752 292.663 81.24C292.967 80.728 293.367 80.32 293.863 80.016C294.359 79.712 294.927 79.496 295.567 79.368C296.207 79.224 296.871 79.152 297.559 79.152C298.023 79.152 298.431 79.176 298.783 79.224C299.151 79.256 299.447 79.304 299.671 79.368V79.032C299.671 78.424 299.487 77.936 299.119 77.568C298.751 77.2 298.111 77.016 297.199 77.016C296.591 77.016 295.991 77.064 295.399 77.16C294.807 77.24 294.295 77.36 293.863 77.52L293.407 74.64C293.615 74.576 293.871 74.512 294.175 74.448C294.495 74.368 294.839 74.304 295.207 74.256C295.575 74.192 295.959 74.144 296.359 74.112C296.775 74.064 297.191 74.04 297.607 74.04ZM305.986 80.688C305.986 79.776 306.13 78.92 306.418 78.12C306.722 77.304 307.154 76.6 307.714 76.008C308.274 75.4 308.954 74.92 309.754 74.568C310.554 74.216 311.466 74.04 312.49 74.04C313.162 74.04 313.778 74.104 314.338 74.232C314.898 74.344 315.442 74.512 315.97 74.736L315.226 77.592C314.89 77.464 314.522 77.352 314.122 77.256C313.722 77.16 313.274 77.112 312.778 77.112C311.722 77.112 310.93 77.44 310.402 78.096C309.89 78.752 309.634 79.616 309.634 80.688C309.634 81.824 309.874 82.704 310.354 83.328C310.85 83.952 311.706 84.264 312.922 84.264C313.354 84.264 313.818 84.224 314.314 84.144C314.81 84.064 315.266 83.936 315.682 83.76L316.186 86.688C315.77 86.864 315.25 87.016 314.626 87.144C314.002 87.272 313.314 87.336 312.562 87.336C311.41 87.336 310.418 87.168 309.586 86.832C308.754 86.48 308.066 86.008 307.522 85.416C306.994 84.824 306.602 84.128 306.346 83.328C306.106 82.512 305.986 81.632 305.986 80.688ZM329.708 87H326.132V82.008H322.412V87H318.836V74.376H322.412V79.08H326.132V74.376H329.708V87ZM349.729 87H346.153V74.376H349.729V87ZM338.665 84.504C339.321 84.504 339.833 84.384 340.201 84.144C340.585 83.888 340.777 83.48 340.777 82.92C340.777 82.632 340.713 82.392 340.585 82.2C340.457 81.992 340.281 81.832 340.057 81.72C339.833 81.592 339.569 81.504 339.265 81.456C338.977 81.408 338.665 81.384 338.329 81.384C338.089 81.384 337.825 81.4 337.537 81.432C337.249 81.464 337.033 81.496 336.889 81.528V84.408C337.081 84.44 337.337 84.464 337.657 84.48C337.977 84.496 338.313 84.504 338.665 84.504ZM336.889 78.864C337.113 78.8 337.401 78.752 337.753 78.72C338.121 78.672 338.537 78.648 339.001 78.648C339.737 78.648 340.425 78.736 341.065 78.912C341.721 79.088 342.289 79.36 342.769 79.728C343.249 80.08 343.625 80.536 343.897 81.096C344.185 81.64 344.329 82.28 344.329 83.016C344.329 83.752 344.201 84.392 343.945 84.936C343.689 85.464 343.321 85.904 342.841 86.256C342.361 86.592 341.785 86.84 341.113 87C340.457 87.176 339.721 87.264 338.905 87.264C337.849 87.264 336.881 87.208 336.001 87.096C335.121 87 334.225 86.84 333.313 86.616V74.376H336.889V78.864ZM364.84 74.376V87H361.24C361.24 86.2 361.248 85.408 361.264 84.624C361.28 83.824 361.296 83.088 361.312 82.416C361.328 81.744 361.344 81.16 361.36 80.664C361.392 80.152 361.408 79.776 361.408 79.536C360.944 80.192 360.48 80.856 360.016 81.528C359.552 82.2 359.104 82.864 358.672 83.52C358.256 84.16 357.856 84.776 357.472 85.368C357.104 85.96 356.776 86.504 356.488 87H353.344V74.376H356.92C356.92 75.176 356.912 75.944 356.896 76.68C356.896 77.4 356.888 78.056 356.872 78.648C356.856 79.24 356.84 79.76 356.824 80.208C356.808 80.64 356.8 80.976 356.8 81.216C357.76 79.808 358.64 78.544 359.44 77.424C360.256 76.304 361.048 75.288 361.816 74.376H364.84ZM359.152 72.648C358.64 72.648 358.144 72.576 357.664 72.432C357.2 72.272 356.776 72.048 356.392 71.76C356.008 71.456 355.688 71.096 355.432 70.68C355.192 70.248 355.048 69.76 355 69.216L357.472 68.568C357.6 69.176 357.808 69.608 358.096 69.864C358.4 70.12 358.752 70.248 359.152 70.248C359.568 70.248 359.92 70.136 360.208 69.912C360.512 69.672 360.728 69.232 360.856 68.592L363.304 69.24C363.256 69.784 363.104 70.272 362.848 70.704C362.608 71.12 362.296 71.472 361.912 71.76C361.544 72.048 361.12 72.272 360.64 72.432C360.16 72.576 359.664 72.648 359.152 72.648ZM372.789 78.336H396.789V81.312H372.789V78.336ZM261.08 104.688C261.08 103.776 261.224 102.92 261.512 102.12C261.816 101.304 262.248 100.6 262.808 100.008C263.368 99.4 264.048 98.92 264.848 98.568C265.648 98.216 266.56 98.04 267.584 98.04C268.256 98.04 268.872 98.104 269.432 98.232C269.992 98.344 270.536 98.512 271.064 98.736L270.32 101.592C269.984 101.464 269.616 101.352 269.216 101.256C268.816 101.16 268.368 101.112 267.872 101.112C266.816 101.112 266.024 101.44 265.496 102.096C264.984 102.752 264.728 103.616 264.728 104.688C264.728 105.824 264.968 106.704 265.448 107.328C265.944 107.952 266.8 108.264 268.016 108.264C268.448 108.264 268.912 108.224 269.408 108.144C269.904 108.064 270.36 107.936 270.776 107.76L271.28 110.688C270.864 110.864 270.344 111.016 269.72 111.144C269.096 111.272 268.408 111.336 267.656 111.336C266.504 111.336 265.512 111.168 264.68 110.832C263.848 110.48 263.16 110.008 262.616 109.416C262.088 108.824 261.696 108.128 261.44 107.328C261.2 106.512 261.08 105.632 261.08 104.688ZM284.37 101.304H280.338V111H276.762V101.304H272.73V98.376H284.37V101.304ZM298.597 104.664C298.597 105.656 298.453 106.568 298.165 107.4C297.877 108.216 297.461 108.92 296.917 109.512C296.373 110.088 295.717 110.536 294.949 110.856C294.197 111.176 293.349 111.336 292.405 111.336C291.477 111.336 290.629 111.176 289.861 110.856C289.109 110.536 288.461 110.088 287.917 109.512C287.373 108.92 286.949 108.216 286.645 107.4C286.341 106.568 286.189 105.656 286.189 104.664C286.189 103.672 286.341 102.768 286.645 101.952C286.965 101.136 287.397 100.44 287.941 99.864C288.501 99.288 289.157 98.84 289.909 98.52C290.677 98.2 291.509 98.04 292.405 98.04C293.317 98.04 294.149 98.2 294.901 98.52C295.669 98.84 296.325 99.288 296.869 99.864C297.413 100.44 297.837 101.136 298.141 101.952C298.445 102.768 298.597 103.672 298.597 104.664ZM294.949 104.664C294.949 103.56 294.725 102.696 294.277 102.072C293.845 101.432 293.221 101.112 292.405 101.112C291.589 101.112 290.957 101.432 290.509 102.072C290.061 102.696 289.837 103.56 289.837 104.664C289.837 105.768 290.061 106.648 290.509 107.304C290.957 107.944 291.589 108.264 292.405 108.264C293.221 108.264 293.845 107.944 294.277 107.304C294.725 106.648 294.949 105.768 294.949 104.664ZM313.114 98.376V111H309.514C309.514 110.2 309.522 109.408 309.538 108.624C309.554 107.824 309.57 107.088 309.586 106.416C309.602 105.744 309.618 105.16 309.634 104.664C309.666 104.152 309.682 103.776 309.682 103.536C309.218 104.192 308.754 104.856 308.29 105.528C307.826 106.2 307.378 106.864 306.946 107.52C306.53 108.16 306.13 108.776 305.746 109.368C305.378 109.96 305.05 110.504 304.762 111H301.618V98.376H305.194C305.194 99.176 305.186 99.944 305.17 100.68C305.17 101.4 305.162 102.056 305.146 102.648C305.13 103.24 305.114 103.76 305.098 104.208C305.082 104.64 305.074 104.976 305.074 105.216C306.034 103.808 306.914 102.544 307.714 101.424C308.53 100.304 309.322 99.288 310.09 98.376H313.114ZM307.426 96.648C306.914 96.648 306.418 96.576 305.938 96.432C305.474 96.272 305.05 96.048 304.666 95.76C304.282 95.456 303.962 95.096 303.706 94.68C303.466 94.248 303.322 93.76 303.274 93.216L305.746 92.568C305.874 93.176 306.082 93.608 306.37 93.864C306.674 94.12 307.026 94.248 307.426 94.248C307.842 94.248 308.194 94.136 308.482 93.912C308.786 93.672 309.002 93.232 309.13 92.592L311.578 93.24C311.53 93.784 311.378 94.272 311.122 94.704C310.882 95.12 310.57 95.472 310.186 95.76C309.818 96.048 309.394 96.272 308.914 96.432C308.434 96.576 307.938 96.648 307.426 96.648Z"
          fill="white"/>
<!--    <defs>-->
<!--        <filter id="filter0_f_0_1" x="193.2" y="0.7" width="305.1" height="177.6" filterUnits="userSpaceOnUse"-->
<!--                color-interpolation-filters="sRGB">-->
<!--            <feFlood flood-opacity="0" result="BackgroundImageFix"/>-->
<!--            <feBlend mode="normal" in="SourceGraphic" in2="BackgroundImageFix" result="shape"/>-->
<!--            <feGaussianBlur stdDeviation="7.65" result="effect1_foregroundBlur_0_1"/>-->
<!--        </filter>-->
<!--        <linearGradient id="paint0_linear_0_1" x1="209" y1="84.8416" x2="483" y2="84.8415"-->
<!--                        gradientUnits="userSpaceOnUse">-->
<!--            <stop stop-color="#FF8983"/>-->
<!--            <stop offset="1" stop-color="#FF8983" stop-opacity="0"/>-->
<!--        </linearGradient>-->
<!--    </defs>-->
</svg>
