<svg width="499" height="187" viewBox="0 0 499 187" fill="none" xmlns="http://www.w3.org/2000/svg">
    <path d="M208.547 36.7898V169.452C208.547 172.857 205.779 175.614 202.373 175.614H63.6839C60.2782 175.614 57.5219 172.857 57.5219 169.452V36.7898H208.547Z" fill="#4A596A"/>
    <path d="M208.547 18.4384V36.7898H57.5219V18.4384C57.5219 15.0328 60.2782 12.2764 63.6839 12.2764H202.373C205.779 12.2764 208.547 15.0328 208.547 18.4384Z" fill="#3D4B5E"/>
    <path d="M83.2113 29.3293C83.2113 33.4088 79.9037 36.7287 75.812 36.7287C71.7203 36.7287 68.4126 33.421 68.4126 29.3293C68.4126 25.2376 71.7203 21.9299 75.812 21.9299C79.9037 21.9299 83.2113 25.2376 83.2113 29.3293Z" fill="#4A596A"/>
    <path d="M197.644 29.3293C197.644 33.4088 194.337 36.7287 190.245 36.7287C186.153 36.7287 182.846 33.421 182.846 29.3293C182.846 25.2376 186.153 21.9299 190.245 21.9299C194.337 21.9299 197.644 25.2376 197.644 29.3293Z" fill="#4A596A"/>
    <path d="M83.2115 158.561C83.2115 162.64 79.9038 165.96 75.8121 165.96C71.7204 165.96 68.4127 162.653 68.4127 158.561C68.4127 154.469 71.7204 151.162 75.8121 151.162C79.9038 151.162 83.2115 154.469 83.2115 158.561Z" fill="#3D4B5E"/>
    <path d="M197.644 158.561C197.644 162.64 194.337 165.96 190.245 165.96C186.153 165.96 182.846 162.653 182.846 158.561C182.846 154.469 186.153 151.162 190.245 151.162C194.337 151.162 197.644 154.469 197.644 158.561Z" fill="#3D4B5E"/>
    <path d="M57.522 36.7286H6.20418C1.46319 36.7286 -1.51371 41.8248 0.801657 45.9533L34.3194 105.663C39.0236 114.042 47.893 119.236 57.5098 119.236V36.7163L57.522 36.7286Z" fill="#3D4B5E"/>
    <path d="M133.035 151.1C164.638 151.1 190.258 125.481 190.258 93.8777C190.258 62.2745 164.638 36.655 133.035 36.655C101.432 36.655 75.8123 62.2745 75.8123 93.8777C75.8123 125.481 101.432 151.1 133.035 151.1Z" fill="#3D4B5E"/>
    <g filter="url(#filter0_d_0_1)">
        <path d="M132.938 143C160.276 143 182.438 120.838 182.438 93.4998C182.438 66.1617 160.276 43.9998 132.938 43.9998C105.6 43.9998 83.4382 66.1617 83.4382 93.4998C83.4382 120.838 105.6 143 132.938 143Z" fill="#FFDC7B"/>
    </g>
    <path d="M182.858 93.8655C182.858 121.38 160.55 143.689 133.035 143.689C105.52 143.689 83.2114 121.38 83.2114 93.8655C83.2114 85.4861 85.2818 77.5967 88.9325 70.6628C97.2874 86.4784 113.899 97.2712 133.035 97.2712C152.17 97.2712 168.782 86.4784 177.137 70.6628C180.788 77.5967 182.858 85.4861 182.858 93.8655Z" fill="#F3D064"/>
    <g filter="url(#filter1_f_0_1)">
        <path d="M208.5 48.1231L483 17V164L208.5 133V48.1231Z" fill="url(#paint0_linear_0_1)" fill-opacity="0.7"/>
    </g>
    <path d="M208.5 36.7286H259.806C264.547 36.7286 267.523 41.8248 265.208 45.9533L231.69 105.663C226.986 114.042 218.117 119.236 208.5 119.236V36.7163V36.7286Z" fill="#3D4B5E"/>
    <path d="M260.24 88C260.704 87.184 261.2 86.368 261.728 85.552C262.256 84.736 262.792 83.952 263.336 83.2C263.896 82.432 264.464 81.72 265.04 81.064C265.632 80.392 266.224 79.792 266.816 79.264C266.144 78.576 265.52 77.904 264.944 77.248C264.368 76.592 263.816 75.944 263.288 75.304C262.776 74.664 262.272 74.024 261.776 73.384C261.28 72.728 260.776 72.056 260.264 71.368H264.776C265.256 72.04 265.704 72.656 266.12 73.216C266.552 73.776 266.968 74.32 267.368 74.848C267.784 75.376 268.2 75.896 268.616 76.408C269.032 76.92 269.48 77.464 269.96 78.04V71.368H273.608V78.04C274.088 77.448 274.544 76.888 274.976 76.36C275.424 75.816 275.856 75.28 276.272 74.752C276.688 74.224 277.104 73.688 277.52 73.144C277.936 72.584 278.36 71.992 278.792 71.368H283.28C282.704 72.12 282.16 72.824 281.648 73.48C281.152 74.136 280.648 74.776 280.136 75.4C279.624 76.024 279.096 76.648 278.552 77.272C278.024 77.896 277.44 78.552 276.8 79.24C278.096 80.44 279.28 81.792 280.352 83.296C281.424 84.784 282.424 86.352 283.352 88H279.176C278.68 87.248 278.216 86.552 277.784 85.912C277.352 85.272 276.92 84.656 276.488 84.064C276.056 83.472 275.608 82.896 275.144 82.336C274.68 81.76 274.168 81.168 273.608 80.56V88H269.96V80.56C269.384 81.232 268.864 81.856 268.4 82.432C267.936 83.008 267.488 83.584 267.056 84.16C266.64 84.736 266.216 85.336 265.784 85.96C265.352 86.568 264.888 87.248 264.392 88H260.24ZM284.51 81.784C284.51 80.664 284.678 79.688 285.014 78.856C285.366 78.008 285.822 77.304 286.382 76.744C286.942 76.184 287.582 75.76 288.302 75.472C289.038 75.184 289.79 75.04 290.558 75.04C292.35 75.04 293.766 75.592 294.806 76.696C295.846 77.784 296.366 79.392 296.366 81.52C296.366 81.728 296.358 81.96 296.342 82.216C296.326 82.456 296.31 82.672 296.294 82.864H288.182C288.262 83.6 288.606 84.184 289.214 84.616C289.822 85.048 290.638 85.264 291.662 85.264C292.318 85.264 292.958 85.208 293.582 85.096C294.222 84.968 294.742 84.816 295.142 84.64L295.622 87.544C295.43 87.64 295.174 87.736 294.854 87.832C294.534 87.928 294.174 88.008 293.774 88.072C293.39 88.152 292.974 88.216 292.526 88.264C292.078 88.312 291.63 88.336 291.182 88.336C290.046 88.336 289.054 88.168 288.206 87.832C287.374 87.496 286.678 87.04 286.118 86.464C285.574 85.872 285.166 85.176 284.894 84.376C284.638 83.576 284.51 82.712 284.51 81.784ZM292.91 80.416C292.894 80.112 292.838 79.816 292.742 79.528C292.662 79.24 292.526 78.984 292.334 78.76C292.158 78.536 291.926 78.352 291.638 78.208C291.366 78.064 291.022 77.992 290.606 77.992C290.206 77.992 289.862 78.064 289.574 78.208C289.286 78.336 289.046 78.512 288.854 78.736C288.662 78.96 288.51 79.224 288.398 79.528C288.302 79.816 288.23 80.112 288.182 80.416H292.91ZM287.894 73.552C287.398 73.552 286.966 73.392 286.598 73.072C286.23 72.736 286.046 72.288 286.046 71.728C286.046 71.168 286.23 70.728 286.598 70.408C286.966 70.072 287.398 69.904 287.894 69.904C288.39 69.904 288.822 70.072 289.19 70.408C289.558 70.728 289.742 71.168 289.742 71.728C289.742 72.288 289.558 72.736 289.19 73.072C288.822 73.392 288.39 73.552 287.894 73.552ZM293.246 73.552C292.75 73.552 292.318 73.392 291.95 73.072C291.582 72.736 291.398 72.288 291.398 71.728C291.398 71.168 291.582 70.728 291.95 70.408C292.318 70.072 292.75 69.904 293.246 69.904C293.742 69.904 294.174 70.072 294.542 70.408C294.91 70.728 295.094 71.168 295.094 71.728C295.094 72.288 294.91 72.736 294.542 73.072C294.174 73.392 293.742 73.552 293.246 73.552ZM305.039 78.304C305.023 78.768 304.999 79.264 304.967 79.792C304.951 80.304 304.911 80.824 304.847 81.352C304.783 81.864 304.695 82.368 304.583 82.864C304.487 83.36 304.359 83.824 304.199 84.256C304.007 84.768 303.759 85.248 303.455 85.696C303.167 86.128 302.791 86.52 302.327 86.872C301.879 87.224 301.327 87.52 300.671 87.76C300.031 87.984 299.279 88.136 298.415 88.216L297.935 85.24C298.751 85.08 299.383 84.856 299.831 84.568C300.279 84.264 300.615 83.88 300.839 83.416C301.015 83.016 301.151 82.552 301.247 82.024C301.359 81.496 301.439 80.944 301.487 80.368C301.535 79.776 301.559 79.176 301.559 78.568C301.575 77.96 301.583 77.376 301.583 76.816V75.376H311.063V88H307.487V78.304H305.039ZM325.112 78.304H321.08V88H317.504V78.304H313.472V75.376H325.112V78.304ZM343.948 88H340.372V75.376H343.948V88ZM332.884 85.504C333.54 85.504 334.052 85.384 334.42 85.144C334.804 84.888 334.996 84.48 334.996 83.92C334.996 83.632 334.932 83.392 334.804 83.2C334.676 82.992 334.5 82.832 334.276 82.72C334.052 82.592 333.788 82.504 333.484 82.456C333.196 82.408 332.884 82.384 332.548 82.384C332.308 82.384 332.044 82.4 331.756 82.432C331.468 82.464 331.252 82.496 331.108 82.528V85.408C331.3 85.44 331.556 85.464 331.876 85.48C332.196 85.496 332.532 85.504 332.884 85.504ZM331.108 79.864C331.332 79.8 331.62 79.752 331.972 79.72C332.34 79.672 332.756 79.648 333.22 79.648C333.956 79.648 334.644 79.736 335.284 79.912C335.94 80.088 336.508 80.36 336.988 80.728C337.468 81.08 337.844 81.536 338.116 82.096C338.404 82.64 338.548 83.28 338.548 84.016C338.548 84.752 338.42 85.392 338.164 85.936C337.908 86.464 337.54 86.904 337.06 87.256C336.58 87.592 336.004 87.84 335.332 88C334.676 88.176 333.94 88.264 333.124 88.264C332.068 88.264 331.1 88.208 330.22 88.096C329.34 88 328.444 87.84 327.532 87.616V75.376H331.108V79.864ZM359.059 75.376V88H355.459C355.459 87.2 355.467 86.408 355.483 85.624C355.499 84.824 355.515 84.088 355.531 83.416C355.547 82.744 355.563 82.16 355.579 81.664C355.611 81.152 355.627 80.776 355.627 80.536C355.163 81.192 354.699 81.856 354.235 82.528C353.771 83.2 353.323 83.864 352.891 84.52C352.475 85.16 352.075 85.776 351.691 86.368C351.323 86.96 350.995 87.504 350.707 88H347.563V75.376H351.139C351.139 76.176 351.131 76.944 351.115 77.68C351.115 78.4 351.107 79.056 351.091 79.648C351.075 80.24 351.059 80.76 351.043 81.208C351.027 81.64 351.019 81.976 351.019 82.216C351.979 80.808 352.859 79.544 353.659 78.424C354.475 77.304 355.267 76.288 356.035 75.376H359.059ZM353.371 73.648C352.859 73.648 352.363 73.576 351.883 73.432C351.419 73.272 350.995 73.048 350.611 72.76C350.227 72.456 349.907 72.096 349.651 71.68C349.411 71.248 349.267 70.76 349.219 70.216L351.691 69.568C351.819 70.176 352.027 70.608 352.315 70.864C352.619 71.12 352.971 71.248 353.371 71.248C353.787 71.248 354.139 71.136 354.427 70.912C354.731 70.672 354.947 70.232 355.075 69.592L357.523 70.24C357.475 70.784 357.323 71.272 357.067 71.704C356.827 72.12 356.515 72.472 356.131 72.76C355.763 73.048 355.339 73.272 354.859 73.432C354.379 73.576 353.883 73.648 353.371 73.648ZM367.008 79.336H391.008V82.312H367.008V79.336ZM272.552 99.376V112H268.976V102.352H265.256V112H261.68V99.376H272.552ZM284.245 105.784C284.245 104.68 283.997 103.8 283.501 103.144C283.005 102.472 282.269 102.136 281.293 102.136C280.973 102.136 280.677 102.152 280.405 102.184C280.133 102.2 279.909 102.224 279.733 102.256V108.712C279.957 108.856 280.245 108.976 280.597 109.072C280.965 109.168 281.333 109.216 281.701 109.216C283.397 109.216 284.245 108.072 284.245 105.784ZM287.893 105.688C287.893 106.664 287.773 107.552 287.533 108.352C287.293 109.152 286.941 109.84 286.477 110.416C286.013 110.992 285.437 111.44 284.749 111.76C284.061 112.08 283.269 112.24 282.373 112.24C281.877 112.24 281.413 112.192 280.981 112.096C280.549 112 280.133 111.864 279.733 111.688V116.44H276.157V99.808C276.477 99.712 276.845 99.624 277.261 99.544C277.677 99.448 278.109 99.368 278.557 99.304C279.021 99.24 279.485 99.192 279.949 99.16C280.429 99.112 280.885 99.088 281.317 99.088C282.357 99.088 283.285 99.248 284.101 99.568C284.917 99.872 285.605 100.312 286.165 100.888C286.725 101.448 287.149 102.136 287.437 102.952C287.741 103.768 287.893 104.68 287.893 105.688ZM302.387 99.376V112H298.787C298.787 111.2 298.795 110.408 298.811 109.624C298.827 108.824 298.843 108.088 298.859 107.416C298.875 106.744 298.891 106.16 298.907 105.664C298.939 105.152 298.955 104.776 298.955 104.536C298.491 105.192 298.027 105.856 297.563 106.528C297.099 107.2 296.651 107.864 296.219 108.52C295.803 109.16 295.403 109.776 295.019 110.368C294.651 110.96 294.323 111.504 294.035 112H290.891V99.376H294.467C294.467 100.176 294.459 100.944 294.443 101.68C294.443 102.4 294.435 103.056 294.419 103.648C294.403 104.24 294.387 104.76 294.371 105.208C294.355 105.64 294.347 105.976 294.347 106.216C295.307 104.808 296.187 103.544 296.987 102.424C297.803 101.304 298.595 100.288 299.363 99.376H302.387ZM314.952 102.304H309.576V112H306V99.376H314.952V102.304ZM328.933 105.664C328.933 106.656 328.789 107.568 328.501 108.4C328.213 109.216 327.797 109.92 327.253 110.512C326.709 111.088 326.053 111.536 325.285 111.856C324.533 112.176 323.685 112.336 322.741 112.336C321.813 112.336 320.965 112.176 320.197 111.856C319.445 111.536 318.797 111.088 318.253 110.512C317.709 109.92 317.285 109.216 316.981 108.4C316.677 107.568 316.525 106.656 316.525 105.664C316.525 104.672 316.677 103.768 316.981 102.952C317.301 102.136 317.733 101.44 318.277 100.864C318.837 100.288 319.493 99.84 320.245 99.52C321.013 99.2 321.845 99.04 322.741 99.04C323.653 99.04 324.485 99.2 325.237 99.52C326.005 99.84 326.661 100.288 327.205 100.864C327.749 101.44 328.173 102.136 328.477 102.952C328.781 103.768 328.933 104.672 328.933 105.664ZM325.285 105.664C325.285 104.56 325.061 103.696 324.613 103.072C324.181 102.432 323.557 102.112 322.741 102.112C321.925 102.112 321.293 102.432 320.845 103.072C320.397 103.696 320.173 104.56 320.173 105.664C320.173 106.768 320.397 107.648 320.845 108.304C321.293 108.944 321.925 109.264 322.741 109.264C323.557 109.264 324.181 108.944 324.613 108.304C325.061 107.648 325.285 106.768 325.285 105.664ZM342.393 102.304H338.361V112H334.785V102.304H330.753V99.376H342.393V102.304ZM356.621 105.664C356.621 106.656 356.477 107.568 356.189 108.4C355.901 109.216 355.485 109.92 354.941 110.512C354.397 111.088 353.741 111.536 352.973 111.856C352.221 112.176 351.373 112.336 350.429 112.336C349.501 112.336 348.653 112.176 347.885 111.856C347.133 111.536 346.485 111.088 345.941 110.512C345.397 109.92 344.973 109.216 344.669 108.4C344.365 107.568 344.213 106.656 344.213 105.664C344.213 104.672 344.365 103.768 344.669 102.952C344.989 102.136 345.421 101.44 345.965 100.864C346.525 100.288 347.181 99.84 347.933 99.52C348.701 99.2 349.533 99.04 350.429 99.04C351.341 99.04 352.173 99.2 352.925 99.52C353.693 99.84 354.349 100.288 354.893 100.864C355.437 101.44 355.861 102.136 356.165 102.952C356.469 103.768 356.621 104.672 356.621 105.664ZM352.973 105.664C352.973 104.56 352.749 103.696 352.301 103.072C351.869 102.432 351.245 102.112 350.429 102.112C349.613 102.112 348.981 102.432 348.533 103.072C348.085 103.696 347.861 104.56 347.861 105.664C347.861 106.768 348.085 107.648 348.533 108.304C348.981 108.944 349.613 109.264 350.429 109.264C351.245 109.264 351.869 108.944 352.301 108.304C352.749 107.648 352.973 106.768 352.973 105.664ZM363.217 109.36C363.441 109.392 363.737 109.424 364.105 109.456C364.489 109.472 364.841 109.48 365.161 109.48C365.961 109.48 366.585 109.384 367.033 109.192C367.481 108.984 367.705 108.616 367.705 108.088C367.705 107.576 367.497 107.224 367.081 107.032C366.681 106.824 366.089 106.72 365.305 106.72H363.217V109.36ZM365.233 104.32C365.825 104.32 366.305 104.248 366.673 104.104C367.041 103.944 367.225 103.608 367.225 103.096C367.225 102.616 367.017 102.288 366.601 102.112C366.185 101.936 365.641 101.848 364.969 101.848C364.745 101.848 364.449 101.864 364.081 101.896C363.729 101.912 363.441 101.936 363.217 101.968V104.32H365.233ZM365.113 112.24C364.665 112.24 364.185 112.224 363.673 112.192C363.161 112.16 362.657 112.112 362.161 112.048C361.665 112 361.193 111.944 360.745 111.88C360.313 111.8 359.945 111.728 359.641 111.664V99.568C359.945 99.504 360.313 99.448 360.745 99.4C361.193 99.336 361.665 99.28 362.161 99.232C362.657 99.184 363.161 99.152 363.673 99.136C364.185 99.104 364.665 99.088 365.113 99.088C366.153 99.088 367.025 99.192 367.729 99.4C368.449 99.608 369.025 99.88 369.457 100.216C369.905 100.552 370.225 100.928 370.417 101.344C370.609 101.76 370.705 102.176 370.705 102.592C370.705 103.152 370.569 103.664 370.297 104.128C370.025 104.592 369.681 104.928 369.265 105.136C369.489 105.232 369.713 105.368 369.937 105.544C370.177 105.72 370.393 105.936 370.585 106.192C370.777 106.432 370.929 106.728 371.041 107.08C371.169 107.416 371.233 107.808 371.233 108.256C371.233 108.768 371.129 109.264 370.921 109.744C370.729 110.224 370.393 110.648 369.913 111.016C369.433 111.384 368.801 111.68 368.017 111.904C367.233 112.128 366.265 112.24 365.113 112.24ZM379.587 109.504C380.243 109.504 380.755 109.384 381.123 109.144C381.507 108.888 381.699 108.48 381.699 107.92C381.699 107.632 381.635 107.392 381.507 107.2C381.379 106.992 381.203 106.832 380.979 106.72C380.755 106.592 380.491 106.504 380.187 106.456C379.899 106.408 379.587 106.384 379.251 106.384C379.011 106.384 378.747 106.4 378.459 106.432C378.171 106.464 377.955 106.496 377.811 106.528V109.408C378.003 109.44 378.259 109.464 378.579 109.48C378.899 109.496 379.235 109.504 379.587 109.504ZM377.811 103.864C378.035 103.8 378.323 103.752 378.675 103.72C379.043 103.672 379.459 103.648 379.923 103.648C380.675 103.648 381.371 103.736 382.011 103.912C382.667 104.088 383.235 104.36 383.715 104.728C384.195 105.08 384.571 105.536 384.843 106.096C385.115 106.64 385.251 107.28 385.251 108.016C385.251 108.752 385.123 109.392 384.867 109.936C384.611 110.464 384.243 110.904 383.763 111.256C383.283 111.592 382.707 111.84 382.035 112C381.379 112.176 380.643 112.264 379.827 112.264C378.771 112.264 377.803 112.208 376.923 112.096C376.043 112 375.147 111.84 374.235 111.616V99.376H377.811V103.864ZM387.432 105.688C387.432 104.776 387.576 103.92 387.864 103.12C388.168 102.304 388.6 101.6 389.16 101.008C389.72 100.4 390.4 99.92 391.2 99.568C392 99.216 392.912 99.04 393.936 99.04C394.608 99.04 395.224 99.104 395.784 99.232C396.344 99.344 396.888 99.512 397.416 99.736L396.672 102.592C396.336 102.464 395.968 102.352 395.568 102.256C395.168 102.16 394.72 102.112 394.224 102.112C393.168 102.112 392.376 102.44 391.848 103.096C391.336 103.752 391.08 104.616 391.08 105.688C391.08 106.824 391.32 107.704 391.8 108.328C392.296 108.952 393.152 109.264 394.368 109.264C394.8 109.264 395.264 109.224 395.76 109.144C396.256 109.064 396.712 108.936 397.128 108.76L397.632 111.688C397.216 111.864 396.696 112.016 396.072 112.144C395.448 112.272 394.76 112.336 394.008 112.336C392.856 112.336 391.864 112.168 391.032 111.832C390.2 111.48 389.512 111.008 388.968 110.416C388.44 109.824 388.048 109.128 387.792 108.328C387.552 107.512 387.432 106.632 387.432 105.688ZM405.514 107.512C405.002 108.264 404.546 109.024 404.146 109.792C403.746 110.544 403.362 111.28 402.994 112H399.322C399.786 110.96 400.258 110.008 400.738 109.144C401.218 108.28 401.682 107.536 402.13 106.912C401.458 106.56 400.922 106.112 400.522 105.568C400.122 105.008 399.922 104.312 399.922 103.48C399.922 102.072 400.426 100.992 401.434 100.24C402.458 99.488 403.866 99.112 405.658 99.112C406.058 99.112 406.498 99.128 406.978 99.16C407.474 99.192 407.962 99.24 408.442 99.304C408.922 99.368 409.378 99.44 409.81 99.52C410.258 99.584 410.634 99.656 410.938 99.736V112H407.362V107.512H405.514ZM407.362 101.944C407.202 101.928 406.954 101.912 406.618 101.896C406.282 101.864 405.994 101.848 405.754 101.848C404.874 101.848 404.274 102 403.954 102.304C403.634 102.592 403.474 102.968 403.474 103.432C403.474 103.72 403.538 103.968 403.666 104.176C403.794 104.368 403.962 104.528 404.17 104.656C404.378 104.768 404.61 104.848 404.866 104.896C405.122 104.944 405.378 104.968 405.634 104.968H407.362V101.944Z" fill="white"/>
    <defs>
<!--        <filter id="filter0_d_0_1" x="39.4382" y="-0.000244141" width="187" height="187" filterUnits="userSpaceOnUse" color-interpolation-filters="sRGB">-->
<!--            <feFlood flood-opacity="0" result="BackgroundImageFix"/>-->
<!--            <feColorMatrix in="SourceAlpha" type="matrix" values="0 0 0 0 0 0 0 0 0 0 0 0 0 0 0 0 0 0 127 0" result="hardAlpha"/>-->
<!--            <feOffset/>-->
<!--            <feGaussianBlur stdDeviation="22"/>-->
<!--            <feComposite in2="hardAlpha" operator="out"/>-->
<!--            <feColorMatrix type="matrix" values="0 0 0 0 1 0 0 0 0 0.862745 0 0 0 0 0.482353 0 0 0 1 0"/>-->
<!--            <feBlend mode="normal" in2="BackgroundImageFix" result="effect1_dropShadow_0_1"/>-->
<!--            <feBlend mode="normal" in="SourceGraphic" in2="effect1_dropShadow_0_1" result="shape"/>-->
<!--        </filter>-->
<!--        <filter id="filter1_f_0_1" x="193.2" y="1.7" width="305.1" height="177.6" filterUnits="userSpaceOnUse" color-interpolation-filters="sRGB">-->
<!--            <feFlood flood-opacity="0" result="BackgroundImageFix"/>-->
<!--            <feBlend mode="normal" in="SourceGraphic" in2="BackgroundImageFix" result="shape"/>-->
<!--            <feGaussianBlur stdDeviation="7.65" result="effect1_foregroundBlur_0_1"/>-->
<!--        </filter>-->
<!--        <linearGradient id="paint0_linear_0_1" x1="209" y1="85.8416" x2="483" y2="85.8415" gradientUnits="userSpaceOnUse">-->
<!--            <stop stop-color="#FFDC7B"/>-->
<!--            <stop offset="1" stop-color="#FFDC7B" stop-opacity="0"/>-->
<!--        </linearGradient>-->
    </defs>
</svg>
