<?xml version="1.0" standalone="no"?>
<!DOCTYPE svg PUBLIC "-//W3C//DTD SVG 20010904//EN"
 "http://www.w3.org/TR/2001/REC-SVG-20010904/DTD/svg10.dtd">
<svg version="1.0" xmlns="http://www.w3.org/2000/svg"
 width="185.000000pt" height="193.000000pt" viewBox="0 0 185.000000 193.000000"
 preserveAspectRatio="xMidYMid meet">

<g transform="translate(0.000000,193.000000) scale(0.100000,-0.100000)"
fill="#000000" stroke="none">
<path d="M560 1925 c-1 -5 -19 -30 -40 -55 l-40 -45 -50 50 -50 50 -190 -190
-190 -190 285 -285 c157 -157 285 -290 285 -295 0 -5 -127 -137 -282 -292
l-283 -283 190 -190 190 -190 48 48 49 47 43 -49 43 -49 30 34 c16 19 40 47
54 63 l24 29 38 -52 c21 -29 42 -51 46 -49 4 2 79 91 165 198 86 107 159 197
161 200 3 2 101 -92 219 -210 118 -118 216 -212 218 -210 2 3 71 86 153 185
83 99 153 186 158 192 4 8 -67 120 -194 302 l-200 289 161 234 c89 128 180
257 202 286 l40 53 -45 47 c-25 26 -91 103 -148 172 -57 69 -109 132 -117 140
-11 13 -41 -13 -216 -188 -111 -111 -206 -202 -210 -202 -4 0 -77 88 -163 195
l-156 196 -54 -58 -54 -58 -22 25 c-13 14 -40 46 -60 70 -21 25 -38 41 -38 35z
m-191 -237 c-52 -62 -100 -121 -107 -130 -12 -15 15 -51 227 -305 236 -283
240 -288 222 -308 -10 -11 -112 -132 -226 -270 -115 -137 -215 -258 -223 -267
-13 -16 -6 -28 79 -130 52 -62 100 -121 108 -131 13 -16 11 -22 -19 -52 -19
-19 -39 -35 -45 -35 -5 0 -84 74 -175 165 l-165 165 288 288 287 287 -287 287
-288 288 170 170 170 170 39 -39 39 -40 -94 -113z m245 137 l47 -54 -97 -105
-96 -106 130 -157 c71 -87 180 -219 241 -293 l111 -134 -29 -31 c-15 -16 -128
-141 -250 -278 l-223 -247 101 -129 c56 -72 101 -133 101 -136 0 -9 -73 -95
-81 -95 -3 0 -68 74 -143 165 -137 165 -137 165 -119 188 31 38 425 511 444
532 17 20 13 26 -222 308 l-240 288 18 24 c18 23 257 313 259 314 1 1 23 -24
48 -54z m804 -63 c-13 -21 -68 -109 -123 -195 -107 -168 -104 -165 -147 -104
l-21 29 154 154 c85 85 155 154 157 154 2 0 -7 -17 -20 -38z m-89 -1440 l143
-217 -176 175 c-97 96 -176 179 -176 184 0 9 52 74 60 75 3 0 70 -97 149 -217z"/>
</g>
</svg>
