<svg width="160" height="154" viewBox="0 0 160 154" fill="none" xmlns="http://www.w3.org/2000/svg">
<path d="M93.4919 151.237C92.3646 151.237 91.3044 150.779 90.4785 149.94C89.3401 148.778 88.7263 146.978 88.7486 144.854L89.9205 55.6107C89.9651 51.8215 92.041 48.2334 94.7418 47.2721L151.248 27.2526C151.75 27.0738 152.252 26.9844 152.754 26.9844C153.904 26.9844 154.997 27.4538 155.834 28.3034C156.973 29.4658 157.576 31.2655 157.531 33.3557L155.589 121.012C155.5 124.757 153.457 128.322 150.823 129.34L95.0878 150.913C94.5633 151.114 94.0164 151.226 93.4807 151.226L93.4919 151.237Z" fill="#49454F"/>
<path d="M152.766 29.4316C154.15 29.4316 155.143 30.9965 155.098 33.3103C154.451 62.5402 153.804 91.7814 153.156 121.011C153.1 123.694 151.661 126.41 149.953 127.07C131.371 134.257 112.8 141.444 94.2176 148.643C93.9721 148.743 93.7265 148.788 93.4922 148.788C92.1417 148.788 91.1596 147.223 91.1931 144.887C91.5837 115.143 91.9743 85.3877 92.365 55.6435C92.3984 52.905 93.8381 50.1999 95.568 49.5852C114.407 42.912 133.235 36.2389 152.074 29.5657C152.319 29.4763 152.554 29.4428 152.777 29.4428M152.777 24.5469C151.996 24.5469 151.214 24.681 150.455 24.9493L93.9497 44.9687C89.7869 46.4442 87.5548 51.4183 87.499 55.5765L86.3271 144.82C86.2936 147.603 87.153 150.029 88.7601 151.65C90.0436 152.957 91.7288 153.673 93.5145 153.673C94.3515 153.673 95.1886 153.516 96.0033 153.203L141.616 135.554L151.739 131.641C155.768 130.077 157.966 125.169 158.056 121.123L159.998 33.4221C160.053 30.6611 159.205 28.2467 157.609 26.6036C156.315 25.2734 154.596 24.5469 152.788 24.5469H152.777Z" fill="#49454F"/>
<path d="M80.8242 151.233C80.322 151.233 79.8198 151.166 79.3176 151.021C55.5791 144.47 31.8519 137.92 8.12465 131.348C4.89926 130.454 2.39931 126.776 2.44395 122.976C2.75644 93.4326 3.02429 63.7444 3.25867 34.738C3.29215 31.1052 5.69166 28.3555 8.86124 28.3555C9.34114 28.3555 9.83221 28.4225 10.3233 28.5455L81.7282 47.4136C84.9759 48.2743 87.4982 51.9406 87.4647 55.7746C87.1857 85.0493 86.8397 115.017 86.438 144.839C86.3933 148.483 83.9715 151.222 80.8242 151.222V151.233Z" fill="#49454F"/>
<path d="M8.86216 30.8172C9.13001 30.8172 9.40903 30.8507 9.6992 30.929C33.5046 37.2221 57.2988 43.504 81.1041 49.7859C83.2916 50.3672 85.0438 53.0387 85.0215 55.7549C84.7425 85.4431 84.3965 115.12 83.9947 144.808C83.9612 147.178 82.6108 148.788 80.8251 148.788C80.5461 148.788 80.256 148.754 79.9658 148.665C56.2385 142.115 32.5001 135.564 8.77288 128.992C6.59658 128.388 4.85554 125.706 4.87786 123.001C5.19035 93.5918 5.45821 64.1718 5.69258 34.763C5.7149 32.4156 7.06532 30.806 8.851 30.806M8.851 25.9102C4.29751 25.9102 0.837754 29.6994 0.804272 34.7183C0.581062 63.7135 0.31321 93.4017 0.000715547 122.956C-0.055087 127.896 3.15914 132.524 7.47826 133.709C31.2055 140.27 54.9327 146.832 78.6712 153.382C79.3854 153.583 80.1109 153.672 80.8251 153.672C85.3451 153.672 88.8049 149.894 88.8719 144.876C89.2736 115.031 89.6196 85.0631 89.8986 55.7996C89.9433 50.8255 86.6956 46.1979 82.343 45.0466L78.1801 43.9511L10.938 26.2008C10.2461 26.0219 9.55411 25.9325 8.86216 25.9325L8.851 25.9102Z" fill="#49454F"/>
<path d="M88.4132 48.8444C86.8954 48.8444 85.3775 48.6655 84.1499 48.3414L11.8744 29.2609C8.8499 28.4561 8.15795 26.9135 8.12446 25.7622C8.10214 25.058 8.31419 23.3143 10.8811 22.4424C28.5147 16.4287 47.2421 10.0798 68.1457 3.02656C69.5743 2.54591 71.2818 2.44531 72.4537 2.44531C73.9715 2.44531 75.4893 2.61298 76.7281 2.93714C100.935 9.09611 125.142 15.2327 149.361 21.347C152.408 22.1182 153.1 23.6608 153.155 24.8121C153.189 25.5163 152.977 27.26 150.41 28.1543L92.7881 48.2296C91.6497 48.6208 90.0984 48.8444 88.4244 48.8444H88.4132Z" fill="white"/>
<path d="M72.4539 4.89588C73.7262 4.89588 75.0431 5.03001 76.1257 5.30946C100.333 11.4684 124.551 17.605 148.758 23.7305C150.99 24.2894 151.359 25.2507 149.595 25.8654C130.388 32.5609 111.181 39.2453 91.9736 45.9408C91.0585 46.2537 89.7639 46.4214 88.4134 46.4214C87.1523 46.4214 85.8465 46.2761 84.7751 45.9967C60.6907 39.6365 36.5952 33.2763 12.5108 26.9162C10.301 26.3349 9.92155 25.3736 11.6849 24.77C30.7582 18.2645 49.8427 11.8038 68.9383 5.36535C69.8423 5.06355 71.1258 4.90706 72.4651 4.90706M72.4651 0.0111778C71.1035 0.0111778 69.1169 0.134134 67.3759 0.726557C46.4611 7.76857 27.7226 14.1176 10.1001 20.12C6.72964 21.2714 5.61359 23.8311 5.68055 25.8431C5.7252 27.1509 6.36134 30.3366 11.2496 31.622L83.514 50.7025C85.3443 51.1832 87.1858 51.2838 88.4023 51.2838C89.775 51.2838 91.7951 51.1496 93.5696 50.5348L151.191 30.4595C154.562 29.2858 155.667 26.715 155.577 24.6918C155.522 23.384 154.852 20.1983 149.941 18.9576C126.571 13.0669 102.822 7.04202 77.331 0.55889C75.5007 0.0894224 73.6704 0 72.4651 0V0.0111778Z" fill="#49454F"/>
<path d="M44.0729 88.0567C32.4882 84.9269 26.6959 83.362 15.1113 80.2323C15.2118 69.0097 15.2676 63.4097 15.3569 52.2877C15.4015 47.3583 18.5822 44.2174 22.4773 45.2457C31.2606 47.5707 35.6467 48.7332 44.43 51.0582C44.3184 63.3873 44.1956 75.7276 44.0729 88.0567Z" fill="#49454F"/>
<path d="M74.7857 96.3542C63.2011 93.2244 57.4088 91.6596 45.8242 88.541C45.947 76.2007 46.0697 63.8715 46.1814 51.5312C54.9647 53.8562 59.3508 55.0187 68.1341 57.3437C72.0291 58.3721 75.1429 63.2232 75.0871 68.1862C74.9755 79.3975 74.9085 85.0423 74.7857 96.3542Z" fill="#2769A5"/>
<path d="M43.6277 127.684C34.8779 125.27 30.4918 124.063 21.742 121.648C17.8581 120.575 14.7555 115.668 14.8113 110.683C14.9229 99.4382 14.9787 93.8045 15.0903 82.582C26.6749 85.7118 32.4672 87.2767 44.0407 90.4177C43.9067 102.836 43.7728 115.266 43.6277 127.684Z" fill="#2769A5"/>
<path d="M67.2744 134.201C58.5134 131.786 54.1385 130.579 45.3887 128.165C45.5338 115.735 45.6677 103.316 45.8016 90.8867C57.3862 94.0165 63.1785 95.5814 74.7631 98.7112C74.6292 110.023 74.5623 115.701 74.4283 127.036C74.3614 132.055 71.1695 135.263 67.2856 134.201H67.2744Z" fill="#49454F"/>
<path d="M68.0113 137.587C52.3196 133.261 36.6168 128.924 20.9251 124.587C16.0814 123.246 12.1976 117.121 12.2645 110.895C12.4654 90.808 12.6551 70.7103 12.8226 50.6238C12.8784 44.4649 16.8515 40.5526 21.7175 41.8381C37.4538 45.9962 53.2013 50.1544 68.9376 54.3237C73.8036 55.6091 77.6874 61.6563 77.6316 67.86C77.4196 88.1254 77.1852 108.391 76.9397 128.645C76.8616 134.927 72.8661 138.928 68.0113 137.587Z" stroke="white" stroke-width="1.68" stroke-miterlimit="10"/>
<path d="M37.6551 71.1125L32.5324 69.7376C32.5101 72.275 32.499 73.5493 32.4766 76.0866C30.2445 75.483 29.1285 75.1812 26.8852 74.5888C26.9076 72.0514 26.9187 70.7772 26.941 68.2398C24.8875 67.6921 23.8719 67.4126 21.8184 66.8649C21.8407 64.1711 21.8518 62.8298 21.8742 60.1471C23.9277 60.6948 24.9433 60.9631 26.9968 61.5108C27.0192 58.9846 27.0303 57.7215 27.0526 55.1953C29.2847 55.7877 30.412 56.0895 32.6441 56.682C32.6217 59.2081 32.6106 60.4712 32.5883 62.9974C34.6418 63.5451 35.6574 63.8134 37.7109 64.3611C37.6886 67.055 37.6774 68.3963 37.644 71.1013L37.6551 71.1125Z" fill="white"/>
<path d="M33.002 115.7C31.5735 113.442 30.8592 112.314 29.4307 110.056C28.0133 111.475 27.299 112.191 25.8705 113.61C24.3192 111.151 23.5379 109.921 21.9754 107.451C23.3928 106.032 24.1071 105.327 25.5245 103.908C24.0959 101.65 23.3817 100.521 21.9531 98.2742C23.4598 96.7652 24.2187 96.0051 25.7254 94.4961C27.1539 96.7428 27.8682 97.8718 29.2967 100.13C30.7141 98.7101 31.4284 97.9947 32.8569 96.5752C34.4194 99.0343 35.1895 100.264 36.752 102.723C35.3346 104.143 34.6203 104.858 33.1918 106.277C34.6203 108.535 35.3346 109.664 36.7631 111.922C35.2565 113.431 34.4975 114.191 32.9797 115.7H33.002Z" fill="white"/>
<path d="M52.6217 68.3516C58.9608 70.0394 62.1192 70.8889 68.4584 72.5768C68.4361 75.2818 68.4138 76.6343 68.3915 79.3393C62.0634 77.6403 58.8939 76.7908 52.5547 75.103C52.577 72.3979 52.5993 71.0454 52.6217 68.3516Z" fill="white"/>
<path d="M52.1872 109.23C58.5152 110.952 61.6737 111.813 68.0017 113.545C67.9793 115.211 67.9682 116.038 67.957 117.703C61.629 115.971 58.4706 115.11 52.1426 113.389C52.1649 111.723 52.1761 110.896 52.1872 109.23Z" fill="white"/>
<path d="M62.9 106.021C62.8777 107.977 61.6277 109.218 60.1211 108.815C58.6032 108.402 57.3979 106.49 57.4202 104.534C57.4425 102.578 58.6814 101.337 60.1992 101.74C61.717 102.153 62.9224 104.065 62.9 106.021Z" fill="white"/>
<path d="M62.7115 122.423C62.6892 124.379 61.4392 125.619 59.9325 125.206C58.4259 124.792 57.2094 122.87 57.2429 120.914C57.2652 118.957 58.5152 117.717 60.0218 118.13C61.5285 118.544 62.745 120.466 62.7227 122.423H62.7115Z" fill="white"/>
<path d="M122.221 87.7561C112.489 91.2101 107.623 92.9315 97.8906 96.3854C98.058 84.1457 98.1362 78.0203 98.3036 65.7806C98.3817 60.3593 101.105 55.0499 104.386 53.9321C111.797 51.4059 115.513 50.1317 122.924 47.6055C122.689 60.9965 122.455 74.3763 122.221 87.7673V87.7561Z" fill="#49454F"/>
<path d="M148.035 78.5993C138.303 82.0532 133.437 83.7746 123.705 87.2285C123.939 73.8487 124.174 60.4689 124.419 47.089C131.83 44.5629 135.546 43.2886 142.957 40.7624C146.238 39.6446 148.816 43.065 148.693 48.4192C148.437 60.4912 148.303 66.5272 148.035 78.5993Z" fill="#2769A5"/>
<path d="M121.483 130.455C114.162 133.16 110.501 134.512 103.18 137.206C99.9319 138.402 97.365 134.982 97.4431 129.549C97.6106 117.31 97.6887 111.184 97.8561 98.9446C107.588 95.4906 112.454 93.7581 122.175 90.293C121.94 103.684 121.706 117.064 121.472 130.455H121.483Z" fill="#2769A5"/>
<path d="M141.249 123.157C133.927 125.862 130.267 127.214 122.945 129.908C123.18 116.528 123.414 103.149 123.66 89.7688C133.392 86.3037 138.258 84.5823 147.978 81.1172C147.722 93.1892 147.588 99.2252 147.32 111.297C147.208 116.651 144.485 121.95 141.237 123.146L141.249 123.157Z" fill="#49454F"/>
<path d="M141.26 126.488C128.303 131.295 115.346 136.113 102.388 140.919C98.3815 142.406 95.2231 138.102 95.3124 131.328C95.6026 109.364 95.8927 87.3996 96.1829 65.4353C96.2722 58.6503 100.257 51.8207 104.319 50.4347C117.477 45.9635 130.624 41.4924 143.782 37.0213C147.845 35.6352 151.015 39.9387 150.858 46.623C150.378 68.2521 149.91 89.8811 149.43 111.51C149.285 118.195 145.267 125.013 141.26 126.488Z" stroke="white" stroke-width="1.68" stroke-miterlimit="10"/>
<path d="M116.974 73.2678C115.244 73.8714 114.385 74.1732 112.666 74.7768C112.621 77.5377 112.599 78.9237 112.555 81.6846L107.856 83.339C107.901 80.578 107.923 79.192 107.956 76.4311C106.227 77.0347 105.367 77.3365 103.648 77.9401C103.693 75.0003 103.715 73.5248 103.76 70.5851C105.49 69.9815 106.349 69.6909 108.079 69.0873C108.124 66.3263 108.146 64.9403 108.18 62.1794C110.066 61.5311 111.014 61.2069 112.901 60.5586C112.856 63.3195 112.834 64.7056 112.789 67.4665C114.519 66.8629 115.378 66.5723 117.108 65.9687C117.063 68.8972 117.03 70.3615 116.985 73.2901L116.974 73.2678Z" fill="white"/>
<path d="M112.666 124.005C111.483 122.44 110.902 121.646 109.719 120.07C108.514 122.451 107.911 123.647 106.706 126.028C105.422 124.306 104.775 123.446 103.48 121.735C104.686 119.355 105.288 118.159 106.494 115.778C105.311 114.202 104.719 113.408 103.536 111.832C104.82 109.306 105.456 108.031 106.739 105.505C107.922 107.081 108.514 107.875 109.697 109.451C110.902 107.07 111.505 105.885 112.721 103.516C114.016 105.237 114.652 106.098 115.947 107.808C114.741 110.189 114.139 111.374 112.922 113.754C114.105 115.331 114.697 116.113 115.869 117.689C114.585 120.215 113.949 121.478 112.666 124.005Z" fill="white"/>
<path d="M129.663 61.5885C134.997 59.733 137.676 58.8165 143.011 56.9609C142.955 59.8672 142.921 61.3203 142.854 64.2377C137.52 66.1044 134.852 67.0321 129.518 68.8877C129.573 65.9702 129.596 64.506 129.651 61.5885H129.663Z" fill="white"/>
<path d="M128.838 105.619C134.139 103.697 136.795 102.747 142.097 100.824C142.063 102.601 142.041 103.496 142.007 105.273C136.706 107.196 134.061 108.157 128.76 110.079C128.793 108.291 128.804 107.408 128.838 105.619Z" fill="white"/>
<path d="M137.9 95.8494C137.856 97.9396 136.795 100.008 135.523 100.466C134.251 100.924 133.258 99.5939 133.302 97.5037C133.347 95.4134 134.407 93.3455 135.679 92.8872C136.952 92.429 137.945 93.7591 137.9 95.8494Z" fill="white"/>
<path d="M137.543 113.39C137.498 115.48 136.438 117.548 135.177 118.017C133.916 118.475 132.922 117.156 132.956 115.066C133.001 112.976 134.061 110.908 135.322 110.439C136.583 109.98 137.576 111.299 137.543 113.39Z" fill="white"/>
</svg>
