<svg width="160" height="158" viewBox="0 0 160 158" fill="none" xmlns="http://www.w3.org/2000/svg">
<path d="M95.2433 155.127C92.3403 155.127 90.2926 152.466 90.2685 148.66C90.1842 133.813 90.0999 117.99 90.0035 102.167C89.9192 86.3316 89.8349 70.4846 89.7385 55.6129C89.7144 51.7474 91.7742 48.0505 94.5326 47.0149L150.688 25.9417C151.231 25.737 151.785 25.6406 152.351 25.6406C153.531 25.6406 154.663 26.1223 155.543 26.9893C156.723 28.1694 157.362 29.9877 157.362 32.1071L157.085 119.736C157.085 123.023 155.446 127.021 152.363 128.286C143.244 132.006 133.921 136.799 124.899 141.423C115.781 146.108 106.337 150.948 97.0019 154.766C96.4237 155.006 95.8335 155.115 95.2433 155.115V155.127Z" fill="#49454F"/>
<path d="M152.351 28.2864C153.712 28.2864 154.724 29.8278 154.724 32.1157C154.628 61.3293 154.544 90.5308 154.447 119.744C154.447 122.43 153.062 125.163 151.364 125.862C132.91 133.4 114.456 144.816 96.0027 152.342C95.7377 152.45 95.4847 152.498 95.2438 152.498C93.9068 152.498 92.919 150.957 92.907 148.645C92.7384 118.926 92.5577 85.3287 92.389 55.6094C92.377 52.8759 93.7502 50.1424 95.4727 49.4921C114.191 42.4717 132.91 35.4513 151.629 28.4188C151.882 28.3225 152.122 28.2743 152.363 28.2743M152.363 23C151.496 23 150.617 23.1566 149.786 23.4697L146.329 24.7702L93.6297 44.5429C89.3295 46.1565 87.1011 51.3345 87.1252 55.6214C87.2095 70.5774 87.3059 86.5209 87.3902 102.464C87.4745 118.191 87.5588 133.906 87.6552 148.669C87.6913 154.642 91.5097 157.761 95.2679 157.761C96.1954 157.761 97.1229 157.58 98.0143 157.207C107.458 153.353 116.938 148.488 126.104 143.78C135.078 139.168 144.353 134.411 153.363 130.727C157.712 128.944 159.711 123.79 159.723 119.756L160 32.188C160 29.3099 159.097 26.8173 157.41 25.1435C156.037 23.7707 154.242 23.0121 152.351 23.0121L152.363 23Z" fill="#49454F"/>
<path d="M123.61 89.059C113.648 93.3218 108.662 95.5255 98.7 99.3668C98.6278 85.8438 98.5916 79.0281 98.5314 65.9506C98.5073 60.3873 101.121 55.0166 104.398 53.8365C112.058 51.0428 115.901 49.6459 123.562 46.8281C123.586 60.9051 123.598 74.982 123.622 89.059H123.61Z" fill="#2769A5"/>
<path d="M148.519 78.7531C138.557 82.5944 133.571 84.7981 123.609 89.0609C123.585 74.984 123.573 60.907 123.549 46.8301C131.21 44.0243 135.052 42.6154 142.713 39.8217C145.977 38.6296 148.615 42.0013 148.603 47.3479C148.567 59.8955 148.555 66.1814 148.519 78.7531Z" fill="#2769A5"/>
<path d="M123.658 131.446C116.093 135.179 112.311 137.106 104.746 140.478C101.518 141.911 98.8923 138.551 98.8561 132.952C98.7838 119.766 98.7477 112.902 98.6875 99.3547C108.649 95.5134 113.636 93.3097 123.597 89.0469C123.622 103.184 123.634 117.321 123.658 131.446Z" fill="#49454F"/>
<path d="M142.569 122.402C135.005 125.774 131.222 127.701 123.658 131.434C123.634 117.297 123.622 103.16 123.598 89.0344C133.559 84.7716 138.546 82.5679 148.508 78.7266C148.472 91.3344 148.459 97.6323 148.423 110.228C148.411 115.575 145.785 120.969 142.557 122.414L142.569 122.402Z" fill="#49454F"/>
<path d="M142.654 125.693C129.644 131.617 117.033 138.337 104.024 144.261C100.049 146.031 96.8086 141.817 96.7604 134.82C96.6279 111.748 96.5074 88.676 96.387 65.6038C96.3508 58.6556 100.181 51.6954 104.217 50.2383C117.298 45.5059 130.379 40.7855 143.461 36.053C147.496 34.5959 150.748 38.8226 150.724 45.4938C150.652 67.109 150.591 88.7241 150.531 110.339C150.507 117.011 146.616 123.911 142.641 125.681L142.654 125.693Z" stroke="white" stroke-width="1.68" stroke-miterlimit="10"/>
<path d="M142.582 112.605C137.691 114.761 132.813 117.061 127.838 119.445C128.308 118.421 128.741 117.554 129.103 116.591C129.5 115.531 129.874 114.447 130.151 113.316C130.247 112.942 130.355 112.822 130.548 112.822C133.234 112.882 135.788 110.835 138.257 107.8C138.402 107.62 138.486 107.415 138.558 107.15C139.438 103.658 139.932 100.214 139.787 96.8182C139.739 95.8067 139.63 94.8433 139.45 93.9401C139.402 93.6993 139.365 93.4946 139.57 93.2297C140.715 91.8328 141.678 90.1349 142.521 88.2082C142.545 88.16 142.582 88.1239 142.618 88.0758C142.606 96.2642 142.594 104.441 142.569 112.593L142.582 112.605ZM104.434 63.7993C104.47 72.2166 104.506 80.8265 104.542 89.6412C105.445 87.4496 106.421 85.6915 107.577 84.2585C107.782 84.0056 107.746 83.7768 107.698 83.5239C107.505 82.5606 107.397 81.537 107.349 80.4773C107.18 76.9129 107.662 73.3365 108.529 69.7962C108.601 69.4952 108.698 69.2904 108.854 69.1098C111.336 66.1836 113.901 64.3653 116.612 64.6784C116.804 64.7025 116.913 64.5821 116.985 64.2449C117.166 63.4862 117.407 62.7517 117.66 62.0292C118.117 60.6685 118.732 59.4883 119.298 58.2601C114.335 60.1266 109.384 61.981 104.434 63.7993ZM142.702 49.9994C142.702 49.5779 142.654 49.5177 142.401 49.614C137.547 51.4203 132.692 53.2386 127.826 55.0569C127.85 55.1051 127.862 55.1653 127.886 55.1894C128.838 56.2371 129.621 57.5616 130.175 59.2716C130.271 59.5847 130.404 59.4763 130.572 59.3318C131.223 58.7538 131.897 58.3083 132.584 57.9831C134.607 57.0198 136.499 57.1402 138.305 57.8507C138.462 57.9109 138.558 58.0433 138.631 58.2721C139.775 61.9569 140.281 66.003 139.486 70.8077C139.426 71.1449 139.486 71.2894 139.654 71.3616C140.281 71.6025 140.859 72.036 141.401 72.5297C141.859 72.9512 142.22 73.5533 142.666 74.0109C142.678 65.991 142.69 57.9831 142.714 49.9994H142.702ZM136.246 92.5674C135.571 91.2428 134.788 90.2915 133.933 89.5087C132.548 88.2323 130.946 87.6061 129.368 86.9559C129.247 86.9077 129.091 86.9077 128.97 86.6789C131.729 83.2951 134.415 79.8752 136.27 74.7695C133.15 75.2632 130.319 77.9726 127.44 80.9229C127.681 79.5742 127.898 78.4061 128.103 77.2381C128.802 73.3606 129.223 69.5433 128.97 65.8585C128.934 65.3768 128.874 65.437 128.669 65.7622C127.838 67.1349 127.127 68.6643 126.477 70.2779C125.357 73.0836 124.598 76.1061 123.815 79.1407C123.754 79.3815 123.73 79.6585 123.562 79.8752C122.249 75.7208 120.876 71.6747 118.262 69.5313C117.816 75.0344 118.756 79.538 119.804 84.1019C116.889 83.5239 114.058 83.0664 111.01 85.0773C110.986 85.3061 111.071 85.3784 111.119 85.4747C111.733 86.6789 112.48 87.6182 113.299 88.4009C114.696 89.7616 116.298 90.436 117.888 91.1103C118.009 91.1585 118.165 91.1705 118.286 91.3873C115.527 94.8312 112.841 98.3475 111.022 103.694C114.142 103.14 116.961 100.274 119.84 97.2396C118.804 102.707 117.9 108.005 118.37 113.111C120.972 108.728 122.309 103.489 123.646 98.0705C124.995 102.309 126.356 106.283 128.958 108.174C129.404 102.707 128.488 98.3595 127.44 93.8679C130.355 94.3616 133.174 94.6747 136.27 92.5553L136.246 92.5674ZM117.093 119.373C116.997 119.072 116.865 119.252 116.72 119.373C116.118 119.963 115.503 120.456 114.877 120.818C112.817 122.022 110.902 122.058 109.047 121.384C108.927 121.335 108.818 121.275 108.746 121.07C107.565 117.289 107.035 113.014 107.794 107.921C107.855 107.511 107.806 107.343 107.602 107.258C106.722 106.885 105.939 106.223 105.241 105.308C105.048 105.055 104.831 104.814 104.614 104.549C104.614 104.778 104.614 104.971 104.614 105.163C104.65 113.388 104.687 121.576 104.711 129.632C104.711 130.186 104.783 130.307 105.108 130.162C109.758 128.091 114.395 125.899 119.045 123.672C119.153 123.623 119.262 123.563 119.49 123.455C118.442 122.395 117.66 121.083 117.093 119.361V119.373ZM108.397 87.57C106.903 89.5569 105.831 92.1098 105.108 95.048C104.506 97.4805 104.506 96.6255 105.108 98.5522C105.867 100.912 106.951 102.61 108.469 103.357C108.613 103.429 108.746 103.562 108.89 103.092C109.987 99.5035 111.516 96.493 113.251 93.7956C113.504 93.4103 113.528 93.2779 113.251 93.0852C111.504 91.8569 109.962 90.1108 108.83 87.4616C108.782 87.3532 108.758 87.2087 108.637 87.2449C108.565 87.3412 108.469 87.4496 108.385 87.558L108.397 87.57ZM123.441 106.825C122.309 110.305 120.972 113.556 119.201 116.278C118.972 116.627 119.057 116.796 119.141 117.024C119.936 119.24 121.153 120.492 122.658 121.034C123.899 121.48 123.405 121.709 124.67 120.047C126.139 118.096 127.332 115.736 128.127 112.858C128.247 112.4 128.26 112.172 128.007 112.027C127.633 111.834 127.296 111.545 126.959 111.244C125.718 110.124 124.718 108.523 123.839 106.644C123.779 106.524 123.755 106.331 123.61 106.331C123.55 106.488 123.502 106.644 123.441 106.813V106.825ZM123.815 71.1931C124.947 67.8334 126.284 64.7507 128.043 62.2219C128.26 61.9208 128.211 61.7402 128.127 61.4873C127.44 59.5485 126.441 58.1999 125.14 57.5135C123.285 56.526 123.863 56.2973 122.044 58.6454C120.755 60.3072 119.743 62.4145 119.057 64.9072C118.936 65.3407 118.924 65.5695 119.177 65.7019C119.442 65.8344 119.683 66.0632 119.912 66.28C121.309 67.5444 122.417 69.3265 123.381 71.4218C123.441 71.5543 123.477 71.7349 123.586 71.7711C123.706 71.6266 123.742 71.3978 123.815 71.2051V71.1931ZM138.342 75.4077C137.221 78.7674 135.716 81.6334 134.005 84.2465C133.668 84.7763 133.668 84.7642 134.005 85.0051C135.667 86.1611 137.161 87.6904 138.233 90.0747C138.414 90.4841 138.558 90.436 138.835 90.0627C140.606 87.6784 141.726 84.6679 142.497 81.3323C142.545 81.1396 142.533 81.0192 142.497 80.8747C141.726 78.1412 140.606 76.0218 138.811 75.1307C138.727 75.0826 138.631 75.0585 138.558 75.0224C138.462 75.0585 138.45 75.0585 138.329 75.4077H138.342ZM109.794 81.4648C109.854 81.8381 109.938 81.9103 110.179 81.7297C112.143 80.2606 114.106 79.7669 116.045 79.6826C116.371 79.6705 116.395 79.5742 116.335 79.0684C115.925 75.9014 115.744 72.626 116.13 69.1219C116.178 68.6402 116.118 68.5198 115.853 68.5077C113.986 68.3993 112.215 69.6035 110.48 71.47C110.348 71.6145 110.3 71.8072 110.252 72.0239C109.818 74.0951 109.553 76.1664 109.529 78.4182C109.565 79.3454 109.625 80.4292 109.794 81.4527V81.4648ZM116.009 116.133C116.25 115.917 116.286 115.748 116.238 115.375C115.841 112.159 115.985 108.691 116.395 105.139C116.455 104.621 116.395 104.609 116.13 104.814C114.19 106.379 112.251 107.547 110.288 107.692C109.926 107.716 109.902 108.089 109.854 108.499C109.408 111.858 109.722 114.761 110.408 117.41C110.456 117.602 110.541 117.699 110.661 117.723C111.769 117.988 112.914 117.952 114.214 117.398C114.744 117.109 115.383 116.711 116.009 116.133ZM135.8 106.596C137.041 105.284 136.74 105.994 137.161 103.718C137.667 101.033 137.787 98.4558 137.378 96.0715C137.318 95.7103 137.257 95.5899 136.992 95.7946C135.017 97.2998 133.066 97.926 131.114 98.0705C130.885 98.0825 130.789 98.1428 130.849 98.5883C131.283 101.731 131.427 105.007 131.03 108.547C130.982 108.944 131.066 108.98 131.247 108.992C131.861 109.017 132.499 108.812 133.078 108.595C134.041 108.113 134.933 107.499 135.788 106.596H135.8ZM131.319 62.5109C131.066 62.7156 130.982 62.8962 131.042 63.3297C131.427 66.4485 131.271 69.7721 130.873 73.192C130.813 73.7218 130.825 73.8302 131.162 73.5773C133.09 72.1082 135.041 71.0606 136.992 70.9522C137.378 70.9281 137.39 70.5428 137.45 70.1334C137.896 66.9543 137.595 64.1847 136.932 61.6318C136.872 61.4271 136.788 61.3308 136.655 61.2946C135.547 60.9936 134.415 60.9695 133.09 61.4391C132.584 61.6679 131.957 62.0171 131.343 62.5229L131.319 62.5109Z" fill="white"/>
<path d="M82.5468 155.378C82.065 155.378 81.5712 155.318 81.0894 155.197C69.0319 152.127 56.8298 148.008 45.0133 144.035C33.3533 140.109 21.2957 136.051 9.47916 133.028C6.09439 132.161 3.51666 128.537 3.49257 124.587C3.23962 95.0602 2.95054 65.4011 2.63735 36.4525C2.61326 34.4535 3.27575 32.6592 4.50438 31.4189C5.55234 30.3592 6.93756 29.7812 8.41915 29.7812C8.88893 29.7812 9.3587 29.8415 9.82847 29.9499L81.6314 47.4346C84.98 48.2535 87.6421 51.9503 87.6782 55.8639C87.9191 81.2723 88.1359 112.509 88.3407 148.719C88.3407 150.73 87.6782 152.536 86.4375 153.776C85.3896 154.824 84.0164 155.402 82.5468 155.402V155.378Z" fill="#49454F"/>
<path d="M8.42022 32.3915C8.67317 32.3915 8.93818 32.4276 9.20318 32.4879C33.1375 38.3161 57.0718 44.1444 81.0061 49.9726C83.2104 50.5025 85.0052 53.1397 85.0413 55.8611C85.3184 85.5082 85.5352 119.045 85.7038 148.704C85.7159 151.088 84.3668 152.738 82.5479 152.738C82.2829 152.738 82.0179 152.702 81.7409 152.63C57.8668 146.536 34.0048 136.566 10.1427 130.46C7.95045 129.895 6.15568 127.257 6.13159 124.548C5.87863 95.1658 5.60158 65.7836 5.27635 36.4015C5.25226 34.0292 6.60135 32.3915 8.42022 32.3915ZM8.42022 27.1172C6.22794 27.1172 4.18023 27.9721 2.63841 29.5376C0.903869 31.2836 -0.0236332 33.7402 0.000457714 36.4496C0.325685 65.4705 0.614765 95.1297 0.855674 124.584C0.891811 129.69 4.32478 134.398 8.82977 135.554C20.55 138.553 32.5593 142.599 44.1711 146.512C56.0238 150.51 68.2861 154.629 80.44 157.735C81.1386 157.916 81.8493 158 82.5479 158C84.7161 158 86.7638 157.145 88.3056 155.604C90.0402 153.858 90.9918 151.401 90.9797 148.68C90.787 112.783 90.5582 81.5344 90.3172 55.825C90.2691 50.6831 86.8 45.9747 82.2588 44.8669L71.0686 42.1454L10.4559 27.3821C9.78135 27.2135 9.10682 27.1413 8.43227 27.1413L8.42022 27.1172Z" fill="#49454F"/>
<path d="M45.5698 89.447C32.6329 86.5329 26.0441 84.9554 12.9627 82.4025C12.8423 69.7586 12.77 63.4727 12.6375 51.0334C12.5773 45.735 15.9861 42.267 20.2382 43.2423C30.2239 45.5303 35.2227 46.6863 45.1964 48.9984C45.3289 62.4853 45.4614 75.9601 45.5698 89.447Z" fill="#2769A5"/>
<path d="M78.1777 96.5052C65.1325 93.9523 58.4954 92.3628 45.5707 89.4486C45.4502 75.9617 45.3298 62.4869 45.1973 49C55.1709 51.312 60.1698 52.4681 70.1554 54.756C74.4075 55.7314 77.8886 60.3796 77.9368 65.3529C78.0452 77.0576 78.0934 83.3073 78.1897 96.5052H78.1777Z" fill="#2769A5"/>
<path d="M45.9072 133.4C36.1143 130.402 31.0793 128.8 21.0695 126.079C16.8054 124.923 13.3122 119.661 13.264 114.23C13.1556 101.441 13.0954 95.059 12.9629 82.3789C26.0443 84.9318 32.6331 86.4972 45.5699 89.4234C45.6904 104.078 45.8108 118.745 45.9072 133.4Z" fill="#49454F"/>
<path d="M70.7674 140.748C60.7697 138.015 55.6986 136.401 45.9056 133.403C45.8093 118.748 45.6888 104.081 45.5684 89.4258C58.5052 92.3399 65.1302 93.9295 78.1754 96.4823C78.2597 108.103 78.344 119.723 78.4042 131.344C78.4404 137.557 75.0315 141.916 70.7674 140.748Z" fill="#49454F"/>
<path d="M71.7563 144.981C54.7481 139.899 37.8725 134.408 20.8522 129.339C15.5763 127.857 10.5413 121.331 10.4811 114.575C10.2884 92.8397 10.0716 71.0921 9.84271 49.3565C9.77044 42.7214 13.9743 38.3623 19.2382 39.5785C36.2945 43.5403 53.3509 47.514 70.4072 51.4758C75.6711 52.7041 80.6338 58.7491 80.682 64.9266C80.8747 87.6376 81.0313 110.361 81.1759 133.072C81.2241 140.899 77.0202 146.45 71.7443 144.969L71.7563 144.981Z" stroke="white" stroke-width="1.68" stroke-miterlimit="10"/>
<path d="M70.6957 129.35C64.2393 127.736 57.783 125.966 51.2905 124.16C51.8927 123.461 52.4589 122.908 52.9286 122.185C53.4466 121.39 53.9284 120.535 54.2777 119.548C54.3982 119.223 54.5427 119.187 54.8077 119.355C58.3491 121.703 61.6857 121.667 64.9379 120.355C65.1307 120.282 65.2391 120.126 65.3234 119.885C66.4557 116.742 67.082 113.346 66.8652 109.565C66.805 108.445 66.6484 107.325 66.3955 106.218C66.3232 105.916 66.275 105.676 66.552 105.555C68.0457 104.917 69.3104 103.809 70.3945 102.376C70.4186 102.34 70.4789 102.328 70.515 102.304C70.5752 111.01 70.6354 120.03 70.6957 129.35ZM20.3578 52.6914C20.4421 60.639 20.5264 68.6951 20.6228 76.9799C21.8032 75.4987 23.08 74.4752 24.5737 73.8851C24.8507 73.7767 24.7905 73.5479 24.7182 73.271C24.4653 72.2474 24.3086 71.2118 24.2484 70.1882C24.0075 66.7322 24.6219 63.6977 25.7421 60.916C25.8384 60.6872 25.9709 60.5547 26.1636 60.4825C29.4039 59.3144 32.7405 59.2422 36.2818 61.2893C36.5228 61.4338 36.6673 61.3856 36.7757 61.1207C37.0045 60.5186 37.3177 59.9888 37.6309 59.471C38.2212 58.4836 39.0041 57.7731 39.7389 56.9783C33.2825 55.5453 26.8141 54.1123 20.3457 52.7155L20.3578 52.6914ZM70.2379 64.1553C70.2379 63.7579 70.1657 63.6615 69.8284 63.6013C63.4925 62.2406 57.1566 60.8317 50.8327 59.4228C50.8568 59.471 50.8689 59.5432 50.905 59.5794C52.1577 61.1809 53.1816 62.939 53.9164 64.9139C54.0489 65.2752 54.2175 65.2511 54.4343 65.227C55.2895 65.1066 56.1568 65.1186 57.0482 65.2391C59.6861 65.6244 62.1555 66.961 64.5405 68.8155C64.7452 68.972 64.8777 69.1647 64.9741 69.4296C66.5159 73.7165 67.2025 78.0154 66.2027 82.2903C66.1305 82.5914 66.2027 82.772 66.4316 82.9647C67.2627 83.627 68.0095 84.4458 68.7323 85.3128C69.3345 86.0353 69.8284 86.9024 70.4066 87.661C70.3464 79.4966 70.2741 71.6573 70.2259 64.1553H70.2379ZM62.1554 102.34C61.2641 100.449 60.2282 98.884 59.0839 97.4269C57.2409 95.0788 55.157 93.2845 53.0732 91.4783C52.9045 91.3338 52.7118 91.2254 52.5552 90.9243C56.1327 89.5034 59.6379 87.9379 62.035 84.0966C57.9516 82.4589 54.2537 83.1934 50.5075 84.0966C50.8207 82.9406 51.0857 81.9291 51.3507 80.9296C52.242 77.594 52.76 74.162 52.3986 70.4411C52.3504 69.9594 52.2662 69.9715 52.0132 70.1521C50.9412 70.9228 50.0136 71.9223 49.1945 73.0542C47.7611 75.017 46.7734 77.4254 45.7857 79.8458C45.7134 80.0385 45.6773 80.2914 45.4605 80.3877C43.7259 75.4385 41.907 70.6579 38.4741 66.9249C37.932 71.85 39.1968 76.7631 40.582 81.905C36.7757 79.3401 33.0657 77.0039 29.0787 76.8835C29.0546 77.0882 29.163 77.1966 29.2232 77.3291C30.0423 78.8825 31.018 80.2673 32.09 81.5678C33.933 83.8197 36.0289 85.5778 38.1127 87.36C38.2814 87.5045 38.4741 87.6128 38.6307 87.9139C35.0532 89.3107 31.5359 90.8039 29.175 94.6694C33.2705 96.3673 36.9443 95.6568 40.7025 94.7778C39.3896 99.4259 38.2332 103.978 38.8836 109.541C42.2564 107.181 43.9668 102.906 45.6773 98.4505C47.46 103.737 49.2548 108.903 52.6757 113.057C53.2177 107.651 51.9891 102.4 50.5918 97.0657C54.4102 99.751 58.1082 102.244 62.1796 102.364L62.1554 102.34ZM37.2575 114.876C37.125 114.49 36.9443 114.55 36.7757 114.587C35.9927 114.695 35.1857 114.683 34.3546 114.538C31.6564 114.081 29.1148 112.564 26.6696 110.48C26.5009 110.336 26.3684 110.203 26.272 109.938C24.6941 105.314 23.9834 100.823 24.9471 96.4757C25.0314 96.1265 24.9591 95.9338 24.6821 95.6929C23.5257 94.7175 22.5018 93.5495 21.5743 92.2128C21.3093 91.8395 21.0323 91.4783 20.7432 91.0688C20.7432 91.2856 20.7432 91.4662 20.7432 91.6469C20.8155 99.462 20.8998 107.337 20.96 115.261C20.96 115.803 21.0564 115.971 21.49 116.08C27.6211 117.597 33.7523 119.271 39.8232 120.957C39.9677 120.993 40.1123 121.041 40.4014 121.113C39.0282 119.102 37.9923 117.091 37.2455 114.864L37.2575 114.876ZM25.6578 77.5217C23.7064 78.4128 22.3212 80.1348 21.3696 82.4228C20.5866 84.3134 20.5866 83.5065 21.3937 85.7222C22.3934 88.4437 23.8389 90.7919 25.8384 92.5621C26.0312 92.7427 26.2118 92.9594 26.3925 92.6102C27.8139 89.9369 29.8014 88.1186 32.0659 86.7338C32.3912 86.5411 32.4273 86.4327 32.0659 86.0594C29.7653 83.6631 27.7416 80.9777 26.2359 77.7385C26.1757 77.606 26.1395 77.4495 25.9709 77.4134C25.8745 77.4495 25.7541 77.4977 25.6457 77.5458L25.6578 77.5217ZM45.4605 107.169C44.015 109.842 42.2925 112.094 40.0039 113.443C39.7028 113.611 39.8232 113.864 39.9316 114.165C40.9916 117.091 42.5816 119.44 44.545 121.306C46.1591 122.847 45.5207 122.679 47.1468 122.004C49.0621 121.21 50.6039 119.704 51.6157 117.32C51.7843 116.935 51.7964 116.706 51.4471 116.333C50.9652 115.815 50.5075 115.225 50.0618 114.623C48.4357 112.407 47.1107 109.926 45.9664 107.313C45.8941 107.145 45.858 106.916 45.6652 106.82C45.593 106.94 45.5207 107.048 45.4484 107.181L45.4605 107.169ZM45.7014 72.1511C47.1468 69.6704 48.8693 67.5992 51.1459 66.3469C51.423 66.1903 51.3748 65.9977 51.2543 65.6966C50.3389 63.3966 49.0259 61.482 47.3396 59.9888C44.9184 57.8574 45.6652 58.026 43.3043 59.0616C41.63 59.7961 40.3411 61.1328 39.4498 63.0354C39.2932 63.3605 39.2812 63.5773 39.6184 63.8663C39.9677 64.1673 40.2809 64.5286 40.582 64.8898C42.413 66.9972 43.8825 69.4176 45.1352 72.0668C45.2075 72.2233 45.2557 72.428 45.4123 72.5484C45.5689 72.5003 45.617 72.2956 45.7014 72.1511ZM64.7573 86.1437C63.3239 88.7688 61.3604 90.6354 59.132 92.0683C58.6863 92.3573 58.6864 92.3573 59.1561 92.8511C61.3484 95.2233 63.3239 97.8966 64.7573 101.196C65.0102 101.762 65.1909 101.822 65.5523 101.63C67.865 100.413 69.3105 98.0411 70.2982 95.0908C70.3584 94.9222 70.3464 94.7898 70.2982 94.6092C69.2623 91.2254 67.7686 88.3113 65.3957 86.1798C65.2873 86.0715 65.1668 85.9872 65.0705 85.9029C64.938 85.8667 64.9259 85.8668 64.7813 86.1437H64.7573ZM27.4525 72.6809C27.5368 73.0783 27.6453 73.1867 27.9584 73.1746C30.5241 73.0783 33.0898 73.8851 35.6314 75.1013C36.053 75.3061 36.0891 75.2338 35.9927 74.7039C35.4266 71.4165 35.1857 68.1893 35.6675 65.1427C35.7277 64.7212 35.6434 64.5647 35.3061 64.3841C32.873 63.0715 30.5603 63.0715 28.2957 63.7218C28.1271 63.7699 28.0548 63.9265 28.0066 64.0951C27.4405 65.7568 27.1152 67.539 27.1032 69.6463C27.1514 70.5374 27.2357 71.6092 27.4766 72.6809H27.4525ZM35.8121 110.697C36.1252 110.661 36.1734 110.541 36.1132 110.119C35.5711 106.567 35.7398 103.231 36.2577 100.028C36.33 99.5704 36.2577 99.4982 35.9084 99.5102C33.3789 99.6065 30.8252 99.2935 28.2475 98.017C27.7657 97.7762 27.7416 98.1254 27.6693 98.4866C27.1032 101.425 27.5248 104.471 28.4402 107.59C28.5125 107.819 28.6209 107.976 28.7775 108.096C30.235 109.216 31.7407 110.071 33.4632 110.541C34.1618 110.673 34.993 110.781 35.8121 110.697ZM61.6736 116.995C63.2998 116.586 62.9023 117.103 63.4443 114.972C64.0827 112.455 64.2393 109.758 63.6732 106.904C63.5889 106.47 63.5046 106.29 63.1552 106.302C60.5655 106.398 57.9998 105.519 55.4461 104.17C55.145 104.014 55.0245 103.99 55.1089 104.496C55.6991 108.108 55.9039 111.697 55.422 115.153C55.3618 115.55 55.4823 115.646 55.7111 115.803C56.5302 116.345 57.3614 116.658 58.1202 116.899C59.385 117.176 60.5655 117.248 61.6736 116.971V116.995ZM55.4461 68.7794C55.1209 68.8155 55.0125 68.9239 55.0848 69.3815C55.6148 72.6448 55.4341 75.7636 54.9282 78.8463C54.8439 79.328 54.88 79.4364 55.3016 79.4123C57.8191 79.2799 60.3607 79.5568 62.9143 80.761C63.4202 81.0018 63.4323 80.6286 63.5045 80.2553C64.0586 77.3893 63.6491 74.4872 62.7457 71.573C62.6734 71.3322 62.5529 71.1877 62.3723 71.0553C60.9268 70.0437 59.4332 69.2851 57.7107 68.8757C57.0482 68.7673 56.2291 68.6951 55.4341 68.7673L55.4461 68.7794Z" fill="white"/>
<path d="M87.9333 49.0975C86.5119 49.0975 85.1508 48.953 83.9824 48.664L11.3122 30.9865C8.15631 30.2159 7.40948 28.6023 7.34925 27.386C7.31311 26.6394 7.50585 24.797 10.1799 23.8216C27.8506 17.4394 46.4608 10.7441 67.1067 3.35042C68.757 2.76037 70.7927 2.66406 71.8527 2.66406C73.274 2.66406 74.6351 2.80856 75.7915 3.07348C100.123 8.75725 124.467 14.429 148.811 20.0887C151.979 20.8232 152.738 22.4368 152.822 23.653C152.87 24.3996 152.69 26.2541 150.004 27.2415L92.7274 48.3871C91.0531 49.0012 89.0053 49.0975 87.9333 49.0975Z" fill="white"/>
<path d="M71.8406 5.29845C73.009 5.29845 74.1894 5.4068 75.1772 5.64764C99.521 11.3314 123.853 17.0031 148.209 22.6628C150.449 23.1806 150.835 24.1319 149.088 24.7701C129.996 31.8146 110.904 38.8591 91.8119 45.9157C90.8362 46.2769 89.3908 46.4696 87.9333 46.4696C86.7769 46.4696 85.5965 46.3492 84.6088 46.1083C60.3854 40.2199 36.1619 34.3194 11.9385 28.4309C9.71013 27.889 9.3247 26.9377 11.0713 26.2994C30.0308 19.4476 49.0024 12.6319 67.986 5.82826C68.9497 5.47905 70.3831 5.29845 71.8526 5.29845M71.8526 0.0241073C70.347 0.0241073 68.1426 0.168613 66.2153 0.854999C45.461 8.28483 26.8388 14.9801 9.28855 21.3262C5.74718 22.6147 4.60287 25.3602 4.72333 27.5036C4.7956 28.9005 5.53036 32.2722 10.6979 33.5246L83.3681 51.2021C85.0906 51.6235 86.801 51.7078 87.9333 51.7078C89.4631 51.7078 91.6915 51.5513 93.6428 50.8288L150.919 29.6832C154.472 28.3707 155.581 25.6131 155.448 23.4576C155.364 22.0607 154.593 18.701 149.401 17.4968C125.901 12.0419 102.014 6.47856 76.3817 0.481704C74.6712 0.0843225 72.9729 0 71.8406 0L71.8526 0.0241073Z" fill="#49454F"/>
</svg>
