<svg width="160" height="158" viewBox="0 0 160 158" fill="none" xmlns="http://www.w3.org/2000/svg">
<path d="M95.2511 155.119C92.3359 155.119 90.3001 152.458 90.276 148.652C90.1917 133.791 89.8423 70.4714 89.758 55.6108C89.7339 51.7451 91.7938 48.048 94.5524 47.0124L150.712 25.9378C151.255 25.7331 151.809 25.6367 152.375 25.6367C153.567 25.6367 154.7 26.1184 155.567 26.9855C156.748 28.1657 157.386 29.9841 157.386 32.1036L157.109 119.738C157.109 123.025 155.471 127.024 152.387 128.288C143.268 132.009 133.932 136.802 124.909 141.439C115.79 146.123 106.358 150.964 97.022 154.77C96.4437 154.999 95.8534 155.119 95.2632 155.119H95.2511Z" fill="#49454F"/>
<path d="M152.362 28.275C153.723 28.275 154.735 29.8164 154.735 32.1045C154.639 61.3199 154.555 90.5233 154.458 119.739C154.458 122.424 153.073 125.158 151.374 125.856C132.92 133.395 114.464 144.811 96.0095 152.338C95.7445 152.446 95.4915 152.495 95.2506 152.495C93.9135 152.495 92.9257 150.953 92.9136 148.641C92.745 118.92 92.5642 85.3209 92.3956 55.5997C92.3836 52.866 93.7569 50.1323 95.4795 49.482C114.2 42.4612 132.92 35.4403 151.64 28.4075C151.892 28.3111 152.133 28.263 152.374 28.263M152.374 22.9883C151.507 22.9883 150.628 23.1448 149.796 23.47L111.248 37.9332L93.6243 44.5446C89.3238 46.1583 87.0952 51.3366 87.1193 55.6238C87.2037 70.388 87.288 86.1036 87.3844 101.819C87.4687 117.752 87.5651 133.708 87.6494 148.665C87.6855 154.638 91.5042 157.757 95.2626 157.757C96.1902 157.757 97.1178 157.577 98.0092 157.203C107.454 153.35 116.934 148.484 126.101 143.776C135.076 139.163 144.351 134.407 153.362 130.722C157.711 128.939 159.711 123.785 159.723 119.739L159.831 84.6826L160 32.1045C160 29.2745 159.096 26.7938 157.41 25.1198C156.036 23.747 154.242 22.9883 152.35 22.9883H152.374Z" fill="#49454F"/>
<path d="M123.618 89.0538C113.655 93.3168 108.668 95.5206 98.7059 99.3622C98.6337 85.8384 98.5975 79.0223 98.5373 65.944C98.5132 60.3803 101.127 55.0093 104.404 53.8291C112.065 51.0352 115.908 49.6383 123.57 46.8203C123.594 60.8981 123.606 74.9759 123.63 89.0538H123.618Z" fill="#2769A5"/>
<path d="M148.529 78.7438C138.566 82.5854 133.579 84.7892 123.617 89.0522C123.593 74.9744 123.581 60.8966 123.557 46.8188C131.218 44.0129 135.061 42.6039 142.722 39.81C145.987 38.6178 148.625 41.9897 148.613 47.3366C148.577 59.885 148.565 66.1713 148.529 78.7438Z" fill="#2769A5"/>
<path d="M123.667 131.433C116.102 135.167 112.32 137.093 104.755 140.465C101.526 141.898 98.9001 138.538 98.864 132.939C98.7917 119.752 98.7555 112.888 98.6953 99.3397C108.658 95.4981 113.645 93.2943 123.607 89.0312C123.631 103.169 123.643 117.307 123.667 131.433Z" fill="#49454F"/>
<path d="M142.58 122.397C135.015 125.769 131.233 127.696 123.668 131.429C123.644 117.291 123.632 103.153 123.607 89.0272C133.57 84.7641 138.557 82.5603 148.519 78.7188C148.483 91.3274 148.471 97.6257 148.435 110.222C148.423 115.569 145.797 120.964 142.568 122.409L142.58 122.397Z" fill="#49454F"/>
<path d="M142.665 125.675C129.655 131.6 117.042 138.32 104.032 144.245C100.057 146.015 96.8164 141.8 96.7682 134.803C96.6357 111.729 96.5152 88.6558 96.3948 65.5821C96.3586 58.6336 100.189 51.6729 104.225 50.2158C117.307 45.483 130.39 40.7623 143.472 36.0296C147.507 34.5724 150.76 38.7994 150.736 45.471C150.664 67.0875 150.603 88.704 150.543 110.32C150.519 116.992 146.628 123.893 142.653 125.663L142.665 125.675Z" stroke="white" stroke-width="1.68" stroke-miterlimit="10"/>
<path d="M142.689 59.9451C142.677 70.2898 142.653 80.6705 142.641 91.0392C142.617 91.0994 142.593 91.1596 142.581 91.2078C142.207 93.2671 141.46 94.4954 140.268 95.0012C137.835 96.0489 135.401 97.1207 132.956 98.1805C132.679 98.3009 132.606 98.4695 132.606 98.9271C132.618 101.071 132.606 103.214 132.606 105.37C132.606 105.743 132.655 105.852 132.896 105.731C133.522 105.418 134.16 105.141 134.787 104.864C135.473 104.563 135.955 105.117 135.955 106.213C135.955 107.297 135.473 108.284 134.775 108.597C130.366 110.62 125.957 112.704 121.548 114.775C120.861 115.1 120.379 114.51 120.391 113.39C120.391 112.306 120.873 111.295 121.536 110.982C122.162 110.681 122.801 110.38 123.427 110.115C123.68 110.006 123.728 109.838 123.728 109.44C123.716 107.309 123.704 105.177 123.728 103.034C123.728 102.48 123.656 102.359 123.331 102.516C120.861 103.66 118.38 104.768 115.91 105.864C114.693 106.406 113.706 105.141 113.694 103.046C113.658 92.6649 113.633 82.224 113.609 71.9275C113.609 69.8321 114.585 67.7728 115.802 67.3032C124.041 64.136 132.269 60.9206 140.509 57.8136C141.003 57.6329 141.436 57.7413 141.822 58.0665C142.292 58.4398 142.521 59.1624 142.701 59.9451H142.689ZM116.838 116.979C117.561 116.642 118.018 115.654 118.018 114.414C118.018 112.776 117.994 111.138 118.018 109.488C118.018 108.922 117.946 108.766 117.597 108.935C116.741 109.344 115.886 109.874 115.043 109.934C112.923 110.091 111.477 107.61 111.453 103.828C111.429 100.18 111.429 96.5186 111.417 92.8576C111.417 92.3879 111.357 92.2555 111.068 92.388C109.02 93.255 106.972 94.098 104.936 94.8928C104.611 95.0253 104.563 95.23 104.563 95.7478C104.611 103.961 104.635 112.186 104.671 120.315C104.671 121.748 105.117 122.302 105.936 121.941C107.743 121.158 109.538 120.339 111.345 119.52C113.176 118.689 114.995 117.846 116.826 116.991L116.838 116.979ZM112.441 113.234C112.441 114.257 111.911 115.401 111.333 115.654C110.742 115.907 110.224 115.221 110.224 114.197C110.224 113.174 110.754 112.029 111.333 111.777C111.923 111.524 112.441 112.21 112.441 113.234ZM111.068 80.7187C111.296 80.6344 111.381 80.5019 111.381 80.0683C111.357 77.8405 111.357 75.6005 111.357 73.3727C111.357 72.9391 111.284 72.8669 111.043 72.9632C109.224 73.6737 107.418 74.3601 105.599 75.0586C104.96 75.2995 104.49 76.299 104.49 77.3949C104.49 79.1892 104.514 80.9836 104.502 82.79C104.502 83.2115 104.587 83.2597 104.803 83.1754C105.839 82.7539 106.887 82.3564 107.923 81.947C108.959 81.5375 110.007 81.1161 111.043 80.7187H111.068ZM111.104 88.4982C111.345 88.4018 111.417 88.2453 111.405 87.8358C111.381 86.8724 111.381 85.897 111.405 84.9215C111.405 84.5964 111.357 84.488 111.152 84.5723C109.032 85.4393 106.912 86.2823 104.791 87.1012C104.599 87.1735 104.538 87.306 104.538 87.6432C104.55 88.5945 104.563 89.5579 104.538 90.5213C104.538 91.003 104.599 91.1355 104.888 91.0151C105.912 90.5695 106.948 90.1842 107.972 89.7627C109.008 89.3412 110.056 88.9076 111.092 88.5102L111.104 88.4982Z" fill="white"/>
<path d="M82.5527 155.366C82.0709 155.366 81.577 155.306 81.0951 155.186C69.0368 152.115 56.8218 147.996 45.0164 144.022C33.3555 140.096 21.2971 136.038 9.47966 133.015C6.09464 132.148 3.52877 128.523 3.49263 124.573C3.23966 95.0448 2.95056 65.3838 2.63735 36.4333C2.61326 34.4343 3.27579 32.6399 4.50452 31.3995C5.55255 30.3398 6.93788 29.7617 8.41958 29.7617C8.87734 29.7617 9.3592 29.8219 9.81696 29.9303L81.6252 47.4162C84.9741 48.2351 87.6363 51.9322 87.6724 55.846C87.9134 81.6774 88.1422 112.916 88.335 148.707C88.335 150.73 87.6724 152.524 86.4317 153.765C85.3836 154.812 84.0103 155.39 82.5527 155.39V155.366Z" fill="#49454F"/>
<path d="M8.42083 32.384C8.6738 32.384 8.93881 32.4202 9.20383 32.4804C33.1399 38.309 57.076 44.1376 81.0121 49.9663C83.2165 50.4961 85.0115 53.1335 85.0476 55.8551C85.3247 85.504 85.5415 119.043 85.7101 148.704C85.7222 151.088 84.373 152.738 82.554 152.738C82.289 152.738 82.0239 152.702 81.7469 152.63C57.871 146.536 34.0072 136.565 10.1434 130.459C7.95101 129.893 6.15613 127.256 6.13203 124.546C5.87906 95.1622 5.602 65.7782 5.27675 36.3942C5.25266 34.0218 6.60183 32.384 8.42083 32.384ZM8.42083 27.1094C6.2284 27.1094 4.18053 27.9644 2.6386 29.5299C0.915977 31.2761 -0.0236406 33.7328 0.00045209 36.4424C0.325703 65.3567 0.614805 95.0056 0.855732 124.582C0.891871 129.688 4.32507 134.397 8.8304 135.553C20.5515 138.552 32.5617 142.598 44.1743 146.512C56.0279 150.51 68.2911 154.629 80.4459 157.736C81.1446 157.916 81.8553 158.001 82.554 158.001C84.7223 158.001 86.7702 157.146 88.3121 155.604C90.0468 153.858 90.9985 151.401 90.9864 148.68C90.7937 112.684 90.5648 81.4457 90.3239 55.8069C90.2757 50.6647 86.8064 45.9561 82.2649 44.8481L10.4567 27.3623C9.78207 27.1937 9.10748 27.1214 8.43289 27.1214L8.42083 27.1094Z" fill="#49454F"/>
<path d="M45.5722 89.446C32.6344 86.5196 26.0451 84.9541 12.9628 82.401C12.8423 69.7563 12.77 63.47 12.6375 51.03C12.5773 45.7313 15.9864 42.263 20.2387 43.2384C30.2252 45.5265 35.2244 46.6826 45.1988 48.9948C45.3313 62.4825 45.4638 75.9582 45.5722 89.446Z" fill="#2769A5"/>
<path d="M78.1821 96.5003C65.1359 93.9473 58.4984 92.3577 45.5727 89.4433C45.4522 75.9556 45.3317 62.4799 45.1992 48.9922C55.1736 51.3044 60.1728 52.4605 70.1592 54.7486C74.4116 55.724 77.893 60.3724 77.9412 65.346C78.0496 77.0515 78.0978 83.3016 78.1942 96.5003H78.1821Z" fill="#2769A5"/>
<path d="M45.9115 133.384C36.1179 130.385 31.0825 128.784 21.072 126.062C16.8076 124.906 13.3142 119.643 13.266 114.212C13.1576 101.423 13.0974 95.0402 12.9648 82.3594C26.0472 84.9124 32.6365 86.478 45.5742 89.4043C45.6947 104.06 45.8152 118.728 45.9115 133.384Z" fill="#49454F"/>
<path d="M70.7732 140.748C60.7748 138.014 55.7032 136.4 45.9096 133.401C45.8132 118.746 45.6927 104.078 45.5723 89.4219C58.51 92.3362 65.1355 93.9258 78.1817 96.4788C78.266 108.1 78.3504 119.721 78.4106 131.342C78.4467 137.556 75.0376 141.916 70.7732 140.748Z" fill="#49454F"/>
<path d="M71.7609 144.984C54.7515 139.902 37.8746 134.41 20.8531 129.34C15.5768 127.859 10.5414 121.332 10.4812 114.576C10.2884 92.8391 10.0716 71.0901 9.84272 49.3532C9.77044 42.7177 13.9746 38.3583 19.2389 39.5746C36.2965 43.5366 53.3541 47.5107 70.4117 51.4727C75.6759 52.701 80.639 58.7464 80.6872 64.9243C80.88 87.6367 81.0366 110.361 81.1811 133.073C81.2293 140.901 77.0252 146.453 71.7489 144.972L71.7609 144.984Z" stroke="white" stroke-width="1.68" stroke-miterlimit="10"/>
<path d="M70.314 73.6883C70.3984 83.7439 70.4827 94.3534 70.555 105.481C70.5309 105.529 70.4827 105.565 70.4706 105.625C70.0008 107.564 69.0251 108.335 67.4591 107.986C64.2547 107.263 61.0504 106.529 57.8581 105.746C57.4847 105.661 57.4004 105.77 57.4124 106.264C57.4486 108.528 57.4606 110.804 57.4606 113.092C57.4606 113.489 57.5329 113.646 57.8341 113.718C58.6653 113.899 59.4844 114.115 60.3156 114.32C61.2191 114.549 61.8575 115.548 61.8575 116.729C61.8575 117.909 61.2311 118.583 60.3276 118.354C54.5333 116.885 48.7872 115.368 43.0532 113.862C42.1617 113.634 41.5353 112.634 41.5353 111.49C41.5353 110.382 42.1497 109.732 43.005 109.937C43.8241 110.141 44.6433 110.334 45.4624 110.575C45.7877 110.671 45.86 110.539 45.8479 110.129C45.8118 107.925 45.7877 105.734 45.7997 103.566C45.7997 103.012 45.7034 102.831 45.2697 102.735C42.0654 101.988 38.837 101.206 35.5965 100.423C34.0064 100.038 32.6933 98.0625 32.6813 96.0153C32.5729 85.8754 32.4765 75.9282 32.3681 66.1978C32.344 64.2228 33.6209 62.9101 35.211 63.2594C45.9563 65.5957 56.6535 67.968 67.4229 70.2561C68.0614 70.3886 68.6276 70.774 69.1455 71.34C69.7599 72.0023 70.0611 72.8453 70.314 73.7244V73.6883ZM36.8975 112.237C37.8492 112.478 38.4394 111.839 38.4274 110.587C38.4274 108.925 38.3792 107.263 38.3912 105.625C38.3912 105.059 38.2949 104.843 37.8371 104.746C36.7289 104.493 35.5965 104.361 34.5003 103.771C31.7176 102.302 29.7901 98.8092 29.754 95.1241C29.7058 91.5836 29.6697 88.0551 29.6577 84.5628C29.6577 84.1052 29.5733 83.9486 29.1999 83.8763C26.5256 83.3103 23.8393 82.7443 21.1529 82.1543C20.7193 82.0579 20.659 82.2265 20.6711 82.7082C20.7554 90.4516 20.8277 98.2673 20.912 106.143C20.924 107.528 21.5023 108.383 22.5985 108.648C24.9716 109.214 27.3568 109.804 29.7179 110.394C32.1271 110.996 34.5244 111.61 36.9095 112.225L36.8975 112.237ZM31.1032 105.035C31.1032 106.047 30.4166 106.769 29.6577 106.565C28.8867 106.36 28.188 105.288 28.188 104.301C28.188 103.301 28.8746 102.579 29.6456 102.771C30.4166 102.964 31.1153 104.036 31.1153 105.035H31.1032ZM29.1156 72.8092C29.4167 72.8814 29.5372 72.8092 29.5252 72.3997C29.489 70.2802 29.4649 68.1728 29.4528 66.0774C29.4528 65.6679 29.3445 65.5595 29.0313 65.4873C26.6581 64.9935 24.297 64.4757 21.9239 63.994C21.0927 63.8254 20.4784 64.4637 20.4904 65.4873C20.4904 67.1732 20.5386 68.8592 20.5386 70.5452C20.5386 70.9426 20.647 71.0389 20.9361 71.0871C22.2974 71.352 23.6706 71.641 25.0319 71.93C26.3931 72.2191 27.7543 72.4961 29.1276 72.8092H29.1156ZM29.1999 80.1913C29.5251 80.2636 29.6095 80.1672 29.5974 79.7577C29.5613 78.8305 29.5613 77.9032 29.5613 76.988C29.5613 76.6749 29.501 76.5424 29.236 76.4942C26.4654 75.9162 23.6827 75.3261 20.9 74.736C20.647 74.6878 20.5627 74.7601 20.5747 75.0852C20.5988 75.9884 20.6229 76.8916 20.5988 77.7828C20.5988 78.2284 20.6711 78.3969 21.0566 78.4572C22.4057 78.7101 23.7549 79.0111 25.1041 79.2881C26.4654 79.5771 27.8266 79.8541 29.1999 80.1672V80.1913Z" fill="white"/>
<path d="M87.9275 49.0884C86.5061 49.0884 85.1448 48.9438 83.9763 48.6548L11.3008 30.9763C8.14465 30.2055 7.39776 28.5918 7.33753 27.3755C7.30139 26.6289 7.49414 24.7863 10.1684 23.8109C27.6958 17.4765 46.3074 10.7808 67.0994 3.33845C68.7497 2.74836 70.7856 2.66406 71.8456 2.66406C73.2671 2.66406 74.6284 2.80857 75.7848 3.07351C100.118 8.75762 124.464 14.4297 148.81 20.0897C151.978 20.8243 152.737 22.438 152.821 23.6544C152.869 24.401 152.689 26.2556 150.002 27.243L92.722 48.3899C91.0475 49.0041 88.9996 49.1004 87.9275 49.1004V49.0884Z" fill="white"/>
<path d="M71.8455 5.28671C73.014 5.28671 74.1946 5.39508 75.1824 5.63594C99.528 11.3201 123.862 16.9921 148.219 22.6522C150.46 23.17 150.845 24.1214 149.099 24.7596C130.005 31.8045 110.912 38.8495 91.8184 45.9064C90.8426 46.2677 89.397 46.4604 87.9394 46.4604C86.783 46.4604 85.6024 46.34 84.6146 46.0991C60.3895 40.2103 36.1643 34.3094 11.9391 28.4206C9.71054 27.8786 9.32505 26.9273 11.0718 26.289C30.0327 19.4368 49.0057 12.6206 67.9907 5.81657C68.9544 5.46733 70.3879 5.28671 71.8576 5.28671M71.8576 0.012036C70.3518 0.012036 68.1473 0.15655 66.2199 0.842979C45.4279 8.28532 26.8043 14.981 9.2889 21.3154C5.74728 22.604 4.60287 25.3497 4.72333 27.4933C4.79561 28.8902 5.53046 32.2622 10.6983 33.5146L14.6375 34.478L83.3739 51.2052C85.0965 51.6267 86.8071 51.711 87.9394 51.711C89.4693 51.711 91.6979 51.5544 93.6494 50.8319L137.064 34.8032L150.93 29.685C154.471 28.3724 155.592 25.6146 155.459 23.459C155.375 22.0621 154.604 18.7022 149.412 17.4979C125.934 12.0426 102.046 6.47892 76.387 0.481697C74.6764 0.084291 72.9779 0 71.8455 0L71.8576 0.012036Z" fill="#49454F"/>
</svg>
