<svg width="160" height="158" viewBox="0 0 160 158" fill="none" xmlns="http://www.w3.org/2000/svg">
<path d="M95.2511 155.123C92.348 155.123 90.3001 152.462 90.276 148.658C90.1917 133.787 89.8423 70.4764 89.758 55.6301C89.7339 51.765 91.7939 48.0685 94.5525 47.0329L150.712 25.9615C151.255 25.7568 151.809 25.6484 152.375 25.6484C153.567 25.6484 154.7 26.1301 155.567 26.997C156.748 28.177 157.386 29.9952 157.386 32.1144L157.109 119.735C157.109 123.023 155.471 127.02 152.387 128.284C143.268 132.005 133.932 136.797 124.909 141.433C115.79 146.117 106.358 150.957 97.022 154.774C96.4437 155.003 95.8535 155.123 95.2632 155.123H95.2511Z" fill="#49454F"/>
<path d="M152.362 28.2937C153.724 28.2937 154.735 29.835 154.735 32.1227C154.639 61.3338 154.555 90.5328 154.458 119.744C154.458 122.429 153.073 125.162 151.374 125.861C132.92 133.398 114.465 144.813 96.0095 152.338C95.7445 152.447 95.4915 152.495 95.2506 152.495C93.9135 152.495 92.9257 150.954 92.9136 148.642C92.745 118.925 92.5643 85.3311 92.3956 55.6144C92.3836 52.8811 93.7569 50.1478 95.4795 49.4976C114.2 42.4778 132.92 35.458 151.64 28.4262C151.892 28.3299 152.133 28.2817 152.374 28.2817M152.374 23.0078C151.507 23.0078 150.628 23.1643 149.796 23.4774L137.172 28.2095L93.6243 44.5368C89.3238 46.1503 87.0952 51.3278 87.1193 55.6144C87.2037 70.5691 87.3 86.5111 87.3844 102.453C87.4687 118.179 87.553 133.892 87.6494 148.654C87.6855 154.626 91.5042 157.745 95.2627 157.745C96.1902 157.745 97.1178 157.564 98.0092 157.191C107.454 153.338 116.934 148.473 126.101 143.765C135.076 139.154 144.351 134.398 153.362 130.713C157.711 128.931 159.711 123.778 159.723 119.744L160 32.1227C160 29.2931 159.096 26.8127 157.41 25.139C156.036 23.7664 154.242 23.0078 152.35 23.0078H152.374Z" fill="#49454F"/>
<path d="M123.609 89.0491C113.659 93.2996 108.695 95.503 98.7451 99.332C98.6729 86.1714 98.6488 79.5369 98.5765 66.7736C98.5404 60.7773 101.371 54.9977 104.889 53.7214C112.358 51.0001 116.092 49.6395 123.549 46.9062C123.573 60.9579 123.585 74.9975 123.609 89.0491Z" fill="#2769A5"/>
<path d="M148.473 78.7474C138.534 82.5884 133.559 84.7798 123.609 89.0302C123.585 74.9786 123.573 60.939 123.549 46.8873C131.018 44.1541 134.752 42.7814 142.209 40.0722C145.726 38.7959 148.557 42.4202 148.545 48.1637C148.509 60.3851 148.497 66.5018 148.461 78.7474H148.473Z" fill="#2769A5"/>
<path d="M123.668 131.323C116.308 134.959 112.622 136.826 105.249 140.137C101.78 141.69 98.9489 138.066 98.9128 132.033C98.8405 119.174 98.8164 112.503 98.7441 99.3063C108.682 95.4653 113.658 93.2738 123.608 89.0234C123.632 103.123 123.644 117.235 123.668 131.335V131.323Z" fill="#49454F"/>
<path d="M142.088 122.523C134.728 125.822 131.042 127.7 123.67 131.337C123.645 117.237 123.633 103.125 123.609 89.0251C133.56 84.7746 138.523 82.5712 148.473 78.7422C148.437 91.0118 148.425 97.1526 148.389 109.41C148.377 115.166 145.546 120.969 142.076 122.523H142.088Z" fill="#49454F"/>
<path d="M142.087 125.854C129.571 131.79 117.151 137.919 104.635 143.867C100.358 145.782 96.8528 141.242 96.8167 133.705C96.6962 111.345 96.5758 88.9852 96.4553 66.6254C96.4192 59.136 100.455 51.6586 104.803 50.0933C117.488 45.5178 130.173 40.9423 142.858 36.3668C147.207 34.8015 150.712 39.3529 150.688 46.5292C150.628 67.4682 150.555 88.4072 150.495 109.334C150.471 116.511 146.375 123.94 142.087 125.854Z" stroke="white" stroke-width="1.68" stroke-miterlimit="10"/>
<path d="M143.256 94.8C143.099 96.1004 143.039 97.3888 142.81 98.7012C141.28 107.334 138.076 113.716 133.149 117.617C126.644 122.759 120.368 118.4 119.079 107.648C117.826 97.1961 121.934 84.4449 128.306 79.3757C135.016 74.0296 141.63 78.4847 143.027 89.0565C143.123 89.8151 143.184 90.5977 143.268 91.3684C143.268 92.5122 143.268 93.6561 143.268 94.812L143.256 94.8ZM129.945 87.7561C129.945 88.2377 129.92 88.7314 129.945 89.189C129.969 89.6586 129.86 89.9114 129.607 90.2124C128.367 91.7537 127.596 94.3665 127.728 96.4857C127.921 99.4237 129.222 100.917 131.017 100.254C131.667 100.014 132.125 100.507 132.149 101.483C132.185 102.446 131.788 103.469 131.246 103.879C130.643 104.324 130.089 103.975 129.957 102.976C129.908 102.651 129.824 102.663 129.668 102.735C129.113 103 128.559 103.265 128.005 103.481C127.74 103.59 127.704 103.77 127.728 104.144C127.897 106.203 128.559 107.443 129.704 107.816C129.884 107.876 129.933 107.997 129.933 108.31C129.933 109.393 129.933 110.465 129.933 111.549C129.933 111.862 129.969 111.97 130.173 111.874C130.752 111.585 131.33 111.308 131.908 111.067C132.113 110.983 132.149 110.826 132.149 110.525C132.149 109.49 132.149 108.454 132.149 107.419C132.149 107.009 132.221 106.781 132.45 106.504C133.715 104.938 134.498 102.326 134.366 100.218C134.173 97.3165 132.872 95.8235 131.077 96.4737C130.426 96.7024 129.969 96.2088 129.945 95.2214C129.92 94.2582 130.306 93.2347 130.848 92.8253C131.45 92.3798 132.005 92.7531 132.137 93.7524C132.185 94.0775 132.27 94.0655 132.426 93.9933C132.98 93.7404 133.534 93.4875 134.089 93.2708C134.354 93.1745 134.39 92.9939 134.366 92.6086C134.197 90.5616 133.546 89.3094 132.39 88.9C132.209 88.8398 132.161 88.7194 132.161 88.3943C132.161 87.3106 132.161 86.2269 132.161 85.1432C132.161 84.8302 132.125 84.7218 131.92 84.8061C131.342 85.071 130.764 85.3118 130.173 85.5406C129.969 85.6249 129.921 85.7694 129.933 86.0824C129.945 86.6243 129.933 87.1661 129.933 87.7079L129.945 87.7561ZM116.164 60.6763C116.079 60.8328 115.983 60.8569 115.887 60.9051C114.308 61.6757 112.779 62.7473 111.285 64.1681C109.478 65.8779 107.815 67.9249 106.514 70.8869C104.9 74.5714 104.852 78.3883 106.406 81.0012C107.346 82.5906 108.562 83.3732 109.887 83.8428C111.851 84.5412 113.911 84.4328 116.031 83.8188C118.729 83.0481 121.38 81.5671 123.97 79.1108C125.752 77.413 127.415 75.3902 128.704 72.4763C129.776 70.0561 130.258 67.5757 129.8 65.0832C129.439 63.1687 128.632 61.9526 127.632 61.0616C125.644 59.3036 123.343 59.0026 120.922 59.2675C120.344 59.3277 119.753 59.4481 119.163 59.5444C118.175 59.9177 117.175 60.291 116.188 60.6642L116.164 60.6763ZM105.31 88.0451C105.286 89.6826 105.599 91.0071 106.117 92.1028C106.852 93.6561 107.864 94.5351 108.984 95.101C111.67 96.4255 114.537 96.0643 117.525 94.8482C117.742 94.7639 117.802 94.5351 117.862 94.2461C118.368 91.9584 119.055 89.779 119.874 87.6959C120.163 86.9494 120.476 86.2269 120.801 85.4563C120.729 85.4563 120.693 85.4563 120.669 85.4804C118.645 86.7928 116.609 87.6237 114.586 88.009C111.188 88.6471 108.02 88.1896 105.31 85.0951C105.31 86.1547 105.334 87.1059 105.31 88.0571V88.0451ZM105.406 111.549C105.394 112.994 105.635 114.186 106.069 115.197C106.731 116.762 107.671 117.678 108.731 118.231C111.827 119.833 115.164 119.098 118.621 117.292C118.886 117.16 118.898 117.003 118.766 116.702C118.019 114.992 117.477 113.042 117.127 110.826C117.067 110.417 116.947 110.345 116.694 110.453C115.706 110.887 114.73 111.127 113.766 111.284C110.695 111.79 107.84 111.32 105.382 108.527C105.382 109.61 105.406 110.573 105.382 111.549H105.406ZM105.478 101.567C105.816 103.638 106.635 104.902 107.647 105.805C109.068 107.07 110.683 107.467 112.369 107.491C113.694 107.491 115.043 107.262 116.417 106.744C116.597 106.672 116.73 106.636 116.694 106.203C116.549 104.011 116.706 101.723 116.983 99.3996C117.031 99.0143 117.019 98.7855 116.742 98.9059C115.694 99.3514 114.658 99.5922 113.622 99.7367C111.622 100.014 109.695 99.8331 107.888 98.8939C106.996 98.4243 106.165 97.75 105.346 96.7386C105.418 98.4724 105.262 100.122 105.491 101.567H105.478Z" fill="white"/>
<path d="M82.5527 155.367C82.0709 155.367 81.577 155.307 81.0952 155.187C69.0368 152.116 56.8338 147.998 45.0164 144.025C33.3555 140.099 21.2971 136.042 9.47966 133.019C6.15488 132.164 3.51676 128.456 3.49267 124.579C3.2397 94.9101 2.95056 65.2535 2.63735 36.4519C2.61326 34.4531 3.27583 32.659 4.50456 31.4188C5.55259 30.3592 6.93792 29.7812 8.41962 29.7812C8.88942 29.7812 9.35921 29.8415 9.82902 29.9498L81.6373 47.4331C84.9861 48.2519 87.6484 51.9484 87.6845 55.8617C87.9254 81.2678 88.1423 112.502 88.347 148.696C88.347 150.719 87.6845 152.513 86.4437 153.754C85.3957 154.801 84.0224 155.379 82.5527 155.379V155.367Z" fill="#49454F"/>
<path d="M8.42087 32.4028C8.67385 32.4028 8.93886 32.4389 9.20388 32.4991C33.1399 38.3269 57.076 44.1546 81.0121 49.9824C83.2166 50.5122 85.0115 53.1491 85.0476 55.8704C85.3247 85.5149 85.5415 119.049 85.7102 148.705C85.7222 151.089 84.373 152.739 82.554 152.739C82.289 152.739 82.024 152.703 81.7469 152.63C57.8711 146.538 34.0073 136.568 10.1435 130.463C7.95106 129.897 6.15613 127.26 6.13204 124.551C5.87907 95.1716 5.60201 65.792 5.27676 36.4124C5.25267 34.0403 6.60188 32.4028 8.42087 32.4028ZM8.42087 27.1289C6.22844 27.1289 4.18054 27.9838 2.63861 29.5491C0.903936 31.295 -0.0236349 33.7514 0.000457748 36.4605C0.325709 65.479 0.614847 95.1235 0.855774 124.587C0.891913 129.693 4.32511 134.401 8.83044 135.557C20.5515 138.555 32.5617 142.6 44.1744 146.514C56.028 150.511 68.2911 154.629 80.4459 157.736C81.1446 157.916 81.8553 158.001 82.554 158.001C84.7223 158.001 86.7702 157.146 88.3122 155.605C90.0468 153.859 90.9985 151.402 90.9864 148.681C90.7937 112.751 90.5648 81.5053 90.3239 55.8342C90.2757 50.6928 86.8064 45.9728 82.2649 44.8771L73.1699 42.6616L10.4567 27.3938C9.78211 27.2252 9.10749 27.153 8.43289 27.153L8.42087 27.1289Z" fill="#49454F"/>
<path d="M45.5601 89.4522C32.6584 86.5383 26.0691 84.973 13.0229 82.4204C12.9024 70.1146 12.8422 63.9859 12.7097 51.8728C12.6495 46.1775 16.3115 42.4328 20.8892 43.4803C30.6105 45.7079 35.4773 46.8397 45.1866 49.0793C45.3191 62.5289 45.4516 75.9906 45.5601 89.4402V89.4522Z" fill="#2769A5"/>
<path d="M78.1098 96.4946C65.0877 93.9419 58.4743 92.3646 45.5727 89.4507C45.4522 76.0011 45.3317 62.5395 45.1992 49.0898C54.9086 51.3294 59.7753 52.4613 69.4967 54.6888C74.0743 55.7364 77.8207 60.7333 77.8689 66.1156C77.9652 77.5544 78.0134 83.647 78.1098 96.4946Z" fill="#2769A5"/>
<path d="M45.9116 133.291C36.3709 130.377 31.4801 128.824 21.7346 126.151C17.1449 124.899 13.3744 119.239 13.3262 113.4C13.2178 100.949 13.1576 94.7364 13.0371 82.3945C26.0833 84.9472 32.6726 86.5125 45.5743 89.4264C45.6947 104.056 45.8152 118.674 45.9116 133.303V133.291Z" fill="#49454F"/>
<path d="M70.1129 140.459C60.3675 137.786 55.4405 136.221 45.8998 133.295C45.8034 118.665 45.683 104.048 45.5625 89.418C58.4641 92.3318 65.0776 93.9092 78.0997 96.4619C78.184 107.756 78.2563 119.062 78.3286 130.357C78.3647 137.027 74.6905 141.711 70.1129 140.459Z" fill="#49454F"/>
<path d="M70.941 144.647C54.4616 139.71 38.0906 134.412 21.6113 129.5C15.9254 127.898 10.613 120.854 10.5527 113.582C10.36 92.5222 10.1552 71.4628 9.93836 50.4155C9.86608 43.2753 14.3835 38.5793 20.0573 39.8918C36.5969 43.7328 53.1245 47.5738 69.6641 51.4028C75.3379 52.7153 80.5661 59.2053 80.6263 65.8759C80.819 87.8745 80.9636 109.885 81.1081 131.884C81.1563 140.276 76.6269 146.26 70.9531 144.647H70.941Z" stroke="white" stroke-width="1.68" stroke-miterlimit="10"/>
<path d="M71.399 110.02C71.2063 111.321 71.134 112.681 70.8449 113.946C68.9174 122.266 64.7012 126.914 58.2323 126.865C49.6794 126.805 41.512 116.426 39.7653 104.614C38.0668 93.139 43.319 83.7833 51.6069 83.1933C60.3405 82.5672 69.0861 91.3329 71.0376 103.639C71.1822 104.518 71.2665 105.409 71.3749 106.288C71.3749 107.516 71.387 108.756 71.399 110.008V110.02ZM53.8234 92.7537C53.8234 93.2354 53.7993 93.729 53.8475 94.2107C53.8957 94.7043 53.7391 94.8729 53.4259 95.0054C51.8117 95.6435 50.8118 97.7146 51.0045 99.9782C51.2696 103.121 52.9922 105.698 55.3412 106.42C56.1965 106.685 56.7989 107.552 56.835 108.612C56.8832 109.647 56.3772 110.43 55.6665 110.418C54.8835 110.418 54.1487 109.599 53.968 108.431C53.9077 108.058 53.7993 107.997 53.5945 107.949C52.8718 107.781 52.1489 107.624 51.4262 107.407C51.0768 107.311 51.0287 107.468 51.0769 107.889C51.3178 110.165 52.1851 111.995 53.6909 113.344C53.9198 113.548 54.0041 113.729 53.992 114.054C53.992 115.198 54.0041 116.354 54.0041 117.51C54.0041 117.847 54.0643 117.991 54.3293 118.064C55.0883 118.244 55.8472 118.437 56.6061 118.654C56.8711 118.726 56.9313 118.605 56.9193 118.268C56.8952 117.148 56.9193 116.041 56.8832 114.921C56.8711 114.475 56.9795 114.295 57.2687 114.186C58.919 113.536 59.9309 111.357 59.7381 109.021C59.4611 105.782 57.7385 103.241 55.3894 102.531C54.5462 102.278 53.9439 101.411 53.8957 100.376C53.8475 99.3521 54.3535 98.6056 55.0642 98.5935C55.8472 98.5935 56.582 99.3762 56.7627 100.532C56.8229 100.905 56.9313 100.954 57.1482 101.002C57.871 101.158 58.6058 101.315 59.3286 101.507C59.6779 101.604 59.7261 101.447 59.6779 101.026C59.437 98.7621 58.5697 96.9921 57.0518 95.7278C56.8229 95.5352 56.7386 95.3666 56.7386 95.0415C56.7386 93.9337 56.7145 92.838 56.7266 91.7423C56.7266 91.4292 56.6663 91.2848 56.4013 91.2246C55.6424 91.0801 54.8835 90.9115 54.1246 90.7188C53.8596 90.6466 53.7993 90.767 53.8114 91.0921C53.8354 91.646 53.8234 92.1878 53.8234 92.7417V92.7537ZM35.6455 57.2574C35.537 57.3537 35.4045 57.3055 35.2841 57.2815C33.2362 56.9925 31.2365 57.0286 29.285 57.4019C26.936 57.8594 24.7676 58.7264 23.0811 60.677C20.9851 63.1092 20.9369 66.6492 22.9848 70.0929C24.2256 72.176 25.8277 73.7051 27.5624 75.0055C30.1403 76.9441 32.8387 78.2205 35.6093 79.0754C39.1389 80.159 42.5842 80.5684 45.933 79.9423C48.2459 79.5088 50.4022 78.666 52.0646 76.7033C53.45 75.0658 54.0643 72.9707 53.4499 70.2735C52.9681 68.1904 51.908 66.5047 50.595 65.0117C47.9809 62.0496 44.9814 60.2796 41.8252 58.9672C41.0663 58.6541 40.2954 58.3892 39.5364 58.1002C38.2475 57.8113 36.9465 57.5223 35.6575 57.2453L35.6455 57.2574ZM21.5995 76.017C21.5874 77.5341 21.9849 78.979 22.6836 80.3517C23.6594 82.2903 24.9845 83.7954 26.4541 85.0837C29.9837 88.1541 33.7662 89.8399 37.6572 90.7911C37.9343 90.8633 38.0186 90.6827 38.0909 90.4419C38.7414 88.5756 39.6208 86.926 40.6688 85.469C41.0422 84.9513 41.4518 84.4696 41.8614 83.9398C41.7771 83.9037 41.7289 83.8676 41.6807 83.8676C39.0425 83.7352 36.3924 83.1211 33.7422 82.0976C29.2971 80.3878 25.129 77.8472 21.5633 73.2235C21.5633 74.2229 21.5995 75.1139 21.5874 76.0049L21.5995 76.017ZM21.8163 98.3046C21.8042 99.6772 22.1295 100.99 22.6957 102.266C23.575 104.241 24.8158 105.818 26.2253 107.167C30.309 111.056 34.7179 113.055 39.2353 114.054C39.5726 114.126 39.6087 113.994 39.428 113.572C38.4523 111.212 37.7175 108.792 37.2476 106.312C37.1633 105.854 36.9947 105.686 36.6815 105.601C35.3925 105.264 34.1156 104.746 32.8387 104.168C28.8032 102.326 25.0326 99.7615 21.7922 95.4027C21.7922 96.4382 21.8283 97.3774 21.8163 98.2925V98.3046ZM21.8765 88.8645C22.3343 91.056 23.4185 92.8019 24.7556 94.3792C26.6228 96.5827 28.755 98.1239 30.9835 99.3882C32.7303 100.376 34.5011 101.158 36.296 101.688C36.5249 101.76 36.7056 101.808 36.6574 101.363C36.4526 99.0872 36.6574 96.9439 36.9826 94.8729C37.0429 94.5237 37.0308 94.307 36.6574 94.2107C35.2841 93.8856 33.9228 93.3558 32.5616 92.7658C29.9355 91.5978 27.3938 90.0686 25.0206 87.9494C23.8401 86.9019 22.7559 85.6978 21.6597 84.2168C21.7561 85.9025 21.5633 87.3474 21.8765 88.8645Z" fill="white"/>
<path d="M87.9276 49.0893C86.5061 49.0893 85.1449 48.9448 83.9764 48.6558L11.3008 30.9799C8.14465 30.2093 7.39776 28.5958 7.33753 27.3797C7.30139 26.6331 7.49414 24.7909 10.1684 23.8156C27.7561 17.458 46.3797 10.7633 67.0994 3.34616C68.7498 2.75616 70.7856 2.67188 71.8457 2.67188C73.2672 2.67188 74.6284 2.81636 75.7848 3.08126C100.13 8.76453 124.464 14.4358 148.81 20.095C151.978 20.8294 152.737 22.4429 152.821 23.659C152.869 24.4056 152.689 26.2599 150.014 27.2472L92.734 48.3909C91.0596 49.005 89.0117 49.1013 87.9396 49.1013L87.9276 49.0893Z" fill="white"/>
<path d="M71.8455 5.31001C73.014 5.31001 74.1945 5.41837 75.1823 5.65919C99.528 11.3425 123.862 17.0137 148.219 22.6729C150.46 23.1906 150.845 24.1419 149.099 24.78C130.005 31.8239 110.912 38.8678 91.8183 45.9237C90.8426 46.285 89.397 46.4656 87.9394 46.4656C86.783 46.4656 85.6024 46.3451 84.6146 46.1043C60.3895 40.2164 36.1643 34.3164 11.9391 28.4284C9.7105 27.8866 9.32502 26.9353 11.0717 26.2972C30.0327 19.4459 49.0056 12.6308 67.9907 5.82776C68.9544 5.47858 70.3879 5.29797 71.8576 5.29797M71.8576 0.0240817C70.3518 0.0240817 68.1473 0.168572 66.2199 0.854899C45.4279 8.29613 26.8043 14.9908 9.2889 21.3243C5.74728 22.6127 4.60287 25.358 4.72333 27.5013C4.79561 28.898 5.53042 32.2694 10.6983 33.5217L83.3739 51.1976C85.0965 51.619 86.807 51.7033 87.9394 51.7033C89.4693 51.7033 91.6979 51.5468 93.6494 50.8243L150.93 29.6806C154.471 28.3682 155.592 25.6108 155.459 23.4555C155.375 22.0588 154.604 18.6994 149.412 17.4953C125.909 12.0408 102.022 6.47797 76.387 0.481633C74.6764 0.0842858 72.9779 0 71.8455 0L71.8576 0.0240817Z" fill="#49454F"/>
</svg>
