<svg width="160" height="158" viewBox="0 0 160 158" fill="none" xmlns="http://www.w3.org/2000/svg">
<path d="M95.2954 155.228C92.444 155.228 90.4469 152.608 90.4238 148.856C90.3314 133.954 90.2506 118.083 90.1583 102.211C90.0659 86.3284 89.9851 70.4454 89.8928 55.532C89.8697 51.6998 91.9014 48.0407 94.6258 47.025L150.938 25.89C151.469 25.6937 152.011 25.5898 152.554 25.5898C153.708 25.5898 154.816 26.0631 155.671 26.9173C156.825 28.0831 157.46 29.8722 157.46 31.973L157.183 119.849C157.183 123.6 155.163 127.236 152.519 128.321C143.365 132.061 134.014 136.863 124.964 141.515C115.821 146.213 106.366 151.072 97.0039 154.882C96.4383 155.112 95.8611 155.228 95.2838 155.228H95.2954Z" fill="#49454F"/>
<path d="M152.566 28.1182C153.94 28.1182 154.944 29.665 154.944 31.962C154.852 61.2578 154.76 90.5536 154.667 119.849C154.667 122.539 153.271 125.286 151.574 125.979C133.068 133.539 114.563 144.99 96.0583 152.539C95.7927 152.643 95.5388 152.7 95.2963 152.7C93.9572 152.7 92.9645 151.154 92.9529 148.834C92.7797 119.03 92.6066 85.3247 92.4334 55.521C92.4219 52.7854 93.8072 50.0382 95.5272 49.3918C114.298 42.3506 133.068 35.3095 151.839 28.2568C152.093 28.1644 152.335 28.1182 152.566 28.1182ZM152.566 23.0625C151.724 23.0625 150.881 23.2126 150.061 23.5242L126.8 32.2506L93.7495 44.6476C89.5359 46.229 87.354 51.3194 87.3771 55.5441C87.4695 70.4344 87.5503 86.3059 87.6427 102.166C87.735 118.049 87.8158 133.943 87.9082 148.857C87.9428 154.686 91.66 157.745 95.3079 157.745C96.2083 157.745 97.1088 157.56 97.9746 157.214C107.429 153.358 116.941 148.476 126.13 143.755C135.135 139.138 144.439 134.347 153.49 130.654C157.761 128.911 159.712 123.832 159.724 119.861L159.862 75.9288L160.001 31.9736C160.001 29.2033 159.112 26.7677 157.473 25.1286C156.145 23.8012 154.402 23.0625 152.566 23.0625Z" fill="#49454F"/>
<path d="M123.731 89.0889C113.734 93.3597 108.735 95.5759 98.7497 99.4313C98.692 88.2578 98.6342 77.0843 98.5765 65.9108C98.5419 60.3241 101.174 54.9451 104.452 53.7562C112.141 50.9628 115.985 49.543 123.673 46.7266C123.696 60.8435 123.708 74.9719 123.731 89.0889Z" fill="#2769A5"/>
<path d="M148.723 78.7451C138.725 82.6004 133.738 84.8051 123.741 89.0875C123.718 74.9706 123.707 60.8422 123.684 46.7252C131.372 43.9088 135.216 42.5005 142.904 39.6956C146.183 38.5067 148.827 41.8772 148.803 47.2331C148.769 59.8148 148.757 66.1288 148.723 78.7336V78.7451Z" fill="#2769A5"/>
<path d="M123.787 131.586C116.203 135.326 112.405 137.265 104.82 140.647C101.588 142.09 98.9443 138.708 98.9212 133.098C98.8635 121.867 98.8058 110.636 98.748 99.3932C108.745 95.5379 113.732 93.3332 123.729 89.0508C123.752 103.225 123.764 117.4 123.787 131.586Z" fill="#49454F"/>
<path d="M142.755 122.539C135.171 125.921 131.373 127.861 123.788 131.601C123.765 117.426 123.754 103.251 123.73 89.0651C133.728 84.7942 138.726 82.578 148.712 78.7227C148.677 91.3621 148.666 97.6876 148.631 110.316C148.619 115.671 145.987 121.097 142.755 122.539Z" fill="#49454F"/>
<path d="M142.835 125.818C129.79 131.762 117.138 138.503 104.105 144.437C100.122 146.214 96.8668 141.978 96.8206 134.971C96.6936 111.828 96.5667 88.6845 96.4397 65.5526C96.4051 58.5922 100.238 51.6088 104.29 50.1429C117.415 45.4103 130.529 40.6546 143.643 35.9105C147.695 34.4445 150.951 38.6923 150.928 45.3872C150.858 67.0647 150.789 88.7537 150.731 110.431C150.708 117.126 146.806 124.04 142.824 125.818H142.835Z" stroke="white" stroke-width="1.68" stroke-miterlimit="10"/>
<path d="M126.766 121.261C124.769 122.219 122.772 123.188 120.786 124.146C119.84 123.95 119.505 122.877 119.551 121.168C119.597 119.402 119.551 117.671 119.551 115.905C119.551 115.443 119.459 115.304 119.216 115.293C118.443 115.258 117.704 115.074 116.988 114.739C116.781 114.647 116.665 114.716 116.503 115.085C115.707 116.886 114.887 118.663 114.079 120.441C113.294 122.161 112.371 122.576 111.574 121.584C110.42 120.129 109.265 118.64 108.099 117.14C107.303 116.113 107.303 114.485 108.076 112.765C108.873 110.999 109.669 109.233 110.489 107.49C110.685 107.063 110.685 106.82 110.57 106.486C110.189 105.435 109.877 104.27 109.646 103.034C109.577 102.642 109.473 102.503 109.196 102.63C108.169 103.104 107.141 103.45 106.114 103.958C105.121 104.454 104.394 104.177 104.001 102.642C103.99 99.0983 103.967 95.5546 103.955 92.0225C104.336 90.1872 105.052 89.333 106.056 89.0098C107.084 88.6866 108.111 88.1903 109.138 87.8094C109.415 87.7055 109.508 87.5093 109.589 87.0476C109.808 85.6278 110.108 84.2195 110.489 82.8459C110.604 82.4189 110.616 82.1649 110.408 81.911C109.565 80.849 108.746 79.7294 107.926 78.6097C107.164 77.5824 107.164 75.9433 107.915 74.3389C109.081 71.8456 110.247 69.3754 111.424 66.9168C112.198 65.3008 113.133 64.966 113.918 65.9934C114.749 67.0784 115.568 68.1634 116.388 69.2716C116.55 69.4909 116.665 69.4908 116.873 69.2138C117.6 68.2673 118.351 67.4247 119.147 66.7321C119.389 66.5243 119.447 66.282 119.447 65.878C119.424 63.8926 119.424 61.9072 119.436 59.9218C119.436 58.2135 120.128 56.8053 121.144 56.4243C122.83 55.7895 124.503 55.1662 126.189 54.5313C127.274 54.1273 127.944 54.993 127.955 56.8168C127.955 58.7329 127.967 60.649 127.955 62.5882C127.955 63.0499 128.048 63.1885 128.29 63.2116C129.052 63.3039 129.791 63.5232 130.495 63.8926C130.714 64.008 130.853 63.9618 131.049 63.5463C131.857 61.8379 132.677 60.1527 133.508 58.479C134.27 56.9322 135.216 56.5744 135.978 57.544C137.156 59.0446 138.333 60.5452 139.499 62.0573C140.261 63.05 140.25 64.6082 139.476 66.1896C138.656 67.8749 137.837 69.5601 137.006 71.2338C136.833 71.5686 136.821 71.7764 136.925 72.0765C137.306 73.1384 137.629 74.2696 137.86 75.4931C137.929 75.8741 138.056 75.9202 138.299 75.8163C139.441 75.3315 140.584 74.8814 141.739 74.4312C142.824 74.0041 143.505 74.8468 143.493 76.6244C143.493 79.3716 143.493 82.1303 143.482 84.8775C143.482 86.6666 142.801 88.0518 141.716 88.5019C140.573 88.9867 139.43 89.4716 138.287 89.9333C138.045 90.0256 137.918 90.1757 137.848 90.6143C137.618 92.0341 137.294 93.4307 136.913 94.8159C136.809 95.1968 136.809 95.4046 136.983 95.6008C137.802 96.5935 138.622 97.6093 139.43 98.6251C140.215 99.5947 140.203 101.141 139.418 102.815C138.264 105.251 137.121 107.686 135.967 110.133C135.182 111.807 134.247 112.246 133.462 111.288C132.654 110.306 131.845 109.337 131.06 108.309C130.864 108.056 130.726 108.125 130.506 108.436C129.814 109.406 129.075 110.249 128.313 110.987C128.071 111.23 127.978 111.438 127.978 111.899C128.001 113.619 127.955 115.385 128.001 117.082C128.048 118.733 127.724 120.106 126.778 121.214L126.766 121.261ZM123.753 105.839C129.156 103.369 133.531 94.0425 133.542 84.9237C133.542 75.7586 129.167 70.1372 123.707 72.3073C118.27 74.4774 113.906 83.7694 113.929 93.2114C113.952 102.677 118.339 108.321 123.765 105.839H123.753ZM116.215 92.2995C116.249 99.4792 119.609 103.773 123.73 101.915C127.874 100.056 131.234 92.8767 131.234 85.8586C131.234 78.8406 127.851 74.5236 123.695 76.2319C119.528 77.9287 116.169 85.1314 116.215 92.3111V92.2995Z" fill="white"/>
<path d="M82.563 155.474C82.0897 155.474 81.6048 155.417 81.1315 155.29C69.0449 152.208 56.7967 148.087 44.964 144.093C33.2699 140.157 21.1717 136.082 9.32755 133.047C6.0375 132.204 3.44009 128.533 3.40545 124.69C3.16303 95.3591 2.87443 65.6132 2.53965 36.2827C2.51656 34.3089 3.17457 32.5429 4.37515 31.3193C5.40257 30.2805 6.76477 29.7148 8.21932 29.7148C8.68108 29.7148 9.14284 29.7726 9.60461 29.888L81.6048 47.4216C84.9179 48.2296 87.5385 51.8887 87.5731 55.7671C87.8155 81.3923 88.0348 112.72 88.2426 148.895C88.2426 150.892 87.5846 152.658 86.3725 153.881C85.3451 154.909 83.9944 155.474 82.563 155.474Z" fill="#49454F"/>
<path d="M8.21979 32.2509C8.47375 32.2509 8.73927 32.2855 9.00478 32.3433C33.0048 38.1839 57.0049 44.0362 81.0165 49.8769C83.2214 50.4194 85.0339 53.0627 85.0569 55.7868C85.334 85.5328 85.5533 119.157 85.715 148.903C85.7265 151.292 84.3758 152.943 82.5519 152.943C82.2864 152.943 82.0209 152.909 81.7438 152.839C57.8015 146.733 33.8707 136.725 9.93985 130.596C7.74648 130.031 5.94561 127.376 5.92252 124.675C5.6801 95.2057 5.3915 65.7368 5.05672 36.2678C5.03363 33.89 6.38428 32.2509 8.20824 32.2509M8.20824 27.1951C6.08414 27.1951 4.07547 28.0378 2.57475 29.5499C0.889319 31.2582 -0.0226602 33.6591 0.000427862 36.314C0.323661 65.2866 0.612262 95.0326 0.866231 124.709C0.912407 129.719 4.27172 134.359 8.68155 135.49C20.4334 138.503 32.4854 142.555 44.1449 146.479C56.0237 150.484 68.3181 154.617 80.497 157.733C81.1781 157.907 81.8708 157.999 82.5519 157.999C84.6644 157.999 86.65 157.168 88.1507 155.656C89.8477 153.947 90.7712 151.546 90.7597 148.868C90.5635 112.82 90.3441 81.4812 90.1017 55.7291C90.0555 50.6733 86.6616 46.0446 82.2056 44.9596L10.1938 27.426C9.53581 27.2644 8.8778 27.1836 8.21979 27.1836L8.20824 27.1951Z" fill="#49454F"/>
<path d="M45.4736 89.345C34.5645 86.8632 23.6207 84.4508 12.6423 82.3269C12.5153 69.5836 12.4576 63.2581 12.3191 50.7687C12.2614 45.4475 15.6899 41.9615 19.9728 42.9426C30.0276 45.2397 35.0608 46.4055 45.1042 48.7141C45.2427 62.2538 45.3697 75.7936 45.4851 89.3334L45.4736 89.345Z" fill="#2769A5"/>
<path d="M78.304 96.3716C67.3141 94.2477 56.3819 91.8237 45.4728 89.342C45.3573 75.8022 45.2303 62.2624 45.0918 48.7227C55.1351 51.0312 60.1683 52.1971 70.2232 54.4941C74.506 55.4752 78.0154 60.1155 78.0616 65.102C78.1655 76.818 78.2117 83.0858 78.3156 96.3832L78.304 96.3716Z" fill="#2769A5"/>
<path d="M45.8084 133.736C35.9498 130.723 30.882 129.119 20.7925 126.395C16.4981 125.229 12.9772 119.919 12.931 114.436C12.8156 101.508 12.7578 95.0672 12.6309 82.3008C23.6092 84.4247 34.553 86.8487 45.4621 89.3189C45.5891 104.128 45.7045 118.926 45.8084 133.736Z" fill="#49454F"/>
<path d="M70.8463 141.106C60.7683 138.37 55.6659 136.754 45.8073 133.741C45.7034 118.932 45.5879 104.134 45.4609 89.3242C56.3701 91.8059 67.3138 94.2299 78.2922 96.3538C78.373 108.081 78.4538 119.82 78.5231 131.548C78.5577 137.839 75.1176 142.26 70.8347 141.094L70.8463 141.106Z" fill="#49454F"/>
<path d="M71.8504 145.397C54.7537 140.295 37.7724 134.789 20.6756 129.688C15.3654 128.198 10.2052 121.642 10.1475 114.82C9.95123 92.9119 9.74344 71.0151 9.51256 49.1068C9.44329 42.435 13.6684 38.0718 18.9556 39.2953C36.11 43.2661 53.2529 47.2484 70.4074 51.2191C75.7061 52.4427 80.7855 58.5142 80.8432 64.6897C81.0395 87.5676 81.2011 110.434 81.3396 133.312C81.3858 141.23 77.1607 146.875 71.8619 145.386L71.8504 145.397Z" stroke="white" stroke-width="1.68" stroke-miterlimit="10"/>
<path d="M49.6511 125.148C47.0421 124.421 44.4447 123.693 41.8358 122.955C40.589 121.916 40.1503 120.508 40.1965 118.742C40.2427 116.929 40.1619 115.082 40.1734 113.282C40.1734 112.809 40.058 112.589 39.7348 112.381C38.7189 111.712 37.7376 110.916 36.8026 110.015C36.5371 109.761 36.3754 109.738 36.1676 109.981C35.1171 111.158 34.0551 112.312 32.993 113.455C31.9656 114.563 30.7419 114.228 29.6914 112.601C28.1561 110.211 26.6092 107.857 25.0738 105.525C24.0233 103.932 24.0002 102.339 25.0276 101.243C26.0781 100.111 27.1287 98.9571 28.2023 97.8605C28.4678 97.5951 28.4678 97.3527 28.2946 96.9371C27.7751 95.6328 27.3711 94.2938 27.0594 92.9318C26.9555 92.4931 26.8285 92.2969 26.4591 92.2276C25.1085 91.9621 23.7463 91.5928 22.3956 91.3735C21.0796 91.1657 20.1214 90.4154 19.6019 88.7071C19.5673 85.3481 19.5327 81.9891 19.498 78.6532C19.9829 77.1642 20.9411 76.8179 22.2571 77.1642C23.6077 77.522 24.9699 77.7298 26.3206 78.0414C26.6784 78.1222 26.817 77.9953 26.9093 77.6143C27.1979 76.4139 27.5789 75.2711 28.0753 74.2207C28.2253 73.886 28.2369 73.6551 27.9598 73.2858C26.8516 71.7275 25.7665 70.1461 24.6813 68.5763C23.677 67.1219 23.6654 65.5867 24.6351 64.5478C26.1474 62.9434 27.6712 61.362 29.2066 59.8037C30.2109 58.7764 31.4346 59.065 32.4735 60.5309C33.5702 62.0777 34.6554 63.6359 35.729 65.2173C35.9483 65.529 36.0984 65.6098 36.3754 65.4828C37.3221 65.0557 38.3033 64.7556 39.3423 64.6056C39.6655 64.5594 39.7348 64.3747 39.7348 63.9822C39.7001 62.0892 39.677 60.2077 39.6655 58.3493C39.6655 56.7448 40.5544 55.8676 41.8704 56.1677C44.0638 56.6525 46.2571 57.1373 48.4505 57.6221C49.8704 57.9338 50.7593 59.1804 50.7709 60.9003C50.7939 62.7125 50.817 64.5478 50.8055 66.3832C50.8055 66.8218 50.9325 67.0065 51.2557 67.2027C52.26 67.7914 53.2297 68.484 54.1533 69.3035C54.4419 69.5574 54.6266 69.6036 54.8805 69.3381C55.9195 68.2185 56.9931 67.145 58.0667 66.083C59.0595 65.1019 60.2832 65.3674 61.299 66.7871C62.869 68.9803 64.4275 71.185 65.9744 73.4243C66.9902 74.8902 66.9902 76.4139 65.9744 77.4758C64.9123 78.5955 63.8387 79.7267 62.7651 80.8348C62.5458 81.0657 62.5227 81.2619 62.6728 81.6313C63.1923 82.9472 63.6194 84.3092 63.9311 85.7059C64.0234 86.133 64.185 86.2715 64.5083 86.3408C66.0205 86.6293 67.5213 86.9641 69.0335 87.2757C70.465 87.5758 71.3654 88.8802 71.377 90.7271C71.4001 93.5666 71.4232 96.4408 71.4347 99.3611C71.4462 101.254 70.5689 102.258 69.1374 101.958C67.6252 101.635 66.1244 101.323 64.6122 100.966C64.3005 100.896 64.1273 100.942 64.035 101.358C63.7464 102.685 63.3308 103.932 62.8344 105.109C62.6959 105.433 62.7074 105.652 62.9383 105.998C64.035 107.695 65.1201 109.415 66.2052 111.146C67.2442 112.809 67.2558 114.517 66.2283 115.729C64.7276 117.495 63.2153 119.249 61.7031 120.992C60.6641 122.181 59.452 121.87 58.4015 120.15C57.3279 118.395 56.2543 116.652 55.2038 114.898C54.9498 114.471 54.7651 114.425 54.4765 114.575C53.5645 115.036 52.6064 115.325 51.6136 115.486C51.2903 115.533 51.1749 115.683 51.1749 116.179C51.2095 118.037 51.1749 119.896 51.2326 121.777C51.3019 123.613 50.8748 124.825 49.6395 125.182L49.6511 125.148ZM45.6107 106.298C52.6525 108.018 58.3784 101.531 58.3207 92.2161C58.2629 82.8548 52.4332 74.4516 45.3221 72.9164C38.234 71.3927 32.5428 77.3143 32.6352 86.4331C32.716 95.5866 38.5573 104.567 45.6107 106.298ZM35.6482 87.1603C35.7405 94.1668 40.1965 100.977 45.5645 102.258C50.9671 103.551 55.3538 98.6339 55.2961 91.5004C55.2384 84.3669 50.7593 77.8452 45.3452 76.6909C39.9195 75.5251 35.5443 80.1538 35.6482 87.1488V87.1603Z" fill="white"/>
<path d="M87.9539 48.8759C86.534 48.8759 85.1718 48.7258 84.0174 48.4488L11.1398 30.7074C8.04602 29.9571 7.31875 28.3873 7.24948 27.1983C7.21485 26.4711 7.39956 24.6936 10.0085 23.747C27.8671 17.2946 46.5454 10.5766 67.0938 3.21227C68.7331 2.62359 70.7533 2.53125 71.8153 2.53125C73.2352 2.53125 74.5859 2.66975 75.7403 2.94678C100.144 8.64895 124.56 14.3396 148.964 20.0071C152.081 20.7228 152.82 22.2926 152.889 23.47C152.935 24.1972 152.762 25.9864 150.142 26.956L92.71 48.1602C91.0477 48.772 89.0044 48.8643 87.9424 48.8643L87.9539 48.8759Z" fill="white"/>
<path d="M71.8284 5.0673C72.9944 5.0673 74.1834 5.18275 75.1762 5.41361C99.5803 11.1158 123.996 16.8064 148.412 22.474C150.651 22.9934 151.055 23.9399 149.289 24.5978C130.137 31.6621 110.997 38.7378 91.8458 45.8021C90.8646 46.1599 89.4216 46.3562 87.9555 46.3562C86.7895 46.3562 85.612 46.2407 84.6192 45.9983C60.3306 40.0884 36.0419 34.1784 11.7417 28.2569C9.51368 27.7144 9.12118 26.7564 10.8759 26.1215C29.8889 19.242 48.9135 12.4086 67.9496 5.58674C68.9193 5.24046 70.3508 5.05578 71.8169 5.05578M71.8169 0C70.3277 0 68.1459 0.138505 66.2411 0.819534C45.381 8.28777 26.7143 15.0057 9.14427 21.3543C5.71569 22.6009 4.60746 25.2558 4.7229 27.3219C4.79216 28.6609 5.50789 31.9276 10.5411 33.1511L83.4186 50.8925C85.1156 51.308 86.8242 51.3888 87.9439 51.3888C89.4562 51.3888 91.6611 51.2388 93.589 50.5231L151.032 29.3189C154.472 28.0492 155.557 25.3828 155.419 23.305C155.338 21.9661 154.588 18.711 149.543 17.5336C126.005 12.0623 102.051 6.48709 76.3191 0.473262C74.6221 0.0808043 72.9367 0 71.8169 0Z" fill="#49454F"/>
</svg>
