<svg width="160" height="158" viewBox="0 0 160 158" fill="none" xmlns="http://www.w3.org/2000/svg">
<path d="M95.2899 155.23C92.4383 155.23 90.4411 152.609 90.418 148.858C90.3256 133.967 90.2448 118.096 90.1524 102.236C90.0601 86.3524 89.9793 70.4577 89.8869 55.5441C89.8638 51.7119 91.8957 48.0527 94.6203 47.0369L150.936 25.9017C151.467 25.7055 152.01 25.6016 152.552 25.6016C153.707 25.6016 154.815 26.0748 155.67 26.929C156.824 28.0949 157.459 29.884 157.459 31.9848L157.182 119.873C157.17 123.613 155.162 127.261 152.518 128.334C143.363 132.074 134.011 136.876 124.96 141.528C115.817 146.226 106.361 151.086 96.9985 154.895C96.4329 155.126 95.8556 155.241 95.2784 155.241L95.2899 155.23Z" fill="#49454F"/>
<path d="M152.565 28.1183C153.939 28.1183 154.943 29.6651 154.943 31.9622C154.851 61.2583 154.759 90.5545 154.666 119.851C154.666 122.54 153.269 125.287 151.572 125.98C133.066 133.541 114.559 144.991 96.053 152.54C95.7875 152.644 95.5335 152.702 95.291 152.702C93.9518 152.702 92.959 151.155 92.9474 148.835C92.7743 119.031 92.6011 85.3255 92.4279 55.5214C92.4164 52.7857 93.8018 50.0385 95.522 49.3921C114.294 42.3509 133.066 35.3096 151.838 28.2569C152.092 28.1645 152.334 28.1183 152.565 28.1183ZM152.565 23.0625C151.722 23.0625 150.88 23.2126 150.06 23.5242L93.744 44.6595C89.5302 46.2408 87.3482 51.3313 87.3713 55.5445C87.4636 70.5389 87.5444 86.5259 87.6368 102.501C87.7292 118.281 87.81 134.049 87.9023 148.858C87.937 154.687 91.6544 157.746 95.3026 157.746C96.2031 157.746 97.1036 157.562 97.9695 157.215C107.425 153.36 116.938 148.477 126.127 143.756C135.132 139.139 144.438 134.349 153.489 130.655C157.76 128.912 159.711 123.833 159.723 119.862L159.861 75.9179L160 31.9737C160 29.2034 159.111 26.7678 157.472 25.1287C156.144 23.8013 154.401 23.0625 152.565 23.0625Z" fill="#49454F"/>
<path d="M123.737 89.0894C113.739 93.3603 108.74 95.5766 98.7536 99.4319C98.6959 88.2583 98.6381 77.0847 98.5804 65.911C98.5458 60.3242 101.178 54.9452 104.457 53.7562C112.146 50.9628 115.99 49.5431 123.679 46.7266C123.702 60.8437 123.714 74.9723 123.737 89.0894Z" fill="#2769A5"/>
<path d="M148.72 78.7456C138.723 82.6009 133.735 84.8057 123.737 89.0881C123.714 74.971 123.703 60.8424 123.68 46.7253C131.369 43.9088 135.213 42.5005 142.902 39.6956C146.181 38.5067 148.824 41.8772 148.801 47.2332C148.767 59.8151 148.755 66.1291 148.72 78.734V78.7456Z" fill="#2769A5"/>
<path d="M123.795 131.587C116.21 135.327 112.411 137.266 104.827 140.648C101.594 142.091 98.9502 138.709 98.9271 133.099C98.8694 121.868 98.8116 110.636 98.7539 99.3933C108.752 95.5379 113.739 93.3332 123.737 89.0508C123.76 103.226 123.772 117.4 123.795 131.587Z" fill="#49454F"/>
<path d="M142.764 122.532C135.179 125.914 131.381 127.853 123.796 131.593C123.773 117.419 123.761 103.244 123.738 89.0574C133.736 84.7865 138.735 82.5702 148.721 78.7148C148.687 91.3544 148.675 97.68 148.641 110.308C148.629 115.664 145.997 121.089 142.764 122.532Z" fill="#49454F"/>
<path d="M142.833 125.819C129.787 131.764 117.134 138.505 104.1 144.438C100.117 146.215 96.861 141.979 96.8148 134.973C96.6878 111.829 96.5608 88.6851 96.4338 65.5529C96.3992 58.5925 100.232 51.609 104.284 50.143C117.411 45.4104 130.526 40.6547 143.641 35.9105C147.693 34.4445 150.949 38.6923 150.926 45.3873C150.856 67.065 150.787 88.7544 150.729 110.432C150.706 117.127 146.804 124.041 142.821 125.819H142.833Z" stroke="white" stroke-width="1.68" stroke-miterlimit="10"/>
<path d="M120.39 123.802C120.483 123.317 120.587 122.878 120.644 122.439C120.829 121.1 120.818 121.135 121.58 120.916C126.856 119.415 131.543 114.752 135.583 107.157C139.012 100.704 141.056 93.5935 141.737 85.8943C142.891 72.7699 139.232 62.1157 132.432 58.5605C129.084 56.8059 125.493 56.9098 121.695 59.0222C119.409 60.2919 117.239 62.2658 115.207 64.8976C114.884 65.3247 114.687 65.4747 114.503 64.8976C114.433 64.6898 114.318 64.5397 114.214 64.3666C113.929 63.928 113.983 63.4585 114.376 62.9583C117.712 58.6528 121.279 55.9979 125.055 55.0629C133.655 52.939 141.217 60.2227 143.076 74.1435C145.431 90.0844 139.451 109.003 127.791 120.085C125.493 122.001 123.184 123.213 120.852 123.755C120.702 123.79 120.552 123.778 120.39 123.79V123.802ZM126.359 98.8109C127.583 97.3796 128.83 96.9179 130.1 97.2065C129.188 92.647 130.088 88.6531 132.778 85.1902C131.508 84.8439 130.608 83.7935 130.088 81.9466C129.569 80.0766 129.615 77.9412 130.123 75.6095C126.671 78.172 125.505 77.8257 123.704 73.7049C122.342 78.8184 120.217 81.2078 117.296 80.8154C117.827 82.8239 117.862 84.9363 117.354 87.2564C116.846 89.6112 115.934 91.458 114.63 92.9586C115.934 93.3626 116.846 94.4246 117.366 96.3176C117.885 98.2222 117.851 100.404 117.32 102.966C118.636 101.443 119.859 100.831 121.083 101.143C122.33 101.466 123.173 102.643 123.738 104.663C124.281 102.147 125.124 100.231 126.348 98.8109H126.359ZM123.785 98.153C120.864 99.4804 118.428 96.3984 118.416 91.3541C118.393 86.3907 120.795 81.2309 123.669 80.0189C126.602 78.7838 129.014 81.8427 129.038 86.8178C129.061 91.6658 126.659 96.8486 123.785 98.153ZM109.504 99.1341C110.577 110.262 116.165 116.587 122.815 114.105C127.179 112.478 130.931 108.23 134.036 101.616C134.475 100.692 134.464 100.692 133.967 100.415C133.806 100.323 133.621 100.265 133.505 100.081C133.24 99.6766 133.067 99.9999 132.836 100.485C129.315 107.734 125.182 111.739 120.46 111.866C114.306 112.028 110.254 103.555 110.901 92.2083C111.351 84.3591 113.544 77.6988 117.343 72.4236C119.628 69.2493 122.122 67.3563 124.777 66.7676C125.089 66.6983 125.239 66.5713 125.239 65.9595C125.239 65.4863 125.343 64.9784 125.447 64.4936C125.539 64.0665 125.493 63.9972 125.251 64.0318C123.889 64.2742 122.526 64.9091 121.175 65.821C113.048 71.9619 108.88 85.675 109.307 95.348C109.284 96.5369 109.377 97.8413 109.504 99.1341ZM107.114 77.2486C107.056 77.3987 107.01 77.5603 106.964 77.7219C104.378 86.0905 103.443 94.5746 104.308 102.886C105.359 112.951 108.511 119.565 113.602 122.705C113.96 122.924 114.098 122.797 114.179 122.059C114.214 121.735 114.306 121.378 114.422 121.077C114.664 120.443 114.595 120.189 114.272 119.992C104.62 112.732 105.913 98.6724 106.121 88.353C106.56 85.1555 107.241 82.0505 108.153 79.0377C108.245 78.7492 108.442 78.4029 108.164 78.2182C107.795 77.9643 107.518 77.5025 107.218 77.0985C107.172 77.1678 107.148 77.2024 107.125 77.2601L107.114 77.2486ZM110.762 65.544C109.053 66.1788 107.703 68.9607 107.714 71.8696C107.714 74.8592 109.065 76.6945 110.774 76.025C112.471 75.3671 113.81 72.5275 113.798 69.6302C113.798 66.7098 112.448 64.9206 110.762 65.544ZM137.939 87.0948C138.112 84.9478 138.204 82.8585 138.077 80.8154C137.615 73.6933 135.607 68.6952 132.062 65.7056C131.82 65.4978 131.577 65.0823 131.312 65.267C131.081 65.417 131.116 66.1096 130.966 66.5251C130.942 66.5713 130.942 66.629 130.919 66.6868C130.608 67.7487 130.608 67.7256 131.15 68.1873C134.452 70.9692 136.276 75.6557 136.565 82.3852C136.634 83.8974 136.565 85.4441 136.449 87.0255C136.426 87.291 136.334 87.6604 136.623 87.6142C137.05 87.545 137.431 87.6835 137.823 87.8682C137.869 87.5911 137.916 87.3487 137.939 87.1178V87.0948ZM135.895 90.2807C134.614 90.8232 133.598 92.924 133.598 95.0594C133.598 97.218 134.579 98.4762 135.837 97.9337C137.119 97.3796 138.123 95.2903 138.135 93.1664C138.135 91.0194 137.154 89.7497 135.895 90.2807ZM115.461 123.374C115.461 125.21 116.257 126.283 117.296 125.81C118.393 125.314 119.236 123.524 119.236 121.689C119.236 119.865 118.428 118.815 117.377 119.3C116.304 119.785 115.472 121.562 115.461 123.363V123.374ZM126.74 65.8441C126.74 67.2985 127.398 68.1758 128.264 67.8411C129.107 67.5063 129.776 66.1558 129.788 64.7475C129.8 63.2816 129.141 62.3927 128.287 62.7044C127.41 63.0276 126.74 64.3897 126.74 65.8325V65.8441ZM119.929 90.6385C119.929 94.2976 121.603 96.5023 123.681 95.602C125.828 94.6785 127.514 91.1002 127.514 87.4872C127.514 83.8858 125.84 81.7157 123.738 82.5815C121.614 83.4587 119.929 87.0255 119.929 90.6385Z" fill="white"/>
<path d="M82.5569 155.476C82.0835 155.476 81.5987 155.418 81.1253 155.291C69.0379 152.209 56.7888 148.088 44.9553 144.094C33.2603 140.158 21.1613 136.084 9.31631 133.048C6.02602 132.205 3.42843 128.535 3.3938 124.691C3.15135 95.3599 2.86273 65.6136 2.52793 36.2828C2.50484 34.309 3.1629 32.5429 4.37511 31.3193C5.4026 30.2805 6.76489 29.7148 8.21955 29.7148C8.68134 29.7148 9.14313 29.7726 9.59338 29.888L81.6102 47.4218C84.9236 48.2298 87.5443 51.889 87.5789 55.7559C87.8213 81.4391 88.0407 112.778 88.2485 148.885C88.2485 150.882 87.5904 152.648 86.3782 153.871C85.3507 154.899 84 155.464 82.5684 155.464L82.5569 155.476Z" fill="#49454F"/>
<path d="M8.22037 32.251C8.47435 32.251 8.73988 32.2856 9.00542 32.3433C33.0072 38.1841 57.0089 44.0364 81.0222 49.8771C83.2273 50.4197 85.0399 53.063 85.063 55.7872C85.34 85.5335 85.5594 119.158 85.721 148.905C85.7326 151.294 84.3818 152.945 82.5577 152.945C82.2922 152.945 82.0266 152.91 81.7496 152.841C57.8055 146.734 33.873 136.727 9.94055 130.597C7.74703 130.032 5.94603 127.377 5.92294 124.676C5.68049 95.2065 5.39187 65.7372 5.05707 36.2679C5.03398 33.8901 6.38474 32.251 8.20882 32.251M8.20882 27.1951C6.08457 27.1951 4.07576 28.0378 2.57493 29.5499C0.889382 31.2583 -0.0226618 33.6592 0.000427892 36.3141C0.323684 65.2871 0.612305 95.0334 0.866292 124.71C0.912472 129.72 4.27203 134.36 8.68216 135.492C20.4348 138.504 32.4877 142.556 44.148 146.481C56.0276 150.486 68.3229 154.618 80.5027 157.735C81.1839 157.908 81.8766 158 82.5577 158C84.6704 158 86.6561 157.169 88.157 155.657C89.8541 153.949 90.7776 151.548 90.7661 148.87C90.5698 112.821 90.3505 81.4819 90.1081 55.7294C90.0619 50.6736 86.6677 46.0449 82.2114 44.9598L10.1945 27.426C9.53648 27.2644 8.87842 27.1836 8.22037 27.1836L8.20882 27.1951Z" fill="#49454F"/>
<path d="M45.4642 89.3455C34.5543 86.8638 23.6098 84.4513 12.6306 82.3274C12.5036 69.5839 12.4459 63.2583 12.3074 50.7688C12.2496 45.4475 15.6785 41.9615 19.9616 42.9426C30.0172 45.2397 35.0507 46.4055 45.0948 48.7141C45.2333 62.2541 45.3603 75.794 45.4757 89.334L45.4642 89.3455Z" fill="#2769A5"/>
<path d="M78.3103 96.3722C67.3196 94.2483 56.3866 91.8242 45.4767 89.3425C45.3612 75.8025 45.2342 62.2626 45.0957 48.7227C55.1397 51.0313 60.1733 52.1971 70.2289 54.4942C74.512 55.4753 78.0216 60.1156 78.0678 65.1022C78.1717 76.8183 78.2179 83.0862 78.3218 96.3837L78.3103 96.3722Z" fill="#2769A5"/>
<path d="M45.8108 133.74C35.9515 130.739 30.8833 129.123 20.7931 126.399C16.4984 125.233 12.9772 119.923 12.931 114.44C12.8156 101.512 12.7579 95.0713 12.6309 82.3047C23.61 84.4286 34.5545 86.8526 45.4644 89.3228C45.5914 104.132 45.7069 118.942 45.8108 133.74Z" fill="#49454F"/>
<path d="M70.852 141.102C60.7733 138.367 55.6705 136.751 45.8112 133.738C45.7073 118.928 45.5918 104.118 45.4648 89.3203C56.3747 91.8021 67.3193 94.2261 78.2984 96.35C78.3792 108.078 78.46 119.817 78.5293 131.545C78.564 137.836 75.1236 142.257 70.8404 141.091L70.852 141.102Z" fill="#49454F"/>
<path d="M71.8567 145.394C54.7473 140.292 37.7763 134.786 20.6784 129.684C15.3678 128.195 10.2072 121.639 10.1495 114.817C9.95322 92.9083 9.74541 71.0112 9.51451 49.1026C9.44524 42.4423 13.6707 38.0675 18.9582 39.291C36.1139 43.2618 53.258 47.2442 70.4136 51.215C75.7127 52.4385 80.7925 58.5102 80.8502 64.6857C81.0464 87.5639 81.2081 110.431 81.3466 133.309C81.3928 141.227 77.1674 146.872 71.8683 145.383L71.8567 145.394Z" stroke="white" stroke-width="1.68" stroke-miterlimit="10"/>
<path d="M41.3078 122.23C41.4233 121.803 41.5503 121.422 41.6311 121.007C41.862 119.749 41.862 119.783 42.8433 120.21C49.7471 123.177 55.8774 122.3 61.1765 117.302C65.679 113.065 68.3228 106.763 69.1425 99.0982C70.4355 86.6318 66.0831 73.8306 56.6394 65.4273C52.2292 61.5835 47.5305 59.3903 42.5777 58.9286C39.5876 58.6516 36.7591 59.1133 34.1269 60.2906C33.6997 60.4753 33.4458 60.4984 33.2149 59.8405C33.1225 59.5981 32.9609 59.3787 32.8223 59.1594C32.4452 58.5669 32.5106 58.159 33.0186 57.9359C37.3595 56.0197 42.012 55.812 46.9532 57.3587C60.0567 61.9067 68.6114 74.4424 70.8049 87.7976C73.7835 101.996 67.6878 123.05 50.9709 124.747C47.9577 124.793 44.956 124.031 41.9197 122.577C41.7234 122.484 41.5272 122.334 41.3194 122.207L41.3078 122.23ZM48.962 101.095C50.5668 100.564 52.1946 101.037 53.8686 102.307C52.6333 96.8589 53.7878 93.523 57.3205 91.93C55.635 90.6603 54.4459 88.9519 53.7532 86.7241C53.0605 84.4848 53.1067 82.407 53.7532 80.4447C49.2391 80.6063 47.7037 79.4289 45.337 74.2461C43.5937 78.2746 40.8229 79.1288 36.99 76.7971C37.6943 79.0711 37.7635 81.1489 37.117 83.0535C36.4705 84.9811 35.2699 86.1354 33.5728 86.6895C35.2929 87.9939 36.4936 89.6676 37.1978 91.907C37.9021 94.1578 37.8559 96.2817 37.1863 98.4403C38.9065 97.9208 40.5112 98.221 42.1159 99.4561C43.7553 100.726 44.8636 102.573 45.614 105.089C46.3067 102.931 47.392 101.626 48.9851 101.095H48.962ZM45.591 98.4749C41.7927 97.6207 38.5717 92.738 38.514 87.7861C38.4562 82.9265 41.5618 79.579 45.3139 80.364C49.1352 81.1604 52.3332 85.8584 52.4024 90.8912C52.4601 95.7969 49.3315 99.3175 45.591 98.4749ZM26.819 89.0789C28.2968 100.495 35.7547 111.195 44.4249 114.127C50.1165 116.043 55.0347 114.681 59.0984 110.076C59.6641 109.429 59.6526 109.429 58.9945 108.737C58.7752 108.517 58.5443 108.298 58.3827 108.009C58.0248 107.363 57.8054 107.582 57.4937 107.906C52.8988 112.823 47.5074 113.55 41.3194 109.868C33.261 105.066 27.835 93.8115 28.6316 83.4113C29.1742 76.2085 32.0257 71.3604 36.9785 68.8325C39.9571 67.3088 43.2127 67.1356 46.6762 68.3246C47.0802 68.4631 47.2765 68.44 47.2765 67.8513C47.2765 67.4011 47.4035 66.9741 47.5305 66.5816C47.6459 66.2353 47.5882 66.1314 47.265 66.016C45.4755 65.3465 43.7091 65.0695 41.9428 65.0695C32.9724 65.0348 26.4265 73.4266 26.5419 85.339C26.5188 86.4587 26.6458 87.763 26.819 89.0905V89.0789ZM23.5518 66.7663C23.4826 66.8817 23.4133 66.9971 23.3556 67.1126C19.996 73.3458 18.7838 80.6756 19.9729 89.1251C21.4045 99.3753 25.6183 108.009 32.3605 115.351C32.8454 115.87 33.0186 115.847 33.111 115.155C33.1571 114.854 33.2726 114.566 33.4227 114.347C33.7344 113.896 33.6536 113.585 33.2149 113.111C24.2907 103.346 19.8575 89.6445 22.2934 76.5432C22.8591 73.8075 23.7365 71.3258 24.9141 69.0633C25.0296 68.844 25.2835 68.6478 24.9257 68.3015C24.4408 67.8282 24.0829 67.2165 23.6788 66.6509C23.6211 66.697 23.5865 66.7086 23.5634 66.7432L23.5518 66.7663ZM28.2737 58.0859C26.034 57.6011 24.2791 59.3557 24.3022 62.0914C24.3253 64.8963 26.1032 67.482 28.3545 67.9552C30.5826 68.4285 32.3259 66.6162 32.2913 63.869C32.2682 61.1102 30.4903 58.5707 28.2737 58.0859ZM64.1205 97.6553C64.3398 95.543 64.4322 93.4306 64.2474 91.2374C63.5778 83.596 60.8879 77.3281 56.2122 72.0876C55.9005 71.7298 55.5657 71.1757 55.2194 71.1642C54.9192 71.1642 54.9769 71.8452 54.7807 72.1569C54.7576 72.1915 54.746 72.2377 54.7229 72.2838C54.3189 73.1034 54.3304 73.0918 55.0346 73.8883C59.3871 78.7941 61.8346 84.6579 62.2733 91.78C62.3656 93.3729 62.2964 94.9312 62.1578 96.4895C62.1347 96.7435 62.0077 97.0551 62.3887 97.2283C62.9429 97.4591 63.4624 97.8977 63.9819 98.371C64.0396 98.1171 64.0974 97.8978 64.1205 97.6669V97.6553ZM61.442 99.4907C59.745 99.0982 58.4288 100.53 58.4404 102.769C58.4404 105.031 59.7565 107.155 61.4305 107.548C63.1161 107.952 64.4437 106.474 64.4322 104.223C64.4322 101.938 63.1161 99.8831 61.442 99.4907ZM34.8081 117.602C34.8081 119.483 35.8817 121.284 37.244 121.688C38.6756 122.115 39.7723 120.961 39.7723 119.045C39.7723 117.14 38.6871 115.374 37.3133 115.004C35.9048 114.624 34.8196 115.755 34.8196 117.602H34.8081ZM49.2276 68.7286C49.2276 70.1253 50.105 71.4066 51.2364 71.649C52.3447 71.8914 53.2106 71.0141 53.2106 69.6751C53.2106 68.2784 52.3447 66.9971 51.2364 66.7432C50.0934 66.4777 49.2276 67.3434 49.2276 68.7286ZM40.4881 88.1786C40.5112 91.7684 42.7163 95.1967 45.4293 95.8431C48.2232 96.501 50.4283 94.1232 50.3936 90.4872C50.3705 86.8742 48.1539 83.5498 45.4178 82.9496C42.647 82.3378 40.465 84.6348 40.4881 88.1786Z" fill="white"/>
<path d="M87.9615 48.8727C86.5415 48.8727 85.1792 48.7226 84.0247 48.4456L11.1421 30.704C8.04803 29.9537 7.32071 28.3839 7.25144 27.1949C7.2168 26.4677 7.40152 24.6785 10.0107 23.7436C27.9052 17.2795 46.5732 10.5615 67.1 3.20856C68.7393 2.61987 70.7597 2.53906 71.8218 2.53906C73.2303 2.53906 74.5926 2.67758 75.7471 2.95461C100.153 8.65686 124.57 14.3476 148.976 20.0152C152.082 20.7308 152.832 22.3007 152.901 23.4781C152.948 24.2053 152.774 25.9945 150.154 26.9641L92.7065 48.1686C91.044 48.7803 89.0006 48.8727 87.9385 48.8727H87.9615Z" fill="white"/>
<path d="M71.8214 5.06738C72.9875 5.06738 74.1766 5.18281 75.1694 5.41367C99.5753 11.1159 123.993 16.8066 148.41 22.4742C150.65 22.9937 151.054 23.9402 149.287 24.5981C130.135 31.6625 110.993 38.7383 91.8402 45.8027C90.8589 46.1605 89.4158 46.3567 87.9496 46.3567C86.7836 46.3567 85.606 46.2413 84.6131 45.9989C60.3228 40.0888 36.0324 34.1788 11.7305 28.2573C9.5023 27.7147 9.10977 26.7567 10.8646 26.1218C29.879 19.2422 48.9049 12.4087 67.9424 5.58681C68.9121 5.24052 70.3437 5.05582 71.8099 5.05582M71.8099 0C70.3206 0 68.1386 0.138506 66.2337 0.819543C45.4068 8.27632 26.7272 14.9944 9.13286 21.3546C5.70404 22.6012 4.59573 25.2561 4.71118 27.3223C4.78045 28.6613 5.49623 31.928 10.5298 33.1515L74.5114 48.723L83.4125 50.8931C85.1096 51.3087 86.8182 51.3895 87.9381 51.3895C89.4504 51.3895 91.6555 51.2394 93.5835 50.5237L151.019 29.3192C154.46 28.0495 155.545 25.3831 155.406 23.3053C155.325 21.9663 154.575 18.7112 149.53 17.5338C126.279 12.1317 101.642 6.39483 76.3008 0.473267C74.6037 0.0808053 72.9182 0 71.7983 0H71.8099Z" fill="#49454F"/>
</svg>
