<svg width="160" height="158" viewBox="0 0 160 158" fill="none" xmlns="http://www.w3.org/2000/svg">
<path d="M95.2864 155.229C92.4346 155.229 90.4372 152.609 90.4141 148.858C90.3217 133.968 90.2409 118.098 90.1486 102.227C90.0562 86.3449 89.9754 70.4627 89.883 55.5501C89.8599 51.718 91.892 48.0591 94.6167 47.0434L150.937 25.9095C151.468 25.7133 152.01 25.6094 152.553 25.6094C153.707 25.6094 154.816 26.0826 155.67 26.9367C156.825 28.1025 157.46 29.8916 157.46 31.9923L157.183 119.875C157.171 123.615 155.162 127.251 152.518 128.336C143.363 132.075 134.011 136.877 124.959 141.529C115.815 146.226 106.359 151.086 96.9951 154.895C96.4294 155.125 95.8521 155.241 95.2748 155.241L95.2864 155.229Z" fill="#49454F"/>
<path d="M152.564 28.1258C153.938 28.1258 154.942 29.6725 154.942 31.9694C154.85 61.2637 154.758 90.5581 154.665 119.852C154.665 122.542 153.268 125.289 151.571 125.981C133.063 133.542 114.555 144.992 96.0478 152.54C95.7822 152.644 95.5282 152.702 95.2857 152.702C93.9464 152.702 92.9535 151.155 92.942 148.835C92.7688 119.033 92.5956 85.3294 92.4224 55.5272C92.4109 52.7917 93.7964 50.0446 95.5167 49.3983C114.29 42.3575 133.063 35.3167 151.836 28.2643C152.09 28.172 152.333 28.1258 152.564 28.1258ZM152.564 23.0703C151.721 23.0703 150.878 23.2204 150.058 23.532L93.7386 44.6659C89.5245 46.2472 87.3423 51.3374 87.3654 55.5619C87.4578 70.3591 87.5386 86.1143 87.631 101.881C87.7233 117.867 87.8042 133.865 87.8965 148.87C87.9312 154.699 91.6489 157.757 95.2973 157.757C96.1979 157.757 97.0984 157.573 97.9643 157.226C107.42 153.371 116.934 148.489 126.124 143.768C135.13 139.151 144.436 134.361 153.487 130.668C157.759 128.925 159.711 123.846 159.722 119.875L159.999 32.0733V31.9925C159.999 29.2224 159.11 26.7869 157.471 25.1479C156.143 23.8206 154.4 23.0819 152.564 23.0819V23.0703Z" fill="#49454F"/>
<path d="M123.736 89.0829C113.738 93.3535 108.739 95.5696 98.7516 99.4247C98.6939 88.2518 98.6362 77.0789 98.5785 65.9059C98.5438 60.3195 101.176 54.9408 104.455 53.7519C112.145 50.9587 115.989 49.539 123.679 46.7227C123.702 60.8389 123.713 74.9666 123.736 89.0829Z" fill="#2769A5"/>
<path d="M148.72 78.7431C138.722 82.5983 133.734 84.8028 123.735 89.085C123.712 74.9688 123.701 60.8411 123.678 46.7248C131.367 43.9085 135.212 42.5004 142.901 39.6956C146.18 38.5067 148.824 41.8771 148.801 47.2327C148.766 59.8138 148.755 66.1274 148.72 78.7316V78.7431Z" fill="#2769A5"/>
<path d="M123.795 131.592C116.209 135.332 112.41 137.271 104.825 140.653C101.592 142.095 98.9482 138.714 98.9251 133.104C98.8674 121.873 98.8097 110.643 98.752 99.4005C108.751 95.5454 113.738 93.3408 123.737 89.0586C123.76 103.233 123.771 117.406 123.795 131.592Z" fill="#49454F"/>
<path d="M142.764 122.533C135.178 125.915 131.38 127.854 123.794 131.594C123.771 117.42 123.759 103.246 123.736 89.0606C133.735 84.79 138.734 82.5739 148.721 78.7188C148.687 91.3576 148.675 97.6827 148.64 110.31C148.629 115.666 145.996 121.09 142.764 122.533Z" fill="#49454F"/>
<path d="M142.834 125.825C129.787 131.769 117.133 138.51 104.098 144.443C100.115 146.22 96.8591 141.984 96.8129 134.978C96.6859 111.836 96.5589 88.6935 96.4319 65.5628C96.3972 58.6028 100.23 51.6197 104.283 50.1538C117.41 45.4215 130.526 40.6661 143.642 35.9222C147.695 34.4563 150.951 38.7039 150.927 45.3984C150.858 67.0748 150.789 88.7628 150.731 110.439C150.708 117.134 146.806 124.048 142.822 125.825H142.834Z" stroke="white" stroke-width="1.68" stroke-miterlimit="10"/>
<path d="M144.992 71.0884C144.876 72.1157 144.772 73.1314 144.657 74.1587C144.507 75.4283 144.218 76.6864 143.964 77.9445C143.906 78.2331 143.814 78.4178 143.629 78.4639C143.525 78.487 143.41 78.5447 143.294 78.5909C136.725 81.211 130.167 84.0042 123.597 86.7513C123.113 86.9591 122.87 87.3053 122.674 88.1479C122.293 89.7754 121.854 91.3798 121.392 93.1919C119.637 86.4512 117.905 79.7682 116.127 72.9352C115.481 76.5595 114.869 80.0106 114.257 83.4733C113.841 85.8395 113.426 88.2287 113.01 90.6064C112.929 91.0912 112.814 91.322 112.525 91.449C109.673 92.6032 106.833 93.7806 103.981 94.9348C103.704 95.0502 103.577 94.9463 103.473 94.5308C102.746 91.726 102.4 88.6442 102.457 85.297C102.596 76.6287 105.517 67.5565 110.332 63.0665C114.476 59.1883 118.148 59.5346 121.242 63.5513C122.224 64.8209 122.986 66.46 123.69 68.2606C123.955 67.7527 124.071 67.1756 124.233 66.6562C125.364 63.1473 126.761 59.9963 128.643 57.5262C131.76 53.4287 134.993 52.009 138.203 53.3479C141.99 54.9292 144.08 59.3037 144.842 65.7328C144.911 66.2868 144.842 66.9217 145.003 67.418C145.003 68.653 145.003 69.888 145.003 71.123L144.992 71.0884ZM116.197 86.1857C115.723 88.8289 115.262 91.4721 114.811 94.1268C114.73 94.6347 114.603 94.8309 114.326 94.9463C112.594 95.6504 110.874 96.4007 109.142 97.1163C107.918 97.6241 106.683 98.132 105.459 98.6399C105.355 98.686 105.205 98.6399 105.148 98.8361C105.078 99.09 105.217 99.1939 105.286 99.3324C105.667 100.106 106.048 100.891 106.452 101.618C107.976 104.365 109.708 106.627 111.521 108.682C115.469 113.183 119.58 117.073 123.563 121.078C123.817 121.332 123.932 121.043 124.105 120.72C127.754 113.587 131.437 106.523 135.085 99.5401C137.325 95.2464 139.473 90.8604 141.309 86.1626C141.701 85.1585 142.059 84.1312 142.486 82.9654C142.267 83.0578 142.163 83.1039 142.047 83.1386C136.332 85.4701 130.606 87.9286 124.891 90.3756C124.614 90.491 124.475 90.7103 124.36 91.172C123.378 95.0271 122.374 98.8938 121.381 102.772C121.323 103.014 121.288 103.28 121.138 103.522C119.568 97.5087 117.998 91.4606 116.416 85.3547C116.254 85.6202 116.254 85.9087 116.208 86.1626L116.197 86.1857Z" fill="white"/>
<path d="M82.5508 155.476C82.0774 155.476 81.5925 155.418 81.1191 155.291C69.0308 152.209 56.7924 148.089 44.9466 144.095C33.2508 140.159 21.1509 136.085 9.30507 133.049C6.01455 132.207 3.41678 128.536 3.38214 124.693C3.12813 94.9481 2.83949 65.2036 2.51621 36.2902C2.49312 34.3165 3.15122 32.5505 4.36352 31.327C5.39108 30.2882 6.75347 29.7227 8.20823 29.7227C8.67006 29.7227 9.13188 29.7804 9.59371 29.8958L81.6041 47.4285C84.9177 48.2365 87.5385 51.8954 87.5732 55.7621C87.8156 81.4436 88.035 112.781 88.2428 148.885C88.2428 150.882 87.5847 152.648 86.3724 153.872C85.3449 154.899 83.994 155.464 82.5624 155.464L82.5508 155.476Z" fill="#49454F"/>
<path d="M8.20991 32.2469C8.46392 32.2469 8.72947 32.2816 8.99502 32.3393C32.9985 38.1797 57.0019 44.0316 81.0169 49.872C83.2221 50.4145 85.0348 53.0577 85.0579 55.7817C85.335 85.5261 85.5544 119.149 85.716 148.893C85.7275 151.283 84.3767 152.933 82.5525 152.933C82.2869 152.933 82.0214 152.898 81.7443 152.829C57.7986 146.723 33.8644 136.716 9.93022 130.587C7.73654 130.022 5.93542 127.367 5.91232 124.666C5.66986 95.1986 5.38122 65.7311 5.0464 36.2636C5.02331 33.8859 6.37415 32.2469 8.19837 32.2469M8.19837 27.1914C6.07396 27.1914 4.06502 28.034 2.56408 29.546C0.889957 31.2658 -0.0336968 33.6666 0.000940186 36.3214C0.324219 65.431 0.612861 95.1755 0.866866 124.712C0.913048 129.722 4.27284 134.362 8.68328 135.493C20.4368 138.505 32.4905 142.557 44.1516 146.481C56.0321 150.486 68.3282 154.618 80.5089 157.735C81.1901 157.908 81.8828 158 82.564 158C84.6769 158 86.6628 157.169 88.1637 155.657C89.8609 153.949 90.7846 151.548 90.773 148.87C90.5767 112.731 90.3458 81.394 90.1149 55.7355C90.0687 50.68 86.6743 46.0515 82.2177 44.9665L10.1958 27.4338C9.53766 27.2722 8.87956 27.1914 8.22146 27.1914H8.19837Z" fill="#49454F"/>
<path d="M45.4568 89.3387C34.5461 86.8571 23.6008 84.4448 12.6209 82.321C12.4939 69.5783 12.4361 63.2531 12.2976 50.7644C12.2399 45.4434 15.6689 41.9576 19.9524 42.9387C30.0087 45.2356 35.0426 46.4014 45.0873 48.7099C45.2258 62.249 45.3529 75.7881 45.4683 89.3272L45.4568 89.3387Z" fill="#2769A5"/>
<path d="M78.3028 96.3653C67.3114 94.2415 56.3776 91.8177 45.4669 89.3361C45.3515 75.797 45.2245 62.2579 45.0859 48.7188C55.1307 51.0272 60.1646 52.193 70.2209 54.4899C74.5043 55.471 78.0142 60.111 78.0604 65.0973C78.1643 76.8127 78.2105 83.0801 78.3144 96.3769L78.3028 96.3653Z" fill="#2769A5"/>
<path d="M45.8033 133.729C35.9433 130.728 30.8748 129.112 20.7839 126.388C16.4889 125.223 12.9675 119.913 12.9213 114.431C12.8058 101.503 12.7481 95.0626 12.6211 82.2969C23.601 84.4207 34.5463 86.8445 45.457 89.3146C45.584 104.123 45.6994 118.921 45.8033 133.729Z" fill="#49454F"/>
<path d="M70.846 141.095C60.7666 138.36 55.6634 136.744 45.8034 133.731C45.6995 118.922 45.584 104.125 45.457 89.3164C56.3677 91.798 67.313 94.2219 78.2929 96.3457C78.3737 108.073 78.4546 119.811 78.5238 131.538C78.5585 137.829 75.1179 142.249 70.8344 141.084L70.846 141.095Z" fill="#49454F"/>
<path d="M71.8494 145.388C54.7503 140.286 37.7666 134.781 20.6675 129.679C15.3564 128.19 10.1955 121.634 10.1378 114.813C9.94153 92.9054 9.73371 71.0096 9.50279 49.1024C9.43352 42.4309 13.6592 38.0679 18.9472 39.2914C36.104 43.262 53.2493 47.2441 70.4062 51.2146C75.7057 52.4381 80.7858 58.5093 80.8435 64.6845C81.0398 87.5613 81.2014 110.427 81.34 133.303C81.3861 141.221 77.1604 146.866 71.861 145.377L71.8494 145.388Z" stroke="white" stroke-width="1.68" stroke-miterlimit="10"/>
<path d="M73.293 85.968C73.1544 86.9376 73.0159 87.9071 72.8773 88.8882C72.7041 90.1002 72.3231 91.1967 72.0114 92.3394C71.9421 92.6048 71.8151 92.7318 71.5727 92.6395C71.4341 92.5933 71.284 92.5818 71.1339 92.5471C62.4862 90.7812 53.827 88.8536 45.2601 86.926C44.6251 86.7875 44.3133 86.9491 44.0593 87.6417C43.5744 88.9806 43.0087 90.2618 42.4199 91.7161C40.0761 83.7519 37.7554 76.1455 35.377 68.5045C34.5572 71.5286 33.7721 74.4027 32.9986 77.3113C32.4675 79.2966 31.9248 81.2934 31.4053 83.3018C31.3014 83.7057 31.1513 83.8558 30.7587 83.775C27.0179 82.9439 23.2656 82.1475 19.5132 81.3973C19.1438 81.328 18.9821 81.1549 18.8436 80.6817C17.8738 77.5768 17.4119 74.4719 17.4697 71.367C17.6198 63.3336 21.4183 56.616 27.7107 55.4502C33.1256 54.446 37.9401 57.1008 42.0158 62.9065C43.3089 64.7418 44.3249 66.7963 45.2485 68.9778C45.5949 68.6661 45.7335 68.1814 45.9528 67.8005C47.4076 65.1919 49.2203 63.1028 51.6679 61.9716C55.7205 60.1018 59.9577 60.8405 64.1834 64.1531C69.1712 68.0659 71.9768 73.5254 73.039 80.4393C73.1313 81.0395 73.0621 81.6281 73.2699 82.2283C73.2699 83.4633 73.293 84.7099 73.3045 85.968H73.293ZM35.5617 81.2241C34.9613 83.4403 34.361 85.6795 33.7837 87.9418C33.6682 88.3804 33.5181 88.4842 33.1371 88.3919C30.8626 87.861 28.5997 87.3762 26.3136 86.8914C24.6972 86.5451 23.0693 86.1989 21.4529 85.8641C21.3144 85.8411 21.1181 85.7026 21.0488 85.8526C20.9564 86.0488 21.1412 86.245 21.2335 86.4182C21.7416 87.3993 22.238 88.4035 22.7807 89.373C24.8012 93.0204 27.1103 96.4253 29.5118 99.7726C34.7535 107.09 40.2031 114.362 45.4217 122.13C45.7566 122.626 45.9066 122.419 46.126 122.211C50.8597 117.767 55.6627 113.277 60.4426 108.672C63.3752 105.844 66.1693 102.751 68.5708 99.1031C69.0788 98.3298 69.5406 97.4872 70.0948 96.5639C69.8062 96.5061 69.6676 96.4715 69.5175 96.4484C61.9782 94.8671 54.4389 93.1704 46.9688 91.4737C46.6109 91.3929 46.4262 91.4968 46.2761 91.8777C45.0176 95.0172 43.7361 98.1567 42.466 101.319C42.3852 101.515 42.339 101.758 42.1543 101.896C40.053 94.6017 37.9517 87.5378 35.8388 80.5893C35.631 80.7278 35.631 81.0164 35.5733 81.2241H35.5617Z" fill="white"/>
<path d="M87.9555 48.8815C86.5354 48.8815 85.173 48.7315 84.0184 48.4545L11.1306 30.714C8.03637 29.9637 7.30899 28.394 7.23972 27.2051C7.20508 26.4779 7.38981 24.6889 9.99913 23.754C27.5024 17.4288 46.1833 10.7112 67.0925 3.22023C68.732 2.63158 70.7525 2.55078 71.8147 2.55078C73.2232 2.55078 74.5856 2.68929 75.7402 2.9663C100.148 8.66819 124.567 14.3585 148.974 20.0258C152.08 20.753 152.831 22.3112 152.9 23.4885C152.946 24.2157 152.773 26.0047 150.152 26.9743L92.7008 48.1774C91.0382 48.7892 88.9946 48.8815 87.9324 48.8815H87.9555Z" fill="white"/>
<path d="M71.8148 5.06706C72.9809 5.06706 74.1701 5.18249 75.163 5.41333C99.5706 11.1152 123.99 16.8056 148.409 22.4728C150.649 22.9922 151.053 23.9387 149.286 24.5966C130.144 31.6605 110.989 38.7359 91.8465 45.7998C90.8652 46.1576 89.4219 46.3538 87.9556 46.3538C86.7895 46.3538 85.6119 46.2384 84.6189 45.996C60.3269 40.0864 36.0348 34.1767 11.7311 28.2555C9.50281 27.713 9.11026 26.755 10.8652 26.1202C29.8809 19.241 48.9082 12.408 67.947 5.58647C68.9168 5.2402 70.3485 5.05552 71.8148 5.05552M71.8148 0C70.3254 0 68.1433 0.138509 66.2382 0.819504C45.3983 8.28736 26.7174 15.005 9.14489 21.3532C5.71583 22.5998 4.60744 25.2545 4.7229 27.3206C4.79218 28.6595 5.50801 31.926 10.5419 33.1495L27.5602 37.2931L83.4297 50.89C85.127 51.3055 86.8357 51.3863 87.9556 51.3863C89.4681 51.3863 91.6733 51.2362 93.6015 50.5206L148.778 30.1485L151.041 29.3174C154.482 28.0478 155.567 25.3815 155.429 23.3039C155.348 21.965 154.597 18.71 149.552 17.5327C125.987 12.0617 102.03 6.47522 76.3176 0.473234C74.6204 0.0807958 72.9347 0 71.8148 0Z" fill="#49454F"/>
</svg>
