<svg width="160" height="155" viewBox="0 0 160 155" fill="none" xmlns="http://www.w3.org/2000/svg">
<path d="M93.498 151.917C92.3707 151.917 91.2993 151.459 90.4845 150.62C89.346 149.458 88.7322 147.658 88.7545 145.534L89.9264 56.2845C89.9711 52.495 92.0471 48.9067 94.7481 47.9453L151.257 27.9245C151.76 27.7457 152.262 27.6562 152.764 27.6562C153.914 27.6562 155.008 28.1257 155.845 28.9753C156.983 30.1379 157.586 31.9376 157.541 34.028L155.599 121.735C155.521 125.446 153.467 129.001 150.833 130.029L95.0941 151.604C94.5695 151.805 94.0226 151.917 93.4869 151.917H93.498Z" fill="#49454F"/>
<path d="M152.775 30.1071C154.159 30.1071 155.153 31.6721 155.108 33.9861C154.461 63.218 153.813 92.461 153.166 121.693C153.11 124.376 151.67 127.092 149.963 127.752C131.379 134.939 112.807 142.127 94.2234 149.326C93.9779 149.427 93.7323 149.472 93.4979 149.472C92.1474 149.472 91.1652 147.907 91.1987 145.57C91.5894 115.824 91.98 86.0669 92.3707 56.3208C92.4041 53.5821 93.8439 50.8769 95.5739 50.262C114.414 43.5885 133.243 36.9149 152.083 30.2413C152.329 30.1519 152.563 30.1183 152.786 30.1183M152.786 25.2221C152.005 25.2221 151.224 25.3563 150.454 25.6245L93.9444 45.6453C89.7812 47.1209 87.549 52.0953 87.4932 56.2537L86.3213 145.503C86.2878 148.287 87.1472 150.712 88.7544 152.333C90.038 153.641 91.7233 154.357 93.5091 154.357C94.3462 154.357 95.1833 154.2 95.9981 153.887L123.868 143.1L151.737 132.313C155.767 130.748 157.965 125.84 158.055 121.794L159.997 34.0867C160.052 31.3256 159.204 28.911 157.608 27.2678C156.313 25.9375 154.595 25.2109 152.786 25.2109V25.2221Z" fill="#49454F"/>
<path d="M80.8294 151.917C80.3271 151.917 79.8249 151.85 79.3226 151.705C55.5826 145.154 31.8538 138.603 8.12502 132.03C4.89942 131.136 2.3993 127.458 2.44395 123.658C2.75646 94.1127 3.02433 64.4225 3.25872 35.4142C3.2922 31.7812 5.69187 29.0312 8.86166 29.0312C9.3416 29.0312 9.83269 29.0983 10.3238 29.2213L81.7334 48.0907C84.9814 48.9514 87.5038 52.618 87.4703 56.4522C87.1913 85.6282 86.8453 115.598 86.4435 145.523C86.3877 149.223 84.0327 151.906 80.8294 151.906V151.917Z" fill="#49454F"/>
<path d="M8.86275 31.4894C9.13062 31.4894 9.40965 31.5229 9.69984 31.6012C33.5068 37.8947 57.3026 44.1771 81.1095 50.4594C83.2971 51.0407 85.0494 53.7123 85.0271 56.4287C84.7481 86.1189 84.4021 115.798 84.0003 145.488C83.9668 147.858 82.6163 149.468 80.8305 149.468C80.5514 149.468 80.2612 149.434 79.971 149.345C56.2422 142.794 32.5023 136.244 8.77346 129.671C6.59701 129.067 4.85586 126.384 4.87818 123.679C5.1907 94.2681 5.45857 64.8462 5.69295 35.4354C5.71527 33.0879 7.06578 31.4782 8.85158 31.4782M8.85158 26.582C4.2978 26.582 0.837809 30.3716 0.804325 35.3907C0.5811 64.4102 0.31323 94.1004 0.000715594 123.634C-0.0550906 128.575 3.15935 133.203 7.47875 134.388C31.2076 140.95 54.9475 147.511 78.6763 154.062C79.3907 154.263 80.1161 154.353 80.8305 154.353C85.3508 154.353 88.8107 150.574 88.8777 145.555C89.2795 115.753 89.6255 85.7836 89.9046 56.4734C89.9492 51.499 86.7013 46.8711 82.3484 45.7197L70.3612 42.5562L10.9387 26.8727C10.2467 26.6938 9.55474 26.6044 8.86275 26.6044L8.85158 26.582Z" fill="#49454F"/>
<path d="M88.4204 49.5193C86.9025 49.5193 85.3846 49.3404 84.1568 49.0163L11.8766 29.9345C8.8519 29.1296 8.1599 27.587 8.12642 26.4356C8.10409 25.7314 8.31616 23.9875 10.8944 23.1156C28.518 17.1015 47.2466 10.7521 68.1516 3.69847C69.5802 3.21779 71.2879 3.11719 72.4598 3.11719C73.9778 3.11719 75.4957 3.28487 76.7346 3.60904C100.943 9.76842 125.152 15.9054 149.372 22.0201C152.408 22.7914 153.111 24.3229 153.167 25.4854C153.2 26.1897 152.988 27.9335 150.421 28.839L92.7956 48.9157C91.6572 49.3069 90.1058 49.5305 88.4316 49.5305L88.4204 49.5193Z" fill="white"/>
<path d="M72.4602 5.56807C73.7326 5.56807 75.0497 5.70222 76.1323 5.98168C100.341 12.1411 124.561 18.2781 148.77 24.4039C151.002 24.9628 151.37 25.9242 149.607 26.539C130.398 33.235 111.19 39.9197 91.9813 46.6157C91.066 46.9287 89.7713 47.0963 88.4208 47.0963C87.1596 47.0963 85.8537 46.951 84.7823 46.6716C60.6963 40.311 36.5992 33.9504 12.5132 27.5898C10.3033 27.0085 9.93494 26.0472 11.6873 25.4435C30.7618 18.9376 49.8476 12.4764 68.9445 6.03757C69.8485 5.73575 71.1321 5.57925 72.4714 5.57925M72.4714 0.683054C71.1097 0.683054 69.123 0.806017 67.3819 1.39848C46.4657 8.44096 27.7371 14.7904 10.1024 20.7932C6.73166 21.9446 5.61554 24.5045 5.68251 26.5167C5.72715 27.8245 6.36334 31.0104 11.252 32.296L83.521 51.3777C85.3515 51.8584 87.1931 51.959 88.4097 51.959C89.7825 51.959 91.8027 51.8249 93.5773 51.21L145.444 33.1455L151.203 31.1334C154.574 29.9596 155.678 27.3886 155.589 25.3653C155.533 24.0574 154.864 20.8715 149.953 19.6307C126.592 13.7396 102.841 7.71435 77.3377 1.2308C75.5073 0.761303 73.6768 0.671875 72.4714 0.671875V0.683054Z" fill="#49454F"/>
<path d="M44.0767 88.7588C32.4913 85.6288 26.6987 84.0638 15.1133 80.9338C15.2137 69.7105 15.2695 64.1101 15.3588 52.9874C15.4035 48.0577 18.5844 44.9165 22.4797 45.945C31.2636 48.2701 35.65 49.4327 44.4339 51.7578C44.3223 64.0877 44.1995 76.4288 44.0767 88.7588Z" fill="#2769A5"/>
<path d="M74.7916 97.0525C63.2062 93.9225 57.4135 92.3575 45.8281 89.2387C45.9509 76.8976 46.0737 64.5677 46.1853 52.2266C54.9692 54.5517 59.3556 55.7143 68.1395 58.0394C72.0347 59.0678 75.1487 63.9193 75.0929 68.8826C74.9813 80.0947 74.9143 85.7398 74.7916 97.0525Z" fill="#49454F"/>
<path d="M43.6296 128.387C34.868 125.972 30.4928 124.765 21.7424 122.35C17.8583 121.277 14.7555 116.37 14.8113 111.384C14.9229 100.138 14.9787 94.5045 15.0903 83.2812C26.6757 86.4112 32.4684 87.9762 44.0426 91.1174C43.9087 103.537 43.7747 115.967 43.6296 128.387Z" fill="#2769A5"/>
<path d="M67.2798 134.903C58.5182 132.488 54.143 131.281 45.3926 128.866C45.5377 116.436 45.6716 104.016 45.8055 91.5859C57.3909 94.7159 63.1836 96.2809 74.769 99.4109C74.635 110.724 74.5681 116.402 74.4341 127.737C74.3672 132.756 71.1751 135.965 67.2909 134.903H67.2798Z" fill="#49454F"/>
<path d="M68.0169 138.289C52.3242 133.963 36.6203 129.625 20.9276 125.288C16.0836 123.947 12.1995 117.821 12.2665 111.594C12.4674 91.5066 12.6571 71.4076 12.8245 51.3197C12.8803 45.1604 16.8537 41.2479 21.7201 42.5334C37.4574 46.6918 53.2059 50.8502 68.9433 55.0198C73.8096 56.3054 77.6937 62.353 77.6379 68.557C77.4258 88.8237 77.1915 109.09 76.9459 129.346C76.8678 135.628 72.872 139.63 68.0169 138.289Z" stroke="white" stroke-width="1.68" stroke-miterlimit="10"/>
<path d="M42.6137 53.9453C32.0886 60.44 26.8317 63.7042 16.3066 70.2101C24.8673 88.4758 33.3722 106.764 41.8436 125.074C42.1226 101.365 42.3793 77.6662 42.6137 53.9565V53.9453ZM25.3361 75.3857C30.0796 72.4458 32.457 70.9702 37.2005 68.0303C37.1112 78.7617 37.0219 89.4819 36.9215 100.213C32.2895 90.2532 29.9792 85.2788 25.3361 75.3857Z" fill="#49454F"/>
<path d="M38.2031 57.5C38.6607 58.4725 38.8951 58.9644 39.3527 59.9369" stroke="white" stroke-width="0.56" stroke-miterlimit="10"/>
<path d="M34.6211 59.7109C35.0787 60.6835 35.3131 61.1753 35.7707 62.159" stroke="white" stroke-width="0.56" stroke-miterlimit="10"/>
<path d="M31.0273 61.9375C31.485 62.91 31.7193 63.4019 32.177 64.3856" stroke="white" stroke-width="0.56" stroke-miterlimit="10"/>
<path d="M27.4453 64.1484C27.9029 65.1321 28.1373 65.6128 28.5949 66.5965" stroke="white" stroke-width="0.56" stroke-miterlimit="10"/>
<path d="M23.8516 66.375C24.3092 67.3587 24.5436 67.8394 25.0012 68.8231" stroke="white" stroke-width="0.56" stroke-miterlimit="10"/>
<path d="M20.2676 68.5859C20.7252 69.5696 20.9596 70.0503 21.4172 71.034" stroke="white" stroke-width="0.56" stroke-miterlimit="10"/>
<path d="M36.418 58.6055C37.2327 60.3381 37.6457 61.2101 38.4605 62.9539" stroke="white" stroke-width="0.56" stroke-miterlimit="10"/>
<path d="M32.8262 60.8203C33.6409 62.553 34.0539 63.4249 34.8687 65.1688" stroke="white" stroke-width="0.56" stroke-miterlimit="10"/>
<path d="M29.2422 63.043C30.057 64.7868 30.4699 65.6476 31.2847 67.3914" stroke="white" stroke-width="0.56" stroke-miterlimit="10"/>
<path d="M25.6484 65.2695C26.4632 67.0134 26.8762 67.8853 27.6909 69.618" stroke="white" stroke-width="0.56" stroke-miterlimit="10"/>
<path d="M22.0664 67.4805C22.8812 69.2243 23.2941 70.0962 24.1089 71.8401" stroke="white" stroke-width="0.56" stroke-miterlimit="10"/>
<path d="M20.6248 73.6211C19.9551 74.0347 19.6091 74.2471 18.9395 74.6607" stroke="white" stroke-width="0.56" stroke-miterlimit="10"/>
<path d="M23.0682 78.8438C22.3985 79.2574 22.0525 79.4698 21.3828 79.8945" stroke="white" stroke-width="0.56" stroke-miterlimit="10"/>
<path d="M25.5135 84.0625C24.8438 84.4761 24.4978 84.6885 23.8281 85.1133" stroke="white" stroke-width="0.56" stroke-miterlimit="10"/>
<path d="M27.9568 89.3047C27.2872 89.7295 26.9412 89.9307 26.2715 90.3555" stroke="white" stroke-width="0.56" stroke-miterlimit="10"/>
<path d="M30.4021 94.5352C29.7325 94.9599 29.3865 95.1612 28.7168 95.5859" stroke="white" stroke-width="0.56" stroke-miterlimit="10"/>
<path d="M32.8455 99.793C32.1758 100.218 31.8298 100.419 31.1602 100.844" stroke="white" stroke-width="0.56" stroke-miterlimit="10"/>
<path d="M35.2791 105.035C34.6094 105.46 34.2634 105.661 33.5938 106.086" stroke="white" stroke-width="0.56" stroke-miterlimit="10"/>
<path d="M37.7127 110.285C37.0319 110.71 36.697 110.911 36.0273 111.336" stroke="white" stroke-width="0.56" stroke-miterlimit="10"/>
<path d="M40.1463 115.551C39.4766 115.976 39.1306 116.177 38.4609 116.602" stroke="white" stroke-width="0.56" stroke-miterlimit="10"/>
<path d="M23.1586 75.4219C21.9532 76.1708 21.3617 76.5397 20.1562 77.2775" stroke="white" stroke-width="0.56" stroke-miterlimit="10"/>
<path d="M25.602 80.6445C24.3966 81.3935 23.805 81.7624 22.5996 82.5002" stroke="white" stroke-width="0.56" stroke-miterlimit="10"/>
<path d="M28.0473 85.8594C26.8419 86.6083 26.2503 86.9772 25.0449 87.7262" stroke="white" stroke-width="0.56" stroke-miterlimit="10"/>
<path d="M30.4907 91.1055C29.2852 91.8544 28.6937 92.2233 27.4883 92.9723" stroke="white" stroke-width="0.56" stroke-miterlimit="10"/>
<path d="M32.936 96.3477C31.7306 97.0966 31.139 97.4655 29.9336 98.2145" stroke="white" stroke-width="0.56" stroke-miterlimit="10"/>
<path d="M35.3696 101.59C34.1641 102.339 33.5726 102.708 32.3672 103.457" stroke="white" stroke-width="0.56" stroke-miterlimit="10"/>
<path d="M37.8129 106.844C36.6075 107.593 36.016 107.962 34.8105 108.711" stroke="white" stroke-width="0.56" stroke-miterlimit="10"/>
<path d="M40.2465 112.109C39.0411 112.858 38.4496 113.227 37.2441 113.976" stroke="white" stroke-width="0.56" stroke-miterlimit="10"/>
<path d="M54.4889 57.4023C58.0047 58.3413 59.7681 58.7997 63.2839 59.7387C63.0496 83.4148 62.7928 107.091 62.5026 130.767C58.9869 129.806 57.2345 129.314 53.7188 128.353C53.9978 104.71 54.2545 81.0561 54.4777 57.4135L54.4889 57.4023Z" fill="#2769A5"/>
<path d="M59.2227 124.852C60.216 125.12 60.7071 125.265 61.7005 125.533" stroke="white" stroke-width="0.56" stroke-miterlimit="10"/>
<path d="M59.3105 118.047C60.3039 118.315 60.795 118.449 61.7883 118.729" stroke="white" stroke-width="0.56" stroke-miterlimit="10"/>
<path d="M59.3887 111.238C60.382 111.507 60.8731 111.641 61.8665 111.909" stroke="white" stroke-width="0.56" stroke-miterlimit="10"/>
<path d="M59.4668 104.43C60.4601 104.698 60.9512 104.832 61.9446 105.1" stroke="white" stroke-width="0.56" stroke-miterlimit="10"/>
<path d="M59.5449 97.6211C60.5383 97.8894 61.0294 98.0235 62.0227 98.2918" stroke="white" stroke-width="0.56" stroke-miterlimit="10"/>
<path d="M59.6113 90.8359C60.6047 91.1042 61.0958 91.2384 62.0891 91.5066" stroke="white" stroke-width="0.56" stroke-miterlimit="10"/>
<path d="M59.6914 84.0508C60.6848 84.3191 61.1759 84.4532 62.1692 84.7215" stroke="white" stroke-width="0.56" stroke-miterlimit="10"/>
<path d="M59.7578 77.2773C60.7512 77.5456 61.2534 77.6798 62.2468 77.9369" stroke="white" stroke-width="0.56" stroke-miterlimit="10"/>
<path d="M59.8242 70.5156C60.8176 70.7839 61.3198 70.9181 62.3132 71.1752" stroke="white" stroke-width="0.56" stroke-miterlimit="10"/>
<path d="M59.8906 63.7734C60.884 64.0417 61.3862 64.1647 62.3796 64.433" stroke="white" stroke-width="0.56" stroke-miterlimit="10"/>
<path d="M57.3359 120.918C59.0994 121.399 59.9812 121.645 61.7446 122.125" stroke="white" stroke-width="0.56" stroke-miterlimit="10"/>
<path d="M57.4238 114.109C59.1873 114.59 60.069 114.836 61.8325 115.317" stroke="white" stroke-width="0.56" stroke-miterlimit="10"/>
<path d="M57.502 107.301C59.2654 107.781 60.1472 108.016 61.9106 108.497" stroke="white" stroke-width="0.56" stroke-miterlimit="10"/>
<path d="M57.5703 100.504C59.3338 100.985 60.2155 101.219 61.979 101.7" stroke="white" stroke-width="0.56" stroke-miterlimit="10"/>
<path d="M57.6465 93.7109C59.41 94.1916 60.2917 94.4264 62.0552 94.907" stroke="white" stroke-width="0.56" stroke-miterlimit="10"/>
<path d="M57.7148 86.9258C59.4783 87.4065 60.3601 87.6412 62.1235 88.1107" stroke="white" stroke-width="0.56" stroke-miterlimit="10"/>
<path d="M57.793 80.1367C59.5564 80.6062 60.4382 80.8522 62.2128 81.3216" stroke="white" stroke-width="0.56" stroke-miterlimit="10"/>
<path d="M57.8594 73.375C59.6229 73.8445 60.5046 74.0792 62.2792 74.5599" stroke="white" stroke-width="0.56" stroke-miterlimit="10"/>
<path d="M57.9258 66.6367C59.6893 67.1062 60.571 67.341 62.3456 67.8105" stroke="white" stroke-width="0.56" stroke-miterlimit="10"/>
<path d="M122.228 88.4346C112.495 91.8887 107.629 93.6102 97.8965 97.0644C98.0639 84.8239 98.142 78.6981 98.3095 66.4576C98.3876 61.036 101.111 55.7262 104.392 54.6083C111.803 52.082 115.52 50.8076 122.931 48.2812C122.697 61.6731 122.462 75.0538 122.228 88.4457V88.4346Z" fill="#2769A5"/>
<path d="M148.044 79.2776C138.312 82.7317 133.445 84.4532 123.713 87.9074L124.427 47.7653C131.838 45.2389 135.555 43.9646 142.966 41.4382C146.247 40.3204 148.826 43.741 148.703 49.0955C148.446 61.1683 148.312 67.2047 148.044 79.2776Z" fill="#49454F"/>
<path d="M121.49 131.137C114.169 133.842 110.508 135.195 103.186 137.889C99.938 139.085 97.3709 135.664 97.449 130.232C97.6164 117.991 97.6946 111.865 97.862 99.6248C107.595 96.1707 112.461 94.438 122.182 90.9727C121.948 104.365 121.714 117.745 121.479 131.137H121.49Z" fill="#2769A5"/>
<path d="M141.258 123.839C133.936 126.545 130.275 127.897 122.953 130.591C123.188 117.21 123.422 103.83 123.667 90.4491C133.4 86.9837 138.266 85.2622 147.988 81.7969C147.731 93.8697 147.597 99.9061 147.329 111.979C147.218 117.333 144.494 122.632 141.246 123.828L141.258 123.839Z" fill="#49454F"/>
<path d="M141.269 127.166C128.311 131.973 115.353 136.791 102.394 141.598C98.3876 143.084 95.229 138.781 95.3183 132.007C95.6084 110.041 95.8986 88.0749 96.1888 66.109C96.2781 59.3237 100.263 52.4936 104.325 51.1074C117.484 46.636 130.632 42.1646 143.792 37.6932C147.854 36.307 151.024 40.6108 150.868 47.2955C150.388 68.926 149.919 90.5565 149.439 112.187C149.294 118.872 145.276 125.691 141.269 127.166Z" stroke="white" stroke-width="1.68" stroke-miterlimit="10"/>
<path d="M121.368 51.7148C113.856 62.681 106.401 73.6807 98.9785 84.7139C105.999 99.369 113.008 114.024 120.006 128.679C120.453 103.024 120.91 77.3696 121.357 51.7148H121.368ZM106.557 85.0381C110.586 79.0687 112.595 76.0841 116.636 70.1371C116.457 81.7516 116.278 93.3661 116.1 104.981C112.294 97.0326 110.385 93.0419 106.557 85.0381Z" fill="#49454F"/>
<path d="M117.607 58.1172C117.987 58.9109 118.177 59.3021 118.556 60.0958" stroke="white" stroke-width="0.56" stroke-miterlimit="10"/>
<path d="M114.537 62.6016C114.917 63.3952 115.106 63.7977 115.486 64.5802" stroke="white" stroke-width="0.56" stroke-miterlimit="10"/>
<path d="M111.49 67.1055C111.87 67.8991 112.059 68.3016 112.439 69.0952" stroke="white" stroke-width="0.56" stroke-miterlimit="10"/>
<path d="M108.432 71.5977C108.811 72.3913 109.001 72.7938 109.38 73.5874" stroke="white" stroke-width="0.56" stroke-miterlimit="10"/>
<path d="M105.385 76.1133C105.764 76.907 105.954 77.3094 106.333 78.1031" stroke="white" stroke-width="0.56" stroke-miterlimit="10"/>
<path d="M102.338 80.6289C102.717 81.4226 102.907 81.825 103.287 82.6187" stroke="white" stroke-width="0.56" stroke-miterlimit="10"/>
<path d="M116.078 60.3555C116.759 61.764 117.094 62.4682 117.763 63.8767" stroke="white" stroke-width="0.56" stroke-miterlimit="10"/>
<path d="M113.008 64.8477C113.689 66.2562 114.023 66.9604 114.693 68.3801" stroke="white" stroke-width="0.56" stroke-miterlimit="10"/>
<path d="M109.961 69.3516C110.642 70.7601 110.977 71.4643 111.646 72.884" stroke="white" stroke-width="0.56" stroke-miterlimit="10"/>
<path d="M106.902 73.8555C107.583 75.264 107.918 75.9794 108.588 77.3879" stroke="white" stroke-width="0.56" stroke-miterlimit="10"/>
<path d="M103.855 78.3711C104.536 79.7796 104.871 80.495 105.552 81.9035" stroke="white" stroke-width="0.56" stroke-miterlimit="10"/>
<path d="M102.595 85.875C102.025 86.7246 101.735 87.1494 101.166 87.9989" stroke="white" stroke-width="0.56" stroke-miterlimit="10"/>
<path d="M104.614 90.1016C104.045 90.9511 103.755 91.3759 103.186 92.2255" stroke="white" stroke-width="0.56" stroke-miterlimit="10"/>
<path d="M106.636 94.3164C106.066 95.166 105.776 95.5908 105.207 96.4403" stroke="white" stroke-width="0.56" stroke-miterlimit="10"/>
<path d="M108.653 98.5273C108.084 99.3769 107.794 99.8017 107.225 100.662" stroke="white" stroke-width="0.56" stroke-miterlimit="10"/>
<path d="M110.663 102.73C110.094 103.58 109.804 104.005 109.234 104.866" stroke="white" stroke-width="0.56" stroke-miterlimit="10"/>
<path d="M112.673 106.922C112.104 107.771 111.813 108.196 111.244 109.057" stroke="white" stroke-width="0.56" stroke-miterlimit="10"/>
<path d="M114.683 111.113C114.113 111.963 113.823 112.388 113.254 113.248" stroke="white" stroke-width="0.56" stroke-miterlimit="10"/>
<path d="M116.681 115.309C116.111 116.158 115.821 116.594 115.252 117.444" stroke="white" stroke-width="0.56" stroke-miterlimit="10"/>
<path d="M118.677 119.488C118.107 120.338 117.817 120.774 117.248 121.623" stroke="white" stroke-width="0.56" stroke-miterlimit="10"/>
<path d="M104.726 86.3359C103.711 87.845 103.197 88.6052 102.182 90.1143" stroke="white" stroke-width="0.56" stroke-miterlimit="10"/>
<path d="M106.746 90.5586C105.73 92.0677 105.217 92.8278 104.201 94.3481" stroke="white" stroke-width="0.56" stroke-miterlimit="10"/>
<path d="M108.756 94.7617C107.74 96.2708 107.227 97.031 106.211 98.5512" stroke="white" stroke-width="0.56" stroke-miterlimit="10"/>
<path d="M110.775 98.9766C109.76 100.486 109.246 101.246 108.23 102.766" stroke="white" stroke-width="0.56" stroke-miterlimit="10"/>
<path d="M112.783 103.168C111.767 104.688 111.254 105.437 110.238 106.957" stroke="white" stroke-width="0.56" stroke-miterlimit="10"/>
<path d="M114.781 107.371C113.765 108.891 113.252 109.64 112.236 111.161" stroke="white" stroke-width="0.56" stroke-miterlimit="10"/>
<path d="M116.791 111.555C115.776 113.075 115.273 113.835 114.258 115.344" stroke="white" stroke-width="0.56" stroke-miterlimit="10"/>
<path d="M118.789 115.742C117.774 117.262 117.272 118.023 116.256 119.532" stroke="white" stroke-width="0.56" stroke-miterlimit="10"/>
<path d="M131.391 48.6073C134.36 47.5901 135.844 47.0758 138.824 46.0586C138.311 71.4786 137.809 96.8874 137.295 122.307C134.36 123.392 132.887 123.928 129.951 125.013C130.431 99.5479 130.911 74.072 131.391 48.6073Z" fill="#2769A5"/>
<path d="M134.605 118.002C135.431 117.701 135.856 117.544 136.681 117.242" stroke="white" stroke-width="0.56" stroke-miterlimit="10"/>
<path d="M134.75 110.702C135.576 110.4 136 110.243 136.826 109.941" stroke="white" stroke-width="0.56" stroke-miterlimit="10"/>
<path d="M134.896 103.417C135.734 103.115 136.147 102.97 136.972 102.668" stroke="white" stroke-width="0.56" stroke-miterlimit="10"/>
<path d="M135.029 96.1279C135.866 95.826 136.279 95.6807 137.116 95.3789" stroke="white" stroke-width="0.56" stroke-miterlimit="10"/>
<path d="M135.176 88.8394C136.013 88.5375 136.426 88.3922 137.263 88.1016" stroke="white" stroke-width="0.56" stroke-miterlimit="10"/>
<path d="M135.32 81.5386C136.157 81.2479 136.57 81.0914 137.407 80.8008" stroke="white" stroke-width="0.56" stroke-miterlimit="10"/>
<path d="M135.465 74.2495C136.302 73.9589 136.715 73.8135 137.552 73.5117" stroke="white" stroke-width="0.56" stroke-miterlimit="10"/>
<path d="M135.598 66.961C136.435 66.6703 136.848 66.525 137.685 66.2344" stroke="white" stroke-width="0.56" stroke-miterlimit="10"/>
<path d="M135.744 59.6602C136.581 59.3696 137.005 59.2242 137.842 58.9336" stroke="white" stroke-width="0.56" stroke-miterlimit="10"/>
<path d="M135.891 52.375C136.728 52.0844 137.152 51.9391 137.989 51.6484" stroke="white" stroke-width="0.56" stroke-miterlimit="10"/>
<path d="M133.064 114.939C134.538 114.402 135.274 114.134 136.759 113.586" stroke="white" stroke-width="0.56" stroke-miterlimit="10"/>
<path d="M133.199 107.65C134.673 107.113 135.42 106.845 136.894 106.309" stroke="white" stroke-width="0.56" stroke-miterlimit="10"/>
<path d="M133.344 100.354C134.828 99.8171 135.565 99.5488 137.038 99.0234" stroke="white" stroke-width="0.56" stroke-miterlimit="10"/>
<path d="M133.49 93.0652C134.975 92.5398 135.711 92.2715 137.196 91.7461" stroke="white" stroke-width="0.56" stroke-miterlimit="10"/>
<path d="M133.623 85.7644L137.329 84.4453" stroke="white" stroke-width="0.56" stroke-miterlimit="10"/>
<path d="M133.77 78.4641C135.254 77.9387 136.002 77.6816 137.486 77.1562" stroke="white" stroke-width="0.56" stroke-miterlimit="10"/>
<path d="M133.902 71.1756C135.387 70.6502 136.135 70.3931 137.619 69.8789" stroke="white" stroke-width="0.56" stroke-miterlimit="10"/>
<path d="M134.049 63.8748C135.533 63.3606 136.281 63.1035 137.766 62.5781" stroke="white" stroke-width="0.56" stroke-miterlimit="10"/>
<path d="M134.191 56.5863C135.676 56.0721 136.424 55.815 137.919 55.3008" stroke="white" stroke-width="0.56" stroke-miterlimit="10"/>
</svg>
