<svg width="160" height="155" viewBox="0 0 160 155" fill="none" xmlns="http://www.w3.org/2000/svg">
<path d="M93.5063 151.903C92.3789 151.903 91.3185 151.444 90.4925 150.603C89.3539 149.439 88.74 147.635 88.7623 145.507L89.9343 56.0798C89.979 52.2827 92.0552 48.6873 94.7565 47.724L151.271 27.6634C151.773 27.4841 152.276 27.3945 152.789 27.3945C153.939 27.3945 155.033 27.865 155.87 28.7162C157.008 29.8811 157.611 31.6844 157.567 33.779L155.624 121.661C155.546 125.368 153.492 128.941 150.869 129.972L95.1248 151.589C94.6002 151.791 94.0532 151.903 93.5174 151.903H93.5063Z" fill="#49454F"/>
<path d="M152.79 29.8479C154.174 29.8479 155.167 31.416 155.123 33.7346C154.475 63.0247 153.828 92.326 153.18 121.616C153.125 124.304 151.685 127.026 149.977 127.687C131.392 134.889 112.818 142.091 94.2325 149.305C93.9869 149.405 93.7414 149.45 93.507 149.45C92.1563 149.45 91.1741 147.882 91.2075 145.541C91.5982 115.736 91.9889 85.9192 92.3796 56.1138C92.4131 53.3696 93.853 50.659 95.5831 50.0429C114.425 43.3561 133.256 36.6692 152.098 29.9823C152.343 29.8927 152.578 29.8591 152.801 29.8591M152.801 24.9531C152.02 24.9531 151.238 25.0875 150.479 25.3564L122.216 35.3923L93.9535 45.4282C89.7899 46.9067 87.5575 51.8911 87.5017 56.0578L86.9212 100.771L86.3408 145.485C86.3073 148.274 87.1668 150.705 88.7742 152.329C90.0578 153.639 91.7433 154.356 93.5293 154.356C94.3665 154.356 95.2036 154.199 96.0185 153.886L105.439 150.234L151.763 132.268C155.792 130.7 157.991 125.783 158.081 121.728L159.052 77.653L160.023 33.8466C160.079 31.08 159.23 28.6606 157.634 27.0141C156.339 25.6812 154.62 24.9531 152.812 24.9531H152.801Z" fill="#49454F"/>
<path d="M80.8385 151.904C80.3362 151.904 79.8339 151.837 79.3316 151.691C55.6006 145.127 31.8585 138.564 8.1275 131.978C4.9016 131.082 2.40125 127.397 2.4459 123.588C2.75844 93.9846 3.02634 64.2352 3.26075 35.1691C3.29423 31.5288 5.69412 28.7734 8.86421 28.7734C9.34418 28.7734 9.83532 28.8406 10.3265 28.9639L81.7427 47.8708C84.9909 48.7333 87.5136 52.4072 87.4801 56.249C87.201 85.584 86.855 115.613 86.4531 145.497C86.4085 149.149 83.9863 151.893 80.8385 151.893V151.904Z" fill="#49454F"/>
<path d="M8.86356 31.2375C9.13145 31.2375 9.41051 31.2711 9.70073 31.3495C33.5098 37.6555 57.3078 43.9504 81.1169 50.2453C83.3047 50.8277 85.0572 53.5047 85.0349 56.2265C84.7558 85.9759 84.4098 115.714 84.008 145.463C83.9745 147.838 82.6238 149.451 80.8379 149.451C80.5588 149.451 80.2686 149.417 79.9784 149.328C56.2474 142.764 32.5052 136.2 8.77426 129.614C6.59762 129.009 4.8563 126.321 4.87863 123.611C5.19117 94.1413 5.45907 64.6607 5.69347 35.1914C5.7158 32.8392 7.06643 31.2263 8.8524 31.2263M8.8524 26.3203C4.29819 26.3203 0.837886 30.1174 0.804399 35.1466C0.592316 64.1567 0.313259 93.906 0.00071566 123.566C-0.0550957 128.517 3.15964 133.154 7.47944 134.341C31.2104 140.916 54.9414 147.491 78.6836 154.054C79.3979 154.256 80.1235 154.346 80.8379 154.346C85.3586 154.346 88.8189 150.56 88.8859 145.531C89.2877 115.591 89.6338 85.5614 89.9128 56.2713C89.9575 51.2869 86.7092 46.6498 82.3559 45.4961L10.9397 26.6115C10.2477 26.4323 9.55562 26.3427 8.86356 26.3427L8.8524 26.3203Z" fill="#49454F"/>
<path d="M88.4278 49.3032C86.9097 49.3032 85.3917 49.124 84.1638 48.7991L11.8769 29.6793C8.85197 28.8841 8.1599 27.3272 8.12642 26.1623C8.10409 25.4566 8.31618 23.7093 10.8947 22.8356C28.3748 16.8768 47.1051 10.5148 68.1571 3.39104C69.5859 2.9094 71.2937 2.80859 72.4657 2.80859C73.9838 2.80859 75.5019 2.97661 76.7409 3.30143C100.952 9.46188 125.163 15.6223 149.385 21.7492C152.421 22.522 153.124 24.0565 153.18 25.2214C153.214 25.9271 153.002 27.6744 150.434 28.5817L92.8034 48.6983C91.6649 49.0904 90.1133 49.3144 88.439 49.3144L88.4278 49.3032Z" fill="white"/>
<path d="M72.4664 5.26143C73.7389 5.26143 75.056 5.39583 76.1388 5.67586C100.35 11.8475 124.572 17.9967 148.783 24.1348C151.015 24.6948 151.384 25.6581 149.62 26.2742C130.41 32.9834 111.199 39.6815 91.9892 46.3908C91.0739 46.7044 89.7791 46.8724 88.4284 46.8724C87.1671 46.8724 85.8611 46.7268 84.7895 46.4468C60.7013 40.0736 36.602 33.7003 12.5138 27.327C10.3037 26.7446 9.93533 25.7813 11.6878 25.1765C30.7641 18.6576 49.8516 12.1835 68.9503 5.73186C69.8544 5.42944 71.1381 5.27263 72.4775 5.27263M72.4775 0.36667C71.1157 0.36667 69.1289 0.489879 67.3875 1.08352C46.5029 8.12883 27.7615 14.4909 10.1028 20.5169C6.73176 21.6706 5.61553 24.2356 5.68251 26.2518C5.72716 27.5622 6.36341 30.7545 11.2525 32.0426L83.5282 51.1624C85.3588 51.644 87.2006 51.7448 88.4173 51.7448C89.7902 51.7448 91.8106 51.6104 93.5854 50.9944L151.216 30.8777C154.587 29.7016 155.692 27.1254 155.603 25.0981C155.547 23.7876 154.877 20.5953 149.966 19.352C126.905 13.5276 102.471 7.32237 77.3443 0.915509C75.5137 0.445075 73.6831 0.355469 72.4775 0.355469V0.36667Z" fill="#49454F"/>
<path d="M44.0813 88.6179C32.4949 85.4817 26.7017 83.9136 15.1152 80.7773C15.2157 69.5317 15.2715 63.9201 15.3608 52.7753C15.4055 47.8357 18.5867 44.6883 22.4823 45.7188C31.267 48.0486 35.6538 49.2134 44.4274 51.5432C44.3157 63.8977 44.1929 76.2634 44.0702 88.6179H44.0813Z" fill="#49454F"/>
<path d="M74.8001 96.9309C63.2136 93.7947 57.4204 92.2265 45.834 89.1015C45.9568 76.7358 46.0796 64.3813 46.1912 52.0156C54.9759 54.3454 59.3627 55.5103 68.1362 57.84C72.0318 58.8705 75.1461 63.7317 75.0903 68.7048C74.9787 79.9393 74.9117 85.5957 74.7889 96.9309H74.8001Z" fill="#2769A5"/>
<path d="M43.6342 128.324C34.883 125.905 30.4962 124.695 21.745 122.276C17.8605 121.2 14.7574 116.283 14.8132 111.288C14.9249 100.02 14.9807 94.3745 15.0923 83.1289C26.6787 86.2651 32.472 87.8333 44.0472 90.9807C43.9133 103.425 43.7793 115.88 43.6342 128.324Z" fill="#2769A5"/>
<path d="M67.2877 134.856C58.5253 132.437 54.1497 131.227 45.3984 128.808C45.5435 116.353 45.6775 103.908 45.8114 91.4531C57.3979 94.5894 63.1911 96.1575 74.7775 99.2937C74.6436 110.629 74.5766 116.319 74.4427 127.677C74.3757 132.706 71.1833 135.92 67.2988 134.856H67.2877Z" fill="#49454F"/>
<path d="M68.0237 138.25C52.3296 133.915 36.6243 129.569 20.9301 125.223C16.0857 123.879 12.2124 117.741 12.2682 111.502C12.4691 91.3742 12.6589 71.2351 12.8263 51.1073C12.8821 44.9356 16.8559 41.0153 21.7226 42.3034C37.4614 46.4701 53.2114 50.6368 68.9502 54.8147C73.8169 56.1028 77.7014 62.1625 77.6456 68.3789C77.4335 88.686 77.1991 108.993 76.9535 129.289C76.8754 135.584 72.8793 139.594 68.0237 138.25Z" stroke="white" stroke-width="1.68" stroke-miterlimit="10"/>
<path d="M33.8334 67.2242C33.811 70.0916 31.9693 71.9286 29.7257 71.3349C27.482 70.7301 25.6849 67.9187 25.7072 65.0513C25.7296 62.1839 27.5713 60.3581 29.815 60.9518C32.0586 61.5566 33.8557 64.3568 33.8334 67.2242Z" fill="white"/>
<path d="M32.6276 106.575C32.6052 108.882 31.1318 110.361 29.3347 109.868C27.5376 109.375 26.1088 107.101 26.1311 104.794C26.1534 102.487 27.6269 101.008 29.424 101.501C31.2211 101.994 32.6499 104.256 32.6276 106.575Z" fill="white"/>
<path d="M25.6862 95.5957C25.6638 97.903 24.1904 99.3815 22.3933 98.8887C20.5962 98.3959 19.1674 96.1333 19.1897 93.8259C19.212 91.5186 20.6855 90.0513 22.4826 90.5329C24.2797 91.0257 25.7085 93.2883 25.6862 95.5957Z" fill="white"/>
<path d="M39.5592 117.571C39.5369 119.89 38.0635 121.357 36.2663 120.864C34.4692 120.371 33.0404 118.097 33.0628 115.779C33.0851 113.46 34.5585 111.993 36.3556 112.486C38.1528 112.979 39.5815 115.252 39.5592 117.571Z" fill="white"/>
<path d="M58.9594 67.1805C58.9371 69.7679 57.2739 71.4256 55.2535 70.888C53.2332 70.3503 51.6146 67.8078 51.6369 65.2316C51.6593 62.6442 53.3225 60.9977 55.3428 61.5353C57.3632 62.0729 58.9817 64.6043 58.9594 67.1805Z" fill="white"/>
<path d="M69.3743 83.5573C69.352 86.1559 67.6888 87.8249 65.6684 87.2872C63.6481 86.7384 62.0295 84.1958 62.063 81.5972C62.0853 78.9986 63.7485 77.3409 65.7689 77.8785C67.7893 78.4162 69.4078 80.9588 69.3743 83.5573Z" fill="white"/>
<path d="M58.1334 106.707C58.1111 109.026 56.6265 110.504 54.8406 110.023C53.0434 109.53 51.6147 107.256 51.637 104.938C51.6593 102.619 53.1327 101.141 54.9298 101.622C56.727 102.115 58.1557 104.389 58.1334 106.707Z" fill="white"/>
<path d="M68.5152 123.241C68.4817 125.56 67.0082 127.05 65.2223 126.557C63.4252 126.064 61.9964 123.779 62.0299 121.46C62.0522 119.142 63.5368 117.652 65.3227 118.145C67.1199 118.638 68.5486 120.912 68.5152 123.241Z" fill="white"/>
<path d="M57.978 120.352C57.9557 122.67 56.4711 124.149 54.6852 123.656C52.888 123.163 51.4593 120.889 51.4928 118.571C51.5151 116.252 52.9997 114.774 54.7856 115.267C56.5828 115.759 58.0115 118.033 57.978 120.352Z" fill="white"/>
<path d="M68.6822 109.574C68.6599 111.892 67.1753 113.382 65.3894 112.889C63.5923 112.397 62.1635 110.123 62.1858 107.804C62.2081 105.486 63.6927 103.996 65.4787 104.489C67.2758 104.982 68.7046 107.255 68.6822 109.574Z" fill="white"/>
<path d="M122.238 88.2919C112.505 91.753 107.638 93.4779 97.9043 96.9389C98.0717 84.6741 98.1499 78.536 98.3173 66.2711C98.3954 60.8387 101.119 55.5183 104.401 54.3983C111.812 51.8669 115.53 50.6012 122.941 48.0586L122.238 88.2919Z" fill="#49454F"/>
<path d="M148.056 79.119C138.323 82.5801 133.456 84.305 123.723 87.766C123.957 74.3587 124.191 60.9513 124.437 47.5439C131.849 45.0125 135.555 43.7356 142.978 41.2043C146.259 40.0842 148.838 43.5116 148.715 48.8768C148.458 60.9737 148.324 67.0221 148.056 79.119Z" fill="#2769A5"/>
<path d="M121.502 131.08C114.18 133.791 110.519 135.146 103.196 137.846C99.948 139.044 97.3806 135.617 97.4588 130.173C97.6262 117.908 97.7043 111.77 97.8718 99.5054C107.605 96.0443 112.472 94.3082 122.194 90.8359L121.491 131.069L121.502 131.08Z" fill="#2769A5"/>
<path d="M141.269 123.767C133.947 126.477 130.285 127.833 122.963 130.532C123.197 117.125 123.432 103.717 123.677 90.3101C133.411 86.8378 138.278 85.1129 148 81.6406C147.743 93.7375 147.609 99.7859 147.341 111.883C147.23 117.248 144.506 122.557 141.258 123.756L141.269 123.767Z" fill="#49454F"/>
<path d="M141.281 127.103C128.322 131.919 115.362 136.747 102.403 141.563C98.3957 143.053 95.2368 138.74 95.3261 131.953C95.6163 109.943 95.9065 87.9336 96.1967 65.924C96.286 59.1251 100.271 52.2814 104.334 50.8925C117.494 46.4122 130.643 41.9318 143.804 37.4515C147.867 36.0626 151.037 40.3749 150.881 47.073C150.401 68.7466 149.932 90.4202 149.452 112.094C149.307 118.792 145.288 125.624 141.281 127.103Z" stroke="white" stroke-width="1.68" stroke-miterlimit="10"/>
<path d="M113.812 71.2318C113.767 74.3569 112.193 77.4259 110.296 78.0867C108.409 78.7476 106.913 76.7426 106.958 73.6176C107.003 70.4926 108.577 67.4123 110.474 66.7627C112.372 66.1019 113.856 68.1068 113.812 71.2318Z" fill="white"/>
<path d="M112.437 114.378C112.393 116.876 111.142 119.351 109.647 119.9C108.14 120.449 106.957 118.859 107.001 116.361C107.035 113.852 108.285 111.388 109.792 110.839C111.299 110.29 112.482 111.881 112.437 114.378Z" fill="white"/>
<path d="M106.7 106.694C106.666 109.203 105.416 111.667 103.909 112.216C102.402 112.764 101.219 111.163 101.253 108.654C101.286 106.145 102.536 103.681 104.043 103.132C105.55 102.594 106.744 104.185 106.7 106.694Z" fill="white"/>
<path d="M118.175 122.016C118.13 124.514 116.88 126.978 115.384 127.538C113.889 128.087 112.705 126.508 112.739 124.01C112.784 121.512 114.034 119.037 115.53 118.488C117.025 117.939 118.22 119.518 118.175 122.016Z" fill="white"/>
<path d="M135.053 56.5732C134.997 59.3734 133.579 62.1176 131.871 62.7113C130.164 63.3049 128.835 61.5128 128.88 58.7126C128.936 55.9124 130.353 53.1682 132.061 52.5745C133.769 51.9809 135.109 53.773 135.053 56.5732Z" fill="white"/>
<path d="M143.659 68.0631C143.604 70.8521 142.175 73.5963 140.478 74.2011C138.781 74.806 137.442 73.025 137.498 70.2248C137.554 67.4358 138.982 64.6804 140.679 64.0868C142.376 63.4931 143.715 65.2741 143.659 68.0631Z" fill="white"/>
<path d="M133.892 99.3375C133.848 101.824 132.586 104.277 131.08 104.826C129.573 105.375 128.389 103.795 128.445 101.309C128.49 98.8222 129.751 96.3692 131.258 95.8204C132.765 95.2828 133.948 96.8509 133.892 99.3375Z" fill="white"/>
<path d="M142.43 110.717C142.374 113.193 141.124 115.657 139.617 116.206C138.121 116.755 136.938 115.187 136.994 112.711C137.039 110.225 138.3 107.772 139.807 107.223C141.314 106.674 142.486 108.242 142.43 110.717Z" fill="white"/>
<path d="M133.601 113.951C133.557 116.438 132.295 118.902 130.8 119.451C129.304 120 128.121 118.432 128.165 115.945C128.21 113.458 129.471 110.994 130.967 110.445C132.474 109.897 133.646 111.465 133.601 113.951Z" fill="white"/>
<path d="M142.743 96.1422C142.688 98.6175 141.426 101.071 139.93 101.619C138.424 102.168 137.252 100.589 137.296 98.1135C137.341 95.6269 138.602 93.1851 140.109 92.6363C141.616 92.0875 142.788 93.6668 142.743 96.1422Z" fill="white"/>
</svg>
