<svg width="499" height="189" viewBox="0 0 499 189" fill="none" xmlns="http://www.w3.org/2000/svg">
    <path d="M208.548 37.5135V170.175C208.548 173.581 205.779 176.337 202.373 176.337H63.684C60.2784 176.337 57.522 173.581 57.522 170.175V37.5135H208.548Z"
          fill="#4A596A"/>
    <path d="M208.548 19.1621V37.5135H57.522V19.1621C57.522 15.7564 60.2784 13 63.684 13H202.373C205.779 13 208.548 15.7564 208.548 19.1621Z"
          fill="#57697A"/>
    <path d="M83.2113 29.9915C83.2113 34.071 79.9037 37.3909 75.812 37.3909C71.7203 37.3909 68.4126 34.0832 68.4126 29.9915C68.4126 25.8998 71.7203 22.5922 75.812 22.5922C79.9037 22.5922 83.2113 25.8998 83.2113 29.9915Z"
          fill="#4A596A"/>
    <path d="M197.644 29.9915C197.644 34.071 194.337 37.3909 190.245 37.3909C186.153 37.3909 182.846 34.0832 182.846 29.9915C182.846 25.8998 186.153 22.5922 190.245 22.5922C194.337 22.5922 197.644 25.8998 197.644 29.9915Z"
          fill="#4A596A"/>
    <path d="M83.2113 159.211C83.2113 163.291 79.9037 166.61 75.812 166.61C71.7203 166.61 68.4126 163.303 68.4126 159.211C68.4126 155.119 71.7203 151.812 75.812 151.812C79.9037 151.812 83.2113 155.119 83.2113 159.211Z"
          fill="#3D4B5E"/>
    <path d="M197.644 159.211C197.644 163.291 194.337 166.611 190.245 166.611C186.153 166.611 182.846 163.303 182.846 159.211C182.846 155.119 186.153 151.812 190.245 151.812C194.337 151.812 197.644 155.119 197.644 159.211Z"
          fill="#3D4B5E"/>
    <path d="M57.5218 37.3788H6.20394C1.46295 37.3788 -1.51395 42.475 0.801413 46.6035L34.3191 106.313C39.0233 114.692 47.8928 119.887 57.5095 119.887V37.3788H57.5218Z"
          fill="#3D4B5E"/>
    <path d="M208.535 37.3787H259.841C264.582 37.3787 267.559 42.475 265.243 46.6034L231.726 106.313C227.021 114.692 218.152 119.887 208.535 119.887V37.3787Z"
          fill="#3D4B5E"/>
    <path d="M188.667 108.011C196.077 77.2891 177.178 46.377 146.456 38.9672C115.734 31.5574 84.8215 50.4559 77.4117 81.1781C70.0019 111.9 88.9004 142.812 119.623 150.222C150.345 157.632 181.257 138.734 188.667 108.011Z"
          fill="#3D4B5E"/>
    <g filter="url(#filter0_d_0_1)">
        <path d="M177.137 71.3987C168.794 55.5709 152.17 44.7781 133.035 44.7781C113.899 44.7781 97.2751 55.5709 88.9325 71.3987C85.2818 78.3325 83.2114 86.2219 83.2114 94.6013C83.2114 122.116 105.52 144.425 133.035 144.425C160.55 144.425 182.858 122.116 182.858 94.6013C182.858 86.2219 180.788 78.3325 177.137 71.3987Z"
              fill="#9AEDD3"/>
    </g>
    <path d="M182.858 94.6012C182.858 122.116 160.55 144.424 133.035 144.424C105.52 144.424 83.2114 122.116 83.2114 94.6012C83.2114 86.2218 85.2818 78.3323 88.9325 71.3985C97.2874 87.214 113.899 98.0068 133.035 98.0068C152.17 98.0068 168.782 87.214 177.137 71.3985C180.788 78.3323 182.858 86.2218 182.858 94.6012Z"
          fill="#89DAC4"/>
    <g filter="url(#filter1_f_0_1)">
        <path d="M208.5 49.1231L483 18V165L208.5 134V49.1231Z" fill="url(#paint0_linear_0_1)" fill-opacity="0.7"/>
    </g>
    <path d="M208.5 37.7286H259.806C264.547 37.7286 267.523 42.8248 265.208 46.9533L231.69 106.663C226.986 115.042 218.117 120.236 208.5 120.236V37.7163V37.7286Z"
          fill="#3D4B5E"/>
<!--    <path d="M263.408 77.2954H265.928C266.36 77.2954 266.76 77.2634 267.128 77.1994C267.512 77.1354 267.84 77.0234 268.112 76.8634C268.4 76.7034 268.624 76.4954 268.784 76.2394C268.944 75.9834 269.024 75.6634 269.024 75.2794C269.024 74.7354 268.808 74.3274 268.376 74.0554C267.944 73.7834 267.336 73.6474 266.552 73.6474C265.672 73.6474 264.904 73.7514 264.248 73.9594C263.592 74.1514 262.968 74.4154 262.376 74.7514L261.176 71.7994C261.816 71.3994 262.584 71.0794 263.48 70.8394C264.392 70.5834 265.424 70.4554 266.576 70.4554C267.472 70.4554 268.304 70.5594 269.072 70.7674C269.84 70.9594 270.504 71.2554 271.064 71.6554C271.624 72.0394 272.056 72.5354 272.36 73.1434C272.68 73.7354 272.84 74.4314 272.84 75.2314C272.84 75.8394 272.672 76.4474 272.336 77.0554C272.016 77.6474 271.52 78.1514 270.848 78.5674C271.216 78.7594 271.56 78.9834 271.88 79.2394C272.216 79.4954 272.504 79.7914 272.744 80.1274C273 80.4634 273.2 80.8474 273.344 81.2794C273.488 81.6954 273.56 82.1674 273.56 82.6954C273.56 84.4714 272.928 85.7674 271.664 86.5834C270.416 87.3834 268.672 87.7834 266.432 87.7834C265.872 87.7834 265.312 87.7434 264.752 87.6634C264.208 87.5834 263.68 87.4874 263.168 87.3754C262.672 87.2474 262.2 87.1034 261.752 86.9434C261.32 86.7834 260.936 86.6154 260.6 86.4394L261.704 83.5114C261.928 83.6074 262.2 83.7194 262.52 83.8474C262.856 83.9594 263.224 84.0714 263.624 84.1834C264.024 84.2954 264.44 84.3914 264.872 84.4714C265.304 84.5514 265.736 84.5914 266.168 84.5914C267.224 84.5914 268.072 84.4394 268.712 84.1354C269.368 83.8314 269.696 83.3034 269.696 82.5514C269.696 82.0874 269.592 81.7114 269.384 81.4234C269.176 81.1354 268.888 80.9194 268.52 80.7754C268.168 80.6154 267.744 80.5114 267.248 80.4634C266.768 80.3994 266.24 80.3674 265.664 80.3674H263.408V77.2954ZM275.978 81.2314C275.978 80.1114 276.146 79.1354 276.482 78.3034C276.834 77.4554 277.29 76.7514 277.85 76.1914C278.41 75.6314 279.05 75.2074 279.77 74.9194C280.506 74.6314 281.258 74.4874 282.026 74.4874C283.818 74.4874 285.234 75.0394 286.274 76.1434C287.314 77.2314 287.834 78.8394 287.834 80.9674C287.834 81.1754 287.826 81.4074 287.81 81.6634C287.794 81.9034 287.778 82.1194 287.762 82.3114H279.65C279.73 83.0474 280.074 83.6314 280.682 84.0634C281.29 84.4954 282.106 84.7114 283.13 84.7114C283.786 84.7114 284.426 84.6554 285.05 84.5434C285.69 84.4154 286.21 84.2634 286.61 84.0874L287.09 86.9914C286.898 87.0874 286.642 87.1834 286.322 87.2794C286.002 87.3754 285.642 87.4554 285.242 87.5194C284.858 87.5994 284.442 87.6634 283.994 87.7114C283.546 87.7594 283.098 87.7834 282.65 87.7834C281.514 87.7834 280.522 87.6154 279.674 87.2794C278.842 86.9434 278.146 86.4874 277.586 85.9114C277.042 85.3194 276.634 84.6234 276.362 83.8234C276.106 83.0234 275.978 82.1594 275.978 81.2314ZM284.378 79.8634C284.362 79.5594 284.306 79.2634 284.21 78.9754C284.13 78.6874 283.994 78.4314 283.802 78.2074C283.626 77.9834 283.394 77.7994 283.106 77.6554C282.834 77.5114 282.49 77.4394 282.074 77.4394C281.674 77.4394 281.33 77.5114 281.042 77.6554C280.754 77.7834 280.514 77.9594 280.322 78.1834C280.13 78.4074 279.978 78.6714 279.866 78.9754C279.77 79.2634 279.698 79.5594 279.65 79.8634H284.378ZM296.508 77.7514C296.492 78.2154 296.468 78.7114 296.436 79.2394C296.42 79.7514 296.38 80.2714 296.316 80.7994C296.252 81.3114 296.164 81.8154 296.052 82.3114C295.956 82.8074 295.828 83.2714 295.668 83.7034C295.476 84.2154 295.228 84.6954 294.924 85.1434C294.636 85.5754 294.26 85.9674 293.796 86.3194C293.348 86.6714 292.796 86.9674 292.14 87.2074C291.5 87.4314 290.748 87.5834 289.884 87.6634L289.404 84.6874C290.22 84.5274 290.852 84.3034 291.3 84.0154C291.748 83.7114 292.084 83.3274 292.308 82.8634C292.484 82.4634 292.62 81.9994 292.716 81.4714C292.828 80.9434 292.908 80.3914 292.956 79.8154C293.004 79.2234 293.028 78.6234 293.028 78.0154C293.044 77.4074 293.052 76.8234 293.052 76.2634V74.8234H302.532V87.4474H298.956V77.7514H296.508ZM305.541 81.2314C305.541 80.1114 305.709 79.1354 306.045 78.3034C306.397 77.4554 306.853 76.7514 307.413 76.1914C307.973 75.6314 308.613 75.2074 309.333 74.9194C310.069 74.6314 310.821 74.4874 311.589 74.4874C313.381 74.4874 314.797 75.0394 315.837 76.1434C316.877 77.2314 317.397 78.8394 317.397 80.9674C317.397 81.1754 317.389 81.4074 317.373 81.6634C317.357 81.9034 317.341 82.1194 317.325 82.3114H309.213C309.293 83.0474 309.637 83.6314 310.245 84.0634C310.853 84.4954 311.669 84.7114 312.693 84.7114C313.349 84.7114 313.989 84.6554 314.613 84.5434C315.253 84.4154 315.773 84.2634 316.173 84.0874L316.653 86.9914C316.461 87.0874 316.205 87.1834 315.885 87.2794C315.565 87.3754 315.205 87.4554 314.805 87.5194C314.421 87.5994 314.005 87.6634 313.557 87.7114C313.109 87.7594 312.661 87.7834 312.213 87.7834C311.077 87.7834 310.085 87.6154 309.237 87.2794C308.405 86.9434 307.709 86.4874 307.149 85.9114C306.605 85.3194 306.197 84.6234 305.925 83.8234C305.669 83.0234 305.541 82.1594 305.541 81.2314ZM313.941 79.8634C313.925 79.5594 313.869 79.2634 313.773 78.9754C313.693 78.6874 313.557 78.4314 313.365 78.2074C313.189 77.9834 312.957 77.7994 312.669 77.6554C312.397 77.5114 312.053 77.4394 311.637 77.4394C311.237 77.4394 310.893 77.5114 310.605 77.6554C310.317 77.7834 310.077 77.9594 309.885 78.1834C309.693 78.4074 309.541 78.6714 309.429 78.9754C309.333 79.2634 309.261 79.5594 309.213 79.8634H313.941ZM308.925 72.9994C308.429 72.9994 307.997 72.8394 307.629 72.5194C307.261 72.1834 307.077 71.7354 307.077 71.1754C307.077 70.6154 307.261 70.1754 307.629 69.8554C307.997 69.5194 308.429 69.3514 308.925 69.3514C309.421 69.3514 309.853 69.5194 310.221 69.8554C310.589 70.1754 310.773 70.6154 310.773 71.1754C310.773 71.7354 310.589 72.1834 310.221 72.5194C309.853 72.8394 309.421 72.9994 308.925 72.9994ZM314.277 72.9994C313.781 72.9994 313.349 72.8394 312.981 72.5194C312.613 72.1834 312.429 71.7354 312.429 71.1754C312.429 70.6154 312.613 70.1754 312.981 69.8554C313.349 69.5194 313.781 69.3514 314.277 69.3514C314.773 69.3514 315.205 69.5194 315.573 69.8554C315.941 70.1754 316.125 70.6154 316.125 71.1754C316.125 71.7354 315.941 72.1834 315.573 72.5194C315.205 72.8394 314.773 72.9994 314.277 72.9994ZM331.279 87.4474H327.703V82.4554H323.983V87.4474H320.407V74.8234H323.983V79.5274H327.703V74.8234H331.279V87.4474ZM351.299 87.4474H347.723V74.8234H351.299V87.4474ZM340.235 84.9514C340.891 84.9514 341.403 84.8314 341.771 84.5914C342.155 84.3354 342.347 83.9274 342.347 83.3674C342.347 83.0794 342.283 82.8394 342.155 82.6474C342.027 82.4394 341.851 82.2794 341.627 82.1674C341.403 82.0394 341.139 81.9514 340.835 81.9034C340.547 81.8554 340.235 81.8314 339.899 81.8314C339.659 81.8314 339.395 81.8474 339.107 81.8794C338.819 81.9114 338.603 81.9434 338.459 81.9754V84.8554C338.651 84.8874 338.907 84.9114 339.227 84.9274C339.547 84.9434 339.883 84.9514 340.235 84.9514ZM338.459 79.3114C338.683 79.2474 338.971 79.1994 339.323 79.1674C339.691 79.1194 340.107 79.0954 340.571 79.0954C341.307 79.0954 341.995 79.1834 342.635 79.3594C343.291 79.5354 343.859 79.8074 344.339 80.1754C344.819 80.5274 345.195 80.9834 345.467 81.5434C345.755 82.0874 345.899 82.7274 345.899 83.4634C345.899 84.1994 345.771 84.8394 345.515 85.3834C345.259 85.9114 344.891 86.3514 344.411 86.7034C343.931 87.0394 343.355 87.2874 342.683 87.4474C342.027 87.6234 341.291 87.7114 340.475 87.7114C339.419 87.7114 338.451 87.6554 337.571 87.5434C336.691 87.4474 335.795 87.2874 334.883 87.0634V74.8234H338.459V79.3114ZM366.41 74.8234V87.4474H362.81C362.81 86.6474 362.818 85.8554 362.834 85.0714C362.85 84.2714 362.866 83.5354 362.882 82.8634C362.898 82.1914 362.914 81.6074 362.93 81.1114C362.962 80.5994 362.978 80.2234 362.978 79.9834C362.514 80.6394 362.05 81.3034 361.586 81.9754C361.122 82.6474 360.674 83.3114 360.242 83.9674C359.826 84.6074 359.426 85.2234 359.042 85.8154C358.674 86.4074 358.346 86.9514 358.058 87.4474H354.914V74.8234H358.49C358.49 75.6234 358.482 76.3914 358.466 77.1274C358.466 77.8474 358.458 78.5034 358.442 79.0954C358.426 79.6874 358.41 80.2074 358.394 80.6554C358.378 81.0874 358.37 81.4234 358.37 81.6634C359.33 80.2554 360.21 78.9914 361.01 77.8714C361.826 76.7514 362.618 75.7354 363.386 74.8234H366.41ZM360.722 73.0954C360.21 73.0954 359.714 73.0234 359.234 72.8794C358.77 72.7194 358.346 72.4954 357.962 72.2074C357.578 71.9034 357.258 71.5434 357.002 71.1274C356.762 70.6954 356.618 70.2074 356.57 69.6634L359.042 69.0154C359.17 69.6234 359.378 70.0554 359.666 70.3114C359.97 70.5674 360.322 70.6954 360.722 70.6954C361.138 70.6954 361.49 70.5834 361.778 70.3594C362.082 70.1194 362.298 69.6794 362.426 69.0394L364.874 69.6874C364.826 70.2314 364.674 70.7194 364.418 71.1514C364.178 71.5674 363.866 71.9194 363.482 72.2074C363.114 72.4954 362.69 72.7194 362.21 72.8794C361.73 73.0234 361.234 73.0954 360.722 73.0954ZM374.359 78.7834H398.359V81.7594H374.359V78.7834ZM265.232 104.175C265.2 104.735 265.168 105.343 265.136 105.999C265.104 106.655 265.072 107.319 265.04 107.991C265.024 108.647 265 109.279 264.968 109.887C264.952 110.479 264.936 110.999 264.92 111.447H261.44C261.472 110.567 261.52 109.575 261.584 108.471C261.664 107.367 261.744 106.247 261.824 105.111C261.92 103.959 262.016 102.839 262.112 101.751C262.224 100.663 262.328 99.6874 262.424 98.8234H265.4C266.088 99.9434 266.72 101.103 267.296 102.303C267.872 103.503 268.48 104.823 269.12 106.263C269.792 104.727 270.448 103.311 271.088 102.015C271.728 100.703 272.304 99.6394 272.816 98.8234H275.84C275.952 99.6874 276.056 100.663 276.152 101.751C276.264 102.839 276.36 103.959 276.44 105.111C276.536 106.247 276.616 107.367 276.68 108.471C276.744 109.575 276.792 110.567 276.824 111.447H273.272C273.24 110.199 273.192 108.959 273.128 107.727C273.08 106.495 273.032 105.303 272.984 104.151L270.344 109.959H267.872L265.232 104.175ZM291.996 105.111C291.996 106.103 291.852 107.015 291.564 107.847C291.276 108.663 290.86 109.367 290.316 109.959C289.772 110.535 289.116 110.983 288.348 111.303C287.596 111.623 286.748 111.783 285.804 111.783C284.876 111.783 284.028 111.623 283.26 111.303C282.508 110.983 281.86 110.535 281.316 109.959C280.772 109.367 280.348 108.663 280.044 107.847C279.74 107.015 279.588 106.103 279.588 105.111C279.588 104.119 279.74 103.215 280.044 102.399C280.364 101.583 280.796 100.887 281.34 100.311C281.9 99.7354 282.556 99.2874 283.308 98.9674C284.076 98.6474 284.908 98.4874 285.804 98.4874C286.716 98.4874 287.548 98.6474 288.3 98.9674C289.068 99.2874 289.724 99.7354 290.268 100.311C290.812 100.887 291.236 101.583 291.54 102.399C291.844 103.215 291.996 104.119 291.996 105.111ZM288.348 105.111C288.348 104.007 288.124 103.143 287.676 102.519C287.244 101.879 286.62 101.559 285.804 101.559C284.988 101.559 284.356 101.879 283.908 102.519C283.46 103.143 283.236 104.007 283.236 105.111C283.236 106.215 283.46 107.095 283.908 107.751C284.356 108.391 284.988 108.711 285.804 108.711C286.62 108.711 287.244 108.391 287.676 107.751C288.124 107.095 288.348 106.215 288.348 105.111ZM293.248 111.447C294.048 110.151 294.872 108.959 295.72 107.871C296.568 106.783 297.472 105.727 298.432 104.703C297.424 103.663 296.504 102.647 295.672 101.655C294.856 100.647 294.128 99.7034 293.488 98.8234H297.664C298.08 99.4154 298.576 100.103 299.152 100.887C299.744 101.655 300.512 102.631 301.456 103.815V98.8234H304.936V103.815C305.912 102.647 306.688 101.671 307.264 100.887C307.84 100.087 308.336 99.3994 308.752 98.8234H312.88C312.288 99.7354 311.592 100.679 310.792 101.655C309.992 102.615 309.056 103.623 307.984 104.679C308.56 105.287 309.072 105.863 309.52 106.407C309.984 106.935 310.416 107.463 310.816 107.991C311.232 108.519 311.624 109.071 311.992 109.647C312.36 110.207 312.744 110.807 313.144 111.447H309.16C307.96 109.639 306.552 107.735 304.936 105.735V111.447H301.456V105.735C300.64 106.823 299.864 107.847 299.128 108.807C298.392 109.767 297.76 110.647 297.232 111.447H293.248ZM326.177 111.447H322.601V106.455H318.881V111.447H315.305V98.8234H318.881V103.527H322.601V98.8234H326.177V111.447ZM341.59 105.111C341.59 106.103 341.446 107.015 341.158 107.847C340.87 108.663 340.454 109.367 339.91 109.959C339.366 110.535 338.71 110.983 337.942 111.303C337.19 111.623 336.342 111.783 335.398 111.783C334.47 111.783 333.622 111.623 332.854 111.303C332.102 110.983 331.454 110.535 330.91 109.959C330.366 109.367 329.942 108.663 329.638 107.847C329.334 107.015 329.182 106.103 329.182 105.111C329.182 104.119 329.334 103.215 329.638 102.399C329.958 101.583 330.39 100.887 330.934 100.311C331.494 99.7354 332.15 99.2874 332.902 98.9674C333.67 98.6474 334.502 98.4874 335.398 98.4874C336.31 98.4874 337.142 98.6474 337.894 98.9674C338.662 99.2874 339.318 99.7354 339.862 100.311C340.406 100.887 340.83 101.583 341.134 102.399C341.438 103.215 341.59 104.119 341.59 105.111ZM337.942 105.111C337.942 104.007 337.718 103.143 337.27 102.519C336.838 101.879 336.214 101.559 335.398 101.559C334.582 101.559 333.95 101.879 333.502 102.519C333.054 103.143 332.83 104.007 332.83 105.111C332.83 106.215 333.054 107.095 333.502 107.751C333.95 108.391 334.582 108.711 335.398 108.711C336.214 108.711 336.838 108.391 337.27 107.751C337.718 107.095 337.942 106.215 337.942 105.111ZM362.121 98.8234V111.447H358.521C358.521 110.647 358.529 109.855 358.545 109.071C358.561 108.271 358.577 107.535 358.593 106.863C358.609 106.191 358.625 105.607 358.641 105.111C358.673 104.599 358.689 104.223 358.689 103.983C358.225 104.639 357.761 105.303 357.297 105.975C356.833 106.647 356.385 107.311 355.953 107.967C355.537 108.607 355.137 109.223 354.753 109.815C354.385 110.407 354.057 110.951 353.769 111.447H350.625V98.8234H354.201C354.201 99.6234 354.193 100.391 354.177 101.127C354.177 101.847 354.169 102.503 354.153 103.095C354.137 103.687 354.121 104.207 354.105 104.655C354.089 105.087 354.081 105.423 354.081 105.663C355.041 104.255 355.921 102.991 356.721 101.871C357.537 100.751 358.329 99.7354 359.097 98.8234H362.121ZM364.535 108.519H366.095C366.543 107.975 366.887 107.303 367.127 106.503C367.383 105.687 367.559 104.831 367.655 103.935C367.767 103.023 367.831 102.119 367.847 101.223C367.863 100.327 367.871 99.5274 367.871 98.8234H377.711V108.519H379.847V115.047H376.799V111.447H367.583V115.047H364.535V108.519ZM374.135 108.519V101.751H371.207C371.175 102.311 371.135 102.895 371.087 103.503C371.055 104.095 370.983 104.687 370.871 105.279C370.775 105.855 370.639 106.423 370.463 106.983C370.287 107.543 370.055 108.055 369.767 108.519H374.135ZM392.386 101.751H388.354V111.447H384.778V101.751H380.746V98.8234H392.386V101.751ZM406.301 98.8234V111.447H402.701C402.701 110.647 402.709 109.855 402.725 109.071C402.741 108.271 402.757 107.535 402.773 106.863C402.789 106.191 402.805 105.607 402.821 105.111C402.853 104.599 402.869 104.223 402.869 103.983C402.405 104.639 401.941 105.303 401.477 105.975C401.013 106.647 400.565 107.311 400.133 107.967C399.717 108.607 399.317 109.223 398.933 109.815C398.565 110.407 398.237 110.951 397.949 111.447H394.805V98.8234H398.381C398.381 99.6234 398.373 100.391 398.357 101.127C398.357 101.847 398.349 102.503 398.333 103.095C398.317 103.687 398.301 104.207 398.285 104.655C398.269 105.087 398.261 105.423 398.261 105.663C399.221 104.255 400.101 102.991 400.901 101.871C401.717 100.751 402.509 99.7354 403.277 98.8234H406.301Z"-->
<!--          fill="white"/>-->
    <defs>
        <filter id="filter0_d_0_1" x="39.2114" y="0.778076" width="187.646" height="187.647"
                filterUnits="userSpaceOnUse" color-interpolation-filters="sRGB">
            <feFlood flood-opacity="0" result="BackgroundImageFix"/>
            <feColorMatrix in="SourceAlpha" type="matrix" values="0 0 0 0 0 0 0 0 0 0 0 0 0 0 0 0 0 0 127 0"
                           result="hardAlpha"/>
            <feOffset/>
            <feGaussianBlur stdDeviation="22"/>
            <feComposite in2="hardAlpha" operator="out"/>
            <feColorMatrix type="matrix" values="0 0 0 0 0.603922 0 0 0 0 0.929412 0 0 0 0 0.827451 0 0 0 1 0"/>
            <feBlend mode="normal" in2="BackgroundImageFix" result="effect1_dropShadow_0_1"/>
            <feBlend mode="normal" in="SourceGraphic" in2="effect1_dropShadow_0_1" result="shape"/>
        </filter>
        <filter id="filter1_f_0_1" x="209.2" y="2.7" width="305.1" height="177.6" filterUnits="userSpaceOnUse"
                color-interpolation-filters="sRGB">
            <feFlood flood-opacity="0" result="BackgroundImageFix"/>
            <feBlend mode="normal" in="SourceGraphic" in2="BackgroundImageFix" result="shape"/>
            <feGaussianBlur stdDeviation="7.65" result="effect1_foregroundBlur_0_1"/>
        </filter>
        <linearGradient id="paint0_linear_0_1" x1="209" y1="86.8416" x2="483" y2="86.8415"
                        gradientUnits="userSpaceOnUse">
            <stop stop-color="#9AEDD3"/>
            <stop offset="1" stop-color="#9AEDD3" stop-opacity="0"/>
        </linearGradient>
    </defs>
</svg>

