<svg width="267" height="164" viewBox="0 0 267 164" fill="none" xmlns="http://www.w3.org/2000/svg">
    <path d="M208.5 24.4522H259.806C264.547 24.4522 267.523 29.5485 265.208 33.6769L231.69 93.3864C226.986 101.766 218.117 106.96 208.5 106.96V24.4399V24.4522Z"
          fill="#3D4B5E"/>
    <path d="M208.548 24.5135V157.175C208.548 160.581 205.779 163.338 202.373 163.338H63.684C60.2784 163.338 57.522 160.581 57.522 157.175V24.5135H208.548Z"
          fill="#4A596A"/>
    <path d="M208.548 6.16206V24.5135H57.522V6.16206C57.522 2.75639 60.2784 0 63.684 0H202.373C205.779 0 208.548 2.75639 208.548 6.16206Z"
          fill="#3D4B5E"/>
    <path d="M83.2113 17.0529C83.2113 21.1324 79.9037 24.4523 75.812 24.4523C71.7203 24.4523 68.4126 21.1446 68.4126 17.0529C68.4126 12.9612 71.7203 9.65356 75.812 9.65356C79.9037 9.65356 83.2113 12.9612 83.2113 17.0529Z"
          fill="#4A596A"/>
    <path d="M197.644 17.0529C197.644 21.1324 194.337 24.4523 190.245 24.4523C186.153 24.4523 182.846 21.1446 182.846 17.0529C182.846 12.9612 186.153 9.65356 190.245 9.65356C194.337 9.65356 197.644 12.9612 197.644 17.0529Z"
          fill="#4A596A"/>
    <path d="M83.2113 146.285C83.2113 150.364 79.9037 153.684 75.812 153.684C71.7203 153.684 68.4126 150.376 68.4126 146.285C68.4126 142.193 71.7203 138.885 75.812 138.885C79.9037 138.885 83.2113 142.193 83.2113 146.285Z"
          fill="#3D4B5E"/>
    <path d="M197.644 146.285C197.644 150.364 194.337 153.684 190.245 153.684C186.153 153.684 182.846 150.376 182.846 146.285C182.846 142.193 186.153 138.885 190.245 138.885C194.337 138.885 197.644 142.193 197.644 146.285Z"
          fill="#3D4B5E"/>
    <path d="M57.5218 24.4522H6.20394C1.46295 24.4522 -1.51395 29.5485 0.801413 33.6769L34.3191 93.3864C39.0233 101.766 47.8928 106.96 57.5095 106.96V24.4399L57.5218 24.4522Z"
          fill="#3D4B5E"/>
    <path d="M208.535 24.4522H259.841C264.582 24.4522 267.559 29.5485 265.243 33.6769L231.726 93.3864C227.021 101.766 218.152 106.96 208.535 106.96V24.4399V24.4522Z"
          fill="#3D4B5E"/>
    <path d="M133.035 138.824C164.638 138.824 190.258 113.205 190.258 81.6013C190.258 49.9981 164.638 24.3787 133.035 24.3787C101.432 24.3787 75.8125 49.9981 75.8125 81.6013C75.8125 113.205 101.432 138.824 133.035 138.824Z"
          fill="#3D4B5E"/>
    <path d="M132.938 130.723C160.277 130.723 182.438 108.561 182.438 81.2234C182.438 53.8853 160.277 31.7234 132.938 31.7234C105.6 31.7234 83.4385 53.8853 83.4385 81.2234C83.4385 108.561 105.6 130.723 132.938 130.723Z"
          fill="#9AEDD3"/>
    <path d="M182.858 81.5891C182.858 109.104 160.55 131.412 133.035 131.412C105.52 131.412 83.2119 109.104 83.2119 81.5891C83.2119 73.2097 85.2823 65.3203 88.933 58.3865C97.2879 74.202 113.9 84.9948 133.035 84.9948C152.171 84.9948 168.782 74.202 177.137 58.3865C180.788 65.3203 182.858 73.2097 182.858 81.5891Z"
          fill="#89DAC4"/>
</svg>
