<svg width="267" height="164" viewBox="0 0 267 164" fill="none" xmlns="http://www.w3.org/2000/svg">
    <path d="M208.548 24.5135V157.175C208.548 160.581 205.779 163.338 202.373 163.338H63.684C60.2784 163.338 57.522 160.581 57.522 157.175V24.5135H208.548Z" fill="#4A596A"/>
    <path d="M208.548 6.16206V24.5135H57.522V6.16206C57.522 2.75639 60.2784 0 63.684 0H202.373C205.779 0 208.548 2.75639 208.548 6.16206Z" fill="#57697A"/>
    <path d="M83.2113 16.9915C83.2113 21.071 79.9037 24.3909 75.812 24.3909C71.7203 24.3909 68.4126 21.0832 68.4126 16.9915C68.4126 12.8998 71.7203 9.59216 75.812 9.59216C79.9037 9.59216 83.2113 12.8998 83.2113 16.9915Z" fill="#4A596A"/>
    <path d="M197.644 16.9915C197.644 21.071 194.337 24.3909 190.245 24.3909C186.153 24.3909 182.846 21.0832 182.846 16.9915C182.846 12.8998 186.153 9.59216 190.245 9.59216C194.337 9.59216 197.644 12.8998 197.644 16.9915Z" fill="#4A596A"/>
    <path d="M83.2113 146.211C83.2113 150.29 79.9037 153.61 75.812 153.61C71.7203 153.61 68.4126 150.303 68.4126 146.211C68.4126 142.119 71.7203 138.812 75.812 138.812C79.9037 138.812 83.2113 142.119 83.2113 146.211Z" fill="#3D4B5E"/>
    <path d="M197.644 146.211C197.644 150.29 194.337 153.61 190.245 153.61C186.153 153.61 182.846 150.303 182.846 146.211C182.846 142.119 186.153 138.812 190.245 138.812C194.337 138.812 197.644 142.119 197.644 146.211Z" fill="#3D4B5E"/>
    <path d="M57.5218 24.3788H6.20394C1.46295 24.3788 -1.51395 29.475 0.801413 33.6035L34.3191 93.313C39.0233 101.692 47.8928 106.887 57.5095 106.887V24.3788H57.5218Z" fill="#3D4B5E"/>
    <path d="M208.535 24.3787H259.841C264.582 24.3787 267.559 29.4749 265.243 33.6034L231.726 93.3129C227.021 101.692 218.152 106.887 208.535 106.887V24.3787Z" fill="#3D4B5E"/>
    <path d="M188.667 95.0114C196.077 64.2891 177.178 33.377 146.456 25.9672C115.734 18.5574 84.8215 37.4559 77.4117 68.1781C70.0019 98.9004 88.9004 129.812 119.623 137.222C150.345 144.632 181.257 125.734 188.667 95.0114Z" fill="#3D4B5E"/>
    <path d="M177.137 58.3987C168.794 42.5709 152.17 31.7781 133.035 31.7781C113.899 31.7781 97.2751 42.5709 88.9325 58.3987C85.2818 65.3325 83.2114 73.2219 83.2114 81.6013C83.2114 109.116 105.52 131.425 133.035 131.425C160.55 131.425 182.858 109.116 182.858 81.6013C182.858 73.2219 180.788 65.3325 177.137 58.3987Z" fill="#FF8983"/>
    <path d="M182.858 81.6011C182.858 109.116 160.55 131.424 133.035 131.424C105.52 131.424 83.2114 109.116 83.2114 81.6011C83.2114 73.2217 85.2818 65.3323 88.9325 58.3984C97.2874 74.214 113.899 85.0068 133.035 85.0068C152.17 85.0068 168.782 74.214 177.137 58.3984C180.788 65.3323 182.858 73.2217 182.858 81.6011Z" fill="#E2725C"/>
</svg>
