<svg width="499" height="189" viewBox="0 0 499 189" fill="none" xmlns="http://www.w3.org/2000/svg">
    <path d="M208.548 37.5135V170.175C208.548 173.581 205.779 176.337 202.373 176.337H63.684C60.2784 176.337 57.522 173.581 57.522 170.175V37.5135H208.548Z" fill="#4A596A"/>
    <path d="M208.548 19.1621V37.5135H57.522V19.1621C57.522 15.7564 60.2784 13 63.684 13H202.373C205.779 13 208.548 15.7564 208.548 19.1621Z" fill="#57697A"/>
    <path d="M83.2113 29.9915C83.2113 34.071 79.9037 37.3909 75.812 37.3909C71.7203 37.3909 68.4126 34.0832 68.4126 29.9915C68.4126 25.8998 71.7203 22.5922 75.812 22.5922C79.9037 22.5922 83.2113 25.8998 83.2113 29.9915Z" fill="#4A596A"/>
    <path d="M197.644 29.9915C197.644 34.071 194.337 37.3909 190.245 37.3909C186.153 37.3909 182.846 34.0832 182.846 29.9915C182.846 25.8998 186.153 22.5922 190.245 22.5922C194.337 22.5922 197.644 25.8998 197.644 29.9915Z" fill="#4A596A"/>
    <path d="M83.2113 159.211C83.2113 163.291 79.9037 166.61 75.812 166.61C71.7203 166.61 68.4126 163.303 68.4126 159.211C68.4126 155.119 71.7203 151.812 75.812 151.812C79.9037 151.812 83.2113 155.119 83.2113 159.211Z" fill="#3D4B5E"/>
    <path d="M197.644 159.211C197.644 163.291 194.337 166.611 190.245 166.611C186.153 166.611 182.846 163.303 182.846 159.211C182.846 155.119 186.153 151.812 190.245 151.812C194.337 151.812 197.644 155.119 197.644 159.211Z" fill="#3D4B5E"/>
    <path d="M57.5218 37.3788H6.20394C1.46295 37.3788 -1.51395 42.475 0.801413 46.6035L34.3191 106.313C39.0233 114.692 47.8928 119.887 57.5095 119.887V37.3788H57.5218Z" fill="#3D4B5E"/>
    <path d="M208.535 37.3787H259.841C264.582 37.3787 267.559 42.475 265.243 46.6034L231.726 106.313C227.021 114.692 218.152 119.887 208.535 119.887V37.3787Z" fill="#3D4B5E"/>
    <path d="M188.667 108.011C196.077 77.2891 177.178 46.377 146.456 38.9672C115.734 31.5574 84.8215 50.4559 77.4117 81.1781C70.0019 111.9 88.9004 142.812 119.623 150.222C150.345 157.632 181.257 138.734 188.667 108.011Z" fill="#3D4B5E"/>
    <g filter="url(#filter0_d_0_1)">
        <path d="M177.137 71.3987C168.794 55.5709 152.17 44.7781 133.035 44.7781C113.899 44.7781 97.2751 55.5709 88.9325 71.3987C85.2818 78.3325 83.2114 86.2219 83.2114 94.6013C83.2114 122.116 105.52 144.425 133.035 144.425C160.55 144.425 182.858 122.116 182.858 94.6013C182.858 86.2219 180.788 78.3325 177.137 71.3987Z" fill="#FF8983"/>
    </g>
    <path d="M182.858 94.6012C182.858 122.116 160.55 144.424 133.035 144.424C105.52 144.424 83.2114 122.116 83.2114 94.6012C83.2114 86.2218 85.2818 78.3323 88.9325 71.3985C97.2874 87.214 113.899 98.0068 133.035 98.0068C152.17 98.0068 168.782 87.214 177.137 71.3985C180.788 78.3323 182.858 86.2218 182.858 94.6012Z" fill="#E2725C"/>
    <g filter="url(#filter1_f_0_1)">
        <path d="M208.5 49.1231L483 18V165L208.5 134V49.1231Z" fill="url(#paint0_linear_0_1)" fill-opacity="0.7"/>
    </g>
    <path d="M208.5 37.7286H259.806C264.547 37.7286 267.523 42.8248 265.208 46.9533L231.69 106.663C226.986 115.042 218.117 120.236 208.5 120.236V37.7163V37.7286Z" fill="#3D4B5E"/>
<!--    <path d="M271.736 89C271.4 88.456 271 87.872 270.536 87.248C270.088 86.608 269.592 85.976 269.048 85.352C268.52 84.712 267.968 84.104 267.392 83.528C266.816 82.936 266.24 82.416 265.664 81.968V89H261.92V72.368H265.664V78.656C266.64 77.632 267.616 76.568 268.592 75.464C269.584 74.344 270.504 73.312 271.352 72.368H275.792C274.656 73.712 273.512 75.008 272.36 76.256C271.224 77.504 270.024 78.76 268.76 80.024C270.088 81.128 271.368 82.44 272.6 83.96C273.848 85.48 275.04 87.16 276.176 89H271.736ZM286.424 82.784C286.424 81.68 286.176 80.8 285.68 80.144C285.184 79.472 284.448 79.136 283.472 79.136C283.152 79.136 282.856 79.152 282.584 79.184C282.312 79.2 282.088 79.224 281.912 79.256V85.712C282.136 85.856 282.424 85.976 282.776 86.072C283.144 86.168 283.512 86.216 283.88 86.216C285.576 86.216 286.424 85.072 286.424 82.784ZM290.072 82.688C290.072 83.664 289.952 84.552 289.712 85.352C289.472 86.152 289.12 86.84 288.656 87.416C288.192 87.992 287.616 88.44 286.928 88.76C286.24 89.08 285.448 89.24 284.552 89.24C284.056 89.24 283.592 89.192 283.16 89.096C282.728 89 282.312 88.864 281.912 88.688V93.44H278.336V76.808C278.656 76.712 279.024 76.624 279.44 76.544C279.856 76.448 280.288 76.368 280.736 76.304C281.2 76.24 281.664 76.192 282.128 76.16C282.608 76.112 283.064 76.088 283.496 76.088C284.536 76.088 285.464 76.248 286.28 76.568C287.096 76.872 287.784 77.312 288.344 77.888C288.904 78.448 289.328 79.136 289.616 79.952C289.92 80.768 290.072 81.68 290.072 82.688ZM297.895 86.504C298.247 86.504 298.583 86.496 298.903 86.48C299.223 86.464 299.479 86.44 299.671 86.408V83.696C299.527 83.664 299.311 83.632 299.023 83.6C298.735 83.568 298.471 83.552 298.231 83.552C297.895 83.552 297.575 83.576 297.271 83.624C296.983 83.656 296.727 83.728 296.503 83.84C296.279 83.952 296.103 84.104 295.975 84.296C295.847 84.488 295.783 84.728 295.783 85.016C295.783 85.576 295.967 85.968 296.335 86.192C296.719 86.4 297.239 86.504 297.895 86.504ZM297.607 76.04C298.663 76.04 299.543 76.16 300.247 76.4C300.951 76.64 301.511 76.984 301.927 77.432C302.359 77.88 302.663 78.424 302.839 79.064C303.015 79.704 303.103 80.416 303.103 81.2V88.64C302.591 88.752 301.879 88.88 300.967 89.024C300.055 89.184 298.951 89.264 297.655 89.264C296.839 89.264 296.095 89.192 295.423 89.048C294.767 88.904 294.199 88.672 293.719 88.352C293.239 88.016 292.871 87.584 292.615 87.056C292.359 86.528 292.231 85.88 292.231 85.112C292.231 84.376 292.375 83.752 292.663 83.24C292.967 82.728 293.367 82.32 293.863 82.016C294.359 81.712 294.927 81.496 295.567 81.368C296.207 81.224 296.871 81.152 297.559 81.152C298.023 81.152 298.431 81.176 298.783 81.224C299.151 81.256 299.447 81.304 299.671 81.368V81.032C299.671 80.424 299.487 79.936 299.119 79.568C298.751 79.2 298.111 79.016 297.199 79.016C296.591 79.016 295.991 79.064 295.399 79.16C294.807 79.24 294.295 79.36 293.863 79.52L293.407 76.64C293.615 76.576 293.871 76.512 294.175 76.448C294.495 76.368 294.839 76.304 295.207 76.256C295.575 76.192 295.959 76.144 296.359 76.112C296.775 76.064 297.191 76.04 297.607 76.04ZM305.986 82.688C305.986 81.776 306.13 80.92 306.418 80.12C306.722 79.304 307.154 78.6 307.714 78.008C308.274 77.4 308.954 76.92 309.754 76.568C310.554 76.216 311.466 76.04 312.49 76.04C313.162 76.04 313.778 76.104 314.338 76.232C314.898 76.344 315.442 76.512 315.97 76.736L315.226 79.592C314.89 79.464 314.522 79.352 314.122 79.256C313.722 79.16 313.274 79.112 312.778 79.112C311.722 79.112 310.93 79.44 310.402 80.096C309.89 80.752 309.634 81.616 309.634 82.688C309.634 83.824 309.874 84.704 310.354 85.328C310.85 85.952 311.706 86.264 312.922 86.264C313.354 86.264 313.818 86.224 314.314 86.144C314.81 86.064 315.266 85.936 315.682 85.76L316.186 88.688C315.77 88.864 315.25 89.016 314.626 89.144C314.002 89.272 313.314 89.336 312.562 89.336C311.41 89.336 310.418 89.168 309.586 88.832C308.754 88.48 308.066 88.008 307.522 87.416C306.994 86.824 306.602 86.128 306.346 85.328C306.106 84.512 305.986 83.632 305.986 82.688ZM329.708 89H326.132V84.008H322.412V89H318.836V76.376H322.412V81.08H326.132V76.376H329.708V89ZM349.729 89H346.153V76.376H349.729V89ZM338.665 86.504C339.321 86.504 339.833 86.384 340.201 86.144C340.585 85.888 340.777 85.48 340.777 84.92C340.777 84.632 340.713 84.392 340.585 84.2C340.457 83.992 340.281 83.832 340.057 83.72C339.833 83.592 339.569 83.504 339.265 83.456C338.977 83.408 338.665 83.384 338.329 83.384C338.089 83.384 337.825 83.4 337.537 83.432C337.249 83.464 337.033 83.496 336.889 83.528V86.408C337.081 86.44 337.337 86.464 337.657 86.48C337.977 86.496 338.313 86.504 338.665 86.504ZM336.889 80.864C337.113 80.8 337.401 80.752 337.753 80.72C338.121 80.672 338.537 80.648 339.001 80.648C339.737 80.648 340.425 80.736 341.065 80.912C341.721 81.088 342.289 81.36 342.769 81.728C343.249 82.08 343.625 82.536 343.897 83.096C344.185 83.64 344.329 84.28 344.329 85.016C344.329 85.752 344.201 86.392 343.945 86.936C343.689 87.464 343.321 87.904 342.841 88.256C342.361 88.592 341.785 88.84 341.113 89C340.457 89.176 339.721 89.264 338.905 89.264C337.849 89.264 336.881 89.208 336.001 89.096C335.121 89 334.225 88.84 333.313 88.616V76.376H336.889V80.864ZM364.84 76.376V89H361.24C361.24 88.2 361.248 87.408 361.264 86.624C361.28 85.824 361.296 85.088 361.312 84.416C361.328 83.744 361.344 83.16 361.36 82.664C361.392 82.152 361.408 81.776 361.408 81.536C360.944 82.192 360.48 82.856 360.016 83.528C359.552 84.2 359.104 84.864 358.672 85.52C358.256 86.16 357.856 86.776 357.472 87.368C357.104 87.96 356.776 88.504 356.488 89H353.344V76.376H356.92C356.92 77.176 356.912 77.944 356.896 78.68C356.896 79.4 356.888 80.056 356.872 80.648C356.856 81.24 356.84 81.76 356.824 82.208C356.808 82.64 356.8 82.976 356.8 83.216C357.76 81.808 358.64 80.544 359.44 79.424C360.256 78.304 361.048 77.288 361.816 76.376H364.84ZM359.152 74.648C358.64 74.648 358.144 74.576 357.664 74.432C357.2 74.272 356.776 74.048 356.392 73.76C356.008 73.456 355.688 73.096 355.432 72.68C355.192 72.248 355.048 71.76 355 71.216L357.472 70.568C357.6 71.176 357.808 71.608 358.096 71.864C358.4 72.12 358.752 72.248 359.152 72.248C359.568 72.248 359.92 72.136 360.208 71.912C360.512 71.672 360.728 71.232 360.856 70.592L363.304 71.24C363.256 71.784 363.104 72.272 362.848 72.704C362.608 73.12 362.296 73.472 361.912 73.76C361.544 74.048 361.12 74.272 360.64 74.432C360.16 74.576 359.664 74.648 359.152 74.648ZM372.789 80.336H396.789V83.312H372.789V80.336ZM261.08 106.688C261.08 105.776 261.224 104.92 261.512 104.12C261.816 103.304 262.248 102.6 262.808 102.008C263.368 101.4 264.048 100.92 264.848 100.568C265.648 100.216 266.56 100.04 267.584 100.04C268.256 100.04 268.872 100.104 269.432 100.232C269.992 100.344 270.536 100.512 271.064 100.736L270.32 103.592C269.984 103.464 269.616 103.352 269.216 103.256C268.816 103.16 268.368 103.112 267.872 103.112C266.816 103.112 266.024 103.44 265.496 104.096C264.984 104.752 264.728 105.616 264.728 106.688C264.728 107.824 264.968 108.704 265.448 109.328C265.944 109.952 266.8 110.264 268.016 110.264C268.448 110.264 268.912 110.224 269.408 110.144C269.904 110.064 270.36 109.936 270.776 109.76L271.28 112.688C270.864 112.864 270.344 113.016 269.72 113.144C269.096 113.272 268.408 113.336 267.656 113.336C266.504 113.336 265.512 113.168 264.68 112.832C263.848 112.48 263.16 112.008 262.616 111.416C262.088 110.824 261.696 110.128 261.44 109.328C261.2 108.512 261.08 107.632 261.08 106.688ZM284.37 103.304H280.338V113H276.762V103.304H272.73V100.376H284.37V103.304ZM298.597 106.664C298.597 107.656 298.453 108.568 298.165 109.4C297.877 110.216 297.461 110.92 296.917 111.512C296.373 112.088 295.717 112.536 294.949 112.856C294.197 113.176 293.349 113.336 292.405 113.336C291.477 113.336 290.629 113.176 289.861 112.856C289.109 112.536 288.461 112.088 287.917 111.512C287.373 110.92 286.949 110.216 286.645 109.4C286.341 108.568 286.189 107.656 286.189 106.664C286.189 105.672 286.341 104.768 286.645 103.952C286.965 103.136 287.397 102.44 287.941 101.864C288.501 101.288 289.157 100.84 289.909 100.52C290.677 100.2 291.509 100.04 292.405 100.04C293.317 100.04 294.149 100.2 294.901 100.52C295.669 100.84 296.325 101.288 296.869 101.864C297.413 102.44 297.837 103.136 298.141 103.952C298.445 104.768 298.597 105.672 298.597 106.664ZM294.949 106.664C294.949 105.56 294.725 104.696 294.277 104.072C293.845 103.432 293.221 103.112 292.405 103.112C291.589 103.112 290.957 103.432 290.509 104.072C290.061 104.696 289.837 105.56 289.837 106.664C289.837 107.768 290.061 108.648 290.509 109.304C290.957 109.944 291.589 110.264 292.405 110.264C293.221 110.264 293.845 109.944 294.277 109.304C294.725 108.648 294.949 107.768 294.949 106.664ZM313.114 100.376V113H309.514C309.514 112.2 309.522 111.408 309.538 110.624C309.554 109.824 309.57 109.088 309.586 108.416C309.602 107.744 309.618 107.16 309.634 106.664C309.666 106.152 309.682 105.776 309.682 105.536C309.218 106.192 308.754 106.856 308.29 107.528C307.826 108.2 307.378 108.864 306.946 109.52C306.53 110.16 306.13 110.776 305.746 111.368C305.378 111.96 305.05 112.504 304.762 113H301.618V100.376H305.194C305.194 101.176 305.186 101.944 305.17 102.68C305.17 103.4 305.162 104.056 305.146 104.648C305.13 105.24 305.114 105.76 305.098 106.208C305.082 106.64 305.074 106.976 305.074 107.216C306.034 105.808 306.914 104.544 307.714 103.424C308.53 102.304 309.322 101.288 310.09 100.376H313.114ZM307.426 98.648C306.914 98.648 306.418 98.576 305.938 98.432C305.474 98.272 305.05 98.048 304.666 97.76C304.282 97.456 303.962 97.096 303.706 96.68C303.466 96.248 303.322 95.76 303.274 95.216L305.746 94.568C305.874 95.176 306.082 95.608 306.37 95.864C306.674 96.12 307.026 96.248 307.426 96.248C307.842 96.248 308.194 96.136 308.482 95.912C308.786 95.672 309.002 95.232 309.13 94.592L311.578 95.24C311.53 95.784 311.378 96.272 311.122 96.704C310.882 97.12 310.57 97.472 310.186 97.76C309.818 98.048 309.394 98.272 308.914 98.432C308.434 98.576 307.938 98.648 307.426 98.648Z" fill="white"/>-->
    <defs>
        <filter id="filter0_d_0_1" x="39.2114" y="0.778076" width="187.646" height="187.647" filterUnits="userSpaceOnUse" color-interpolation-filters="sRGB">
            <feFlood flood-opacity="0" result="BackgroundImageFix"/>
            <feColorMatrix in="SourceAlpha" type="matrix" values="0 0 0 0 0 0 0 0 0 0 0 0 0 0 0 0 0 0 127 0" result="hardAlpha"/>
            <feOffset/>
            <feGaussianBlur stdDeviation="22"/>
            <feComposite in2="hardAlpha" operator="out"/>
            <feColorMatrix type="matrix" values="0 0 0 0 1 0 0 0 0 0.537255 0 0 0 0 0.513726 0 0 0 1 0"/>
            <feBlend mode="normal" in2="BackgroundImageFix" result="effect1_dropShadow_0_1"/>
            <feBlend mode="normal" in="SourceGraphic" in2="effect1_dropShadow_0_1" result="shape"/>
        </filter>
        <filter id="filter1_f_0_1" x="209.2" y="2.7" width="305.1" height="177.6" filterUnits="userSpaceOnUse" color-interpolation-filters="sRGB">
            <feFlood flood-opacity="0" result="BackgroundImageFix"/>
            <feBlend mode="normal" in="SourceGraphic" in2="BackgroundImageFix" result="shape"/>
            <feGaussianBlur stdDeviation="7.65" result="effect1_foregroundBlur_0_1"/>
        </filter>
        <linearGradient id="paint0_linear_0_1" x1="209" y1="86.8416" x2="483" y2="86.8415" gradientUnits="userSpaceOnUse">
            <stop stop-color="#FF8983"/>
            <stop offset="1" stop-color="#FF8983" stop-opacity="0"/>
        </linearGradient>
    </defs>
</svg>
