<svg width="499" height="189" viewBox="0 0 499 189" fill="none" xmlns="http://www.w3.org/2000/svg">
    <path d="M208.548 37.5135V170.175C208.548 173.581 205.779 176.337 202.373 176.337H63.684C60.2784 176.337 57.522 173.581 57.522 170.175V37.5135H208.548Z"
          fill="#4A596A"/>
    <path d="M208.548 19.1621V37.5135H57.522V19.1621C57.522 15.7564 60.2784 13 63.684 13H202.373C205.779 13 208.548 15.7564 208.548 19.1621Z"
          fill="#57697A"/>
    <path d="M83.2113 29.9915C83.2113 34.071 79.9037 37.3909 75.812 37.3909C71.7203 37.3909 68.4126 34.0832 68.4126 29.9915C68.4126 25.8998 71.7203 22.5922 75.812 22.5922C79.9037 22.5922 83.2113 25.8998 83.2113 29.9915Z"
          fill="#4A596A"/>
    <path d="M197.644 29.9915C197.644 34.071 194.337 37.3909 190.245 37.3909C186.153 37.3909 182.846 34.0832 182.846 29.9915C182.846 25.8998 186.153 22.5922 190.245 22.5922C194.337 22.5922 197.644 25.8998 197.644 29.9915Z"
          fill="#4A596A"/>
    <path d="M83.2113 159.211C83.2113 163.291 79.9037 166.61 75.812 166.61C71.7203 166.61 68.4126 163.303 68.4126 159.211C68.4126 155.119 71.7203 151.812 75.812 151.812C79.9037 151.812 83.2113 155.119 83.2113 159.211Z"
          fill="#3D4B5E"/>
    <path d="M197.644 159.211C197.644 163.291 194.337 166.611 190.245 166.611C186.153 166.611 182.846 163.303 182.846 159.211C182.846 155.119 186.153 151.812 190.245 151.812C194.337 151.812 197.644 155.119 197.644 159.211Z"
          fill="#3D4B5E"/>
    <path d="M57.5218 37.3788H6.20394C1.46295 37.3788 -1.51395 42.475 0.801413 46.6035L34.3191 106.313C39.0233 114.692 47.8928 119.887 57.5095 119.887V37.3788H57.5218Z"
          fill="#3D4B5E"/>
    <path d="M208.535 37.3787H259.841C264.582 37.3787 267.559 42.475 265.243 46.6034L231.726 106.313C227.021 114.692 218.152 119.887 208.535 119.887V37.3787Z"
          fill="#3D4B5E"/>
    <path d="M188.667 108.011C196.077 77.2891 177.178 46.377 146.456 38.9672C115.734 31.5574 84.8215 50.4559 77.4117 81.1781C70.0019 111.9 88.9004 142.812 119.623 150.222C150.345 157.632 181.257 138.734 188.667 108.011Z"
          fill="#3D4B5E"/>
    <g filter="url(#filter0_d_0_1)">
        <path d="M177.137 71.3987C168.794 55.5709 152.17 44.7781 133.035 44.7781C113.899 44.7781 97.2751 55.5709 88.9325 71.3987C85.2818 78.3325 83.2114 86.2219 83.2114 94.6013C83.2114 122.116 105.52 144.425 133.035 144.425C160.55 144.425 182.858 122.116 182.858 94.6013C182.858 86.2219 180.788 78.3325 177.137 71.3987Z"
              fill="#FFDC7B"/>
    </g>
    <path d="M182.858 94.6012C182.858 122.116 160.55 144.424 133.035 144.424C105.52 144.424 83.2114 122.116 83.2114 94.6012C83.2114 86.2218 85.2818 78.3323 88.9325 71.3985C97.2874 87.214 113.899 98.0068 133.035 98.0068C152.17 98.0068 168.782 87.214 177.137 71.3985C180.788 78.3323 182.858 86.2218 182.858 94.6012Z"
          fill="#F3D064"/>
    <g filter="url(#filter1_f_0_1)">
        <path d="M208.5 49.1231L483 18V165L208.5 134V49.1231Z" fill="url(#paint0_linear_0_1)" fill-opacity="0.7"/>
    </g>
    <path d="M208.5 37.7286H259.806C264.547 37.7286 267.523 42.8248 265.208 46.9533L231.69 106.663C226.986 115.042 218.117 120.236 208.5 120.236V37.7163V37.7286Z"
          fill="#3D4B5E"/>
<!--    <path d="M260.24 88.7236C260.704 87.9076 261.2 87.0916 261.728 86.2756C262.256 85.4596 262.792 84.6756 263.336 83.9236C263.896 83.1556 264.464 82.4436 265.04 81.7876C265.632 81.1156 266.224 80.5156 266.816 79.9876C266.144 79.2996 265.52 78.6276 264.944 77.9716C264.368 77.3156 263.816 76.6676 263.288 76.0276C262.776 75.3876 262.272 74.7476 261.776 74.1076C261.28 73.4516 260.776 72.7796 260.264 72.0916H264.776C265.256 72.7636 265.704 73.3796 266.12 73.9396C266.552 74.4996 266.968 75.0436 267.368 75.5716C267.784 76.0996 268.2 76.6196 268.616 77.1316C269.032 77.6436 269.48 78.1876 269.96 78.7636V72.0916H273.608V78.7636C274.088 78.1716 274.544 77.6116 274.976 77.0836C275.424 76.5396 275.856 76.0036 276.272 75.4756C276.688 74.9476 277.104 74.4116 277.52 73.8676C277.936 73.3076 278.36 72.7156 278.792 72.0916H283.28C282.704 72.8436 282.16 73.5476 281.648 74.2036C281.152 74.8596 280.648 75.4996 280.136 76.1236C279.624 76.7476 279.096 77.3716 278.552 77.9956C278.024 78.6196 277.44 79.2756 276.8 79.9636C278.096 81.1636 279.28 82.5156 280.352 84.0196C281.424 85.5076 282.424 87.0756 283.352 88.7236H279.176C278.68 87.9716 278.216 87.2756 277.784 86.6356C277.352 85.9956 276.92 85.3796 276.488 84.7876C276.056 84.1956 275.608 83.6196 275.144 83.0596C274.68 82.4836 274.168 81.8916 273.608 81.2836V88.7236H269.96V81.2836C269.384 81.9556 268.864 82.5796 268.4 83.1556C267.936 83.7316 267.488 84.3076 267.056 84.8836C266.64 85.4596 266.216 86.0596 265.784 86.6836C265.352 87.2916 264.888 87.9716 264.392 88.7236H260.24ZM284.51 82.5076C284.51 81.3876 284.678 80.4116 285.014 79.5796C285.366 78.7316 285.822 78.0276 286.382 77.4676C286.942 76.9076 287.582 76.4836 288.302 76.1956C289.038 75.9076 289.79 75.7636 290.558 75.7636C292.35 75.7636 293.766 76.3156 294.806 77.4196C295.846 78.5076 296.366 80.1156 296.366 82.2436C296.366 82.4516 296.358 82.6836 296.342 82.9396C296.326 83.1796 296.31 83.3956 296.294 83.5876H288.182C288.262 84.3236 288.606 84.9076 289.214 85.3396C289.822 85.7716 290.638 85.9876 291.662 85.9876C292.318 85.9876 292.958 85.9316 293.582 85.8196C294.222 85.6916 294.742 85.5396 295.142 85.3636L295.622 88.2676C295.43 88.3636 295.174 88.4596 294.854 88.5556C294.534 88.6516 294.174 88.7316 293.774 88.7956C293.39 88.8756 292.974 88.9396 292.526 88.9876C292.078 89.0356 291.63 89.0596 291.182 89.0596C290.046 89.0596 289.054 88.8916 288.206 88.5556C287.374 88.2196 286.678 87.7636 286.118 87.1876C285.574 86.5956 285.166 85.8996 284.894 85.0996C284.638 84.2996 284.51 83.4356 284.51 82.5076ZM292.91 81.1396C292.894 80.8356 292.838 80.5396 292.742 80.2516C292.662 79.9636 292.526 79.7076 292.334 79.4836C292.158 79.2596 291.926 79.0756 291.638 78.9316C291.366 78.7876 291.022 78.7156 290.606 78.7156C290.206 78.7156 289.862 78.7876 289.574 78.9316C289.286 79.0596 289.046 79.2356 288.854 79.4596C288.662 79.6836 288.51 79.9476 288.398 80.2516C288.302 80.5396 288.23 80.8356 288.182 81.1396H292.91ZM287.894 74.2756C287.398 74.2756 286.966 74.1156 286.598 73.7956C286.23 73.4596 286.046 73.0116 286.046 72.4516C286.046 71.8916 286.23 71.4516 286.598 71.1316C286.966 70.7956 287.398 70.6276 287.894 70.6276C288.39 70.6276 288.822 70.7956 289.19 71.1316C289.558 71.4516 289.742 71.8916 289.742 72.4516C289.742 73.0116 289.558 73.4596 289.19 73.7956C288.822 74.1156 288.39 74.2756 287.894 74.2756ZM293.246 74.2756C292.75 74.2756 292.318 74.1156 291.95 73.7956C291.582 73.4596 291.398 73.0116 291.398 72.4516C291.398 71.8916 291.582 71.4516 291.95 71.1316C292.318 70.7956 292.75 70.6276 293.246 70.6276C293.742 70.6276 294.174 70.7956 294.542 71.1316C294.91 71.4516 295.094 71.8916 295.094 72.4516C295.094 73.0116 294.91 73.4596 294.542 73.7956C294.174 74.1156 293.742 74.2756 293.246 74.2756ZM305.039 79.0276C305.023 79.4916 304.999 79.9876 304.967 80.5156C304.951 81.0276 304.911 81.5476 304.847 82.0756C304.783 82.5876 304.695 83.0916 304.583 83.5876C304.487 84.0836 304.359 84.5476 304.199 84.9796C304.007 85.4916 303.759 85.9716 303.455 86.4196C303.167 86.8516 302.791 87.2436 302.327 87.5956C301.879 87.9476 301.327 88.2436 300.671 88.4836C300.031 88.7076 299.279 88.8596 298.415 88.9396L297.935 85.9636C298.751 85.8036 299.383 85.5796 299.831 85.2916C300.279 84.9876 300.615 84.6036 300.839 84.1396C301.015 83.7396 301.151 83.2756 301.247 82.7476C301.359 82.2196 301.439 81.6676 301.487 81.0916C301.535 80.4996 301.559 79.8996 301.559 79.2916C301.575 78.6836 301.583 78.0996 301.583 77.5396V76.0996H311.063V88.7236H307.487V79.0276H305.039ZM325.112 79.0276H321.08V88.7236H317.504V79.0276H313.472V76.0996H325.112V79.0276ZM343.948 88.7236H340.372V76.0996H343.948V88.7236ZM332.884 86.2276C333.54 86.2276 334.052 86.1076 334.42 85.8676C334.804 85.6116 334.996 85.2036 334.996 84.6436C334.996 84.3556 334.932 84.1156 334.804 83.9236C334.676 83.7156 334.5 83.5556 334.276 83.4436C334.052 83.3156 333.788 83.2276 333.484 83.1796C333.196 83.1316 332.884 83.1076 332.548 83.1076C332.308 83.1076 332.044 83.1236 331.756 83.1556C331.468 83.1876 331.252 83.2196 331.108 83.2516V86.1316C331.3 86.1636 331.556 86.1876 331.876 86.2036C332.196 86.2196 332.532 86.2276 332.884 86.2276ZM331.108 80.5876C331.332 80.5236 331.62 80.4756 331.972 80.4436C332.34 80.3956 332.756 80.3716 333.22 80.3716C333.956 80.3716 334.644 80.4596 335.284 80.6356C335.94 80.8116 336.508 81.0836 336.988 81.4516C337.468 81.8036 337.844 82.2596 338.116 82.8196C338.404 83.3636 338.548 84.0036 338.548 84.7396C338.548 85.4756 338.42 86.1156 338.164 86.6596C337.908 87.1876 337.54 87.6276 337.06 87.9796C336.58 88.3156 336.004 88.5636 335.332 88.7236C334.676 88.8996 333.94 88.9876 333.124 88.9876C332.068 88.9876 331.1 88.9316 330.22 88.8196C329.34 88.7236 328.444 88.5636 327.532 88.3396V76.0996H331.108V80.5876ZM359.059 76.0996V88.7236H355.459C355.459 87.9236 355.467 87.1316 355.483 86.3476C355.499 85.5476 355.515 84.8116 355.531 84.1396C355.547 83.4676 355.563 82.8836 355.579 82.3876C355.611 81.8756 355.627 81.4996 355.627 81.2596C355.163 81.9156 354.699 82.5796 354.235 83.2516C353.771 83.9236 353.323 84.5876 352.891 85.2436C352.475 85.8836 352.075 86.4996 351.691 87.0916C351.323 87.6836 350.995 88.2276 350.707 88.7236H347.563V76.0996H351.139C351.139 76.8996 351.131 77.6676 351.115 78.4036C351.115 79.1236 351.107 79.7796 351.091 80.3716C351.075 80.9636 351.059 81.4836 351.043 81.9316C351.027 82.3636 351.019 82.6996 351.019 82.9396C351.979 81.5316 352.859 80.2676 353.659 79.1476C354.475 78.0276 355.267 77.0116 356.035 76.0996H359.059ZM353.371 74.3716C352.859 74.3716 352.363 74.2996 351.883 74.1556C351.419 73.9956 350.995 73.7716 350.611 73.4836C350.227 73.1796 349.907 72.8196 349.651 72.4036C349.411 71.9716 349.267 71.4836 349.219 70.9396L351.691 70.2916C351.819 70.8996 352.027 71.3316 352.315 71.5876C352.619 71.8436 352.971 71.9716 353.371 71.9716C353.787 71.9716 354.139 71.8596 354.427 71.6356C354.731 71.3956 354.947 70.9556 355.075 70.3156L357.523 70.9636C357.475 71.5076 357.323 71.9956 357.067 72.4276C356.827 72.8436 356.515 73.1956 356.131 73.4836C355.763 73.7716 355.339 73.9956 354.859 74.1556C354.379 74.2996 353.883 74.3716 353.371 74.3716ZM367.008 80.0596H391.008V83.0356H367.008V80.0596ZM272.552 100.1V112.724H268.976V103.076H265.256V112.724H261.68V100.1H272.552ZM284.245 106.508C284.245 105.404 283.997 104.524 283.501 103.868C283.005 103.196 282.269 102.86 281.293 102.86C280.973 102.86 280.677 102.876 280.405 102.908C280.133 102.924 279.909 102.948 279.733 102.98V109.436C279.957 109.58 280.245 109.7 280.597 109.796C280.965 109.892 281.333 109.94 281.701 109.94C283.397 109.94 284.245 108.796 284.245 106.508ZM287.893 106.412C287.893 107.388 287.773 108.276 287.533 109.076C287.293 109.876 286.941 110.564 286.477 111.14C286.013 111.716 285.437 112.164 284.749 112.484C284.061 112.804 283.269 112.964 282.373 112.964C281.877 112.964 281.413 112.916 280.981 112.82C280.549 112.724 280.133 112.588 279.733 112.412V117.164H276.157V100.532C276.477 100.436 276.845 100.348 277.261 100.268C277.677 100.172 278.109 100.092 278.557 100.028C279.021 99.9636 279.485 99.9156 279.949 99.8836C280.429 99.8356 280.885 99.8116 281.317 99.8116C282.357 99.8116 283.285 99.9716 284.101 100.292C284.917 100.596 285.605 101.036 286.165 101.612C286.725 102.172 287.149 102.86 287.437 103.676C287.741 104.492 287.893 105.404 287.893 106.412ZM302.387 100.1V112.724H298.787C298.787 111.924 298.795 111.132 298.811 110.348C298.827 109.548 298.843 108.812 298.859 108.14C298.875 107.468 298.891 106.884 298.907 106.388C298.939 105.876 298.955 105.5 298.955 105.26C298.491 105.916 298.027 106.58 297.563 107.252C297.099 107.924 296.651 108.588 296.219 109.244C295.803 109.884 295.403 110.5 295.019 111.092C294.651 111.684 294.323 112.228 294.035 112.724H290.891V100.1H294.467C294.467 100.9 294.459 101.668 294.443 102.404C294.443 103.124 294.435 103.78 294.419 104.372C294.403 104.964 294.387 105.484 294.371 105.932C294.355 106.364 294.347 106.7 294.347 106.94C295.307 105.532 296.187 104.268 296.987 103.148C297.803 102.028 298.595 101.012 299.363 100.1H302.387ZM314.952 103.028H309.576V112.724H306V100.1H314.952V103.028ZM328.933 106.388C328.933 107.38 328.789 108.292 328.501 109.124C328.213 109.94 327.797 110.644 327.253 111.236C326.709 111.812 326.053 112.26 325.285 112.58C324.533 112.9 323.685 113.06 322.741 113.06C321.813 113.06 320.965 112.9 320.197 112.58C319.445 112.26 318.797 111.812 318.253 111.236C317.709 110.644 317.285 109.94 316.981 109.124C316.677 108.292 316.525 107.38 316.525 106.388C316.525 105.396 316.677 104.492 316.981 103.676C317.301 102.86 317.733 102.164 318.277 101.588C318.837 101.012 319.493 100.564 320.245 100.244C321.013 99.9236 321.845 99.7636 322.741 99.7636C323.653 99.7636 324.485 99.9236 325.237 100.244C326.005 100.564 326.661 101.012 327.205 101.588C327.749 102.164 328.173 102.86 328.477 103.676C328.781 104.492 328.933 105.396 328.933 106.388ZM325.285 106.388C325.285 105.284 325.061 104.42 324.613 103.796C324.181 103.156 323.557 102.836 322.741 102.836C321.925 102.836 321.293 103.156 320.845 103.796C320.397 104.42 320.173 105.284 320.173 106.388C320.173 107.492 320.397 108.372 320.845 109.028C321.293 109.668 321.925 109.988 322.741 109.988C323.557 109.988 324.181 109.668 324.613 109.028C325.061 108.372 325.285 107.492 325.285 106.388ZM342.393 103.028H338.361V112.724H334.785V103.028H330.753V100.1H342.393V103.028ZM356.621 106.388C356.621 107.38 356.477 108.292 356.189 109.124C355.901 109.94 355.485 110.644 354.941 111.236C354.397 111.812 353.741 112.26 352.973 112.58C352.221 112.9 351.373 113.06 350.429 113.06C349.501 113.06 348.653 112.9 347.885 112.58C347.133 112.26 346.485 111.812 345.941 111.236C345.397 110.644 344.973 109.94 344.669 109.124C344.365 108.292 344.213 107.38 344.213 106.388C344.213 105.396 344.365 104.492 344.669 103.676C344.989 102.86 345.421 102.164 345.965 101.588C346.525 101.012 347.181 100.564 347.933 100.244C348.701 99.9236 349.533 99.7636 350.429 99.7636C351.341 99.7636 352.173 99.9236 352.925 100.244C353.693 100.564 354.349 101.012 354.893 101.588C355.437 102.164 355.861 102.86 356.165 103.676C356.469 104.492 356.621 105.396 356.621 106.388ZM352.973 106.388C352.973 105.284 352.749 104.42 352.301 103.796C351.869 103.156 351.245 102.836 350.429 102.836C349.613 102.836 348.981 103.156 348.533 103.796C348.085 104.42 347.861 105.284 347.861 106.388C347.861 107.492 348.085 108.372 348.533 109.028C348.981 109.668 349.613 109.988 350.429 109.988C351.245 109.988 351.869 109.668 352.301 109.028C352.749 108.372 352.973 107.492 352.973 106.388ZM363.217 110.084C363.441 110.116 363.737 110.148 364.105 110.18C364.489 110.196 364.841 110.204 365.161 110.204C365.961 110.204 366.585 110.108 367.033 109.916C367.481 109.708 367.705 109.34 367.705 108.812C367.705 108.3 367.497 107.948 367.081 107.756C366.681 107.548 366.089 107.444 365.305 107.444H363.217V110.084ZM365.233 105.044C365.825 105.044 366.305 104.972 366.673 104.828C367.041 104.668 367.225 104.332 367.225 103.82C367.225 103.34 367.017 103.012 366.601 102.836C366.185 102.66 365.641 102.572 364.969 102.572C364.745 102.572 364.449 102.588 364.081 102.62C363.729 102.636 363.441 102.66 363.217 102.692V105.044H365.233ZM365.113 112.964C364.665 112.964 364.185 112.948 363.673 112.916C363.161 112.884 362.657 112.836 362.161 112.772C361.665 112.724 361.193 112.668 360.745 112.604C360.313 112.524 359.945 112.452 359.641 112.388V100.292C359.945 100.228 360.313 100.172 360.745 100.124C361.193 100.06 361.665 100.004 362.161 99.9556C362.657 99.9076 363.161 99.8756 363.673 99.8596C364.185 99.8276 364.665 99.8116 365.113 99.8116C366.153 99.8116 367.025 99.9156 367.729 100.124C368.449 100.332 369.025 100.604 369.457 100.94C369.905 101.276 370.225 101.652 370.417 102.068C370.609 102.484 370.705 102.9 370.705 103.316C370.705 103.876 370.569 104.388 370.297 104.852C370.025 105.316 369.681 105.652 369.265 105.86C369.489 105.956 369.713 106.092 369.937 106.268C370.177 106.444 370.393 106.66 370.585 106.916C370.777 107.156 370.929 107.452 371.041 107.804C371.169 108.14 371.233 108.532 371.233 108.98C371.233 109.492 371.129 109.988 370.921 110.468C370.729 110.948 370.393 111.372 369.913 111.74C369.433 112.108 368.801 112.404 368.017 112.628C367.233 112.852 366.265 112.964 365.113 112.964ZM379.587 110.228C380.243 110.228 380.755 110.108 381.123 109.868C381.507 109.612 381.699 109.204 381.699 108.644C381.699 108.356 381.635 108.116 381.507 107.924C381.379 107.716 381.203 107.556 380.979 107.444C380.755 107.316 380.491 107.228 380.187 107.18C379.899 107.132 379.587 107.108 379.251 107.108C379.011 107.108 378.747 107.124 378.459 107.156C378.171 107.188 377.955 107.22 377.811 107.252V110.132C378.003 110.164 378.259 110.188 378.579 110.204C378.899 110.22 379.235 110.228 379.587 110.228ZM377.811 104.588C378.035 104.524 378.323 104.476 378.675 104.444C379.043 104.396 379.459 104.372 379.923 104.372C380.675 104.372 381.371 104.46 382.011 104.636C382.667 104.812 383.235 105.084 383.715 105.452C384.195 105.804 384.571 106.26 384.843 106.82C385.115 107.364 385.251 108.004 385.251 108.74C385.251 109.476 385.123 110.116 384.867 110.66C384.611 111.188 384.243 111.628 383.763 111.98C383.283 112.316 382.707 112.564 382.035 112.724C381.379 112.9 380.643 112.988 379.827 112.988C378.771 112.988 377.803 112.932 376.923 112.82C376.043 112.724 375.147 112.564 374.235 112.34V100.1H377.811V104.588ZM387.432 106.412C387.432 105.5 387.576 104.644 387.864 103.844C388.168 103.028 388.6 102.324 389.16 101.732C389.72 101.124 390.4 100.644 391.2 100.292C392 99.9396 392.912 99.7636 393.936 99.7636C394.608 99.7636 395.224 99.8276 395.784 99.9556C396.344 100.068 396.888 100.236 397.416 100.46L396.672 103.316C396.336 103.188 395.968 103.076 395.568 102.98C395.168 102.884 394.72 102.836 394.224 102.836C393.168 102.836 392.376 103.164 391.848 103.82C391.336 104.476 391.08 105.34 391.08 106.412C391.08 107.548 391.32 108.428 391.8 109.052C392.296 109.676 393.152 109.988 394.368 109.988C394.8 109.988 395.264 109.948 395.76 109.868C396.256 109.788 396.712 109.66 397.128 109.484L397.632 112.412C397.216 112.588 396.696 112.74 396.072 112.868C395.448 112.996 394.76 113.06 394.008 113.06C392.856 113.06 391.864 112.892 391.032 112.556C390.2 112.204 389.512 111.732 388.968 111.14C388.44 110.548 388.048 109.852 387.792 109.052C387.552 108.236 387.432 107.356 387.432 106.412ZM405.514 108.236C405.002 108.988 404.546 109.748 404.146 110.516C403.746 111.268 403.362 112.004 402.994 112.724H399.322C399.786 111.684 400.258 110.732 400.738 109.868C401.218 109.004 401.682 108.26 402.13 107.636C401.458 107.284 400.922 106.836 400.522 106.292C400.122 105.732 399.922 105.036 399.922 104.204C399.922 102.796 400.426 101.716 401.434 100.964C402.458 100.212 403.866 99.8356 405.658 99.8356C406.058 99.8356 406.498 99.8516 406.978 99.8836C407.474 99.9156 407.962 99.9636 408.442 100.028C408.922 100.092 409.378 100.164 409.81 100.244C410.258 100.308 410.634 100.38 410.938 100.46V112.724H407.362V108.236H405.514ZM407.362 102.668C407.202 102.652 406.954 102.636 406.618 102.62C406.282 102.588 405.994 102.572 405.754 102.572C404.874 102.572 404.274 102.724 403.954 103.028C403.634 103.316 403.474 103.692 403.474 104.156C403.474 104.444 403.538 104.692 403.666 104.9C403.794 105.092 403.962 105.252 404.17 105.38C404.378 105.492 404.61 105.572 404.866 105.62C405.122 105.668 405.378 105.692 405.634 105.692H407.362V102.668Z"-->
<!--          fill="white"/>-->
    <defs>
        <filter id="filter0_d_0_1" x="39.2114" y="0.778076" width="187.646" height="187.647"
                filterUnits="userSpaceOnUse" color-interpolation-filters="sRGB">
            <feFlood flood-opacity="0" result="BackgroundImageFix"/>
            <feColorMatrix in="SourceAlpha" type="matrix" values="0 0 0 0 0 0 0 0 0 0 0 0 0 0 0 0 0 0 127 0"
                           result="hardAlpha"/>
            <feOffset/>
            <feGaussianBlur stdDeviation="22"/>
            <feComposite in2="hardAlpha" operator="out"/>
            <feColorMatrix type="matrix" values="0 0 0 0 1 0 0 0 0 0.862745 0 0 0 0 0.482353 0 0 0 1 0"/>
            <feBlend mode="normal" in2="BackgroundImageFix" result="effect1_dropShadow_0_1"/>
            <feBlend mode="normal" in="SourceGraphic" in2="effect1_dropShadow_0_1" result="shape"/>
        </filter>
        <filter id="filter1_f_0_1" x="209.2" y="2.7" width="305.1" height="177.6" filterUnits="userSpaceOnUse"
                color-interpolation-filters="sRGB">
            <feFlood flood-opacity="0" result="BackgroundImageFix"/>
            <feBlend mode="normal" in="SourceGraphic" in2="BackgroundImageFix" result="shape"/>
            <feGaussianBlur stdDeviation="7.65" result="effect1_foregroundBlur_0_1"/>
        </filter>
        <linearGradient id="paint0_linear_0_1" x1="209" y1="86.8416" x2="483" y2="86.8415"
                        gradientUnits="userSpaceOnUse">
            <stop stop-color="#FFDC7B"/>
            <stop offset="1" stop-color="#FFDC7B" stop-opacity="0"/>
        </linearGradient>
    </defs>
</svg>



